M48
; DRILL file {KiCad 7.0.1} date Fri Aug 25 15:29:08 2023
; FORMAT={-:-/ absolute / inch / decimal}
; #@! TF.CreationDate,2023-08-25T15:29:08+01:00
; #@! TF.GenerationSoftware,Kicad,Pcbnew,7.0.1
; #@! TF.FileFunction,Plated,1,2,PTH
FMAT,2
INCH
; #@! TA.AperFunction,Plated,PTH,ViaDrill
T1C0.0157
; #@! TA.AperFunction,Plated,PTH,ComponentDrill
T2C0.0315
; #@! TA.AperFunction,Plated,PTH,ComponentDrill
T3C0.0394
; #@! TA.AperFunction,Plated,PTH,ComponentDrill
T4C0.0433
%
G90
G05
T1
X3.775Y-2.3
X3.775Y-2.725
X3.825Y-1.925
X3.825Y-3.225
X3.975Y-2.975
X4.025Y-4.025
X4.1Y-1.5
X4.1Y-2.7
X4.15Y-1.65
X4.15Y-3.125
X4.175Y-2.175
X4.25Y-3.775
X4.3Y-1.975
X4.3Y-2.65
X4.3Y-2.95
X4.3Y-3.175
X4.3Y-3.4
X4.325Y-1.65
X4.325Y-2.475
X4.325Y-3.625
X4.325Y-3.925
X4.4215Y-3.1
X4.425Y-1.775
X4.425Y-3.175
X4.425Y-3.575
X4.425Y-3.925
X4.525Y-3.0
X4.525Y-3.575
X4.525Y-4.025
X4.625Y-1.95
X4.625Y-2.95
X4.625Y-3.575
X4.6278Y-2.0028
X4.725Y-1.975
X4.725Y-2.05
X4.725Y-3.575
X4.75Y-1.8965
X4.825Y-1.9535
X4.825Y-2.025
X4.825Y-3.025
X4.825Y-3.575
X4.925Y-3.575
X4.9465Y-1.9
X4.95Y-1.5
X5.025Y-1.9
X5.025Y-3.575
X5.075Y-1.925
X5.15Y-2.525
X5.15Y-3.4
X5.175Y-4.025
X5.2Y-2.325
X5.2Y-2.75
X5.2Y-2.9
X5.2Y-3.05
X5.2Y-3.875
X5.225Y-2.15
X5.225Y-2.2
X5.225Y-2.25
X5.2285Y-2.1
X5.25Y-3.2
X5.25Y-3.625
X5.275Y-1.925
X5.275Y-2.525
X5.35Y-1.825
X5.375Y-3.025
X5.375Y-3.575
X5.475Y-2.325
X5.475Y-3.025
X5.475Y-3.6
X5.6Y-3.65
X5.6Y-4.0
X5.625Y-3.075
X5.65Y-3.2
X5.675Y-3.1
X5.7Y-3.375
X5.75Y-3.875
X5.775Y-2.1
X5.775Y-3.7
X5.875Y-4.025
X5.975Y-1.5
X5.975Y-2.1
X6.075Y-3.65
X6.125Y-2.925
X6.15Y-3.9
X6.2Y-3.675
X6.2785Y-2.575
X6.325Y-2.55
X6.325Y-3.0
X6.325Y-3.1
X6.375Y-2.0
X6.375Y-2.35
X6.375Y-2.9
X6.4Y-1.825
X6.425Y-3.1
X6.425Y-4.025
X6.45Y-2.425
X6.55Y-1.6
X6.65Y-2.775
X6.825Y-4.025
X6.9Y-2.4016
X6.9685Y-2.4409
X6.975Y-1.975
X6.975Y-2.25
X7.0079Y-2.6378
X7.025Y-3.625
X7.1Y-3.075
X7.1Y-3.225
X7.1Y-3.95
X7.125Y-3.475
X7.15Y-1.6
X7.15Y-2.175
X7.15Y-2.625
X7.175Y-1.875
X7.25Y-1.825
X7.275Y-1.5
X7.275Y-3.425
X7.275Y-4.025
X7.3Y-1.85
X7.35Y-1.875
X7.375Y-2.0
X7.375Y-3.0
X7.4Y-1.9
X7.45Y-1.925
X7.475Y-1.975
X7.475Y-3.025
X7.575Y-1.975
X7.575Y-3.05
X7.675Y-1.975
X7.675Y-2.05
X7.675Y-3.05
X7.675Y-3.25
X7.675Y-3.425
X7.675Y-4.025
X7.725Y-1.925
X7.775Y-1.9
X7.775Y-2.9535
X7.775Y-3.05
X7.825Y-1.875
X7.85Y-1.625
X7.875Y-1.85
X7.875Y-2.925
X7.875Y-3.65
X7.925Y-1.825
X7.975Y-1.7
X7.975Y-2.85
X7.975Y-2.95
X7.975Y-3.025
X7.975Y-3.1
X8.025Y-1.525
X8.025Y-3.325
X8.05Y-3.9
X8.075Y-1.975
X8.075Y-3.6
X8.1Y-3.125
X8.125Y-2.7
X8.175Y-1.875
X8.175Y-2.275
X8.175Y-4.0
X8.2Y-3.2
X8.2Y-3.75
X8.225Y-1.7
X8.225Y-3.425
X8.25Y-2.5
X8.25Y-2.975
X8.25Y-3.6
X8.4Y-2.075
X8.425Y-2.75
X8.475Y-3.575
X8.525Y-3.125
X8.55Y-2.45
T2
X4.375Y-2.4
X4.375Y-2.7
X4.375Y-3.475
X4.375Y-3.775
X4.475Y-2.4
X4.475Y-2.7
X4.475Y-3.475
X4.475Y-3.775
X4.575Y-2.4
X4.575Y-2.7
X4.575Y-3.475
X4.575Y-3.775
X4.675Y-2.4
X4.675Y-2.7
X4.675Y-3.475
X4.675Y-3.775
X4.775Y-2.4
X4.775Y-2.7
X4.775Y-3.475
X4.775Y-3.775
X4.875Y-2.4
X4.875Y-2.7
X4.875Y-3.475
X4.875Y-3.775
X4.975Y-2.4
X4.975Y-2.7
X4.975Y-3.475
X4.975Y-3.775
X5.075Y-2.4
X5.075Y-2.7
X5.075Y-3.475
X5.075Y-3.775
X5.3246Y-2.3983
X5.3246Y-2.6983
X5.325Y-3.475
X5.325Y-3.775
X5.4246Y-2.3983
X5.4246Y-2.6983
X5.425Y-3.475
X5.425Y-3.775
X5.5246Y-2.3983
X5.5246Y-2.6983
X5.525Y-3.475
X5.525Y-3.775
X5.6246Y-2.3983
X5.6246Y-2.6983
X5.625Y-3.475
X5.625Y-3.775
X5.7246Y-2.3983
X5.7246Y-2.6983
X5.725Y-3.475
X5.725Y-3.775
X5.8246Y-2.3983
X5.8246Y-2.6983
X5.825Y-3.475
X5.825Y-3.775
X5.9246Y-2.3983
X5.9246Y-2.6983
X5.925Y-3.475
X5.925Y-3.775
X6.0246Y-2.3983
X6.0246Y-2.6983
X6.025Y-3.475
X6.025Y-3.775
X6.275Y-3.4733
X6.275Y-3.7733
X6.375Y-3.4733
X6.375Y-3.7733
X6.475Y-3.4733
X6.475Y-3.7733
X6.575Y-3.4733
X6.575Y-3.7733
X6.675Y-3.4733
X6.675Y-3.7733
X6.775Y-3.4733
X6.775Y-3.7733
X6.875Y-3.4733
X6.875Y-3.7733
X6.975Y-3.4733
X6.975Y-3.7733
X7.225Y-2.4
X7.225Y-2.7
X7.225Y-3.475
X7.225Y-3.775
X7.325Y-2.4
X7.325Y-2.7
X7.325Y-3.475
X7.325Y-3.775
X7.425Y-2.4
X7.425Y-2.7
X7.425Y-3.475
X7.425Y-3.775
X7.525Y-2.4
X7.525Y-2.7
X7.525Y-3.475
X7.525Y-3.775
X7.625Y-2.4
X7.625Y-2.7
X7.625Y-3.475
X7.625Y-3.775
X7.725Y-2.4
X7.725Y-2.7
X7.725Y-3.475
X7.725Y-3.775
X7.825Y-2.4
X7.825Y-2.7
X7.825Y-3.475
X7.825Y-3.775
X7.925Y-2.4
X7.925Y-2.7
X7.925Y-3.475
X7.925Y-3.775
T3
X4.6Y-1.65
X4.6Y-1.75
X4.7Y-1.65
X4.7Y-1.75
X4.8Y-1.65
X4.8Y-1.75
X4.9Y-1.65
X4.9Y-1.75
X5.0Y-1.65
X5.0Y-1.75
X5.1Y-1.65
X5.1Y-1.75
X5.2Y-1.65
X5.2Y-1.75
X5.3Y-1.65
X5.3Y-1.75
X5.4Y-1.65
X5.4Y-1.75
X5.5Y-1.65
X5.5Y-1.75
X5.6Y-1.65
X5.6Y-1.75
X5.7Y-1.65
X5.7Y-1.75
X5.8Y-1.65
X5.8Y-1.75
X5.9Y-1.65
X5.9Y-1.75
X6.0Y-1.65
X6.0Y-1.75
X6.1Y-1.65
X6.1Y-1.75
X6.2Y-1.65
X6.2Y-1.75
X6.3Y-1.65
X6.3Y-1.75
X6.4Y-1.65
X6.4Y-1.75
X6.5Y-1.65
X6.5Y-1.75
X6.6Y-1.65
X6.6Y-1.75
X6.7Y-1.65
X6.7Y-1.75
X6.8Y-1.65
X6.8Y-1.75
X6.9Y-1.65
X6.9Y-1.75
X7.0Y-1.65
X7.0Y-1.75
X7.1Y-1.65
X7.1Y-1.75
X7.2Y-1.65
X7.2Y-1.75
X7.3Y-1.65
X7.3Y-1.75
X7.4Y-1.65
X7.4Y-1.75
X7.5Y-1.65
X7.5Y-1.75
X7.6Y-1.65
X7.6Y-1.75
X7.7Y-1.65
X7.7Y-1.75
X8.5039Y-1.8898
X8.5039Y-1.9898
T4
X3.897Y-2.4114
X3.897Y-2.5886
X3.897Y-3.4864
X3.897Y-3.6636
X4.153Y-2.4114
X4.153Y-2.5886
X4.153Y-3.4864
X4.153Y-3.6636
X8.147Y-2.4114
X8.147Y-2.5886
X8.147Y-3.4864
X8.147Y-3.6636
X8.403Y-2.4114
X8.403Y-2.5886
X8.403Y-3.4864
X8.403Y-3.6636
T0
M30
