%TF.GenerationSoftware,KiCad,Pcbnew,7.0.1*%
%TF.CreationDate,2023-08-25T15:29:08+01:00*%
%TF.ProjectId,Control_panel,436f6e74-726f-46c5-9f70-616e656c2e6b,rev?*%
%TF.SameCoordinates,Original*%
%TF.FileFunction,Paste,Top*%
%TF.FilePolarity,Positive*%
%FSLAX46Y46*%
G04 Gerber Fmt 4.6, Leading zero omitted, Abs format (unit mm)*
G04 Created by KiCad (PCBNEW 7.0.1) date 2023-08-25 15:29:08*
%MOMM*%
%LPD*%
G01*
G04 APERTURE LIST*
G04 Aperture macros list*
%AMRoundRect*
0 Rectangle with rounded corners*
0 $1 Rounding radius*
0 $2 $3 $4 $5 $6 $7 $8 $9 X,Y pos of 4 corners*
0 Add a 4 corners polygon primitive as box body*
4,1,4,$2,$3,$4,$5,$6,$7,$8,$9,$2,$3,0*
0 Add four circle primitives for the rounded corners*
1,1,$1+$1,$2,$3*
1,1,$1+$1,$4,$5*
1,1,$1+$1,$6,$7*
1,1,$1+$1,$8,$9*
0 Add four rect primitives between the rounded corners*
20,1,$1+$1,$2,$3,$4,$5,0*
20,1,$1+$1,$4,$5,$6,$7,0*
20,1,$1+$1,$6,$7,$8,$9,0*
20,1,$1+$1,$8,$9,$2,$3,0*%
G04 Aperture macros list end*
%ADD10RoundRect,0.237500X0.237500X-0.287500X0.237500X0.287500X-0.237500X0.287500X-0.237500X-0.287500X0*%
%ADD11RoundRect,0.237500X-0.237500X0.287500X-0.237500X-0.287500X0.237500X-0.287500X0.237500X0.287500X0*%
%ADD12RoundRect,0.237500X0.237500X-0.250000X0.237500X0.250000X-0.237500X0.250000X-0.237500X-0.250000X0*%
%ADD13RoundRect,0.237500X-0.237500X0.250000X-0.237500X-0.250000X0.237500X-0.250000X0.237500X0.250000X0*%
G04 APERTURE END LIST*
D10*
%TO.C,D38*%
X126365000Y-81520000D03*
X126365000Y-79770000D03*
%TD*%
D11*
%TO.C,D6*%
X210185000Y-79770000D03*
X210185000Y-81520000D03*
%TD*%
D12*
%TO.C,R119*%
X183515000Y-100607500D03*
X183515000Y-98782500D03*
%TD*%
%TO.C,R1*%
X102235000Y-85367500D03*
X102235000Y-83542500D03*
%TD*%
D10*
%TO.C,D5*%
X166370000Y-54215000D03*
X166370000Y-52465000D03*
%TD*%
D12*
%TO.C,R94*%
X167005000Y-100565000D03*
X167005000Y-98740000D03*
%TD*%
%TO.C,R103*%
X188595000Y-100607500D03*
X188595000Y-98782500D03*
%TD*%
D13*
%TO.C,R68*%
X126365000Y-83542500D03*
X126365000Y-85367500D03*
%TD*%
%TO.C,R105*%
X137795000Y-83542500D03*
X137795000Y-85367500D03*
%TD*%
D12*
%TO.C,R65*%
X153035000Y-100607500D03*
X153035000Y-98782500D03*
%TD*%
D11*
%TO.C,D17*%
X147955000Y-52465000D03*
X147955000Y-54215000D03*
%TD*%
D13*
%TO.C,R26*%
X196215000Y-56237500D03*
X196215000Y-58062500D03*
%TD*%
D12*
%TO.C,R102*%
X164465000Y-100565000D03*
X164465000Y-98740000D03*
%TD*%
D13*
%TO.C,R114*%
X159385000Y-83542500D03*
X159385000Y-85367500D03*
%TD*%
%TO.C,R56*%
X183515000Y-56237500D03*
X183515000Y-58062500D03*
%TD*%
%TO.C,R115*%
X183515000Y-83542500D03*
X183515000Y-85367500D03*
%TD*%
%TO.C,R61*%
X153035000Y-83542500D03*
X153035000Y-85367500D03*
%TD*%
D12*
%TO.C,R109*%
X137795000Y-100607500D03*
X137795000Y-98782500D03*
%TD*%
D11*
%TO.C,D11*%
X153035000Y-52465000D03*
X153035000Y-54215000D03*
%TD*%
D10*
%TO.C,D42*%
X123825000Y-81520000D03*
X123825000Y-79770000D03*
%TD*%
D11*
%TO.C,D40*%
X174625000Y-79770000D03*
X174625000Y-81520000D03*
%TD*%
D12*
%TO.C,R58*%
X135255000Y-73302500D03*
X135255000Y-71477500D03*
%TD*%
D13*
%TO.C,R71*%
X198755000Y-83542500D03*
X198755000Y-85367500D03*
%TD*%
%TO.C,R113*%
X135255000Y-83542500D03*
X135255000Y-85367500D03*
%TD*%
D12*
%TO.C,R101*%
X140335000Y-100607500D03*
X140335000Y-98782500D03*
%TD*%
D13*
%TO.C,R7*%
X210185000Y-83542500D03*
X210185000Y-85367500D03*
%TD*%
D11*
%TO.C,D15*%
X198755000Y-52465000D03*
X198755000Y-54215000D03*
%TD*%
%TO.C,D23*%
X142875000Y-52465000D03*
X142875000Y-54215000D03*
%TD*%
D10*
%TO.C,D37*%
X201295000Y-81520000D03*
X201295000Y-79770000D03*
%TD*%
D11*
%TO.C,D47*%
X169545000Y-79770000D03*
X169545000Y-81520000D03*
%TD*%
D13*
%TO.C,R91*%
X167005000Y-83542500D03*
X167005000Y-85367500D03*
%TD*%
D12*
%TO.C,R35*%
X193548000Y-73302500D03*
X193548000Y-71477500D03*
%TD*%
%TO.C,R100*%
X116205000Y-100607500D03*
X116205000Y-98782500D03*
%TD*%
D13*
%TO.C,R112*%
X111125000Y-83542500D03*
X111125000Y-85367500D03*
%TD*%
%TO.C,R76*%
X123825000Y-83542500D03*
X123825000Y-85367500D03*
%TD*%
%TO.C,R49*%
X137795000Y-56237500D03*
X137795000Y-58062500D03*
%TD*%
D10*
%TO.C,D7*%
X163830000Y-54215000D03*
X163830000Y-52465000D03*
%TD*%
D12*
%TO.C,R39*%
X118745000Y-73302500D03*
X118745000Y-71477500D03*
%TD*%
D11*
%TO.C,D54*%
X164465000Y-79770000D03*
X164465000Y-81520000D03*
%TD*%
D10*
%TO.C,D61*%
X135255000Y-81520000D03*
X135255000Y-79770000D03*
%TD*%
D13*
%TO.C,R43*%
X140335000Y-56237500D03*
X140335000Y-58062500D03*
%TD*%
D12*
%TO.C,R59*%
X183515000Y-73302500D03*
X183515000Y-71477500D03*
%TD*%
%TO.C,R2*%
X171450000Y-58062500D03*
X171450000Y-56237500D03*
%TD*%
%TO.C,R46*%
X140335000Y-73302500D03*
X140335000Y-71477500D03*
%TD*%
D13*
%TO.C,R42*%
X116205000Y-56237500D03*
X116205000Y-58062500D03*
%TD*%
%TO.C,R8*%
X208280000Y-83542500D03*
X208280000Y-85367500D03*
%TD*%
D11*
%TO.C,D33*%
X183515000Y-52465000D03*
X183515000Y-54215000D03*
%TD*%
D13*
%TO.C,R107*%
X186055000Y-83542500D03*
X186055000Y-85367500D03*
%TD*%
D11*
%TO.C,D32*%
X135255000Y-52465000D03*
X135255000Y-54215000D03*
%TD*%
%TO.C,D18*%
X196215000Y-52465000D03*
X196215000Y-54215000D03*
%TD*%
D13*
%TO.C,R78*%
X172085000Y-83542500D03*
X172085000Y-85367500D03*
%TD*%
D12*
%TO.C,R89*%
X193675000Y-100607500D03*
X193675000Y-98782500D03*
%TD*%
D11*
%TO.C,D30*%
X186055000Y-52465000D03*
X186055000Y-54215000D03*
%TD*%
%TO.C,D48*%
X193675000Y-79770000D03*
X193675000Y-81520000D03*
%TD*%
D13*
%TO.C,R50*%
X186055000Y-56237500D03*
X186055000Y-58062500D03*
%TD*%
%TO.C,R48*%
X113665000Y-56237500D03*
X113665000Y-58062500D03*
%TD*%
D11*
%TO.C,D26*%
X140335000Y-52465000D03*
X140335000Y-54215000D03*
%TD*%
D12*
%TO.C,R57*%
X111125000Y-73302500D03*
X111125000Y-71477500D03*
%TD*%
D11*
%TO.C,D13*%
X126365000Y-52465000D03*
X126365000Y-54215000D03*
%TD*%
D13*
%TO.C,R36*%
X118745000Y-56237500D03*
X118745000Y-58062500D03*
%TD*%
%TO.C,R97*%
X140335000Y-83542500D03*
X140335000Y-85367500D03*
%TD*%
D12*
%TO.C,R81*%
X147955000Y-100607500D03*
X147955000Y-98782500D03*
%TD*%
D11*
%TO.C,D21*%
X193675000Y-52465000D03*
X193675000Y-54215000D03*
%TD*%
%TO.C,D44*%
X172085000Y-79770000D03*
X172085000Y-81520000D03*
%TD*%
D12*
%TO.C,R29*%
X196215000Y-73302500D03*
X196215000Y-71477500D03*
%TD*%
D11*
%TO.C,D62*%
X159385000Y-79770000D03*
X159385000Y-81520000D03*
%TD*%
D12*
%TO.C,R9*%
X163830000Y-58062500D03*
X163830000Y-56237500D03*
%TD*%
D13*
%TO.C,R19*%
X150495000Y-56237500D03*
X150495000Y-58062500D03*
%TD*%
%TO.C,R98*%
X164465000Y-83542500D03*
X164465000Y-85367500D03*
%TD*%
D12*
%TO.C,R40*%
X142875000Y-73302500D03*
X142875000Y-71477500D03*
%TD*%
D13*
%TO.C,R38*%
X191135000Y-56237500D03*
X191135000Y-58062500D03*
%TD*%
%TO.C,R25*%
X147955000Y-56237500D03*
X147955000Y-58062500D03*
%TD*%
%TO.C,R85*%
X169545000Y-83542500D03*
X169545000Y-85367500D03*
%TD*%
D11*
%TO.C,D10*%
X128905000Y-52465000D03*
X128905000Y-54215000D03*
%TD*%
%TO.C,D27*%
X188595000Y-52465000D03*
X188595000Y-54215000D03*
%TD*%
%TO.C,D20*%
X145415000Y-52465000D03*
X145415000Y-54215000D03*
%TD*%
D13*
%TO.C,R12*%
X128905000Y-56237500D03*
X128905000Y-58062500D03*
%TD*%
D10*
%TO.C,D3*%
X168910000Y-54215000D03*
X168910000Y-52465000D03*
%TD*%
D13*
%TO.C,R10*%
X102235000Y-56237500D03*
X102235000Y-58062500D03*
%TD*%
D12*
%TO.C,R87*%
X121285000Y-100607500D03*
X121285000Y-98782500D03*
%TD*%
D13*
%TO.C,R106*%
X161925000Y-83542500D03*
X161925000Y-85367500D03*
%TD*%
%TO.C,R30*%
X121285000Y-56237500D03*
X121285000Y-58062500D03*
%TD*%
D12*
%TO.C,R17*%
X201295000Y-73302500D03*
X201295000Y-71477500D03*
%TD*%
D13*
%TO.C,R54*%
X111125000Y-56237500D03*
X111125000Y-58062500D03*
%TD*%
D12*
%TO.C,R51*%
X113665000Y-73302500D03*
X113665000Y-71477500D03*
%TD*%
D11*
%TO.C,D19*%
X121285000Y-52465000D03*
X121285000Y-54215000D03*
%TD*%
%TO.C,D39*%
X150495000Y-79770000D03*
X150495000Y-81520000D03*
%TD*%
%TO.C,D8*%
X102235000Y-52465000D03*
X102235000Y-54215000D03*
%TD*%
D12*
%TO.C,R118*%
X159385000Y-100565000D03*
X159385000Y-98740000D03*
%TD*%
%TO.C,R75*%
X198755000Y-100607500D03*
X198755000Y-98782500D03*
%TD*%
D11*
%TO.C,D63*%
X183515000Y-79770000D03*
X183515000Y-81520000D03*
%TD*%
D13*
%TO.C,R31*%
X145415000Y-56237500D03*
X145415000Y-58062500D03*
%TD*%
%TO.C,R92*%
X191135000Y-83542500D03*
X191135000Y-85367500D03*
%TD*%
%TO.C,R11*%
X210185000Y-56237500D03*
X210185000Y-58062500D03*
%TD*%
%TO.C,R32*%
X193675000Y-56237500D03*
X193675000Y-58062500D03*
%TD*%
D11*
%TO.C,D35*%
X153035000Y-79770000D03*
X153035000Y-81520000D03*
%TD*%
D12*
%TO.C,R22*%
X150495000Y-73302500D03*
X150495000Y-71477500D03*
%TD*%
D11*
%TO.C,D28*%
X113665000Y-52465000D03*
X113665000Y-54215000D03*
%TD*%
%TO.C,D58*%
X161925000Y-79770000D03*
X161925000Y-81520000D03*
%TD*%
D12*
%TO.C,R4*%
X168910000Y-58062500D03*
X168910000Y-56237500D03*
%TD*%
D10*
%TO.C,D2*%
X171450000Y-54215000D03*
X171450000Y-52465000D03*
%TD*%
D12*
%TO.C,R73*%
X150495000Y-100607500D03*
X150495000Y-98782500D03*
%TD*%
D11*
%TO.C,D55*%
X188595000Y-79770000D03*
X188595000Y-81520000D03*
%TD*%
D13*
%TO.C,R60*%
X128905000Y-83542500D03*
X128905000Y-85367500D03*
%TD*%
D11*
%TO.C,D50*%
X167005000Y-79770000D03*
X167005000Y-81520000D03*
%TD*%
D12*
%TO.C,R16*%
X153035000Y-73302500D03*
X153035000Y-71477500D03*
%TD*%
D13*
%TO.C,R99*%
X188595000Y-83542500D03*
X188595000Y-85367500D03*
%TD*%
D11*
%TO.C,D43*%
X147955000Y-79770000D03*
X147955000Y-81520000D03*
%TD*%
D13*
%TO.C,R96*%
X116205000Y-83542500D03*
X116205000Y-85367500D03*
%TD*%
D11*
%TO.C,D22*%
X118745000Y-52465000D03*
X118745000Y-54215000D03*
%TD*%
D12*
%TO.C,R34*%
X145415000Y-73302500D03*
X145415000Y-71477500D03*
%TD*%
D13*
%TO.C,R63*%
X201295000Y-83542500D03*
X201295000Y-85367500D03*
%TD*%
D10*
%TO.C,D52*%
X116205000Y-81520000D03*
X116205000Y-79770000D03*
%TD*%
D13*
%TO.C,R14*%
X201295000Y-56237500D03*
X201295000Y-58062500D03*
%TD*%
D10*
%TO.C,D49*%
X118745000Y-81520000D03*
X118745000Y-79770000D03*
%TD*%
D13*
%TO.C,R86*%
X193675000Y-83542500D03*
X193675000Y-85367500D03*
%TD*%
%TO.C,R37*%
X142875000Y-56237500D03*
X142875000Y-58062500D03*
%TD*%
%TO.C,R104*%
X113665000Y-83542500D03*
X113665000Y-85367500D03*
%TD*%
D12*
%TO.C,R80*%
X123825000Y-100607500D03*
X123825000Y-98782500D03*
%TD*%
%TO.C,R23*%
X198755000Y-73302500D03*
X198755000Y-71477500D03*
%TD*%
%TO.C,R111*%
X186055000Y-100607500D03*
X186055000Y-98782500D03*
%TD*%
D11*
%TO.C,D59*%
X186055000Y-79770000D03*
X186055000Y-81520000D03*
%TD*%
D12*
%TO.C,R74*%
X174625000Y-100565000D03*
X174625000Y-98740000D03*
%TD*%
%TO.C,R110*%
X161925000Y-100565000D03*
X161925000Y-98740000D03*
%TD*%
D11*
%TO.C,D25*%
X116205000Y-52465000D03*
X116205000Y-54215000D03*
%TD*%
D13*
%TO.C,R13*%
X153035000Y-56237500D03*
X153035000Y-58062500D03*
%TD*%
D11*
%TO.C,D12*%
X201295000Y-52465000D03*
X201295000Y-54215000D03*
%TD*%
D12*
%TO.C,R52*%
X137795000Y-73302500D03*
X137795000Y-71477500D03*
%TD*%
%TO.C,R116*%
X111125000Y-100607500D03*
X111125000Y-98782500D03*
%TD*%
D10*
%TO.C,D57*%
X137795000Y-81520000D03*
X137795000Y-79770000D03*
%TD*%
D13*
%TO.C,R44*%
X188595000Y-56237500D03*
X188595000Y-58062500D03*
%TD*%
D11*
%TO.C,D36*%
X177165000Y-79770000D03*
X177165000Y-81520000D03*
%TD*%
D13*
%TO.C,R24*%
X123825000Y-56237500D03*
X123825000Y-58062500D03*
%TD*%
D12*
%TO.C,R3*%
X104140000Y-85367500D03*
X104140000Y-83542500D03*
%TD*%
%TO.C,R47*%
X188595000Y-73302500D03*
X188595000Y-71477500D03*
%TD*%
%TO.C,R33*%
X121285000Y-73302500D03*
X121285000Y-71477500D03*
%TD*%
%TO.C,R27*%
X123825000Y-73302500D03*
X123825000Y-71477500D03*
%TD*%
D10*
%TO.C,D34*%
X128905000Y-81520000D03*
X128905000Y-79770000D03*
%TD*%
D12*
%TO.C,R82*%
X172085000Y-100565000D03*
X172085000Y-98740000D03*
%TD*%
D13*
%TO.C,R79*%
X196215000Y-83542500D03*
X196215000Y-85367500D03*
%TD*%
D11*
%TO.C,D16*%
X123825000Y-52465000D03*
X123825000Y-54215000D03*
%TD*%
D13*
%TO.C,R55*%
X135255000Y-56237500D03*
X135255000Y-58062500D03*
%TD*%
D11*
%TO.C,D51*%
X191135000Y-79770000D03*
X191135000Y-81520000D03*
%TD*%
D10*
%TO.C,D56*%
X113665000Y-81520000D03*
X113665000Y-79770000D03*
%TD*%
D11*
%TO.C,D29*%
X137795000Y-52465000D03*
X137795000Y-54215000D03*
%TD*%
D13*
%TO.C,R77*%
X147955000Y-83542500D03*
X147955000Y-85367500D03*
%TD*%
%TO.C,R18*%
X126365000Y-56237500D03*
X126365000Y-58062500D03*
%TD*%
D12*
%TO.C,R117*%
X135255000Y-100607500D03*
X135255000Y-98782500D03*
%TD*%
D13*
%TO.C,R84*%
X121285000Y-83542500D03*
X121285000Y-85367500D03*
%TD*%
%TO.C,R90*%
X118745000Y-83542500D03*
X118745000Y-85367500D03*
%TD*%
D12*
%TO.C,R93*%
X118745000Y-100607500D03*
X118745000Y-98782500D03*
%TD*%
D13*
%TO.C,R69*%
X150495000Y-83542500D03*
X150495000Y-85367500D03*
%TD*%
%TO.C,R62*%
X177165000Y-83542500D03*
X177165000Y-85367500D03*
%TD*%
D11*
%TO.C,D24*%
X191135000Y-52465000D03*
X191135000Y-54215000D03*
%TD*%
D12*
%TO.C,R95*%
X191135000Y-100607500D03*
X191135000Y-98782500D03*
%TD*%
%TO.C,R15*%
X128905000Y-73302500D03*
X128905000Y-71477500D03*
%TD*%
D11*
%TO.C,D41*%
X198755000Y-79770000D03*
X198755000Y-81520000D03*
%TD*%
D12*
%TO.C,R67*%
X201295000Y-100607500D03*
X201295000Y-98782500D03*
%TD*%
%TO.C,R64*%
X128905000Y-100607500D03*
X128905000Y-98782500D03*
%TD*%
%TO.C,R41*%
X191135000Y-73302500D03*
X191135000Y-71477500D03*
%TD*%
D10*
%TO.C,D53*%
X140335000Y-81520000D03*
X140335000Y-79770000D03*
%TD*%
D12*
%TO.C,R83*%
X196215000Y-100607500D03*
X196215000Y-98782500D03*
%TD*%
D10*
%TO.C,D1*%
X102235000Y-81520000D03*
X102235000Y-79770000D03*
%TD*%
D13*
%TO.C,R20*%
X198755000Y-56237500D03*
X198755000Y-58062500D03*
%TD*%
D12*
%TO.C,R66*%
X177165000Y-100565000D03*
X177165000Y-98740000D03*
%TD*%
%TO.C,R6*%
X166370000Y-58062500D03*
X166370000Y-56237500D03*
%TD*%
D11*
%TO.C,D60*%
X111125000Y-79770000D03*
X111125000Y-81520000D03*
%TD*%
D12*
%TO.C,R28*%
X147955000Y-73302500D03*
X147955000Y-71477500D03*
%TD*%
%TO.C,R53*%
X186055000Y-73302500D03*
X186055000Y-71477500D03*
%TD*%
D13*
%TO.C,R70*%
X174625000Y-83542500D03*
X174625000Y-85367500D03*
%TD*%
D12*
%TO.C,R21*%
X126365000Y-73302500D03*
X126365000Y-71477500D03*
%TD*%
%TO.C,R88*%
X169545000Y-100565000D03*
X169545000Y-98740000D03*
%TD*%
D11*
%TO.C,D31*%
X111125000Y-52465000D03*
X111125000Y-54215000D03*
%TD*%
D12*
%TO.C,R72*%
X126365000Y-100607500D03*
X126365000Y-98782500D03*
%TD*%
D11*
%TO.C,D9*%
X210185000Y-52465000D03*
X210185000Y-54215000D03*
%TD*%
%TO.C,D45*%
X196215000Y-79770000D03*
X196215000Y-81520000D03*
%TD*%
D12*
%TO.C,R108*%
X113665000Y-100607500D03*
X113665000Y-98782500D03*
%TD*%
D10*
%TO.C,D46*%
X121285000Y-81520000D03*
X121285000Y-79770000D03*
%TD*%
D12*
%TO.C,R45*%
X116205000Y-73302500D03*
X116205000Y-71477500D03*
%TD*%
D11*
%TO.C,D14*%
X150495000Y-52465000D03*
X150495000Y-54215000D03*
%TD*%
M02*
