%TF.GenerationSoftware,KiCad,Pcbnew,7.0.1*%
%TF.CreationDate,2023-09-10T19:43:46+01:00*%
%TF.ProjectId,Bridge,42726964-6765-42e6-9b69-6361645f7063,rev?*%
%TF.SameCoordinates,Original*%
%TF.FileFunction,Soldermask,Bot*%
%TF.FilePolarity,Negative*%
%FSLAX46Y46*%
G04 Gerber Fmt 4.6, Leading zero omitted, Abs format (unit mm)*
G04 Created by KiCad (PCBNEW 7.0.1) date 2023-09-10 19:43:46*
%MOMM*%
%LPD*%
G01*
G04 APERTURE LIST*
%ADD10R,1.700000X1.700000*%
%ADD11O,1.700000X1.700000*%
G04 APERTURE END LIST*
D10*
%TO.C,J2*%
X143510000Y-57785000D03*
D11*
X143510000Y-60325000D03*
X140970000Y-57785000D03*
X140970000Y-60325000D03*
X138430000Y-57785000D03*
X138430000Y-60325000D03*
X135890000Y-57785000D03*
X135890000Y-60325000D03*
X133350000Y-57785000D03*
X133350000Y-60325000D03*
X130810000Y-57785000D03*
X130810000Y-60325000D03*
X128270000Y-57785000D03*
X128270000Y-60325000D03*
X125730000Y-57785000D03*
X125730000Y-60325000D03*
X123190000Y-57785000D03*
X123190000Y-60325000D03*
X120650000Y-57785000D03*
X120650000Y-60325000D03*
X118110000Y-57785000D03*
X118110000Y-60325000D03*
X115570000Y-57785000D03*
X115570000Y-60325000D03*
X113030000Y-57785000D03*
X113030000Y-60325000D03*
X110490000Y-57785000D03*
X110490000Y-60325000D03*
X107950000Y-57785000D03*
X107950000Y-60325000D03*
X105410000Y-57785000D03*
X105410000Y-60325000D03*
X102870000Y-57785000D03*
X102870000Y-60325000D03*
X100330000Y-57785000D03*
X100330000Y-60325000D03*
X97790000Y-57785000D03*
X97790000Y-60325000D03*
X95250000Y-57785000D03*
X95250000Y-60325000D03*
X92710000Y-57785000D03*
X92710000Y-60325000D03*
X90170000Y-57785000D03*
X90170000Y-60325000D03*
X87630000Y-57785000D03*
X87630000Y-60325000D03*
X85090000Y-57785000D03*
X85090000Y-60325000D03*
X82550000Y-57785000D03*
X82550000Y-60325000D03*
X80010000Y-57785000D03*
X80010000Y-60325000D03*
X77470000Y-57785000D03*
X77470000Y-60325000D03*
X74930000Y-57785000D03*
X74930000Y-60325000D03*
X72390000Y-57785000D03*
X72390000Y-60325000D03*
X69850000Y-57785000D03*
X69850000Y-60325000D03*
X67310000Y-57785000D03*
X67310000Y-60325000D03*
X64770000Y-57785000D03*
X64770000Y-60325000D03*
%TD*%
D10*
%TO.C,J1*%
X143510000Y-43180000D03*
D11*
X143510000Y-45720000D03*
X140970000Y-43180000D03*
X140970000Y-45720000D03*
X138430000Y-43180000D03*
X138430000Y-45720000D03*
X135890000Y-43180000D03*
X135890000Y-45720000D03*
X133350000Y-43180000D03*
X133350000Y-45720000D03*
X130810000Y-43180000D03*
X130810000Y-45720000D03*
X128270000Y-43180000D03*
X128270000Y-45720000D03*
X125730000Y-43180000D03*
X125730000Y-45720000D03*
X123190000Y-43180000D03*
X123190000Y-45720000D03*
X120650000Y-43180000D03*
X120650000Y-45720000D03*
X118110000Y-43180000D03*
X118110000Y-45720000D03*
X115570000Y-43180000D03*
X115570000Y-45720000D03*
X113030000Y-43180000D03*
X113030000Y-45720000D03*
X110490000Y-43180000D03*
X110490000Y-45720000D03*
X107950000Y-43180000D03*
X107950000Y-45720000D03*
X105410000Y-43180000D03*
X105410000Y-45720000D03*
X102870000Y-43180000D03*
X102870000Y-45720000D03*
X100330000Y-43180000D03*
X100330000Y-45720000D03*
X97790000Y-43180000D03*
X97790000Y-45720000D03*
X95250000Y-43180000D03*
X95250000Y-45720000D03*
X92710000Y-43180000D03*
X92710000Y-45720000D03*
X90170000Y-43180000D03*
X90170000Y-45720000D03*
X87630000Y-43180000D03*
X87630000Y-45720000D03*
X85090000Y-43180000D03*
X85090000Y-45720000D03*
X82550000Y-43180000D03*
X82550000Y-45720000D03*
X80010000Y-43180000D03*
X80010000Y-45720000D03*
X77470000Y-43180000D03*
X77470000Y-45720000D03*
X74930000Y-43180000D03*
X74930000Y-45720000D03*
X72390000Y-43180000D03*
X72390000Y-45720000D03*
X69850000Y-43180000D03*
X69850000Y-45720000D03*
X67310000Y-43180000D03*
X67310000Y-45720000D03*
X64770000Y-43180000D03*
X64770000Y-45720000D03*
%TD*%
M02*
