%TF.GenerationSoftware,KiCad,Pcbnew,7.0.1*%
%TF.CreationDate,2023-09-10T19:43:46+01:00*%
%TF.ProjectId,Bridge,42726964-6765-42e6-9b69-6361645f7063,rev?*%
%TF.SameCoordinates,Original*%
%TF.FileFunction,Legend,Bot*%
%TF.FilePolarity,Positive*%
%FSLAX46Y46*%
G04 Gerber Fmt 4.6, Leading zero omitted, Abs format (unit mm)*
G04 Created by KiCad (PCBNEW 7.0.1) date 2023-09-10 19:43:46*
%MOMM*%
%LPD*%
G01*
G04 APERTURE LIST*
%ADD10C,0.150000*%
%ADD11C,0.120000*%
%ADD12R,1.700000X1.700000*%
%ADD13O,1.700000X1.700000*%
G04 APERTURE END LIST*
D10*
X63440000Y-47050000D02*
X63440000Y-56455000D01*
X144840000Y-56455000D02*
X144840000Y-47050000D01*
X143875190Y-54757619D02*
X143875190Y-55471904D01*
X143875190Y-55471904D02*
X143922809Y-55614761D01*
X143922809Y-55614761D02*
X144018047Y-55710000D01*
X144018047Y-55710000D02*
X144160904Y-55757619D01*
X144160904Y-55757619D02*
X144256142Y-55757619D01*
X142922809Y-55757619D02*
X143398999Y-55757619D01*
X143398999Y-55757619D02*
X143398999Y-54757619D01*
X142018047Y-55662380D02*
X142065666Y-55710000D01*
X142065666Y-55710000D02*
X142208523Y-55757619D01*
X142208523Y-55757619D02*
X142303761Y-55757619D01*
X142303761Y-55757619D02*
X142446618Y-55710000D01*
X142446618Y-55710000D02*
X142541856Y-55614761D01*
X142541856Y-55614761D02*
X142589475Y-55519523D01*
X142589475Y-55519523D02*
X142637094Y-55329047D01*
X142637094Y-55329047D02*
X142637094Y-55186190D01*
X142637094Y-55186190D02*
X142589475Y-54995714D01*
X142589475Y-54995714D02*
X142541856Y-54900476D01*
X142541856Y-54900476D02*
X142446618Y-54805238D01*
X142446618Y-54805238D02*
X142303761Y-54757619D01*
X142303761Y-54757619D02*
X142208523Y-54757619D01*
X142208523Y-54757619D02*
X142065666Y-54805238D01*
X142065666Y-54805238D02*
X142018047Y-54852857D01*
X141303761Y-54757619D02*
X141303761Y-55471904D01*
X141303761Y-55471904D02*
X141351380Y-55614761D01*
X141351380Y-55614761D02*
X141446618Y-55710000D01*
X141446618Y-55710000D02*
X141589475Y-55757619D01*
X141589475Y-55757619D02*
X141684713Y-55757619D01*
X140351380Y-55757619D02*
X140827570Y-55757619D01*
X140827570Y-55757619D02*
X140827570Y-54757619D01*
X139446618Y-55662380D02*
X139494237Y-55710000D01*
X139494237Y-55710000D02*
X139637094Y-55757619D01*
X139637094Y-55757619D02*
X139732332Y-55757619D01*
X139732332Y-55757619D02*
X139875189Y-55710000D01*
X139875189Y-55710000D02*
X139970427Y-55614761D01*
X139970427Y-55614761D02*
X140018046Y-55519523D01*
X140018046Y-55519523D02*
X140065665Y-55329047D01*
X140065665Y-55329047D02*
X140065665Y-55186190D01*
X140065665Y-55186190D02*
X140018046Y-54995714D01*
X140018046Y-54995714D02*
X139970427Y-54900476D01*
X139970427Y-54900476D02*
X139875189Y-54805238D01*
X139875189Y-54805238D02*
X139732332Y-54757619D01*
X139732332Y-54757619D02*
X139637094Y-54757619D01*
X139637094Y-54757619D02*
X139494237Y-54805238D01*
X139494237Y-54805238D02*
X139446618Y-54852857D01*
X138732332Y-54757619D02*
X138732332Y-55471904D01*
X138732332Y-55471904D02*
X138779951Y-55614761D01*
X138779951Y-55614761D02*
X138875189Y-55710000D01*
X138875189Y-55710000D02*
X139018046Y-55757619D01*
X139018046Y-55757619D02*
X139113284Y-55757619D01*
X137779951Y-55757619D02*
X138256141Y-55757619D01*
X138256141Y-55757619D02*
X138256141Y-54757619D01*
X136875189Y-55662380D02*
X136922808Y-55710000D01*
X136922808Y-55710000D02*
X137065665Y-55757619D01*
X137065665Y-55757619D02*
X137160903Y-55757619D01*
X137160903Y-55757619D02*
X137303760Y-55710000D01*
X137303760Y-55710000D02*
X137398998Y-55614761D01*
X137398998Y-55614761D02*
X137446617Y-55519523D01*
X137446617Y-55519523D02*
X137494236Y-55329047D01*
X137494236Y-55329047D02*
X137494236Y-55186190D01*
X137494236Y-55186190D02*
X137446617Y-54995714D01*
X137446617Y-54995714D02*
X137398998Y-54900476D01*
X137398998Y-54900476D02*
X137303760Y-54805238D01*
X137303760Y-54805238D02*
X137160903Y-54757619D01*
X137160903Y-54757619D02*
X137065665Y-54757619D01*
X137065665Y-54757619D02*
X136922808Y-54805238D01*
X136922808Y-54805238D02*
X136875189Y-54852857D01*
X136160903Y-54757619D02*
X136160903Y-55471904D01*
X136160903Y-55471904D02*
X136208522Y-55614761D01*
X136208522Y-55614761D02*
X136303760Y-55710000D01*
X136303760Y-55710000D02*
X136446617Y-55757619D01*
X136446617Y-55757619D02*
X136541855Y-55757619D01*
X135208522Y-55757619D02*
X135684712Y-55757619D01*
X135684712Y-55757619D02*
X135684712Y-54757619D01*
X134303760Y-55662380D02*
X134351379Y-55710000D01*
X134351379Y-55710000D02*
X134494236Y-55757619D01*
X134494236Y-55757619D02*
X134589474Y-55757619D01*
X134589474Y-55757619D02*
X134732331Y-55710000D01*
X134732331Y-55710000D02*
X134827569Y-55614761D01*
X134827569Y-55614761D02*
X134875188Y-55519523D01*
X134875188Y-55519523D02*
X134922807Y-55329047D01*
X134922807Y-55329047D02*
X134922807Y-55186190D01*
X134922807Y-55186190D02*
X134875188Y-54995714D01*
X134875188Y-54995714D02*
X134827569Y-54900476D01*
X134827569Y-54900476D02*
X134732331Y-54805238D01*
X134732331Y-54805238D02*
X134589474Y-54757619D01*
X134589474Y-54757619D02*
X134494236Y-54757619D01*
X134494236Y-54757619D02*
X134351379Y-54805238D01*
X134351379Y-54805238D02*
X134303760Y-54852857D01*
%TO.C,J2*%
X145742619Y-58721666D02*
X146456904Y-58721666D01*
X146456904Y-58721666D02*
X146599761Y-58674047D01*
X146599761Y-58674047D02*
X146695000Y-58578809D01*
X146695000Y-58578809D02*
X146742619Y-58435952D01*
X146742619Y-58435952D02*
X146742619Y-58340714D01*
X145837857Y-59150238D02*
X145790238Y-59197857D01*
X145790238Y-59197857D02*
X145742619Y-59293095D01*
X145742619Y-59293095D02*
X145742619Y-59531190D01*
X145742619Y-59531190D02*
X145790238Y-59626428D01*
X145790238Y-59626428D02*
X145837857Y-59674047D01*
X145837857Y-59674047D02*
X145933095Y-59721666D01*
X145933095Y-59721666D02*
X146028333Y-59721666D01*
X146028333Y-59721666D02*
X146171190Y-59674047D01*
X146171190Y-59674047D02*
X146742619Y-59102619D01*
X146742619Y-59102619D02*
X146742619Y-59721666D01*
%TO.C,J1*%
X145742619Y-44116666D02*
X146456904Y-44116666D01*
X146456904Y-44116666D02*
X146599761Y-44069047D01*
X146599761Y-44069047D02*
X146695000Y-43973809D01*
X146695000Y-43973809D02*
X146742619Y-43830952D01*
X146742619Y-43830952D02*
X146742619Y-43735714D01*
X146742619Y-45116666D02*
X146742619Y-44545238D01*
X146742619Y-44830952D02*
X145742619Y-44830952D01*
X145742619Y-44830952D02*
X145885476Y-44735714D01*
X145885476Y-44735714D02*
X145980714Y-44640476D01*
X145980714Y-44640476D02*
X146028333Y-44545238D01*
D11*
%TO.C,J2*%
X63440000Y-61655000D02*
X63440000Y-56455000D01*
X144840000Y-61655000D02*
X63440000Y-61655000D01*
X144840000Y-61655000D02*
X144840000Y-59055000D01*
X142240000Y-59055000D02*
X142240000Y-56455000D01*
X144840000Y-59055000D02*
X142240000Y-59055000D01*
X144840000Y-57785000D02*
X144840000Y-56455000D01*
X142240000Y-56455000D02*
X63440000Y-56455000D01*
X144840000Y-56455000D02*
X143510000Y-56455000D01*
%TO.C,J1*%
X63440000Y-47050000D02*
X63440000Y-41850000D01*
X144840000Y-47050000D02*
X63440000Y-47050000D01*
X144840000Y-47050000D02*
X144840000Y-44450000D01*
X142240000Y-44450000D02*
X142240000Y-41850000D01*
X144840000Y-44450000D02*
X142240000Y-44450000D01*
X144840000Y-43180000D02*
X144840000Y-41850000D01*
X142240000Y-41850000D02*
X63440000Y-41850000D01*
X144840000Y-41850000D02*
X143510000Y-41850000D01*
%TD*%
%LPC*%
D12*
%TO.C,J2*%
X143510000Y-57785000D03*
D13*
X143510000Y-60325000D03*
X140970000Y-57785000D03*
X140970000Y-60325000D03*
X138430000Y-57785000D03*
X138430000Y-60325000D03*
X135890000Y-57785000D03*
X135890000Y-60325000D03*
X133350000Y-57785000D03*
X133350000Y-60325000D03*
X130810000Y-57785000D03*
X130810000Y-60325000D03*
X128270000Y-57785000D03*
X128270000Y-60325000D03*
X125730000Y-57785000D03*
X125730000Y-60325000D03*
X123190000Y-57785000D03*
X123190000Y-60325000D03*
X120650000Y-57785000D03*
X120650000Y-60325000D03*
X118110000Y-57785000D03*
X118110000Y-60325000D03*
X115570000Y-57785000D03*
X115570000Y-60325000D03*
X113030000Y-57785000D03*
X113030000Y-60325000D03*
X110490000Y-57785000D03*
X110490000Y-60325000D03*
X107950000Y-57785000D03*
X107950000Y-60325000D03*
X105410000Y-57785000D03*
X105410000Y-60325000D03*
X102870000Y-57785000D03*
X102870000Y-60325000D03*
X100330000Y-57785000D03*
X100330000Y-60325000D03*
X97790000Y-57785000D03*
X97790000Y-60325000D03*
X95250000Y-57785000D03*
X95250000Y-60325000D03*
X92710000Y-57785000D03*
X92710000Y-60325000D03*
X90170000Y-57785000D03*
X90170000Y-60325000D03*
X87630000Y-57785000D03*
X87630000Y-60325000D03*
X85090000Y-57785000D03*
X85090000Y-60325000D03*
X82550000Y-57785000D03*
X82550000Y-60325000D03*
X80010000Y-57785000D03*
X80010000Y-60325000D03*
X77470000Y-57785000D03*
X77470000Y-60325000D03*
X74930000Y-57785000D03*
X74930000Y-60325000D03*
X72390000Y-57785000D03*
X72390000Y-60325000D03*
X69850000Y-57785000D03*
X69850000Y-60325000D03*
X67310000Y-57785000D03*
X67310000Y-60325000D03*
X64770000Y-57785000D03*
X64770000Y-60325000D03*
%TD*%
D12*
%TO.C,J1*%
X143510000Y-43180000D03*
D13*
X143510000Y-45720000D03*
X140970000Y-43180000D03*
X140970000Y-45720000D03*
X138430000Y-43180000D03*
X138430000Y-45720000D03*
X135890000Y-43180000D03*
X135890000Y-45720000D03*
X133350000Y-43180000D03*
X133350000Y-45720000D03*
X130810000Y-43180000D03*
X130810000Y-45720000D03*
X128270000Y-43180000D03*
X128270000Y-45720000D03*
X125730000Y-43180000D03*
X125730000Y-45720000D03*
X123190000Y-43180000D03*
X123190000Y-45720000D03*
X120650000Y-43180000D03*
X120650000Y-45720000D03*
X118110000Y-43180000D03*
X118110000Y-45720000D03*
X115570000Y-43180000D03*
X115570000Y-45720000D03*
X113030000Y-43180000D03*
X113030000Y-45720000D03*
X110490000Y-43180000D03*
X110490000Y-45720000D03*
X107950000Y-43180000D03*
X107950000Y-45720000D03*
X105410000Y-43180000D03*
X105410000Y-45720000D03*
X102870000Y-43180000D03*
X102870000Y-45720000D03*
X100330000Y-43180000D03*
X100330000Y-45720000D03*
X97790000Y-43180000D03*
X97790000Y-45720000D03*
X95250000Y-43180000D03*
X95250000Y-45720000D03*
X92710000Y-43180000D03*
X92710000Y-45720000D03*
X90170000Y-43180000D03*
X90170000Y-45720000D03*
X87630000Y-43180000D03*
X87630000Y-45720000D03*
X85090000Y-43180000D03*
X85090000Y-45720000D03*
X82550000Y-43180000D03*
X82550000Y-45720000D03*
X80010000Y-43180000D03*
X80010000Y-45720000D03*
X77470000Y-43180000D03*
X77470000Y-45720000D03*
X74930000Y-43180000D03*
X74930000Y-45720000D03*
X72390000Y-43180000D03*
X72390000Y-45720000D03*
X69850000Y-43180000D03*
X69850000Y-45720000D03*
X67310000Y-43180000D03*
X67310000Y-45720000D03*
X64770000Y-43180000D03*
X64770000Y-45720000D03*
%TD*%
M02*
