M48
; DRILL file {KiCad 7.0.1} date Sun Sep 10 19:43:46 2023
; FORMAT={-:-/ absolute / inch / decimal}
; #@! TF.CreationDate,2023-09-10T19:43:46+01:00
; #@! TF.GenerationSoftware,Kicad,Pcbnew,7.0.1
; #@! TF.FileFunction,Plated,1,2,PTH
FMAT,2
INCH
; #@! TA.AperFunction,Plated,PTH,ComponentDrill
T1C0.0394
%
G90
G05
T1
X2.55Y-1.7
X2.55Y-1.8
X2.55Y-2.275
X2.55Y-2.375
X2.65Y-1.7
X2.65Y-1.8
X2.65Y-2.275
X2.65Y-2.375
X2.75Y-1.7
X2.75Y-1.8
X2.75Y-2.275
X2.75Y-2.375
X2.85Y-1.7
X2.85Y-1.8
X2.85Y-2.275
X2.85Y-2.375
X2.95Y-1.7
X2.95Y-1.8
X2.95Y-2.275
X2.95Y-2.375
X3.05Y-1.7
X3.05Y-1.8
X3.05Y-2.275
X3.05Y-2.375
X3.15Y-1.7
X3.15Y-1.8
X3.15Y-2.275
X3.15Y-2.375
X3.25Y-1.7
X3.25Y-1.8
X3.25Y-2.275
X3.25Y-2.375
X3.35Y-1.7
X3.35Y-1.8
X3.35Y-2.275
X3.35Y-2.375
X3.45Y-1.7
X3.45Y-1.8
X3.45Y-2.275
X3.45Y-2.375
X3.55Y-1.7
X3.55Y-1.8
X3.55Y-2.275
X3.55Y-2.375
X3.65Y-1.7
X3.65Y-1.8
X3.65Y-2.275
X3.65Y-2.375
X3.75Y-1.7
X3.75Y-1.8
X3.75Y-2.275
X3.75Y-2.375
X3.85Y-1.7
X3.85Y-1.8
X3.85Y-2.275
X3.85Y-2.375
X3.95Y-1.7
X3.95Y-1.8
X3.95Y-2.275
X3.95Y-2.375
X4.05Y-1.7
X4.05Y-1.8
X4.05Y-2.275
X4.05Y-2.375
X4.15Y-1.7
X4.15Y-1.8
X4.15Y-2.275
X4.15Y-2.375
X4.25Y-1.7
X4.25Y-1.8
X4.25Y-2.275
X4.25Y-2.375
X4.35Y-1.7
X4.35Y-1.8
X4.35Y-2.275
X4.35Y-2.375
X4.45Y-1.7
X4.45Y-1.8
X4.45Y-2.275
X4.45Y-2.375
X4.55Y-1.7
X4.55Y-1.8
X4.55Y-2.275
X4.55Y-2.375
X4.65Y-1.7
X4.65Y-1.8
X4.65Y-2.275
X4.65Y-2.375
X4.75Y-1.7
X4.75Y-1.8
X4.75Y-2.275
X4.75Y-2.375
X4.85Y-1.7
X4.85Y-1.8
X4.85Y-2.275
X4.85Y-2.375
X4.95Y-1.7
X4.95Y-1.8
X4.95Y-2.275
X4.95Y-2.375
X5.05Y-1.7
X5.05Y-1.8
X5.05Y-2.275
X5.05Y-2.375
X5.15Y-1.7
X5.15Y-1.8
X5.15Y-2.275
X5.15Y-2.375
X5.25Y-1.7
X5.25Y-1.8
X5.25Y-2.275
X5.25Y-2.375
X5.35Y-1.7
X5.35Y-1.8
X5.35Y-2.275
X5.35Y-2.375
X5.45Y-1.7
X5.45Y-1.8
X5.45Y-2.275
X5.45Y-2.375
X5.55Y-1.7
X5.55Y-1.8
X5.55Y-2.275
X5.55Y-2.375
X5.65Y-1.7
X5.65Y-1.8
X5.65Y-2.275
X5.65Y-2.375
T0
M30
