%TF.GenerationSoftware,KiCad,Pcbnew,7.0.1*%
%TF.CreationDate,2023-09-10T21:56:10+01:00*%
%TF.ProjectId,Control_board,436f6e74-726f-46c5-9f62-6f6172642e6b,rev?*%
%TF.SameCoordinates,Original*%
%TF.FileFunction,Legend,Bot*%
%TF.FilePolarity,Positive*%
%FSLAX46Y46*%
G04 Gerber Fmt 4.6, Leading zero omitted, Abs format (unit mm)*
G04 Created by KiCad (PCBNEW 7.0.1) date 2023-09-10 21:56:10*
%MOMM*%
%LPD*%
G01*
G04 APERTURE LIST*
G04 Aperture macros list*
%AMRoundRect*
0 Rectangle with rounded corners*
0 $1 Rounding radius*
0 $2 $3 $4 $5 $6 $7 $8 $9 X,Y pos of 4 corners*
0 Add a 4 corners polygon primitive as box body*
4,1,4,$2,$3,$4,$5,$6,$7,$8,$9,$2,$3,0*
0 Add four circle primitives for the rounded corners*
1,1,$1+$1,$2,$3*
1,1,$1+$1,$4,$5*
1,1,$1+$1,$6,$7*
1,1,$1+$1,$8,$9*
0 Add four rect primitives between the rounded corners*
20,1,$1+$1,$2,$3,$4,$5,0*
20,1,$1+$1,$4,$5,$6,$7,0*
20,1,$1+$1,$6,$7,$8,$9,0*
20,1,$1+$1,$8,$9,$2,$3,0*%
G04 Aperture macros list end*
%ADD10C,0.150000*%
%ADD11R,1.600000X1.600000*%
%ADD12O,1.600000X1.600000*%
%ADD13R,1.800000X1.800000*%
%ADD14C,1.800000*%
%ADD15C,3.500000*%
%ADD16C,1.600000*%
%ADD17C,2.000000*%
%ADD18R,1.700000X1.700000*%
%ADD19O,1.700000X1.700000*%
%ADD20C,1.440000*%
%ADD21RoundRect,0.250000X-0.600000X0.600000X-0.600000X-0.600000X0.600000X-0.600000X0.600000X0.600000X0*%
%ADD22C,1.700000*%
G04 APERTURE END LIST*
D10*
X176006190Y-153817619D02*
X176006190Y-154531904D01*
X176006190Y-154531904D02*
X176053809Y-154674761D01*
X176053809Y-154674761D02*
X176149047Y-154770000D01*
X176149047Y-154770000D02*
X176291904Y-154817619D01*
X176291904Y-154817619D02*
X176387142Y-154817619D01*
X175053809Y-154817619D02*
X175529999Y-154817619D01*
X175529999Y-154817619D02*
X175529999Y-153817619D01*
X174149047Y-154722380D02*
X174196666Y-154770000D01*
X174196666Y-154770000D02*
X174339523Y-154817619D01*
X174339523Y-154817619D02*
X174434761Y-154817619D01*
X174434761Y-154817619D02*
X174577618Y-154770000D01*
X174577618Y-154770000D02*
X174672856Y-154674761D01*
X174672856Y-154674761D02*
X174720475Y-154579523D01*
X174720475Y-154579523D02*
X174768094Y-154389047D01*
X174768094Y-154389047D02*
X174768094Y-154246190D01*
X174768094Y-154246190D02*
X174720475Y-154055714D01*
X174720475Y-154055714D02*
X174672856Y-153960476D01*
X174672856Y-153960476D02*
X174577618Y-153865238D01*
X174577618Y-153865238D02*
X174434761Y-153817619D01*
X174434761Y-153817619D02*
X174339523Y-153817619D01*
X174339523Y-153817619D02*
X174196666Y-153865238D01*
X174196666Y-153865238D02*
X174149047Y-153912857D01*
X173434761Y-153817619D02*
X173434761Y-154531904D01*
X173434761Y-154531904D02*
X173482380Y-154674761D01*
X173482380Y-154674761D02*
X173577618Y-154770000D01*
X173577618Y-154770000D02*
X173720475Y-154817619D01*
X173720475Y-154817619D02*
X173815713Y-154817619D01*
X172482380Y-154817619D02*
X172958570Y-154817619D01*
X172958570Y-154817619D02*
X172958570Y-153817619D01*
X171577618Y-154722380D02*
X171625237Y-154770000D01*
X171625237Y-154770000D02*
X171768094Y-154817619D01*
X171768094Y-154817619D02*
X171863332Y-154817619D01*
X171863332Y-154817619D02*
X172006189Y-154770000D01*
X172006189Y-154770000D02*
X172101427Y-154674761D01*
X172101427Y-154674761D02*
X172149046Y-154579523D01*
X172149046Y-154579523D02*
X172196665Y-154389047D01*
X172196665Y-154389047D02*
X172196665Y-154246190D01*
X172196665Y-154246190D02*
X172149046Y-154055714D01*
X172149046Y-154055714D02*
X172101427Y-153960476D01*
X172101427Y-153960476D02*
X172006189Y-153865238D01*
X172006189Y-153865238D02*
X171863332Y-153817619D01*
X171863332Y-153817619D02*
X171768094Y-153817619D01*
X171768094Y-153817619D02*
X171625237Y-153865238D01*
X171625237Y-153865238D02*
X171577618Y-153912857D01*
X170863332Y-153817619D02*
X170863332Y-154531904D01*
X170863332Y-154531904D02*
X170910951Y-154674761D01*
X170910951Y-154674761D02*
X171006189Y-154770000D01*
X171006189Y-154770000D02*
X171149046Y-154817619D01*
X171149046Y-154817619D02*
X171244284Y-154817619D01*
X169910951Y-154817619D02*
X170387141Y-154817619D01*
X170387141Y-154817619D02*
X170387141Y-153817619D01*
X169006189Y-154722380D02*
X169053808Y-154770000D01*
X169053808Y-154770000D02*
X169196665Y-154817619D01*
X169196665Y-154817619D02*
X169291903Y-154817619D01*
X169291903Y-154817619D02*
X169434760Y-154770000D01*
X169434760Y-154770000D02*
X169529998Y-154674761D01*
X169529998Y-154674761D02*
X169577617Y-154579523D01*
X169577617Y-154579523D02*
X169625236Y-154389047D01*
X169625236Y-154389047D02*
X169625236Y-154246190D01*
X169625236Y-154246190D02*
X169577617Y-154055714D01*
X169577617Y-154055714D02*
X169529998Y-153960476D01*
X169529998Y-153960476D02*
X169434760Y-153865238D01*
X169434760Y-153865238D02*
X169291903Y-153817619D01*
X169291903Y-153817619D02*
X169196665Y-153817619D01*
X169196665Y-153817619D02*
X169053808Y-153865238D01*
X169053808Y-153865238D02*
X169006189Y-153912857D01*
X168291903Y-153817619D02*
X168291903Y-154531904D01*
X168291903Y-154531904D02*
X168339522Y-154674761D01*
X168339522Y-154674761D02*
X168434760Y-154770000D01*
X168434760Y-154770000D02*
X168577617Y-154817619D01*
X168577617Y-154817619D02*
X168672855Y-154817619D01*
X167339522Y-154817619D02*
X167815712Y-154817619D01*
X167815712Y-154817619D02*
X167815712Y-153817619D01*
X166434760Y-154722380D02*
X166482379Y-154770000D01*
X166482379Y-154770000D02*
X166625236Y-154817619D01*
X166625236Y-154817619D02*
X166720474Y-154817619D01*
X166720474Y-154817619D02*
X166863331Y-154770000D01*
X166863331Y-154770000D02*
X166958569Y-154674761D01*
X166958569Y-154674761D02*
X167006188Y-154579523D01*
X167006188Y-154579523D02*
X167053807Y-154389047D01*
X167053807Y-154389047D02*
X167053807Y-154246190D01*
X167053807Y-154246190D02*
X167006188Y-154055714D01*
X167006188Y-154055714D02*
X166958569Y-153960476D01*
X166958569Y-153960476D02*
X166863331Y-153865238D01*
X166863331Y-153865238D02*
X166720474Y-153817619D01*
X166720474Y-153817619D02*
X166625236Y-153817619D01*
X166625236Y-153817619D02*
X166482379Y-153865238D01*
X166482379Y-153865238D02*
X166434760Y-153912857D01*
%LPC*%
D11*
%TO.C,U3*%
X111130000Y-144770000D03*
D12*
X113670000Y-144770000D03*
X116210000Y-144770000D03*
X118750000Y-144770000D03*
X121290000Y-144770000D03*
X123830000Y-144770000D03*
X126370000Y-144770000D03*
X128910000Y-144770000D03*
X131450000Y-144770000D03*
X133990000Y-144770000D03*
X133990000Y-137150000D03*
X131450000Y-137150000D03*
X128910000Y-137150000D03*
X126370000Y-137150000D03*
X123830000Y-137150000D03*
X121290000Y-137150000D03*
X118750000Y-137150000D03*
X116210000Y-137150000D03*
X113670000Y-137150000D03*
X111130000Y-137150000D03*
%TD*%
D13*
%TO.C,D32*%
X93980000Y-59182000D03*
D14*
X93980000Y-61722000D03*
%TD*%
D13*
%TO.C,D51*%
X160274000Y-59177000D03*
D14*
X160274000Y-61717000D03*
%TD*%
D13*
%TO.C,D42*%
X128778000Y-59177000D03*
D14*
X128778000Y-61717000D03*
%TD*%
D13*
%TO.C,D21*%
X178562000Y-59182000D03*
D14*
X178562000Y-61722000D03*
%TD*%
D11*
%TO.C,U10*%
X170815000Y-73660000D03*
D12*
X170815000Y-76200000D03*
X170815000Y-78740000D03*
X170815000Y-81280000D03*
X170815000Y-83820000D03*
X170815000Y-86360000D03*
X170815000Y-88900000D03*
X170815000Y-91440000D03*
X170815000Y-93980000D03*
X170815000Y-96520000D03*
X170815000Y-99060000D03*
X170815000Y-101600000D03*
X170815000Y-104140000D03*
X170815000Y-106680000D03*
X186055000Y-106680000D03*
X186055000Y-104140000D03*
X186055000Y-101600000D03*
X186055000Y-99060000D03*
X186055000Y-96520000D03*
X186055000Y-93980000D03*
X186055000Y-91440000D03*
X186055000Y-88900000D03*
X186055000Y-86360000D03*
X186055000Y-83820000D03*
X186055000Y-81280000D03*
X186055000Y-78740000D03*
X186055000Y-76200000D03*
X186055000Y-73660000D03*
%TD*%
D13*
%TO.C,D52*%
X186055000Y-112390000D03*
D14*
X186055000Y-114930000D03*
%TD*%
D15*
%TO.C,H4*%
X193000000Y-154000000D03*
%TD*%
D11*
%TO.C,U6*%
X111125000Y-132070000D03*
D12*
X113665000Y-132070000D03*
X116205000Y-132070000D03*
X118745000Y-132070000D03*
X121285000Y-132070000D03*
X123825000Y-132070000D03*
X126365000Y-132070000D03*
X128905000Y-132070000D03*
X131445000Y-132070000D03*
X133985000Y-132070000D03*
X133985000Y-124450000D03*
X131445000Y-124450000D03*
X128905000Y-124450000D03*
X126365000Y-124450000D03*
X123825000Y-124450000D03*
X121285000Y-124450000D03*
X118745000Y-124450000D03*
X116205000Y-124450000D03*
X113665000Y-124450000D03*
X111125000Y-124450000D03*
%TD*%
D13*
%TO.C,D13*%
X133985000Y-118110000D03*
D14*
X133985000Y-120650000D03*
%TD*%
D15*
%TO.C,H3*%
X77000000Y-154000000D03*
%TD*%
D13*
%TO.C,D39*%
X118872000Y-59177000D03*
D14*
X118872000Y-61717000D03*
%TD*%
D13*
%TO.C,D27*%
X188468000Y-59182000D03*
D14*
X188468000Y-61722000D03*
%TD*%
D15*
%TO.C,H2*%
X193000000Y-49000000D03*
%TD*%
D16*
%TO.C,R5*%
X192405000Y-72390000D03*
D12*
X192405000Y-64770000D03*
%TD*%
D13*
%TO.C,D9*%
X153035000Y-118105000D03*
D14*
X153035000Y-120645000D03*
%TD*%
D16*
%TO.C,R13*%
X84455000Y-113665000D03*
D12*
X84455000Y-121285000D03*
%TD*%
D13*
%TO.C,D31*%
X90678000Y-59182000D03*
D14*
X90678000Y-61722000D03*
%TD*%
D13*
%TO.C,D24*%
X168656000Y-59182000D03*
D14*
X168656000Y-61722000D03*
%TD*%
D13*
%TO.C,D20*%
X181864000Y-59182000D03*
D14*
X181864000Y-61722000D03*
%TD*%
D17*
%TO.C,SW2*%
X94325000Y-125020000D03*
X94325000Y-131520000D03*
X89825000Y-125020000D03*
X89825000Y-131520000D03*
%TD*%
D13*
%TO.C,D19*%
X111125000Y-118110000D03*
D14*
X111125000Y-120650000D03*
%TD*%
D11*
%TO.C,RN3*%
X80645000Y-69215000D03*
D12*
X83185000Y-69215000D03*
X85725000Y-69215000D03*
X88265000Y-69215000D03*
X90805000Y-69215000D03*
X93345000Y-69215000D03*
X95885000Y-69215000D03*
X98425000Y-69215000D03*
X100965000Y-69215000D03*
%TD*%
D17*
%TO.C,SW1*%
X94325000Y-136450000D03*
X94325000Y-142950000D03*
X89825000Y-136450000D03*
X89825000Y-142950000D03*
%TD*%
D16*
%TO.C,R10*%
X80645000Y-113665000D03*
D12*
X80645000Y-121285000D03*
%TD*%
D13*
%TO.C,D45*%
X140462000Y-59177000D03*
D14*
X140462000Y-61717000D03*
%TD*%
D13*
%TO.C,D28*%
X80772000Y-59182000D03*
D14*
X80772000Y-61722000D03*
%TD*%
D11*
%TO.C,RN1*%
X168260000Y-69215000D03*
D12*
X170800000Y-69215000D03*
X173340000Y-69215000D03*
X175880000Y-69215000D03*
X178420000Y-69215000D03*
X180960000Y-69215000D03*
X183500000Y-69215000D03*
X186040000Y-69215000D03*
X188580000Y-69215000D03*
%TD*%
D11*
%TO.C,RN2*%
X109855000Y-69215000D03*
D12*
X112395000Y-69215000D03*
X114935000Y-69215000D03*
X117475000Y-69215000D03*
X120015000Y-69215000D03*
X122555000Y-69215000D03*
X125095000Y-69215000D03*
X127635000Y-69215000D03*
X130175000Y-69215000D03*
%TD*%
D13*
%TO.C,D14*%
X130175000Y-118110000D03*
D14*
X130175000Y-120650000D03*
%TD*%
D11*
%TO.C,U8*%
X112395000Y-73660000D03*
D12*
X112395000Y-76200000D03*
X112395000Y-78740000D03*
X112395000Y-81280000D03*
X112395000Y-83820000D03*
X112395000Y-86360000D03*
X112395000Y-88900000D03*
X112395000Y-91440000D03*
X112395000Y-93980000D03*
X112395000Y-96520000D03*
X112395000Y-99060000D03*
X112395000Y-101600000D03*
X112395000Y-104140000D03*
X112395000Y-106680000D03*
X127635000Y-106680000D03*
X127635000Y-104140000D03*
X127635000Y-101600000D03*
X127635000Y-99060000D03*
X127635000Y-96520000D03*
X127635000Y-93980000D03*
X127635000Y-91440000D03*
X127635000Y-88900000D03*
X127635000Y-86360000D03*
X127635000Y-83820000D03*
X127635000Y-81280000D03*
X127635000Y-78740000D03*
X127635000Y-76200000D03*
X127635000Y-73660000D03*
%TD*%
D11*
%TO.C,RN6*%
X111110000Y-111125000D03*
D12*
X113650000Y-111125000D03*
X116190000Y-111125000D03*
X118730000Y-111125000D03*
X121270000Y-111125000D03*
X123810000Y-111125000D03*
X126350000Y-111125000D03*
X128890000Y-111125000D03*
X131430000Y-111125000D03*
%TD*%
D13*
%TO.C,D12*%
X137795000Y-118110000D03*
D14*
X137795000Y-120650000D03*
%TD*%
D16*
%TO.C,R4*%
X107315000Y-113665000D03*
D12*
X107315000Y-121285000D03*
%TD*%
D13*
%TO.C,D1*%
X88265000Y-118105000D03*
D14*
X88265000Y-120645000D03*
%TD*%
D13*
%TO.C,D35*%
X103886000Y-59182000D03*
D14*
X103886000Y-61722000D03*
%TD*%
D11*
%TO.C,U9*%
X141605000Y-73645000D03*
D12*
X141605000Y-76185000D03*
X141605000Y-78725000D03*
X141605000Y-81265000D03*
X141605000Y-83805000D03*
X141605000Y-86345000D03*
X141605000Y-88885000D03*
X141605000Y-91425000D03*
X141605000Y-93965000D03*
X141605000Y-96505000D03*
X141605000Y-99045000D03*
X141605000Y-101585000D03*
X141605000Y-104125000D03*
X141605000Y-106665000D03*
X156845000Y-106665000D03*
X156845000Y-104125000D03*
X156845000Y-101585000D03*
X156845000Y-99045000D03*
X156845000Y-96505000D03*
X156845000Y-93965000D03*
X156845000Y-91425000D03*
X156845000Y-88885000D03*
X156845000Y-86345000D03*
X156845000Y-83805000D03*
X156845000Y-81265000D03*
X156845000Y-78725000D03*
X156845000Y-76185000D03*
X156845000Y-73645000D03*
%TD*%
D16*
%TO.C,R12*%
X182880000Y-109855000D03*
D12*
X182880000Y-117475000D03*
%TD*%
D11*
%TO.C,U7*%
X83180000Y-73645000D03*
D12*
X83180000Y-76185000D03*
X83180000Y-78725000D03*
X83180000Y-81265000D03*
X83180000Y-83805000D03*
X83180000Y-86345000D03*
X83180000Y-88885000D03*
X83180000Y-91425000D03*
X83180000Y-93965000D03*
X83180000Y-96505000D03*
X83180000Y-99045000D03*
X83180000Y-101585000D03*
X83180000Y-104125000D03*
X83180000Y-106665000D03*
X98420000Y-106665000D03*
X98420000Y-104125000D03*
X98420000Y-101585000D03*
X98420000Y-99045000D03*
X98420000Y-96505000D03*
X98420000Y-93965000D03*
X98420000Y-91425000D03*
X98420000Y-88885000D03*
X98420000Y-86345000D03*
X98420000Y-83805000D03*
X98420000Y-81265000D03*
X98420000Y-78725000D03*
X98420000Y-76185000D03*
X98420000Y-73645000D03*
%TD*%
D13*
%TO.C,D43*%
X132080000Y-59177000D03*
D14*
X132080000Y-61717000D03*
%TD*%
D16*
%TO.C,R7*%
X165735000Y-74930000D03*
D12*
X165735000Y-82550000D03*
%TD*%
D13*
%TO.C,D2*%
X95885000Y-118105000D03*
D14*
X95885000Y-120645000D03*
%TD*%
D16*
%TO.C,R2*%
X92075000Y-113665000D03*
D12*
X92075000Y-121285000D03*
%TD*%
D13*
%TO.C,D49*%
X153670000Y-59182000D03*
D14*
X153670000Y-61722000D03*
%TD*%
D13*
%TO.C,D33*%
X97282000Y-59182000D03*
D14*
X97282000Y-61722000D03*
%TD*%
D13*
%TO.C,D25*%
X175260000Y-59182000D03*
D14*
X175260000Y-61722000D03*
%TD*%
D13*
%TO.C,D44*%
X137160000Y-59177000D03*
D14*
X137160000Y-61717000D03*
%TD*%
D11*
%TO.C,RN4*%
X139065000Y-69215000D03*
D12*
X141605000Y-69215000D03*
X144145000Y-69215000D03*
X146685000Y-69215000D03*
X149225000Y-69215000D03*
X151765000Y-69215000D03*
X154305000Y-69215000D03*
X156845000Y-69215000D03*
X159385000Y-69215000D03*
%TD*%
D13*
%TO.C,D46*%
X143764000Y-59177000D03*
D14*
X143764000Y-61717000D03*
%TD*%
D13*
%TO.C,D16*%
X122555000Y-118110000D03*
D14*
X122555000Y-120650000D03*
%TD*%
D11*
%TO.C,RN9*%
X109840000Y-65405000D03*
D12*
X112380000Y-65405000D03*
X114920000Y-65405000D03*
X117460000Y-65405000D03*
X120000000Y-65405000D03*
X122540000Y-65405000D03*
X125080000Y-65405000D03*
X127620000Y-65405000D03*
X130160000Y-65405000D03*
%TD*%
D16*
%TO.C,R9*%
X163830000Y-64770000D03*
D12*
X163830000Y-72390000D03*
%TD*%
D13*
%TO.C,D8*%
X156845000Y-118110000D03*
D14*
X156845000Y-120650000D03*
%TD*%
D13*
%TO.C,D38*%
X115570000Y-59177000D03*
D14*
X115570000Y-61717000D03*
%TD*%
D13*
%TO.C,D10*%
X149225000Y-118105000D03*
D14*
X149225000Y-120645000D03*
%TD*%
D11*
%TO.C,U1*%
X160655000Y-132080000D03*
D12*
X163195000Y-132080000D03*
X165735000Y-132080000D03*
X168275000Y-132080000D03*
X170815000Y-132080000D03*
X173355000Y-132080000D03*
X175895000Y-132080000D03*
X175895000Y-124460000D03*
X173355000Y-124460000D03*
X170815000Y-124460000D03*
X168275000Y-124460000D03*
X165735000Y-124460000D03*
X163195000Y-124460000D03*
X160655000Y-124460000D03*
%TD*%
D11*
%TO.C,U12*%
X138425000Y-144770000D03*
D12*
X140965000Y-144770000D03*
X143505000Y-144770000D03*
X146045000Y-144770000D03*
X148585000Y-144770000D03*
X151125000Y-144770000D03*
X153665000Y-144770000D03*
X153665000Y-137150000D03*
X151125000Y-137150000D03*
X148585000Y-137150000D03*
X146045000Y-137150000D03*
X143505000Y-137150000D03*
X140965000Y-137150000D03*
X138425000Y-137150000D03*
%TD*%
D17*
%TO.C,SW4*%
X80300000Y-131520000D03*
X80300000Y-125020000D03*
X84800000Y-131520000D03*
X84800000Y-125020000D03*
%TD*%
D13*
%TO.C,D34*%
X100584000Y-59182000D03*
D14*
X100584000Y-61722000D03*
%TD*%
D13*
%TO.C,D37*%
X112268000Y-59177000D03*
D14*
X112268000Y-61717000D03*
%TD*%
D13*
%TO.C,D26*%
X185166000Y-59182000D03*
D14*
X185166000Y-61722000D03*
%TD*%
D16*
%TO.C,R8*%
X161925000Y-74930000D03*
D12*
X161925000Y-82550000D03*
%TD*%
D13*
%TO.C,D15*%
X126365000Y-118110000D03*
D14*
X126365000Y-120650000D03*
%TD*%
D11*
%TO.C,RN5*%
X155560000Y-111125000D03*
D12*
X158100000Y-111125000D03*
X160640000Y-111125000D03*
X163180000Y-111125000D03*
X165720000Y-111125000D03*
X168260000Y-111125000D03*
X170800000Y-111125000D03*
X173340000Y-111125000D03*
X175880000Y-111125000D03*
%TD*%
D11*
%TO.C,U5*%
X158115000Y-144780000D03*
D12*
X160655000Y-144780000D03*
X163195000Y-144780000D03*
X165735000Y-144780000D03*
X168275000Y-144780000D03*
X170815000Y-144780000D03*
X173355000Y-144780000D03*
X175895000Y-144780000D03*
X175895000Y-137160000D03*
X173355000Y-137160000D03*
X170815000Y-137160000D03*
X168275000Y-137160000D03*
X165735000Y-137160000D03*
X163195000Y-137160000D03*
X160655000Y-137160000D03*
X158115000Y-137160000D03*
%TD*%
D13*
%TO.C,D17*%
X118745000Y-118110000D03*
D14*
X118745000Y-120650000D03*
%TD*%
D13*
%TO.C,D47*%
X147066000Y-59177000D03*
D14*
X147066000Y-61717000D03*
%TD*%
D13*
%TO.C,D29*%
X84074000Y-59182000D03*
D14*
X84074000Y-61722000D03*
%TD*%
D13*
%TO.C,D30*%
X87376000Y-59182000D03*
D14*
X87376000Y-61722000D03*
%TD*%
D13*
%TO.C,D23*%
X165354000Y-59182000D03*
D14*
X165354000Y-61722000D03*
%TD*%
D13*
%TO.C,D11*%
X145415000Y-118105000D03*
D14*
X145415000Y-120645000D03*
%TD*%
D13*
%TO.C,D22*%
X171958000Y-59182000D03*
D14*
X171958000Y-61722000D03*
%TD*%
D11*
%TO.C,U4*%
X180335000Y-121920000D03*
D12*
X180335000Y-124460000D03*
X180335000Y-127000000D03*
X180335000Y-129540000D03*
X180335000Y-132080000D03*
X180335000Y-134620000D03*
X180335000Y-137160000D03*
X180335000Y-139700000D03*
X180335000Y-142240000D03*
X180335000Y-144780000D03*
X187955000Y-144780000D03*
X187955000Y-142240000D03*
X187955000Y-139700000D03*
X187955000Y-137160000D03*
X187955000Y-134620000D03*
X187955000Y-132080000D03*
X187955000Y-129540000D03*
X187955000Y-127000000D03*
X187955000Y-124460000D03*
X187955000Y-121920000D03*
%TD*%
D13*
%TO.C,D7*%
X164465000Y-118110000D03*
D14*
X164465000Y-120650000D03*
%TD*%
D11*
%TO.C,RN10*%
X139065000Y-65405000D03*
D12*
X141605000Y-65405000D03*
X144145000Y-65405000D03*
X146685000Y-65405000D03*
X149225000Y-65405000D03*
X151765000Y-65405000D03*
X154305000Y-65405000D03*
X156845000Y-65405000D03*
X159385000Y-65405000D03*
%TD*%
D13*
%TO.C,D48*%
X150368000Y-59177000D03*
D14*
X150368000Y-61717000D03*
%TD*%
D11*
%TO.C,RN7*%
X168275000Y-65405000D03*
D12*
X170815000Y-65405000D03*
X173355000Y-65405000D03*
X175895000Y-65405000D03*
X178435000Y-65405000D03*
X180975000Y-65405000D03*
X183515000Y-65405000D03*
X186055000Y-65405000D03*
X188595000Y-65405000D03*
%TD*%
D17*
%TO.C,SW3*%
X80300000Y-142950000D03*
X80300000Y-136450000D03*
X84800000Y-142950000D03*
X84800000Y-136450000D03*
%TD*%
D11*
%TO.C,U11*%
X99070000Y-132070000D03*
D12*
X101610000Y-132070000D03*
X104150000Y-132070000D03*
X106690000Y-132070000D03*
X106690000Y-124450000D03*
X104150000Y-124450000D03*
X101610000Y-124450000D03*
X99070000Y-124450000D03*
%TD*%
D13*
%TO.C,D41*%
X125476000Y-59177000D03*
D14*
X125476000Y-61717000D03*
%TD*%
D18*
%TO.C,J1*%
X87010000Y-153035000D03*
D19*
X87010000Y-150495000D03*
X89550000Y-153035000D03*
X89550000Y-150495000D03*
X92090000Y-153035000D03*
X92090000Y-150495000D03*
%TD*%
D13*
%TO.C,D50*%
X156972000Y-59182000D03*
D14*
X156972000Y-61722000D03*
%TD*%
D11*
%TO.C,U2*%
X138425000Y-132070000D03*
D12*
X140965000Y-132070000D03*
X143505000Y-132070000D03*
X146045000Y-132070000D03*
X148585000Y-132070000D03*
X151125000Y-132070000D03*
X153665000Y-132070000D03*
X153665000Y-124450000D03*
X151125000Y-124450000D03*
X148585000Y-124450000D03*
X146045000Y-124450000D03*
X143505000Y-124450000D03*
X140965000Y-124450000D03*
X138425000Y-124450000D03*
%TD*%
D13*
%TO.C,D3*%
X175895000Y-118110000D03*
D14*
X175895000Y-120650000D03*
%TD*%
D16*
%TO.C,R1*%
X190500000Y-82550000D03*
D12*
X190500000Y-74930000D03*
%TD*%
D11*
%TO.C,RN8*%
X80645000Y-65405000D03*
D12*
X83185000Y-65405000D03*
X85725000Y-65405000D03*
X88265000Y-65405000D03*
X90805000Y-65405000D03*
X93345000Y-65405000D03*
X95885000Y-65405000D03*
X98425000Y-65405000D03*
X100965000Y-65405000D03*
%TD*%
D13*
%TO.C,D40*%
X122174000Y-59177000D03*
D14*
X122174000Y-61717000D03*
%TD*%
D18*
%TO.C,J3*%
X184150000Y-153035000D03*
D19*
X181610000Y-153035000D03*
%TD*%
D20*
%TO.C,RV1*%
X100330000Y-137795000D03*
X102870000Y-142875000D03*
X105410000Y-137795000D03*
%TD*%
D15*
%TO.C,H1*%
X77000000Y-49000000D03*
%TD*%
D13*
%TO.C,D5*%
X168275000Y-118110000D03*
D14*
X168275000Y-120650000D03*
%TD*%
D16*
%TO.C,R3*%
X99695000Y-113665000D03*
D12*
X99695000Y-121285000D03*
%TD*%
D16*
%TO.C,R11*%
X179705000Y-109855000D03*
D12*
X179705000Y-117475000D03*
%TD*%
D16*
%TO.C,R6*%
X194310000Y-82550000D03*
D12*
X194310000Y-74930000D03*
%TD*%
D21*
%TO.C,J2*%
X173990000Y-49530000D03*
D22*
X173990000Y-52070000D03*
X171450000Y-49530000D03*
X171450000Y-52070000D03*
X168910000Y-49530000D03*
X168910000Y-52070000D03*
X166370000Y-49530000D03*
X166370000Y-52070000D03*
X163830000Y-49530000D03*
X163830000Y-52070000D03*
X161290000Y-49530000D03*
X161290000Y-52070000D03*
X158750000Y-49530000D03*
X158750000Y-52070000D03*
X156210000Y-49530000D03*
X156210000Y-52070000D03*
X153670000Y-49530000D03*
X153670000Y-52070000D03*
X151130000Y-49530000D03*
X151130000Y-52070000D03*
X148590000Y-49530000D03*
X148590000Y-52070000D03*
X146050000Y-49530000D03*
X146050000Y-52070000D03*
X143510000Y-49530000D03*
X143510000Y-52070000D03*
X140970000Y-49530000D03*
X140970000Y-52070000D03*
X138430000Y-49530000D03*
X138430000Y-52070000D03*
X135890000Y-49530000D03*
X135890000Y-52070000D03*
X133350000Y-49530000D03*
X133350000Y-52070000D03*
X130810000Y-49530000D03*
X130810000Y-52070000D03*
X128270000Y-49530000D03*
X128270000Y-52070000D03*
X125730000Y-49530000D03*
X125730000Y-52070000D03*
X123190000Y-49530000D03*
X123190000Y-52070000D03*
X120650000Y-49530000D03*
X120650000Y-52070000D03*
X118110000Y-49530000D03*
X118110000Y-52070000D03*
X115570000Y-49530000D03*
X115570000Y-52070000D03*
X113030000Y-49530000D03*
X113030000Y-52070000D03*
X110490000Y-49530000D03*
X110490000Y-52070000D03*
X107950000Y-49530000D03*
X107950000Y-52070000D03*
X105410000Y-49530000D03*
X105410000Y-52070000D03*
X102870000Y-49530000D03*
X102870000Y-52070000D03*
X100330000Y-49530000D03*
X100330000Y-52070000D03*
X97790000Y-49530000D03*
X97790000Y-52070000D03*
X95250000Y-49530000D03*
X95250000Y-52070000D03*
%TD*%
D13*
%TO.C,D4*%
X172085000Y-118110000D03*
D14*
X172085000Y-120650000D03*
%TD*%
D13*
%TO.C,D18*%
X114935000Y-118110000D03*
D14*
X114935000Y-120650000D03*
%TD*%
D13*
%TO.C,D6*%
X103505000Y-118105000D03*
D14*
X103505000Y-120645000D03*
%TD*%
D13*
%TO.C,D36*%
X108966000Y-59177000D03*
D14*
X108966000Y-61717000D03*
%TD*%
M02*
