M48
; DRILL file {KiCad 7.0.1} date Sun Sep 10 19:31:46 2023
; FORMAT={-:-/ absolute / inch / decimal}
; #@! TF.CreationDate,2023-09-10T19:31:46+01:00
; #@! TF.GenerationSoftware,Kicad,Pcbnew,7.0.1
; #@! TF.FileFunction,Plated,1,2,PTH
FMAT,2
INCH
; #@! TA.AperFunction,Plated,PTH,ViaDrill
T1C0.0157
; #@! TA.AperFunction,Plated,PTH,ComponentDrill
T2C0.0315
; #@! TA.AperFunction,Plated,PTH,ComponentDrill
T3C0.0354
; #@! TA.AperFunction,Plated,PTH,ComponentDrill
T4C0.0394
; #@! TA.AperFunction,Plated,PTH,ComponentDrill
T5C0.0433
%
G90
G05
T1
X2.9Y-2.575
X2.9Y-3.625
X2.9Y-5.05
X2.9Y-5.7
X2.925Y-4.35
X2.975Y-2.175
X3.025Y-5.85
X3.05Y-2.375
X3.05Y-2.9
X3.05Y-3.425
X3.05Y-4.775
X3.075Y-4.325
X3.1Y-3.85
X3.2Y-5.275
X3.2Y-5.5
X3.225Y-1.925
X3.225Y-5.075
X3.225Y-6.05
X3.225Y-6.175
X3.25Y-2.2
X3.25Y-2.65
X3.25Y-5.975
X3.275Y-4.325
X3.275Y-4.675
X3.275Y-5.925
X3.35Y-5.75
X3.375Y-1.8
X3.4Y-4.075
X3.425Y-2.05
X3.475Y-3.55
X3.5Y-4.475
X3.525Y-5.75
X3.575Y-1.925
X3.575Y-5.5
X3.625Y-3.85
X3.625Y-4.875
X3.65Y-2.05
X3.65Y-3.55
X3.725Y-4.15
X3.725Y-4.475
X3.725Y-5.75
X3.725Y-5.875
X3.725Y-6.025
X3.75Y-5.275
X3.8Y-5.075
X3.825Y-5.4
X3.825Y-5.65
X3.825Y-5.875
X3.85Y-5.75
X3.9Y-4.3
X3.975Y-2.8
X3.975Y-5.325
X3.975Y-5.575
X4.0Y-2.9
X4.05Y-3.0
X4.075Y-2.55
X4.075Y-3.1
X4.1Y-5.5
X4.125Y-2.95
X4.125Y-5.35
X4.15Y-3.5
X4.15Y-3.825
X4.15Y-4.05
X4.15Y-4.75
X4.15Y-5.65
X4.15Y-5.875
X4.175Y-2.325
X4.2Y-2.75
X4.2Y-5.05
X4.2Y-5.75
X4.225Y-5.125
X4.275Y-4.225
X4.275Y-5.4
X4.275Y-5.65
X4.3Y-3.5
X4.325Y-3.925
X4.325Y-6.025
X4.35Y-5.05
X4.375Y-4.825
X4.425Y-4.5
X4.425Y-5.125
X4.425Y-5.325
X4.45Y-5.525
X4.45Y-5.875
X4.5Y-4.2
X4.525Y-5.05
X4.525Y-5.875
X4.575Y-4.05
X4.6Y-3.45
X4.6Y-6.1
X4.625Y-5.9
X4.65Y-4.275
X4.675Y-3.65
X4.725Y-5.925
X4.9Y-6.025
X4.925Y-5.925
X4.95Y-4.825
X5.0Y-6.175
X5.025Y-5.925
X5.125Y-2.8
X5.125Y-6.05
X5.175Y-3.3
X5.175Y-3.825
X5.175Y-4.25
X5.175Y-5.275
X5.175Y-5.525
X5.2Y-4.5
X5.225Y-5.075
X5.225Y-5.625
X5.225Y-5.95
X5.25Y-3.2
X5.275Y-5.125
X5.275Y-5.325
X5.275Y-5.95
X5.3Y-4.425
X5.3Y-5.05
X5.3Y-5.525
X5.325Y-6.175
X5.375Y-2.175
X5.375Y-2.7
X5.375Y-3.8
X5.425Y-4.225
X5.425Y-6.0
X5.5Y-5.575
X5.55Y-4.3
X5.55Y-5.275
X5.65Y-4.15
X5.65Y-5.025
X5.65Y-6.175
X5.7Y-4.5
X5.725Y-4.15
X5.75Y-3.55
X5.75Y-3.85
X5.75Y-4.35
X5.75Y-4.975
X5.775Y-6.0
X5.8Y-3.1
X5.825Y-5.775
X5.85Y-3.2
X5.875Y-3.3
X5.9Y-3.4
X5.925Y-3.85
X5.95Y-3.55
X5.95Y-6.175
X5.975Y-4.1
X6.0Y-4.35
X6.075Y-4.45
X6.15Y-5.475
X6.15Y-6.0
X6.175Y-5.25
X6.225Y-4.15
X6.25Y-5.175
X6.275Y-2.8
X6.275Y-5.35
X6.275Y-5.475
X6.3Y-2.1785
X6.3Y-5.625
X6.325Y-4.45
X6.325Y-6.175
X6.35Y-2.1785
X6.375Y-3.5
X6.375Y-5.525
X6.4Y-2.1785
X6.45Y-2.625
X6.45Y-2.775
X6.5Y-6.0
X6.575Y-2.825
X6.6Y-3.5
X6.625Y-5.475
X6.675Y-1.825
X6.675Y-5.15
X6.675Y-5.25
X6.675Y-5.6
X6.675Y-6.175
X6.775Y-4.3
X6.825Y-5.5
X6.825Y-6.0
X6.875Y-5.325
X6.9Y-2.8
X6.95Y-2.1
X6.95Y-2.85
X6.95Y-6.175
X6.975Y-4.2
X7.0Y-5.6
X7.0Y-5.7
X7.05Y-4.4
X7.05Y-6.0
X7.075Y-2.85
X7.1Y-1.925
X7.175Y-4.8
X7.225Y-2.1
X7.25Y-1.825
X7.275Y-5.05
X7.2965Y-5.2
X7.3Y-4.8
X7.3Y-5.525
X7.3Y-5.7
X7.3Y-6.2
X7.375Y-1.975
X7.375Y-4.65
X7.4Y-2.85
X7.4Y-4.3
X7.4Y-5.975
X7.45Y-2.8
X7.525Y-3.6
X7.525Y-4.25
X7.525Y-4.85
X7.525Y-5.6
X7.55Y-5.85
X7.575Y-3.95
X7.6Y-3.375
X7.6Y-4.65
X7.65Y-5.45
X7.7Y-2.15
X7.7Y-5.7
X7.7Y-5.875
T2
X3.175Y-2.575
X3.175Y-2.725
X3.175Y-4.475
X3.175Y-4.775
X3.2748Y-2.8994
X3.2748Y-2.9994
X3.2748Y-3.0994
X3.2748Y-3.1994
X3.2748Y-3.2994
X3.2748Y-3.3994
X3.2748Y-3.4994
X3.2748Y-3.5994
X3.2748Y-3.6994
X3.2748Y-3.7994
X3.2748Y-3.8994
X3.2748Y-3.9994
X3.2748Y-4.0994
X3.2748Y-4.1994
X3.275Y-2.575
X3.275Y-2.725
X3.325Y-4.475
X3.325Y-4.775
X3.375Y-2.575
X3.375Y-2.725
X3.475Y-2.575
X3.475Y-2.725
X3.575Y-2.575
X3.575Y-2.725
X3.625Y-4.475
X3.625Y-4.775
X3.675Y-2.575
X3.675Y-2.725
X3.775Y-2.575
X3.775Y-2.725
X3.8748Y-2.8994
X3.8748Y-2.9994
X3.8748Y-3.0994
X3.8748Y-3.1994
X3.8748Y-3.2994
X3.8748Y-3.3994
X3.8748Y-3.4994
X3.8748Y-3.5994
X3.8748Y-3.6994
X3.8748Y-3.7994
X3.8748Y-3.8994
X3.8748Y-3.9994
X3.8748Y-4.0994
X3.8748Y-4.1994
X3.875Y-2.575
X3.875Y-2.725
X3.9004Y-4.8996
X3.9004Y-5.1996
X3.925Y-4.475
X3.925Y-4.775
X3.95Y-5.425
X3.975Y-2.575
X3.975Y-2.725
X4.0004Y-4.8996
X4.0004Y-5.1996
X4.05Y-5.625
X4.1004Y-4.8996
X4.1004Y-5.1996
X4.15Y-5.425
X4.2004Y-4.8996
X4.2004Y-5.1996
X4.225Y-4.475
X4.225Y-4.775
X4.3244Y-2.575
X4.325Y-2.725
X4.3744Y-4.375
X4.375Y-4.8996
X4.375Y-5.1996
X4.3752Y-5.3996
X4.3752Y-5.6996
X4.4244Y-2.575
X4.425Y-2.725
X4.425Y-2.9
X4.425Y-3.0
X4.425Y-3.1
X4.425Y-3.2
X4.425Y-3.3
X4.425Y-3.4
X4.425Y-3.5
X4.425Y-3.6
X4.425Y-3.7
X4.425Y-3.8
X4.425Y-3.9
X4.425Y-4.0
X4.425Y-4.1
X4.425Y-4.2
X4.4744Y-4.375
X4.475Y-4.8996
X4.475Y-5.1996
X4.4752Y-5.3996
X4.4752Y-5.6996
X4.5244Y-2.575
X4.525Y-2.725
X4.5744Y-4.375
X4.575Y-4.8996
X4.575Y-5.1996
X4.5752Y-5.3996
X4.5752Y-5.6996
X4.6244Y-2.575
X4.625Y-2.725
X4.6744Y-4.375
X4.675Y-4.8996
X4.675Y-5.1996
X4.6752Y-5.3996
X4.6752Y-5.6996
X4.7244Y-2.575
X4.725Y-2.725
X4.7744Y-4.375
X4.775Y-4.8996
X4.775Y-5.1996
X4.7752Y-5.3996
X4.7752Y-5.6996
X4.8244Y-2.575
X4.825Y-2.725
X4.8744Y-4.375
X4.875Y-4.8996
X4.875Y-5.1996
X4.8752Y-5.3996
X4.8752Y-5.6996
X4.9244Y-2.575
X4.925Y-2.725
X4.9744Y-4.375
X4.975Y-4.8996
X4.975Y-5.1996
X4.9752Y-5.3996
X4.9752Y-5.6996
X5.0244Y-2.575
X5.025Y-2.725
X5.025Y-2.9
X5.025Y-3.0
X5.025Y-3.1
X5.025Y-3.2
X5.025Y-3.3
X5.025Y-3.4
X5.025Y-3.5
X5.025Y-3.6
X5.025Y-3.7
X5.025Y-3.8
X5.025Y-3.9
X5.025Y-4.0
X5.025Y-4.1
X5.025Y-4.2
X5.0744Y-4.375
X5.075Y-4.8996
X5.075Y-5.1996
X5.0752Y-5.3996
X5.0752Y-5.6996
X5.1244Y-2.575
X5.125Y-2.725
X5.1744Y-4.375
X5.175Y-4.8996
X5.175Y-5.1996
X5.1752Y-5.3996
X5.1752Y-5.6996
X5.275Y-4.8996
X5.275Y-5.1996
X5.2752Y-5.3996
X5.2752Y-5.6996
X5.4498Y-4.8996
X5.4498Y-5.1996
X5.4498Y-5.3996
X5.4498Y-5.6996
X5.475Y-2.575
X5.475Y-2.725
X5.5498Y-4.8996
X5.5498Y-5.1996
X5.5498Y-5.3996
X5.5498Y-5.6996
X5.575Y-2.575
X5.575Y-2.725
X5.575Y-2.8994
X5.575Y-2.9994
X5.575Y-3.0994
X5.575Y-3.1994
X5.575Y-3.2994
X5.575Y-3.3994
X5.575Y-3.4994
X5.575Y-3.5994
X5.575Y-3.6994
X5.575Y-3.7994
X5.575Y-3.8994
X5.575Y-3.9994
X5.575Y-4.0994
X5.575Y-4.1994
X5.6498Y-4.8996
X5.6498Y-5.1996
X5.6498Y-5.3996
X5.6498Y-5.6996
X5.675Y-2.575
X5.675Y-2.725
X5.7498Y-4.8996
X5.7498Y-5.1996
X5.7498Y-5.3996
X5.7498Y-5.6996
X5.775Y-2.575
X5.775Y-2.725
X5.8498Y-4.8996
X5.8498Y-5.1996
X5.8498Y-5.3996
X5.8498Y-5.6996
X5.875Y-2.575
X5.875Y-2.725
X5.9498Y-4.8996
X5.9498Y-5.1996
X5.9498Y-5.3996
X5.9498Y-5.6996
X5.975Y-2.575
X5.975Y-2.725
X6.0498Y-4.8996
X6.0498Y-5.1996
X6.0498Y-5.3996
X6.0498Y-5.6996
X6.075Y-2.575
X6.075Y-2.725
X6.1244Y-4.375
X6.175Y-2.575
X6.175Y-2.725
X6.175Y-2.8994
X6.175Y-2.9994
X6.175Y-3.0994
X6.175Y-3.1994
X6.175Y-3.2994
X6.175Y-3.3994
X6.175Y-3.4994
X6.175Y-3.5994
X6.175Y-3.6994
X6.175Y-3.7994
X6.175Y-3.8994
X6.175Y-3.9994
X6.175Y-4.0994
X6.175Y-4.1994
X6.2244Y-4.375
X6.225Y-5.4
X6.225Y-5.7
X6.275Y-2.575
X6.275Y-2.725
X6.3244Y-4.375
X6.325Y-4.9
X6.325Y-5.2
X6.325Y-5.4
X6.325Y-5.7
X6.375Y-2.95
X6.375Y-3.25
X6.4244Y-4.375
X6.425Y-4.9
X6.425Y-5.2
X6.425Y-5.4
X6.425Y-5.7
X6.45Y-2.55
X6.45Y-2.85
X6.5244Y-4.375
X6.525Y-2.95
X6.525Y-3.25
X6.525Y-4.9
X6.525Y-5.2
X6.525Y-5.4
X6.525Y-5.7
X6.6244Y-2.725
X6.6244Y-4.375
X6.625Y-2.575
X6.625Y-4.9
X6.625Y-5.2
X6.625Y-5.4
X6.625Y-5.7
X6.7244Y-2.725
X6.7244Y-4.375
X6.725Y-2.575
X6.725Y-2.9
X6.725Y-3.0
X6.725Y-3.1
X6.725Y-3.2
X6.725Y-3.3
X6.725Y-3.4
X6.725Y-3.5
X6.725Y-3.6
X6.725Y-3.7
X6.725Y-3.8
X6.725Y-3.9
X6.725Y-4.0
X6.725Y-4.1
X6.725Y-4.2
X6.725Y-4.9
X6.725Y-5.2
X6.725Y-5.4
X6.725Y-5.7
X6.8244Y-2.725
X6.8244Y-4.375
X6.825Y-2.575
X6.825Y-4.9
X6.825Y-5.2
X6.825Y-5.4
X6.825Y-5.7
X6.9244Y-2.725
X6.9244Y-4.375
X6.925Y-2.575
X6.925Y-4.9
X6.925Y-5.2
X6.925Y-5.4
X6.925Y-5.7
X7.0244Y-2.725
X7.025Y-2.575
X7.075Y-4.325
X7.075Y-4.625
X7.0998Y-4.8
X7.0998Y-4.9
X7.0998Y-5.0
X7.0998Y-5.1
X7.0998Y-5.2
X7.0998Y-5.3
X7.0998Y-5.4
X7.0998Y-5.5
X7.0998Y-5.6
X7.0998Y-5.7
X7.1244Y-2.725
X7.125Y-2.575
X7.2Y-4.325
X7.2Y-4.625
X7.2244Y-2.725
X7.225Y-2.575
X7.3244Y-2.725
X7.325Y-2.575
X7.325Y-2.9
X7.325Y-3.0
X7.325Y-3.1
X7.325Y-3.2
X7.325Y-3.3
X7.325Y-3.4
X7.325Y-3.5
X7.325Y-3.6
X7.325Y-3.7
X7.325Y-3.8
X7.325Y-3.9
X7.325Y-4.0
X7.325Y-4.1
X7.325Y-4.2
X7.3998Y-4.8
X7.3998Y-4.9
X7.3998Y-5.0
X7.3998Y-5.1
X7.3998Y-5.2
X7.3998Y-5.3
X7.3998Y-5.4
X7.3998Y-5.5
X7.3998Y-5.6
X7.3998Y-5.7
X7.4244Y-2.725
X7.425Y-2.575
X7.5Y-2.95
X7.5Y-3.25
X7.575Y-2.55
X7.575Y-2.85
X7.65Y-2.95
X7.65Y-3.25
T3
X3.18Y-2.33
X3.18Y-2.43
X3.31Y-2.33
X3.31Y-2.43
X3.44Y-2.33
X3.44Y-2.43
X3.475Y-4.6498
X3.475Y-4.7498
X3.57Y-2.33
X3.57Y-2.43
X3.7Y-2.33
X3.7Y-2.43
X3.775Y-4.6498
X3.775Y-4.7498
X3.83Y-2.33
X3.83Y-2.43
X3.96Y-2.33
X3.96Y-2.43
X4.075Y-4.6498
X4.075Y-4.7498
X4.09Y-2.33
X4.09Y-2.43
X4.29Y-2.3298
X4.29Y-2.4298
X4.375Y-4.65
X4.375Y-4.75
X4.42Y-2.3298
X4.42Y-2.4298
X4.525Y-4.65
X4.525Y-4.75
X4.55Y-2.3298
X4.55Y-2.4298
X4.675Y-4.65
X4.675Y-4.75
X4.68Y-2.3298
X4.68Y-2.4298
X4.81Y-2.3298
X4.81Y-2.4298
X4.825Y-4.65
X4.825Y-4.75
X4.94Y-2.3298
X4.94Y-2.4298
X4.975Y-4.65
X4.975Y-4.75
X5.07Y-2.3298
X5.07Y-2.4298
X5.125Y-4.65
X5.125Y-4.75
X5.2Y-2.3298
X5.2Y-2.4298
X5.275Y-4.65
X5.275Y-4.75
X5.4Y-2.3298
X5.4Y-2.4298
X5.425Y-4.65
X5.425Y-4.75
X5.53Y-2.3298
X5.53Y-2.4298
X5.66Y-2.3298
X5.66Y-2.4298
X5.725Y-4.6498
X5.725Y-4.7498
X5.79Y-2.3298
X5.79Y-2.4298
X5.875Y-4.6498
X5.875Y-4.7498
X5.92Y-2.3298
X5.92Y-2.4298
X6.025Y-4.6498
X6.025Y-4.7498
X6.05Y-2.33
X6.05Y-2.43
X6.175Y-4.65
X6.175Y-4.75
X6.18Y-2.33
X6.18Y-2.43
X6.31Y-2.3298
X6.31Y-2.4298
X6.475Y-4.65
X6.475Y-4.75
X6.51Y-2.33
X6.51Y-2.43
X6.625Y-4.65
X6.625Y-4.75
X6.64Y-2.33
X6.64Y-2.43
X6.77Y-2.33
X6.77Y-2.43
X6.775Y-4.65
X6.775Y-4.75
X6.9Y-2.33
X6.9Y-2.43
X6.925Y-4.65
X6.925Y-4.75
X7.03Y-2.33
X7.03Y-2.43
X7.16Y-2.33
X7.16Y-2.43
X7.29Y-2.33
X7.29Y-2.43
X7.325Y-4.4248
X7.325Y-4.5248
X7.42Y-2.33
X7.42Y-2.43
T4
X3.4256Y-5.925
X3.4256Y-6.025
X3.5256Y-5.925
X3.5256Y-6.025
X3.6256Y-5.925
X3.6256Y-6.025
X3.75Y-1.95
X3.75Y-2.05
X3.85Y-1.95
X3.85Y-2.05
X3.95Y-1.95
X3.95Y-2.05
X4.05Y-1.95
X4.05Y-2.05
X4.15Y-1.95
X4.15Y-2.05
X4.25Y-1.95
X4.25Y-2.05
X4.35Y-1.95
X4.35Y-2.05
X4.45Y-1.95
X4.45Y-2.05
X4.55Y-1.95
X4.55Y-2.05
X4.65Y-1.95
X4.65Y-2.05
X4.75Y-1.95
X4.75Y-2.05
X4.85Y-1.95
X4.85Y-2.05
X4.95Y-1.95
X4.95Y-2.05
X5.05Y-1.95
X5.05Y-2.05
X5.15Y-1.95
X5.15Y-2.05
X5.25Y-1.95
X5.25Y-2.05
X5.35Y-1.95
X5.35Y-2.05
X5.45Y-1.95
X5.45Y-2.05
X5.55Y-1.95
X5.55Y-2.05
X5.65Y-1.95
X5.65Y-2.05
X5.75Y-1.95
X5.75Y-2.05
X5.85Y-1.95
X5.85Y-2.05
X5.95Y-1.95
X5.95Y-2.05
X6.05Y-1.95
X6.05Y-2.05
X6.15Y-1.95
X6.15Y-2.05
X6.25Y-1.95
X6.25Y-2.05
X6.35Y-1.95
X6.35Y-2.05
X6.45Y-1.95
X6.45Y-2.05
X6.55Y-1.95
X6.55Y-2.05
X6.65Y-1.95
X6.65Y-2.05
X6.75Y-1.95
X6.75Y-2.05
X6.85Y-1.95
X6.85Y-2.05
X7.15Y-6.025
X7.25Y-6.025
T5
X3.1614Y-4.922
X3.1614Y-5.178
X3.1614Y-5.372
X3.1614Y-5.628
X3.3386Y-4.922
X3.3386Y-5.178
X3.3386Y-5.372
X3.3386Y-5.628
X3.5364Y-4.922
X3.5364Y-5.178
X3.5364Y-5.372
X3.5364Y-5.628
X3.7136Y-4.922
X3.7136Y-5.178
X3.7136Y-5.372
X3.7136Y-5.628
T0
M30
