%TF.GenerationSoftware,KiCad,Pcbnew,7.0.1*%
%TF.CreationDate,2023-09-10T23:04:21+01:00*%
%TF.ProjectId,Memory_board,4d656d6f-7279-45f6-926f-6172642e6b69,rev?*%
%TF.SameCoordinates,Original*%
%TF.FileFunction,Legend,Top*%
%TF.FilePolarity,Positive*%
%FSLAX46Y46*%
G04 Gerber Fmt 4.6, Leading zero omitted, Abs format (unit mm)*
G04 Created by KiCad (PCBNEW 7.0.1) date 2023-09-10 23:04:21*
%MOMM*%
%LPD*%
G01*
G04 APERTURE LIST*
G04 Aperture macros list*
%AMRoundRect*
0 Rectangle with rounded corners*
0 $1 Rounding radius*
0 $2 $3 $4 $5 $6 $7 $8 $9 X,Y pos of 4 corners*
0 Add a 4 corners polygon primitive as box body*
4,1,4,$2,$3,$4,$5,$6,$7,$8,$9,$2,$3,0*
0 Add four circle primitives for the rounded corners*
1,1,$1+$1,$2,$3*
1,1,$1+$1,$4,$5*
1,1,$1+$1,$6,$7*
1,1,$1+$1,$8,$9*
0 Add four rect primitives between the rounded corners*
20,1,$1+$1,$2,$3,$4,$5,0*
20,1,$1+$1,$4,$5,$6,$7,0*
20,1,$1+$1,$6,$7,$8,$9,0*
20,1,$1+$1,$8,$9,$2,$3,0*%
G04 Aperture macros list end*
%ADD10C,0.300000*%
%ADD11C,0.150000*%
%ADD12C,0.120000*%
%ADD13C,1.600000*%
%ADD14O,1.600000X1.600000*%
%ADD15C,3.500000*%
%ADD16R,1.800000X1.800000*%
%ADD17C,1.800000*%
%ADD18R,1.600000X1.600000*%
%ADD19RoundRect,0.250000X-0.600000X0.600000X-0.600000X-0.600000X0.600000X-0.600000X0.600000X0.600000X0*%
%ADD20C,1.700000*%
G04 APERTURE END LIST*
D10*
X219432142Y-93796428D02*
X219432142Y-92296428D01*
X219432142Y-92296428D02*
X219932142Y-93367857D01*
X219932142Y-93367857D02*
X220432142Y-92296428D01*
X220432142Y-92296428D02*
X220432142Y-93796428D01*
X221146428Y-93010714D02*
X221646428Y-93010714D01*
X221860714Y-93796428D02*
X221146428Y-93796428D01*
X221146428Y-93796428D02*
X221146428Y-92296428D01*
X221146428Y-92296428D02*
X221860714Y-92296428D01*
X222503571Y-93796428D02*
X222503571Y-92296428D01*
X222503571Y-92296428D02*
X223003571Y-93367857D01*
X223003571Y-93367857D02*
X223503571Y-92296428D01*
X223503571Y-92296428D02*
X223503571Y-93796428D01*
X224503572Y-92296428D02*
X224789286Y-92296428D01*
X224789286Y-92296428D02*
X224932143Y-92367857D01*
X224932143Y-92367857D02*
X225075000Y-92510714D01*
X225075000Y-92510714D02*
X225146429Y-92796428D01*
X225146429Y-92796428D02*
X225146429Y-93296428D01*
X225146429Y-93296428D02*
X225075000Y-93582142D01*
X225075000Y-93582142D02*
X224932143Y-93725000D01*
X224932143Y-93725000D02*
X224789286Y-93796428D01*
X224789286Y-93796428D02*
X224503572Y-93796428D01*
X224503572Y-93796428D02*
X224360715Y-93725000D01*
X224360715Y-93725000D02*
X224217857Y-93582142D01*
X224217857Y-93582142D02*
X224146429Y-93296428D01*
X224146429Y-93296428D02*
X224146429Y-92796428D01*
X224146429Y-92796428D02*
X224217857Y-92510714D01*
X224217857Y-92510714D02*
X224360715Y-92367857D01*
X224360715Y-92367857D02*
X224503572Y-92296428D01*
X226646429Y-93796428D02*
X226146429Y-93082142D01*
X225789286Y-93796428D02*
X225789286Y-92296428D01*
X225789286Y-92296428D02*
X226360715Y-92296428D01*
X226360715Y-92296428D02*
X226503572Y-92367857D01*
X226503572Y-92367857D02*
X226575001Y-92439285D01*
X226575001Y-92439285D02*
X226646429Y-92582142D01*
X226646429Y-92582142D02*
X226646429Y-92796428D01*
X226646429Y-92796428D02*
X226575001Y-92939285D01*
X226575001Y-92939285D02*
X226503572Y-93010714D01*
X226503572Y-93010714D02*
X226360715Y-93082142D01*
X226360715Y-93082142D02*
X225789286Y-93082142D01*
X227575001Y-93082142D02*
X227575001Y-93796428D01*
X227075001Y-92296428D02*
X227575001Y-93082142D01*
X227575001Y-93082142D02*
X228075001Y-92296428D01*
X229717857Y-93796428D02*
X229717857Y-92296428D01*
X229717857Y-92296428D02*
X230217857Y-93367857D01*
X230217857Y-93367857D02*
X230717857Y-92296428D01*
X230717857Y-92296428D02*
X230717857Y-93796428D01*
X231717858Y-92296428D02*
X232003572Y-92296428D01*
X232003572Y-92296428D02*
X232146429Y-92367857D01*
X232146429Y-92367857D02*
X232289286Y-92510714D01*
X232289286Y-92510714D02*
X232360715Y-92796428D01*
X232360715Y-92796428D02*
X232360715Y-93296428D01*
X232360715Y-93296428D02*
X232289286Y-93582142D01*
X232289286Y-93582142D02*
X232146429Y-93725000D01*
X232146429Y-93725000D02*
X232003572Y-93796428D01*
X232003572Y-93796428D02*
X231717858Y-93796428D01*
X231717858Y-93796428D02*
X231575001Y-93725000D01*
X231575001Y-93725000D02*
X231432143Y-93582142D01*
X231432143Y-93582142D02*
X231360715Y-93296428D01*
X231360715Y-93296428D02*
X231360715Y-92796428D01*
X231360715Y-92796428D02*
X231432143Y-92510714D01*
X231432143Y-92510714D02*
X231575001Y-92367857D01*
X231575001Y-92367857D02*
X231717858Y-92296428D01*
X233003572Y-93796428D02*
X233003572Y-92296428D01*
X233003572Y-92296428D02*
X233360715Y-92296428D01*
X233360715Y-92296428D02*
X233575001Y-92367857D01*
X233575001Y-92367857D02*
X233717858Y-92510714D01*
X233717858Y-92510714D02*
X233789287Y-92653571D01*
X233789287Y-92653571D02*
X233860715Y-92939285D01*
X233860715Y-92939285D02*
X233860715Y-93153571D01*
X233860715Y-93153571D02*
X233789287Y-93439285D01*
X233789287Y-93439285D02*
X233717858Y-93582142D01*
X233717858Y-93582142D02*
X233575001Y-93725000D01*
X233575001Y-93725000D02*
X233360715Y-93796428D01*
X233360715Y-93796428D02*
X233003572Y-93796428D01*
X234503572Y-92296428D02*
X234503572Y-93510714D01*
X234503572Y-93510714D02*
X234575001Y-93653571D01*
X234575001Y-93653571D02*
X234646430Y-93725000D01*
X234646430Y-93725000D02*
X234789287Y-93796428D01*
X234789287Y-93796428D02*
X235075001Y-93796428D01*
X235075001Y-93796428D02*
X235217858Y-93725000D01*
X235217858Y-93725000D02*
X235289287Y-93653571D01*
X235289287Y-93653571D02*
X235360715Y-93510714D01*
X235360715Y-93510714D02*
X235360715Y-92296428D01*
X236789287Y-93796428D02*
X236075001Y-93796428D01*
X236075001Y-93796428D02*
X236075001Y-92296428D01*
X237289287Y-93010714D02*
X237789287Y-93010714D01*
X238003573Y-93796428D02*
X237289287Y-93796428D01*
X237289287Y-93796428D02*
X237289287Y-92296428D01*
X237289287Y-92296428D02*
X238003573Y-92296428D01*
D11*
G36*
X278576146Y-61023980D02*
G01*
X278593036Y-61024513D01*
X278609462Y-61025402D01*
X278625425Y-61026646D01*
X278640924Y-61028246D01*
X278655959Y-61030201D01*
X278670530Y-61032511D01*
X278684638Y-61035178D01*
X278698283Y-61038199D01*
X278711463Y-61041576D01*
X278719993Y-61044025D01*
X278732473Y-61047959D01*
X278744526Y-61052176D01*
X278756152Y-61056676D01*
X278767350Y-61061460D01*
X278778120Y-61066527D01*
X278791815Y-61073723D01*
X278804750Y-61081424D01*
X278816925Y-61089628D01*
X278828339Y-61098336D01*
X278831074Y-61100592D01*
X278841557Y-61109911D01*
X278851316Y-61119698D01*
X278860351Y-61129951D01*
X278868663Y-61140672D01*
X278876251Y-61151860D01*
X278883116Y-61163515D01*
X278889257Y-61175637D01*
X278894675Y-61188226D01*
X278899415Y-61201218D01*
X278903523Y-61214550D01*
X278906999Y-61228220D01*
X278909842Y-61242228D01*
X278912054Y-61256576D01*
X278913634Y-61271263D01*
X278914582Y-61286288D01*
X278914898Y-61301653D01*
X278914665Y-61313885D01*
X278913964Y-61325961D01*
X278912796Y-61337882D01*
X278911161Y-61349646D01*
X278909059Y-61361256D01*
X278906490Y-61372709D01*
X278902622Y-61386807D01*
X278899951Y-61395149D01*
X278894929Y-61408694D01*
X278889206Y-61421853D01*
X278882782Y-61434626D01*
X278875656Y-61447012D01*
X278867829Y-61459012D01*
X278859301Y-61470626D01*
X278855694Y-61475163D01*
X278846276Y-61486108D01*
X278836156Y-61496595D01*
X278827556Y-61504655D01*
X278818507Y-61512422D01*
X278809009Y-61519896D01*
X278799062Y-61527077D01*
X278788666Y-61533964D01*
X278783300Y-61537298D01*
X278772259Y-61543613D01*
X278760824Y-61549516D01*
X278748995Y-61555007D01*
X278736772Y-61560086D01*
X278724155Y-61564753D01*
X278711145Y-61569007D01*
X278697740Y-61572849D01*
X278683942Y-61576279D01*
X278695084Y-61580607D01*
X278705796Y-61585677D01*
X278716077Y-61591488D01*
X278725928Y-61598041D01*
X278735348Y-61605337D01*
X278744337Y-61613374D01*
X278752897Y-61622153D01*
X278761025Y-61631674D01*
X278768962Y-61641904D01*
X278776944Y-61652959D01*
X278784972Y-61664839D01*
X278793046Y-61677542D01*
X278799131Y-61687611D01*
X278805242Y-61698144D01*
X278811379Y-61709140D01*
X278817542Y-61720599D01*
X278823730Y-61732523D01*
X278825799Y-61736600D01*
X278996378Y-62093000D01*
X278830781Y-62093000D01*
X278669874Y-61745979D01*
X278664174Y-61733859D01*
X278658431Y-61722412D01*
X278652645Y-61711637D01*
X278645645Y-61699595D01*
X278638583Y-61688522D01*
X278632651Y-61680034D01*
X278625504Y-61670633D01*
X278616878Y-61660629D01*
X278607945Y-61651663D01*
X278598702Y-61643735D01*
X278591912Y-61638708D01*
X278580792Y-61631509D01*
X278569124Y-61625445D01*
X278556905Y-61620518D01*
X278544138Y-61616726D01*
X278532545Y-61614099D01*
X278520335Y-61612118D01*
X278507509Y-61610781D01*
X278494065Y-61610090D01*
X278486106Y-61609985D01*
X278416936Y-61609985D01*
X278416936Y-62093000D01*
X278270097Y-62093000D01*
X278270097Y-61145728D01*
X278416936Y-61145728D01*
X278416936Y-61492748D01*
X278535638Y-61492748D01*
X278548447Y-61492570D01*
X278560935Y-61492034D01*
X278573103Y-61491141D01*
X278584951Y-61489891D01*
X278599309Y-61487826D01*
X278613166Y-61485202D01*
X278626523Y-61482021D01*
X278629134Y-61481318D01*
X278641840Y-61477382D01*
X278653944Y-61472903D01*
X278665447Y-61467880D01*
X278676349Y-61462313D01*
X278686651Y-61456202D01*
X278696351Y-61449547D01*
X278700062Y-61446733D01*
X278710579Y-61437700D01*
X278720148Y-61427966D01*
X278728769Y-61417531D01*
X278736442Y-61406396D01*
X278743167Y-61394560D01*
X278745198Y-61390459D01*
X278750677Y-61377579D01*
X278754376Y-61366311D01*
X278757288Y-61354556D01*
X278759414Y-61342314D01*
X278760752Y-61329586D01*
X278761303Y-61316371D01*
X278761318Y-61313669D01*
X278760844Y-61298219D01*
X278759422Y-61283520D01*
X278757053Y-61269573D01*
X278753735Y-61256379D01*
X278749469Y-61243937D01*
X278744255Y-61232247D01*
X278738093Y-61221310D01*
X278730983Y-61211124D01*
X278722926Y-61201691D01*
X278713920Y-61193010D01*
X278707390Y-61187640D01*
X278696889Y-61180150D01*
X278685610Y-61173397D01*
X278673554Y-61167380D01*
X278660719Y-61162100D01*
X278647107Y-61157557D01*
X278632717Y-61153750D01*
X278617548Y-61150681D01*
X278601602Y-61148348D01*
X278584878Y-61146751D01*
X278567375Y-61145892D01*
X278555275Y-61145728D01*
X278416936Y-61145728D01*
X278270097Y-61145728D01*
X278270097Y-61023802D01*
X278558792Y-61023802D01*
X278576146Y-61023980D01*
G37*
G36*
X279537980Y-61005193D02*
G01*
X279550636Y-61005640D01*
X279563085Y-61006384D01*
X279575325Y-61007426D01*
X279587356Y-61008765D01*
X279599180Y-61010402D01*
X279610795Y-61012337D01*
X279627826Y-61015798D01*
X279644389Y-61019928D01*
X279660483Y-61024728D01*
X279676108Y-61030197D01*
X279691265Y-61036337D01*
X279705952Y-61043146D01*
X279720176Y-61050521D01*
X279733941Y-61058468D01*
X279747248Y-61066987D01*
X279760096Y-61076078D01*
X279772486Y-61085740D01*
X279784417Y-61095975D01*
X279795890Y-61106781D01*
X279806904Y-61118159D01*
X279817459Y-61130109D01*
X279827556Y-61142631D01*
X279834033Y-61151297D01*
X279843418Y-61164759D01*
X279852340Y-61178767D01*
X279860798Y-61193322D01*
X279868792Y-61208422D01*
X279876322Y-61224069D01*
X279881085Y-61234803D01*
X279885642Y-61245780D01*
X279889992Y-61257000D01*
X279894137Y-61268463D01*
X279898075Y-61280168D01*
X279901808Y-61292116D01*
X279905334Y-61304307D01*
X279908654Y-61316741D01*
X279910237Y-61323048D01*
X279913289Y-61335824D01*
X279916144Y-61348799D01*
X279918803Y-61361973D01*
X279921264Y-61375347D01*
X279923529Y-61388919D01*
X279925597Y-61402691D01*
X279927467Y-61416662D01*
X279929141Y-61430833D01*
X279930618Y-61445202D01*
X279931898Y-61459771D01*
X279932981Y-61474539D01*
X279933867Y-61489506D01*
X279934556Y-61504672D01*
X279935049Y-61520038D01*
X279935344Y-61535603D01*
X279935443Y-61551367D01*
X279935309Y-61569347D01*
X279934907Y-61587018D01*
X279934237Y-61604381D01*
X279933299Y-61621434D01*
X279932094Y-61638178D01*
X279930620Y-61654613D01*
X279928879Y-61670738D01*
X279926870Y-61686555D01*
X279924593Y-61702062D01*
X279922047Y-61717261D01*
X279919234Y-61732150D01*
X279916154Y-61746730D01*
X279912805Y-61761001D01*
X279909188Y-61774963D01*
X279905303Y-61788616D01*
X279901151Y-61801960D01*
X279896806Y-61815006D01*
X279892271Y-61827766D01*
X279887546Y-61840239D01*
X279882631Y-61852426D01*
X279877526Y-61864328D01*
X279872231Y-61875942D01*
X279866746Y-61887271D01*
X279861071Y-61898314D01*
X279855205Y-61909070D01*
X279849150Y-61919540D01*
X279842905Y-61929724D01*
X279836469Y-61939621D01*
X279826460Y-61953931D01*
X279816023Y-61967596D01*
X279808827Y-61976349D01*
X279797771Y-61988899D01*
X279786364Y-62000831D01*
X279774608Y-62012145D01*
X279762500Y-62022841D01*
X279750043Y-62032918D01*
X279737235Y-62042377D01*
X279724077Y-62051218D01*
X279710568Y-62059441D01*
X279696709Y-62067045D01*
X279682500Y-62074031D01*
X279672833Y-62078345D01*
X279658190Y-62084316D01*
X279643387Y-62089700D01*
X279628425Y-62094496D01*
X279613303Y-62098706D01*
X279598021Y-62102327D01*
X279582580Y-62105362D01*
X279566979Y-62107809D01*
X279551218Y-62109669D01*
X279535298Y-62110942D01*
X279519217Y-62111627D01*
X279508408Y-62111757D01*
X279495543Y-62111611D01*
X279482887Y-62111171D01*
X279470438Y-62110438D01*
X279458198Y-62109413D01*
X279446167Y-62108094D01*
X279434343Y-62106482D01*
X279422728Y-62104577D01*
X279405697Y-62101169D01*
X279389134Y-62097103D01*
X279373040Y-62092377D01*
X279357415Y-62086991D01*
X279342259Y-62080946D01*
X279327571Y-62074242D01*
X279313350Y-62066916D01*
X279299592Y-62059009D01*
X279286298Y-62050519D01*
X279273468Y-62041447D01*
X279261102Y-62031793D01*
X279249199Y-62021557D01*
X279237760Y-62010739D01*
X279226784Y-61999338D01*
X279216272Y-61987356D01*
X279206224Y-61974791D01*
X279199783Y-61966091D01*
X279190503Y-61952521D01*
X279181676Y-61938411D01*
X279173302Y-61923760D01*
X279165382Y-61908567D01*
X279157915Y-61892834D01*
X279153189Y-61882044D01*
X279148664Y-61871015D01*
X279144341Y-61859744D01*
X279140219Y-61848234D01*
X279136299Y-61836482D01*
X279132581Y-61824491D01*
X279129063Y-61812259D01*
X279125748Y-61799786D01*
X279124166Y-61793460D01*
X279121184Y-61780610D01*
X279118395Y-61767558D01*
X279115799Y-61754305D01*
X279113394Y-61740850D01*
X279111183Y-61727194D01*
X279109163Y-61713336D01*
X279107336Y-61699277D01*
X279105701Y-61685016D01*
X279104258Y-61670554D01*
X279103008Y-61655890D01*
X279101950Y-61641025D01*
X279101085Y-61625958D01*
X279100411Y-61610690D01*
X279099931Y-61595220D01*
X279099642Y-61579549D01*
X279099546Y-61563676D01*
X279099609Y-61555177D01*
X279252247Y-61555177D01*
X279252304Y-61567092D01*
X279252476Y-61578876D01*
X279252948Y-61596308D01*
X279253678Y-61613446D01*
X279254665Y-61630290D01*
X279255910Y-61646841D01*
X279257413Y-61663098D01*
X279259173Y-61679062D01*
X279261191Y-61694731D01*
X279263466Y-61710108D01*
X279266000Y-61725190D01*
X279266901Y-61730152D01*
X279269851Y-61744742D01*
X279273094Y-61758945D01*
X279276631Y-61772762D01*
X279280461Y-61786192D01*
X279284585Y-61799236D01*
X279289003Y-61811894D01*
X279293715Y-61824165D01*
X279298720Y-61836050D01*
X279304019Y-61847548D01*
X279309611Y-61858660D01*
X279313503Y-61865854D01*
X279319603Y-61876238D01*
X279326032Y-61886180D01*
X279335118Y-61898746D01*
X279344790Y-61910525D01*
X279355048Y-61921516D01*
X279365893Y-61931719D01*
X279377323Y-61941135D01*
X279389340Y-61949763D01*
X279395568Y-61953781D01*
X279408487Y-61961131D01*
X279422038Y-61967501D01*
X279436221Y-61972892D01*
X279451036Y-61977302D01*
X279462562Y-61979966D01*
X279474443Y-61982079D01*
X279486680Y-61983641D01*
X279499272Y-61984652D01*
X279512220Y-61985111D01*
X279516615Y-61985142D01*
X279529469Y-61984848D01*
X279541983Y-61983967D01*
X279554158Y-61982499D01*
X279565992Y-61980443D01*
X279577486Y-61977800D01*
X279592282Y-61973363D01*
X279606474Y-61967881D01*
X279620062Y-61961355D01*
X279633045Y-61953785D01*
X279636196Y-61951729D01*
X279648520Y-61942932D01*
X279660285Y-61933393D01*
X279671491Y-61923112D01*
X279682138Y-61912089D01*
X279692227Y-61900324D01*
X279699427Y-61891013D01*
X279706313Y-61881286D01*
X279712884Y-61871140D01*
X279719141Y-61860578D01*
X279725092Y-61849637D01*
X279730743Y-61838356D01*
X279736096Y-61826735D01*
X279741150Y-61814773D01*
X279745906Y-61802472D01*
X279750362Y-61789831D01*
X279754520Y-61776849D01*
X279758379Y-61763528D01*
X279761939Y-61749867D01*
X279765200Y-61735865D01*
X279767208Y-61726342D01*
X279770037Y-61711796D01*
X279772587Y-61697065D01*
X279774859Y-61682148D01*
X279776853Y-61667046D01*
X279778568Y-61651758D01*
X279780006Y-61636285D01*
X279781165Y-61620627D01*
X279782046Y-61604782D01*
X279782649Y-61588753D01*
X279782973Y-61572538D01*
X279783035Y-61561625D01*
X279782978Y-61549818D01*
X279782677Y-61532343D01*
X279782119Y-61515151D01*
X279781303Y-61498243D01*
X279780230Y-61481619D01*
X279778899Y-61465278D01*
X279777311Y-61449220D01*
X279775465Y-61433445D01*
X279773361Y-61417954D01*
X279770999Y-61402746D01*
X279768381Y-61387822D01*
X279765531Y-61373177D01*
X279762366Y-61358919D01*
X279758888Y-61345047D01*
X279755095Y-61331562D01*
X279750988Y-61318463D01*
X279746567Y-61305750D01*
X279741831Y-61293424D01*
X279736782Y-61281484D01*
X279731418Y-61269931D01*
X279725739Y-61258764D01*
X279721779Y-61251534D01*
X279715624Y-61241045D01*
X279709139Y-61231008D01*
X279702325Y-61221426D01*
X279692726Y-61209354D01*
X279682541Y-61198088D01*
X279671770Y-61187629D01*
X279660413Y-61177975D01*
X279648469Y-61169127D01*
X279639127Y-61163020D01*
X279626121Y-61155670D01*
X279612456Y-61149300D01*
X279598131Y-61143910D01*
X279583147Y-61139500D01*
X279571476Y-61136835D01*
X279559434Y-61134722D01*
X279547021Y-61133160D01*
X279534237Y-61132150D01*
X279521082Y-61131690D01*
X279516615Y-61131660D01*
X279503816Y-61131956D01*
X279491356Y-61132845D01*
X279479237Y-61134326D01*
X279467458Y-61136399D01*
X279456019Y-61139066D01*
X279441296Y-61143542D01*
X279427177Y-61149072D01*
X279413663Y-61155655D01*
X279400753Y-61163291D01*
X279397620Y-61165365D01*
X279385438Y-61174094D01*
X279373806Y-61183573D01*
X279362724Y-61193804D01*
X279352191Y-61204786D01*
X279342207Y-61216519D01*
X279332773Y-61229003D01*
X279326059Y-61238858D01*
X279319653Y-61249137D01*
X279315554Y-61256224D01*
X279309706Y-61267170D01*
X279304141Y-61278466D01*
X279298859Y-61290113D01*
X279293861Y-61302111D01*
X279289146Y-61314458D01*
X279284714Y-61327156D01*
X279280566Y-61340205D01*
X279276701Y-61353603D01*
X279273120Y-61367352D01*
X279269822Y-61381451D01*
X279267780Y-61391046D01*
X279265004Y-61405586D01*
X279262501Y-61420302D01*
X279260271Y-61435193D01*
X279258314Y-61450259D01*
X279256631Y-61465501D01*
X279255220Y-61480917D01*
X279254082Y-61496509D01*
X279253217Y-61512275D01*
X279252626Y-61528217D01*
X279252307Y-61544335D01*
X279252247Y-61555177D01*
X279099609Y-61555177D01*
X279099678Y-61545909D01*
X279100073Y-61528437D01*
X279100731Y-61511260D01*
X279101653Y-61494379D01*
X279102837Y-61477793D01*
X279104286Y-61461502D01*
X279105997Y-61445507D01*
X279107972Y-61429807D01*
X279110211Y-61414402D01*
X279112712Y-61399293D01*
X279115477Y-61384480D01*
X279118505Y-61369961D01*
X279121797Y-61355738D01*
X279125352Y-61341811D01*
X279129170Y-61328179D01*
X279133251Y-61314842D01*
X279137595Y-61301797D01*
X279142127Y-61289041D01*
X279146846Y-61276573D01*
X279151753Y-61264393D01*
X279156848Y-61252503D01*
X279162130Y-61240900D01*
X279167600Y-61229587D01*
X279173258Y-61218561D01*
X279179104Y-61207824D01*
X279185138Y-61197376D01*
X279191359Y-61187217D01*
X279197768Y-61177345D01*
X279207734Y-61163079D01*
X279218122Y-61149463D01*
X279225282Y-61140745D01*
X279236386Y-61128143D01*
X279247824Y-61116164D01*
X279259597Y-61104808D01*
X279271705Y-61094075D01*
X279284148Y-61083966D01*
X279296926Y-61074480D01*
X279310038Y-61065618D01*
X279323486Y-61057379D01*
X279337269Y-61049764D01*
X279351386Y-61042772D01*
X279360983Y-61038457D01*
X279375574Y-61032485D01*
X279390329Y-61027102D01*
X279405249Y-61022305D01*
X279420334Y-61018096D01*
X279435584Y-61014474D01*
X279450999Y-61011440D01*
X279466579Y-61008992D01*
X279482323Y-61007132D01*
X279498233Y-61005860D01*
X279514307Y-61005175D01*
X279525115Y-61005044D01*
X279537980Y-61005193D01*
G37*
G36*
X280863077Y-62093000D02*
G01*
X280719755Y-62093000D01*
X280698360Y-61421820D01*
X280689274Y-61168589D01*
X280638862Y-61316014D01*
X280479713Y-61736600D01*
X280378304Y-61736600D01*
X280226775Y-61332134D01*
X280176364Y-61168589D01*
X280173140Y-61433251D01*
X280154089Y-62093000D01*
X280015750Y-62093000D01*
X280068506Y-61023802D01*
X280242309Y-61023802D01*
X280387390Y-61421820D01*
X280434577Y-61556056D01*
X280479713Y-61421820D01*
X280632414Y-61023802D01*
X280811200Y-61023802D01*
X280863077Y-62093000D01*
G37*
G36*
X231930228Y-58483928D02*
G01*
X231945624Y-58484306D01*
X231960769Y-58484935D01*
X231975663Y-58485817D01*
X231990307Y-58486950D01*
X232004700Y-58488336D01*
X232018842Y-58489973D01*
X232032734Y-58491862D01*
X232046374Y-58494003D01*
X232059764Y-58496396D01*
X232072904Y-58499040D01*
X232085792Y-58501937D01*
X232098430Y-58505085D01*
X232110817Y-58508486D01*
X232122954Y-58512138D01*
X232134839Y-58516042D01*
X232146474Y-58520198D01*
X232157858Y-58524606D01*
X232168992Y-58529266D01*
X232179875Y-58534177D01*
X232190507Y-58539341D01*
X232211018Y-58550423D01*
X232230527Y-58562513D01*
X232249033Y-58575611D01*
X232266536Y-58589716D01*
X232283037Y-58604828D01*
X232290911Y-58612762D01*
X232305959Y-58629379D01*
X232320036Y-58647063D01*
X232333143Y-58665814D01*
X232345279Y-58685632D01*
X232350983Y-58695941D01*
X232356444Y-58706517D01*
X232361662Y-58717360D01*
X232366638Y-58728469D01*
X232371371Y-58739845D01*
X232375861Y-58751488D01*
X232380109Y-58763398D01*
X232384114Y-58775575D01*
X232387876Y-58788018D01*
X232391395Y-58800728D01*
X232394672Y-58813704D01*
X232397706Y-58826948D01*
X232400497Y-58840458D01*
X232403045Y-58854235D01*
X232405351Y-58868279D01*
X232407414Y-58882590D01*
X232409235Y-58897167D01*
X232410812Y-58912011D01*
X232412147Y-58927122D01*
X232413240Y-58942499D01*
X232414089Y-58958144D01*
X232414696Y-58974055D01*
X232415060Y-58990232D01*
X232415181Y-59006677D01*
X232415076Y-59021019D01*
X232414759Y-59035247D01*
X232414231Y-59049361D01*
X232413491Y-59063363D01*
X232412541Y-59077251D01*
X232411379Y-59091026D01*
X232410006Y-59104687D01*
X232408422Y-59118235D01*
X232406626Y-59131670D01*
X232404620Y-59144991D01*
X232403165Y-59153809D01*
X232400785Y-59166913D01*
X232398153Y-59179847D01*
X232395269Y-59192611D01*
X232392132Y-59205205D01*
X232388743Y-59217629D01*
X232385102Y-59229883D01*
X232381208Y-59241967D01*
X232377061Y-59253881D01*
X232372662Y-59265625D01*
X232368011Y-59277199D01*
X232364770Y-59284821D01*
X232359685Y-59296046D01*
X232354321Y-59307081D01*
X232348680Y-59317925D01*
X232342760Y-59328578D01*
X232336562Y-59339041D01*
X232330086Y-59349314D01*
X232323332Y-59359395D01*
X232316300Y-59369286D01*
X232308989Y-59378986D01*
X232301400Y-59388496D01*
X232296186Y-59394730D01*
X232288160Y-59403891D01*
X232279799Y-59412800D01*
X232271104Y-59421456D01*
X232262073Y-59429860D01*
X232252708Y-59438011D01*
X232243007Y-59445910D01*
X232232972Y-59453557D01*
X232222602Y-59460950D01*
X232211897Y-59468092D01*
X232200857Y-59474981D01*
X232193311Y-59479434D01*
X232181705Y-59485889D01*
X232169749Y-59492066D01*
X232157443Y-59497965D01*
X232144786Y-59503586D01*
X232131779Y-59508929D01*
X232118422Y-59513993D01*
X232104714Y-59518779D01*
X232090656Y-59523287D01*
X232076247Y-59527517D01*
X232061489Y-59531469D01*
X232051455Y-59533949D01*
X232036144Y-59537353D01*
X232020436Y-59540423D01*
X232004332Y-59543158D01*
X231987831Y-59545558D01*
X231970933Y-59547623D01*
X231953639Y-59549353D01*
X231941889Y-59550320D01*
X231929963Y-59551139D01*
X231917860Y-59551809D01*
X231905581Y-59552330D01*
X231893126Y-59552702D01*
X231880494Y-59552925D01*
X231867687Y-59553000D01*
X231637024Y-59553000D01*
X231637024Y-58605728D01*
X231783569Y-58605728D01*
X231783569Y-59426384D01*
X231893185Y-59426384D01*
X231915816Y-59425984D01*
X231937727Y-59424782D01*
X231958921Y-59422780D01*
X231979396Y-59419977D01*
X231999152Y-59416373D01*
X232018190Y-59411969D01*
X232036510Y-59406763D01*
X232054111Y-59400757D01*
X232070994Y-59393950D01*
X232087158Y-59386342D01*
X232102604Y-59377933D01*
X232117332Y-59368723D01*
X232131341Y-59358712D01*
X232144632Y-59347901D01*
X232157204Y-59336288D01*
X232169058Y-59323875D01*
X232180193Y-59310661D01*
X232190610Y-59296646D01*
X232200309Y-59281831D01*
X232209289Y-59266214D01*
X232217551Y-59249797D01*
X232225094Y-59232578D01*
X232231919Y-59214559D01*
X232238026Y-59195739D01*
X232243414Y-59176119D01*
X232248084Y-59155697D01*
X232252035Y-59134474D01*
X232255268Y-59112451D01*
X232257782Y-59089627D01*
X232259578Y-59066002D01*
X232260656Y-59041576D01*
X232261015Y-59016349D01*
X232260930Y-59002272D01*
X232260676Y-58988469D01*
X232260253Y-58974941D01*
X232259660Y-58961688D01*
X232258897Y-58948709D01*
X232257965Y-58936005D01*
X232256864Y-58923577D01*
X232255593Y-58911422D01*
X232254153Y-58899543D01*
X232251675Y-58882239D01*
X232248815Y-58865554D01*
X232245575Y-58849486D01*
X232241953Y-58834037D01*
X232239326Y-58824081D01*
X232235119Y-58809621D01*
X232230520Y-58795697D01*
X232225529Y-58782309D01*
X232220147Y-58769456D01*
X232214374Y-58757140D01*
X232208208Y-58745359D01*
X232201652Y-58734114D01*
X232194703Y-58723404D01*
X232187363Y-58713231D01*
X232179632Y-58703593D01*
X232174260Y-58697466D01*
X232165876Y-58688633D01*
X232157101Y-58680268D01*
X232147933Y-58672373D01*
X232138375Y-58664946D01*
X232128425Y-58657988D01*
X232118083Y-58651500D01*
X232107349Y-58645479D01*
X232096225Y-58639928D01*
X232084708Y-58634846D01*
X232072800Y-58630232D01*
X232064644Y-58627417D01*
X232052078Y-58623541D01*
X232039111Y-58620046D01*
X232025741Y-58616932D01*
X232011970Y-58614200D01*
X231997797Y-58611849D01*
X231983222Y-58609879D01*
X231968245Y-58608291D01*
X231952866Y-58607084D01*
X231937086Y-58606258D01*
X231920903Y-58605813D01*
X231909892Y-58605728D01*
X231783569Y-58605728D01*
X231637024Y-58605728D01*
X231637024Y-58483802D01*
X231914581Y-58483802D01*
X231930228Y-58483928D01*
G37*
G36*
X233247854Y-59553000D02*
G01*
X232635293Y-59553000D01*
X232635293Y-58483802D01*
X233247854Y-58483802D01*
X233247854Y-58605728D01*
X232782132Y-58605728D01*
X232782132Y-58943369D01*
X233229682Y-58943369D01*
X233229682Y-59065295D01*
X232782132Y-59065295D01*
X232782132Y-59426384D01*
X233247854Y-59426384D01*
X233247854Y-59553000D01*
G37*
G36*
X234212418Y-59524863D02*
G01*
X234196212Y-59530541D01*
X234179908Y-59535854D01*
X234163505Y-59540800D01*
X234147004Y-59545379D01*
X234130404Y-59549592D01*
X234113706Y-59553439D01*
X234096909Y-59556920D01*
X234080014Y-59560034D01*
X234063020Y-59562781D01*
X234045928Y-59565163D01*
X234028738Y-59567178D01*
X234011449Y-59568826D01*
X233994061Y-59570109D01*
X233976575Y-59571025D01*
X233958991Y-59571574D01*
X233941308Y-59571757D01*
X233927142Y-59571624D01*
X233913182Y-59571224D01*
X233899429Y-59570557D01*
X233885882Y-59569623D01*
X233872542Y-59568423D01*
X233859409Y-59566956D01*
X233846482Y-59565222D01*
X233833762Y-59563221D01*
X233821249Y-59560954D01*
X233808942Y-59558419D01*
X233796842Y-59555618D01*
X233784949Y-59552551D01*
X233773262Y-59549216D01*
X233761782Y-59545615D01*
X233750508Y-59541747D01*
X233739442Y-59537612D01*
X233717928Y-59528542D01*
X233697241Y-59518406D01*
X233677381Y-59507202D01*
X233658347Y-59494931D01*
X233640140Y-59481593D01*
X233622759Y-59467188D01*
X233606205Y-59451716D01*
X233590478Y-59435177D01*
X233575678Y-59417556D01*
X233561833Y-59398911D01*
X233548942Y-59379243D01*
X233542855Y-59369025D01*
X233537007Y-59358552D01*
X233531397Y-59347822D01*
X233526026Y-59336837D01*
X233520894Y-59325595D01*
X233516001Y-59314098D01*
X233511346Y-59302345D01*
X233506930Y-59290336D01*
X233502752Y-59278071D01*
X233498814Y-59265550D01*
X233495114Y-59252773D01*
X233491652Y-59239741D01*
X233488430Y-59226452D01*
X233485446Y-59212908D01*
X233482701Y-59199108D01*
X233480194Y-59185052D01*
X233477926Y-59170740D01*
X233475897Y-59156172D01*
X233474107Y-59141348D01*
X233472556Y-59126269D01*
X233471243Y-59110933D01*
X233470168Y-59095342D01*
X233469333Y-59079495D01*
X233468736Y-59063391D01*
X233468378Y-59047032D01*
X233468259Y-59030418D01*
X233468390Y-59014285D01*
X233468785Y-58998347D01*
X233469444Y-58982604D01*
X233470365Y-58967055D01*
X233471550Y-58951701D01*
X233472999Y-58936541D01*
X233474710Y-58921576D01*
X233476685Y-58906806D01*
X233478923Y-58892231D01*
X233481425Y-58877850D01*
X233484190Y-58863663D01*
X233487218Y-58849672D01*
X233490510Y-58835875D01*
X233494065Y-58822272D01*
X233497883Y-58808864D01*
X233501964Y-58795651D01*
X233506291Y-58782660D01*
X233510844Y-58769919D01*
X233515624Y-58757427D01*
X233520631Y-58745185D01*
X233525864Y-58733192D01*
X233531324Y-58721449D01*
X233537010Y-58709955D01*
X233542924Y-58698711D01*
X233549064Y-58687717D01*
X233555431Y-58676972D01*
X233562024Y-58666477D01*
X233568844Y-58656231D01*
X233575891Y-58646235D01*
X233583164Y-58636489D01*
X233590664Y-58626992D01*
X233598391Y-58617745D01*
X233606333Y-58608717D01*
X233614479Y-58599953D01*
X233622829Y-58591452D01*
X233631382Y-58583215D01*
X233640140Y-58575241D01*
X233649101Y-58567530D01*
X233658266Y-58560082D01*
X233667634Y-58552898D01*
X233677207Y-58545977D01*
X233686983Y-58539320D01*
X233696963Y-58532926D01*
X233707147Y-58526795D01*
X233717534Y-58520927D01*
X233728125Y-58515323D01*
X233738921Y-58509982D01*
X233749920Y-58504905D01*
X233761141Y-58500078D01*
X233772529Y-58495562D01*
X233784084Y-58491358D01*
X233795807Y-58487466D01*
X233807696Y-58483884D01*
X233819753Y-58480615D01*
X233831977Y-58477656D01*
X233844368Y-58475009D01*
X233856927Y-58472674D01*
X233869652Y-58470650D01*
X233882545Y-58468937D01*
X233895604Y-58467535D01*
X233908831Y-58466446D01*
X233922225Y-58465667D01*
X233935786Y-58465200D01*
X233949515Y-58465044D01*
X233963488Y-58465176D01*
X233977270Y-58465570D01*
X233990862Y-58466227D01*
X234004263Y-58467146D01*
X234017474Y-58468329D01*
X234030494Y-58469774D01*
X234043323Y-58471482D01*
X234055962Y-58473452D01*
X234068410Y-58475686D01*
X234080668Y-58478182D01*
X234088733Y-58479992D01*
X234100777Y-58482936D01*
X234112728Y-58486164D01*
X234124586Y-58489675D01*
X234136351Y-58493469D01*
X234148024Y-58497547D01*
X234159604Y-58501908D01*
X234171091Y-58506553D01*
X234182486Y-58511481D01*
X234193788Y-58516692D01*
X234204997Y-58522187D01*
X234212418Y-58526007D01*
X234212418Y-58671381D01*
X234201443Y-58664666D01*
X234190391Y-58658260D01*
X234179262Y-58652164D01*
X234168056Y-58646376D01*
X234156772Y-58640898D01*
X234145411Y-58635729D01*
X234133973Y-58630869D01*
X234122457Y-58626318D01*
X234110864Y-58622076D01*
X234099194Y-58618143D01*
X234091371Y-58615693D01*
X234079510Y-58612236D01*
X234067449Y-58609119D01*
X234055186Y-58606342D01*
X234042722Y-58603905D01*
X234030058Y-58601809D01*
X234017193Y-58600052D01*
X234004126Y-58598635D01*
X233990859Y-58597558D01*
X233977391Y-58596821D01*
X233963722Y-58596425D01*
X233954497Y-58596349D01*
X233940390Y-58596599D01*
X233926536Y-58597349D01*
X233912934Y-58598598D01*
X233899584Y-58600347D01*
X233886487Y-58602596D01*
X233873642Y-58605345D01*
X233861050Y-58608593D01*
X233848710Y-58612341D01*
X233836622Y-58616589D01*
X233824787Y-58621336D01*
X233817038Y-58624779D01*
X233805714Y-58630336D01*
X233794716Y-58636347D01*
X233784042Y-58642811D01*
X233773692Y-58649728D01*
X233763667Y-58657099D01*
X233753967Y-58664923D01*
X233744591Y-58673201D01*
X233735540Y-58681932D01*
X233726813Y-58691116D01*
X233718411Y-58700754D01*
X233712990Y-58707431D01*
X233705139Y-58717806D01*
X233697634Y-58728599D01*
X233690473Y-58739808D01*
X233683658Y-58751436D01*
X233677188Y-58763480D01*
X233671063Y-58775942D01*
X233665283Y-58788821D01*
X233659849Y-58802118D01*
X233654760Y-58815831D01*
X233650015Y-58829962D01*
X233647045Y-58839615D01*
X233642907Y-58854426D01*
X233639176Y-58869624D01*
X233635852Y-58885208D01*
X233632935Y-58901178D01*
X233630425Y-58917535D01*
X233628322Y-58934278D01*
X233626626Y-58951407D01*
X233625337Y-58968923D01*
X233624704Y-58980815D01*
X233624252Y-58992879D01*
X233623981Y-59005114D01*
X233623890Y-59017521D01*
X233623973Y-59030537D01*
X233624222Y-59043350D01*
X233624637Y-59055962D01*
X233625218Y-59068373D01*
X233625965Y-59080582D01*
X233626878Y-59092590D01*
X233627957Y-59104396D01*
X233630614Y-59127403D01*
X233633934Y-59149605D01*
X233637918Y-59171001D01*
X233642566Y-59191590D01*
X233647879Y-59211374D01*
X233653855Y-59230352D01*
X233660495Y-59248523D01*
X233667800Y-59265889D01*
X233675768Y-59282449D01*
X233684400Y-59298202D01*
X233693697Y-59313150D01*
X233703658Y-59327292D01*
X233708887Y-59334060D01*
X233719819Y-59346944D01*
X233731368Y-59358996D01*
X233743532Y-59370217D01*
X233756313Y-59380607D01*
X233769709Y-59390165D01*
X233783721Y-59398893D01*
X233798350Y-59406789D01*
X233813594Y-59413854D01*
X233829454Y-59420088D01*
X233845930Y-59425491D01*
X233863022Y-59430063D01*
X233880730Y-59433803D01*
X233899054Y-59436712D01*
X233917994Y-59438790D01*
X233937550Y-59440037D01*
X233957721Y-59440452D01*
X233970692Y-59440324D01*
X233983554Y-59439937D01*
X233996307Y-59439293D01*
X234008953Y-59438392D01*
X234021490Y-59437232D01*
X234033919Y-59435816D01*
X234046240Y-59434141D01*
X234058453Y-59432209D01*
X234070558Y-59430020D01*
X234082554Y-59427572D01*
X234090492Y-59425798D01*
X234102371Y-59422892D01*
X234114157Y-59419780D01*
X234125850Y-59416462D01*
X234137451Y-59412938D01*
X234148958Y-59409208D01*
X234160374Y-59405272D01*
X234171696Y-59401130D01*
X234182926Y-59396782D01*
X234194062Y-59392227D01*
X234205107Y-59387467D01*
X234212418Y-59384179D01*
X234212418Y-59524863D01*
G37*
G36*
X234800328Y-58465193D02*
G01*
X234812985Y-58465640D01*
X234825433Y-58466384D01*
X234837673Y-58467426D01*
X234849705Y-58468765D01*
X234861528Y-58470402D01*
X234873143Y-58472337D01*
X234890175Y-58475798D01*
X234906738Y-58479928D01*
X234922832Y-58484728D01*
X234938457Y-58490197D01*
X234953613Y-58496337D01*
X234968301Y-58503146D01*
X234982524Y-58510521D01*
X234996290Y-58518468D01*
X235009596Y-58526987D01*
X235022445Y-58536078D01*
X235034834Y-58545740D01*
X235046766Y-58555975D01*
X235058238Y-58566781D01*
X235069252Y-58578159D01*
X235079808Y-58590109D01*
X235089905Y-58602631D01*
X235096382Y-58611297D01*
X235105767Y-58624759D01*
X235114688Y-58638767D01*
X235123146Y-58653322D01*
X235131140Y-58668422D01*
X235138671Y-58684069D01*
X235143434Y-58694803D01*
X235147990Y-58705780D01*
X235152341Y-58717000D01*
X235156485Y-58728463D01*
X235160424Y-58740168D01*
X235164156Y-58752116D01*
X235167682Y-58764307D01*
X235171003Y-58776741D01*
X235172585Y-58783048D01*
X235175638Y-58795824D01*
X235178493Y-58808799D01*
X235181151Y-58821973D01*
X235183613Y-58835347D01*
X235185877Y-58848919D01*
X235187945Y-58862691D01*
X235189816Y-58876662D01*
X235191490Y-58890833D01*
X235192967Y-58905202D01*
X235194247Y-58919771D01*
X235195330Y-58934539D01*
X235196216Y-58949506D01*
X235196905Y-58964672D01*
X235197397Y-58980038D01*
X235197693Y-58995603D01*
X235197791Y-59011367D01*
X235197657Y-59029347D01*
X235197255Y-59047018D01*
X235196586Y-59064381D01*
X235195648Y-59081434D01*
X235194442Y-59098178D01*
X235192969Y-59114613D01*
X235191228Y-59130738D01*
X235189218Y-59146555D01*
X235186941Y-59162062D01*
X235184396Y-59177261D01*
X235181583Y-59192150D01*
X235178502Y-59206730D01*
X235175153Y-59221001D01*
X235171537Y-59234963D01*
X235167652Y-59248616D01*
X235163499Y-59261960D01*
X235159155Y-59275006D01*
X235154620Y-59287766D01*
X235149895Y-59300239D01*
X235144980Y-59312426D01*
X235139875Y-59324328D01*
X235134580Y-59335942D01*
X235129094Y-59347271D01*
X235123419Y-59358314D01*
X235117554Y-59369070D01*
X235111499Y-59379540D01*
X235105253Y-59389724D01*
X235098818Y-59399621D01*
X235088808Y-59413931D01*
X235078371Y-59427596D01*
X235071176Y-59436349D01*
X235060120Y-59448899D01*
X235048713Y-59460831D01*
X235036956Y-59472145D01*
X235024849Y-59482841D01*
X235012391Y-59492918D01*
X234999584Y-59502377D01*
X234986425Y-59511218D01*
X234972917Y-59519441D01*
X234959058Y-59527045D01*
X234944849Y-59534031D01*
X234935181Y-59538345D01*
X234920538Y-59544316D01*
X234905736Y-59549700D01*
X234890774Y-59554496D01*
X234875652Y-59558706D01*
X234860370Y-59562327D01*
X234844929Y-59565362D01*
X234829327Y-59567809D01*
X234813567Y-59569669D01*
X234797646Y-59570942D01*
X234781566Y-59571627D01*
X234770757Y-59571757D01*
X234757892Y-59571611D01*
X234745235Y-59571171D01*
X234732787Y-59570438D01*
X234720547Y-59569413D01*
X234708515Y-59568094D01*
X234696692Y-59566482D01*
X234685077Y-59564577D01*
X234668045Y-59561169D01*
X234651483Y-59557103D01*
X234635389Y-59552377D01*
X234619763Y-59546991D01*
X234604607Y-59540946D01*
X234589920Y-59534242D01*
X234575698Y-59526916D01*
X234561941Y-59519009D01*
X234548647Y-59510519D01*
X234535817Y-59501447D01*
X234523450Y-59491793D01*
X234511547Y-59481557D01*
X234500108Y-59470739D01*
X234489133Y-59459338D01*
X234478621Y-59447356D01*
X234468573Y-59434791D01*
X234462132Y-59426091D01*
X234452851Y-59412521D01*
X234444024Y-59398411D01*
X234435650Y-59383760D01*
X234427730Y-59368567D01*
X234420263Y-59352834D01*
X234415537Y-59342044D01*
X234411012Y-59331015D01*
X234406689Y-59319744D01*
X234402568Y-59308234D01*
X234398648Y-59296482D01*
X234394929Y-59284491D01*
X234391412Y-59272259D01*
X234388096Y-59259786D01*
X234386514Y-59253460D01*
X234383533Y-59240610D01*
X234380744Y-59227558D01*
X234378147Y-59214305D01*
X234375743Y-59200850D01*
X234373531Y-59187194D01*
X234371512Y-59173336D01*
X234369684Y-59159277D01*
X234368049Y-59145016D01*
X234366607Y-59130554D01*
X234365357Y-59115890D01*
X234364299Y-59101025D01*
X234363433Y-59085958D01*
X234362760Y-59070690D01*
X234362279Y-59055220D01*
X234361991Y-59039549D01*
X234361894Y-59023676D01*
X234361957Y-59015177D01*
X234514595Y-59015177D01*
X234514652Y-59027092D01*
X234514824Y-59038876D01*
X234515296Y-59056308D01*
X234516026Y-59073446D01*
X234517014Y-59090290D01*
X234518259Y-59106841D01*
X234519761Y-59123098D01*
X234521522Y-59139062D01*
X234523540Y-59154731D01*
X234525815Y-59170108D01*
X234528348Y-59185190D01*
X234529250Y-59190152D01*
X234532199Y-59204742D01*
X234535442Y-59218945D01*
X234538979Y-59232762D01*
X234542810Y-59246192D01*
X234546934Y-59259236D01*
X234551352Y-59271894D01*
X234556063Y-59284165D01*
X234561068Y-59296050D01*
X234566367Y-59307548D01*
X234571960Y-59318660D01*
X234575851Y-59325854D01*
X234581951Y-59336238D01*
X234588381Y-59346180D01*
X234597467Y-59358746D01*
X234607139Y-59370525D01*
X234617397Y-59381516D01*
X234628241Y-59391719D01*
X234639672Y-59401135D01*
X234651689Y-59409763D01*
X234657917Y-59413781D01*
X234670836Y-59421131D01*
X234684387Y-59427501D01*
X234698569Y-59432892D01*
X234713384Y-59437302D01*
X234724910Y-59439966D01*
X234736792Y-59442079D01*
X234749028Y-59443641D01*
X234761621Y-59444652D01*
X234774569Y-59445111D01*
X234778964Y-59445142D01*
X234791818Y-59444848D01*
X234804332Y-59443967D01*
X234816506Y-59442499D01*
X234828340Y-59440443D01*
X234839834Y-59437800D01*
X234854631Y-59433363D01*
X234868823Y-59427881D01*
X234882411Y-59421355D01*
X234895394Y-59413785D01*
X234898545Y-59411729D01*
X234910868Y-59402932D01*
X234922633Y-59393393D01*
X234933839Y-59383112D01*
X234944487Y-59372089D01*
X234954576Y-59360324D01*
X234961776Y-59351013D01*
X234968661Y-59341286D01*
X234975233Y-59331140D01*
X234981490Y-59320578D01*
X234987440Y-59309637D01*
X234993092Y-59298356D01*
X234998445Y-59286735D01*
X235003499Y-59274773D01*
X235008254Y-59262472D01*
X235012711Y-59249831D01*
X235016868Y-59236849D01*
X235020727Y-59223528D01*
X235024287Y-59209867D01*
X235027549Y-59195865D01*
X235029557Y-59186342D01*
X235032385Y-59171796D01*
X235034935Y-59157065D01*
X235037207Y-59142148D01*
X235039201Y-59127046D01*
X235040917Y-59111758D01*
X235042354Y-59096285D01*
X235043513Y-59080627D01*
X235044394Y-59064782D01*
X235044997Y-59048753D01*
X235045322Y-59032538D01*
X235045384Y-59021625D01*
X235045326Y-59009818D01*
X235045026Y-58992343D01*
X235044468Y-58975151D01*
X235043652Y-58958243D01*
X235042579Y-58941619D01*
X235041248Y-58925278D01*
X235039659Y-58909220D01*
X235037813Y-58893445D01*
X235035709Y-58877954D01*
X235033348Y-58862746D01*
X235030729Y-58847822D01*
X235027879Y-58833177D01*
X235024715Y-58818919D01*
X235021237Y-58805047D01*
X235017444Y-58791562D01*
X235013337Y-58778463D01*
X235008916Y-58765750D01*
X235004180Y-58753424D01*
X234999130Y-58741484D01*
X234993766Y-58729931D01*
X234988088Y-58718764D01*
X234984128Y-58711534D01*
X234977973Y-58701045D01*
X234971488Y-58691008D01*
X234964674Y-58681426D01*
X234955075Y-58669354D01*
X234944890Y-58658088D01*
X234934119Y-58647629D01*
X234922762Y-58637975D01*
X234910818Y-58629127D01*
X234901476Y-58623020D01*
X234888470Y-58615670D01*
X234874804Y-58609300D01*
X234860480Y-58603910D01*
X234845495Y-58599500D01*
X234833824Y-58596835D01*
X234821782Y-58594722D01*
X234809369Y-58593160D01*
X234796586Y-58592150D01*
X234783431Y-58591690D01*
X234778964Y-58591660D01*
X234766164Y-58591956D01*
X234753705Y-58592845D01*
X234741586Y-58594326D01*
X234729807Y-58596399D01*
X234718367Y-58599066D01*
X234703644Y-58603542D01*
X234689525Y-58609072D01*
X234676011Y-58615655D01*
X234663101Y-58623291D01*
X234659968Y-58625365D01*
X234647787Y-58634094D01*
X234636155Y-58643573D01*
X234625072Y-58653804D01*
X234614539Y-58664786D01*
X234604556Y-58676519D01*
X234595122Y-58689003D01*
X234588407Y-58698858D01*
X234582002Y-58709137D01*
X234577903Y-58716224D01*
X234572054Y-58727170D01*
X234566489Y-58738466D01*
X234561208Y-58750113D01*
X234556209Y-58762111D01*
X234551495Y-58774458D01*
X234547063Y-58787156D01*
X234542915Y-58800205D01*
X234539050Y-58813603D01*
X234535468Y-58827352D01*
X234532170Y-58841451D01*
X234530129Y-58851046D01*
X234527353Y-58865586D01*
X234524850Y-58880302D01*
X234522620Y-58895193D01*
X234520663Y-58910259D01*
X234518979Y-58925501D01*
X234517568Y-58940917D01*
X234516431Y-58956509D01*
X234515566Y-58972275D01*
X234514974Y-58988217D01*
X234514656Y-59004335D01*
X234514595Y-59015177D01*
X234361957Y-59015177D01*
X234362026Y-59005909D01*
X234362421Y-58988437D01*
X234363079Y-58971260D01*
X234364001Y-58954379D01*
X234365186Y-58937793D01*
X234366634Y-58921502D01*
X234368346Y-58905507D01*
X234370321Y-58889807D01*
X234372559Y-58874402D01*
X234375061Y-58859293D01*
X234377826Y-58844480D01*
X234380854Y-58829961D01*
X234384145Y-58815738D01*
X234387700Y-58801811D01*
X234391518Y-58788179D01*
X234395600Y-58774842D01*
X234399944Y-58761797D01*
X234404475Y-58749041D01*
X234409194Y-58736573D01*
X234414101Y-58724393D01*
X234419196Y-58712503D01*
X234424479Y-58700900D01*
X234429949Y-58689587D01*
X234435607Y-58678561D01*
X234441453Y-58667824D01*
X234447486Y-58657376D01*
X234453708Y-58647217D01*
X234460117Y-58637345D01*
X234470082Y-58623079D01*
X234480471Y-58609463D01*
X234487631Y-58600745D01*
X234498734Y-58588143D01*
X234510172Y-58576164D01*
X234521946Y-58564808D01*
X234534054Y-58554075D01*
X234546497Y-58543966D01*
X234559274Y-58534480D01*
X234572387Y-58525618D01*
X234585835Y-58517379D01*
X234599617Y-58509764D01*
X234613734Y-58502772D01*
X234623332Y-58498457D01*
X234637922Y-58492485D01*
X234652678Y-58487102D01*
X234667598Y-58482305D01*
X234682683Y-58478096D01*
X234697933Y-58474474D01*
X234713348Y-58471440D01*
X234728927Y-58468992D01*
X234744672Y-58467132D01*
X234760581Y-58465860D01*
X234776655Y-58465175D01*
X234787463Y-58465044D01*
X234800328Y-58465193D01*
G37*
G36*
X235620835Y-58483928D02*
G01*
X235636231Y-58484306D01*
X235651376Y-58484935D01*
X235666270Y-58485817D01*
X235680914Y-58486950D01*
X235695307Y-58488336D01*
X235709449Y-58489973D01*
X235723341Y-58491862D01*
X235736982Y-58494003D01*
X235750372Y-58496396D01*
X235763511Y-58499040D01*
X235776399Y-58501937D01*
X235789037Y-58505085D01*
X235801424Y-58508486D01*
X235813561Y-58512138D01*
X235825446Y-58516042D01*
X235837081Y-58520198D01*
X235848466Y-58524606D01*
X235859599Y-58529266D01*
X235870482Y-58534177D01*
X235881114Y-58539341D01*
X235901626Y-58550423D01*
X235921135Y-58562513D01*
X235939640Y-58575611D01*
X235957144Y-58589716D01*
X235973644Y-58604828D01*
X235981518Y-58612762D01*
X235996566Y-58629379D01*
X236010644Y-58647063D01*
X236023750Y-58665814D01*
X236035886Y-58685632D01*
X236041590Y-58695941D01*
X236047051Y-58706517D01*
X236052269Y-58717360D01*
X236057245Y-58728469D01*
X236061978Y-58739845D01*
X236066468Y-58751488D01*
X236070716Y-58763398D01*
X236074721Y-58775575D01*
X236078483Y-58788018D01*
X236082002Y-58800728D01*
X236085279Y-58813704D01*
X236088313Y-58826948D01*
X236091104Y-58840458D01*
X236093653Y-58854235D01*
X236095958Y-58868279D01*
X236098021Y-58882590D01*
X236099842Y-58897167D01*
X236101420Y-58912011D01*
X236102754Y-58927122D01*
X236103847Y-58942499D01*
X236104696Y-58958144D01*
X236105303Y-58974055D01*
X236105667Y-58990232D01*
X236105788Y-59006677D01*
X236105683Y-59021019D01*
X236105366Y-59035247D01*
X236104838Y-59049361D01*
X236104099Y-59063363D01*
X236103148Y-59077251D01*
X236101986Y-59091026D01*
X236100613Y-59104687D01*
X236099029Y-59118235D01*
X236097234Y-59131670D01*
X236095227Y-59144991D01*
X236093772Y-59153809D01*
X236091392Y-59166913D01*
X236088760Y-59179847D01*
X236085876Y-59192611D01*
X236082740Y-59205205D01*
X236079350Y-59217629D01*
X236075709Y-59229883D01*
X236071815Y-59241967D01*
X236067668Y-59253881D01*
X236063269Y-59265625D01*
X236058618Y-59277199D01*
X236055377Y-59284821D01*
X236050292Y-59296046D01*
X236044928Y-59307081D01*
X236039287Y-59317925D01*
X236033367Y-59328578D01*
X236027169Y-59339041D01*
X236020693Y-59349314D01*
X236013939Y-59359395D01*
X236006907Y-59369286D01*
X235999596Y-59378986D01*
X235992007Y-59388496D01*
X235986793Y-59394730D01*
X235978767Y-59403891D01*
X235970406Y-59412800D01*
X235961711Y-59421456D01*
X235952680Y-59429860D01*
X235943315Y-59438011D01*
X235933614Y-59445910D01*
X235923579Y-59453557D01*
X235913209Y-59460950D01*
X235902504Y-59468092D01*
X235891464Y-59474981D01*
X235883918Y-59479434D01*
X235872312Y-59485889D01*
X235860356Y-59492066D01*
X235848050Y-59497965D01*
X235835393Y-59503586D01*
X235822386Y-59508929D01*
X235809029Y-59513993D01*
X235795321Y-59518779D01*
X235781263Y-59523287D01*
X235766855Y-59527517D01*
X235752096Y-59531469D01*
X235742062Y-59533949D01*
X235726751Y-59537353D01*
X235711043Y-59540423D01*
X235694939Y-59543158D01*
X235678438Y-59545558D01*
X235661541Y-59547623D01*
X235644246Y-59549353D01*
X235632496Y-59550320D01*
X235620570Y-59551139D01*
X235608467Y-59551809D01*
X235596188Y-59552330D01*
X235583733Y-59552702D01*
X235571101Y-59552925D01*
X235558294Y-59553000D01*
X235327631Y-59553000D01*
X235327631Y-58605728D01*
X235474176Y-58605728D01*
X235474176Y-59426384D01*
X235583793Y-59426384D01*
X235606423Y-59425984D01*
X235628334Y-59424782D01*
X235649528Y-59422780D01*
X235670003Y-59419977D01*
X235689759Y-59416373D01*
X235708797Y-59411969D01*
X235727117Y-59406763D01*
X235744718Y-59400757D01*
X235761601Y-59393950D01*
X235777765Y-59386342D01*
X235793211Y-59377933D01*
X235807939Y-59368723D01*
X235821948Y-59358712D01*
X235835239Y-59347901D01*
X235847811Y-59336288D01*
X235859665Y-59323875D01*
X235870800Y-59310661D01*
X235881217Y-59296646D01*
X235890916Y-59281831D01*
X235899896Y-59266214D01*
X235908158Y-59249797D01*
X235915701Y-59232578D01*
X235922526Y-59214559D01*
X235928633Y-59195739D01*
X235934021Y-59176119D01*
X235938691Y-59155697D01*
X235942642Y-59134474D01*
X235945875Y-59112451D01*
X235948389Y-59089627D01*
X235950185Y-59066002D01*
X235951263Y-59041576D01*
X235951622Y-59016349D01*
X235951538Y-59002272D01*
X235951283Y-58988469D01*
X235950860Y-58974941D01*
X235950267Y-58961688D01*
X235949504Y-58948709D01*
X235948572Y-58936005D01*
X235947471Y-58923577D01*
X235946200Y-58911422D01*
X235944760Y-58899543D01*
X235942282Y-58882239D01*
X235939422Y-58865554D01*
X235936182Y-58849486D01*
X235932560Y-58834037D01*
X235929934Y-58824081D01*
X235925726Y-58809621D01*
X235921127Y-58795697D01*
X235916136Y-58782309D01*
X235910754Y-58769456D01*
X235904981Y-58757140D01*
X235898815Y-58745359D01*
X235892259Y-58734114D01*
X235885310Y-58723404D01*
X235877970Y-58713231D01*
X235870239Y-58703593D01*
X235864867Y-58697466D01*
X235856483Y-58688633D01*
X235847708Y-58680268D01*
X235838541Y-58672373D01*
X235828982Y-58664946D01*
X235819032Y-58657988D01*
X235808690Y-58651500D01*
X235797957Y-58645479D01*
X235786832Y-58639928D01*
X235775315Y-58634846D01*
X235763407Y-58630232D01*
X235755251Y-58627417D01*
X235742685Y-58623541D01*
X235729718Y-58620046D01*
X235716348Y-58616932D01*
X235702577Y-58614200D01*
X235688404Y-58611849D01*
X235673829Y-58609879D01*
X235658852Y-58608291D01*
X235643473Y-58607084D01*
X235627693Y-58606258D01*
X235611510Y-58605813D01*
X235600499Y-58605728D01*
X235474176Y-58605728D01*
X235327631Y-58605728D01*
X235327631Y-58483802D01*
X235605188Y-58483802D01*
X235620835Y-58483928D01*
G37*
G36*
X236938461Y-59553000D02*
G01*
X236325900Y-59553000D01*
X236325900Y-58483802D01*
X236938461Y-58483802D01*
X236938461Y-58605728D01*
X236472739Y-58605728D01*
X236472739Y-58943369D01*
X236920289Y-58943369D01*
X236920289Y-59065295D01*
X236472739Y-59065295D01*
X236472739Y-59426384D01*
X236938461Y-59426384D01*
X236938461Y-59553000D01*
G37*
G36*
X278576146Y-65468980D02*
G01*
X278593036Y-65469513D01*
X278609462Y-65470402D01*
X278625425Y-65471646D01*
X278640924Y-65473246D01*
X278655959Y-65475201D01*
X278670530Y-65477511D01*
X278684638Y-65480178D01*
X278698283Y-65483199D01*
X278711463Y-65486576D01*
X278719993Y-65489025D01*
X278732473Y-65492959D01*
X278744526Y-65497176D01*
X278756152Y-65501676D01*
X278767350Y-65506460D01*
X278778120Y-65511527D01*
X278791815Y-65518723D01*
X278804750Y-65526424D01*
X278816925Y-65534628D01*
X278828339Y-65543336D01*
X278831074Y-65545592D01*
X278841557Y-65554911D01*
X278851316Y-65564698D01*
X278860351Y-65574951D01*
X278868663Y-65585672D01*
X278876251Y-65596860D01*
X278883116Y-65608515D01*
X278889257Y-65620637D01*
X278894675Y-65633226D01*
X278899415Y-65646218D01*
X278903523Y-65659550D01*
X278906999Y-65673220D01*
X278909842Y-65687228D01*
X278912054Y-65701576D01*
X278913634Y-65716263D01*
X278914582Y-65731288D01*
X278914898Y-65746653D01*
X278914665Y-65758885D01*
X278913964Y-65770961D01*
X278912796Y-65782882D01*
X278911161Y-65794646D01*
X278909059Y-65806256D01*
X278906490Y-65817709D01*
X278902622Y-65831807D01*
X278899951Y-65840149D01*
X278894929Y-65853694D01*
X278889206Y-65866853D01*
X278882782Y-65879626D01*
X278875656Y-65892012D01*
X278867829Y-65904012D01*
X278859301Y-65915626D01*
X278855694Y-65920163D01*
X278846276Y-65931108D01*
X278836156Y-65941595D01*
X278827556Y-65949655D01*
X278818507Y-65957422D01*
X278809009Y-65964896D01*
X278799062Y-65972077D01*
X278788666Y-65978964D01*
X278783300Y-65982298D01*
X278772259Y-65988613D01*
X278760824Y-65994516D01*
X278748995Y-66000007D01*
X278736772Y-66005086D01*
X278724155Y-66009753D01*
X278711145Y-66014007D01*
X278697740Y-66017849D01*
X278683942Y-66021279D01*
X278695084Y-66025607D01*
X278705796Y-66030677D01*
X278716077Y-66036488D01*
X278725928Y-66043041D01*
X278735348Y-66050337D01*
X278744337Y-66058374D01*
X278752897Y-66067153D01*
X278761025Y-66076674D01*
X278768962Y-66086904D01*
X278776944Y-66097959D01*
X278784972Y-66109839D01*
X278793046Y-66122542D01*
X278799131Y-66132611D01*
X278805242Y-66143144D01*
X278811379Y-66154140D01*
X278817542Y-66165599D01*
X278823730Y-66177523D01*
X278825799Y-66181600D01*
X278996378Y-66538000D01*
X278830781Y-66538000D01*
X278669874Y-66190979D01*
X278664174Y-66178859D01*
X278658431Y-66167412D01*
X278652645Y-66156637D01*
X278645645Y-66144595D01*
X278638583Y-66133522D01*
X278632651Y-66125034D01*
X278625504Y-66115633D01*
X278616878Y-66105629D01*
X278607945Y-66096663D01*
X278598702Y-66088735D01*
X278591912Y-66083708D01*
X278580792Y-66076509D01*
X278569124Y-66070445D01*
X278556905Y-66065518D01*
X278544138Y-66061726D01*
X278532545Y-66059099D01*
X278520335Y-66057118D01*
X278507509Y-66055781D01*
X278494065Y-66055090D01*
X278486106Y-66054985D01*
X278416936Y-66054985D01*
X278416936Y-66538000D01*
X278270097Y-66538000D01*
X278270097Y-65590728D01*
X278416936Y-65590728D01*
X278416936Y-65937748D01*
X278535638Y-65937748D01*
X278548447Y-65937570D01*
X278560935Y-65937034D01*
X278573103Y-65936141D01*
X278584951Y-65934891D01*
X278599309Y-65932826D01*
X278613166Y-65930202D01*
X278626523Y-65927021D01*
X278629134Y-65926318D01*
X278641840Y-65922382D01*
X278653944Y-65917903D01*
X278665447Y-65912880D01*
X278676349Y-65907313D01*
X278686651Y-65901202D01*
X278696351Y-65894547D01*
X278700062Y-65891733D01*
X278710579Y-65882700D01*
X278720148Y-65872966D01*
X278728769Y-65862531D01*
X278736442Y-65851396D01*
X278743167Y-65839560D01*
X278745198Y-65835459D01*
X278750677Y-65822579D01*
X278754376Y-65811311D01*
X278757288Y-65799556D01*
X278759414Y-65787314D01*
X278760752Y-65774586D01*
X278761303Y-65761371D01*
X278761318Y-65758669D01*
X278760844Y-65743219D01*
X278759422Y-65728520D01*
X278757053Y-65714573D01*
X278753735Y-65701379D01*
X278749469Y-65688937D01*
X278744255Y-65677247D01*
X278738093Y-65666310D01*
X278730983Y-65656124D01*
X278722926Y-65646691D01*
X278713920Y-65638010D01*
X278707390Y-65632640D01*
X278696889Y-65625150D01*
X278685610Y-65618397D01*
X278673554Y-65612380D01*
X278660719Y-65607100D01*
X278647107Y-65602557D01*
X278632717Y-65598750D01*
X278617548Y-65595681D01*
X278601602Y-65593348D01*
X278584878Y-65591751D01*
X278567375Y-65590892D01*
X278555275Y-65590728D01*
X278416936Y-65590728D01*
X278270097Y-65590728D01*
X278270097Y-65468802D01*
X278558792Y-65468802D01*
X278576146Y-65468980D01*
G37*
G36*
X279972665Y-66538000D02*
G01*
X279812637Y-66538000D01*
X279737606Y-66312905D01*
X279289176Y-66312905D01*
X279213265Y-66538000D01*
X279060858Y-66538000D01*
X279180146Y-66181600D01*
X279331381Y-66181600D01*
X279695694Y-66181600D01*
X279513391Y-65604210D01*
X279331381Y-66181600D01*
X279180146Y-66181600D01*
X279418722Y-65468802D01*
X279619783Y-65468802D01*
X279972665Y-66538000D01*
G37*
G36*
X280863077Y-66538000D02*
G01*
X280719755Y-66538000D01*
X280698360Y-65866820D01*
X280689274Y-65613589D01*
X280638862Y-65761014D01*
X280479713Y-66181600D01*
X280378304Y-66181600D01*
X280226775Y-65777134D01*
X280176364Y-65613589D01*
X280173140Y-65878251D01*
X280154089Y-66538000D01*
X280015750Y-66538000D01*
X280068506Y-65468802D01*
X280242309Y-65468802D01*
X280387390Y-65866820D01*
X280434577Y-66001056D01*
X280479713Y-65866820D01*
X280632414Y-65468802D01*
X280811200Y-65468802D01*
X280863077Y-66538000D01*
G37*
G36*
X265058817Y-78233411D02*
G01*
X265058596Y-78249863D01*
X265057931Y-78266027D01*
X265056823Y-78281902D01*
X265055273Y-78297488D01*
X265053279Y-78312786D01*
X265050842Y-78327796D01*
X265047962Y-78342517D01*
X265044639Y-78356949D01*
X265040873Y-78371093D01*
X265036664Y-78384949D01*
X265033611Y-78394025D01*
X265028732Y-78407301D01*
X265023434Y-78420201D01*
X265017720Y-78432725D01*
X265011588Y-78444872D01*
X265005039Y-78456644D01*
X264998073Y-78468039D01*
X264990689Y-78479058D01*
X264982888Y-78489701D01*
X264974670Y-78499968D01*
X264966034Y-78509859D01*
X264960045Y-78516244D01*
X264950730Y-78525496D01*
X264941028Y-78534345D01*
X264930939Y-78542793D01*
X264920464Y-78550838D01*
X264909603Y-78558482D01*
X264898355Y-78565724D01*
X264886721Y-78572564D01*
X264874701Y-78579003D01*
X264862294Y-78585039D01*
X264849501Y-78590674D01*
X264840757Y-78594207D01*
X264827383Y-78599130D01*
X264813637Y-78603570D01*
X264799521Y-78607525D01*
X264785033Y-78610995D01*
X264770175Y-78613982D01*
X264754946Y-78616484D01*
X264739345Y-78618502D01*
X264723374Y-78620035D01*
X264707032Y-78621085D01*
X264690319Y-78621650D01*
X264678971Y-78621757D01*
X264666488Y-78621655D01*
X264654246Y-78621350D01*
X264642244Y-78620840D01*
X264630482Y-78620127D01*
X264613291Y-78618675D01*
X264596641Y-78616764D01*
X264580531Y-78614395D01*
X264564963Y-78611568D01*
X264549935Y-78608282D01*
X264535449Y-78604537D01*
X264521503Y-78600334D01*
X264508098Y-78595672D01*
X264495191Y-78590536D01*
X264482737Y-78585018D01*
X264470736Y-78579119D01*
X264459189Y-78572839D01*
X264448095Y-78566177D01*
X264437454Y-78559134D01*
X264427267Y-78551710D01*
X264417533Y-78543905D01*
X264408253Y-78535718D01*
X264399426Y-78527151D01*
X264393793Y-78521227D01*
X264385758Y-78512044D01*
X264378141Y-78502522D01*
X264370941Y-78492659D01*
X264364159Y-78482456D01*
X264357793Y-78471914D01*
X264351845Y-78461031D01*
X264346315Y-78449808D01*
X264341201Y-78438245D01*
X264336505Y-78426343D01*
X264332226Y-78414100D01*
X264329606Y-78405749D01*
X264326044Y-78392975D01*
X264322833Y-78379934D01*
X264319972Y-78366625D01*
X264317461Y-78353047D01*
X264315300Y-78339202D01*
X264313490Y-78325089D01*
X264312031Y-78310708D01*
X264310921Y-78296060D01*
X264310162Y-78281143D01*
X264309753Y-78265958D01*
X264309676Y-78255686D01*
X264309676Y-77533802D01*
X264456221Y-77533802D01*
X264456221Y-78244256D01*
X264456327Y-78255989D01*
X264456796Y-78271209D01*
X264457641Y-78285944D01*
X264458862Y-78300193D01*
X264460458Y-78313957D01*
X264462429Y-78327236D01*
X264464776Y-78340029D01*
X264467499Y-78352336D01*
X264468238Y-78355337D01*
X264471476Y-78366969D01*
X264475181Y-78378125D01*
X264480469Y-78391400D01*
X264486486Y-78403931D01*
X264493234Y-78415718D01*
X264500712Y-78426760D01*
X264507219Y-78435058D01*
X264516131Y-78444662D01*
X264525829Y-78453508D01*
X264536315Y-78461595D01*
X264547588Y-78468924D01*
X264559648Y-78475494D01*
X264572495Y-78481306D01*
X264577854Y-78483418D01*
X264588996Y-78487265D01*
X264600734Y-78490599D01*
X264613066Y-78493420D01*
X264625994Y-78495728D01*
X264639518Y-78497523D01*
X264653637Y-78498806D01*
X264668351Y-78499575D01*
X264683660Y-78499831D01*
X264698074Y-78499568D01*
X264712008Y-78498778D01*
X264725460Y-78497461D01*
X264738432Y-78495618D01*
X264750922Y-78493248D01*
X264762932Y-78490352D01*
X264774461Y-78486928D01*
X264785509Y-78482979D01*
X264801180Y-78476066D01*
X264815769Y-78467969D01*
X264829276Y-78458687D01*
X264841701Y-78448220D01*
X264853044Y-78436568D01*
X264856584Y-78432420D01*
X264866536Y-78419299D01*
X264875509Y-78405214D01*
X264883503Y-78390166D01*
X264890519Y-78374155D01*
X264894652Y-78362945D01*
X264898350Y-78351307D01*
X264901613Y-78339241D01*
X264904440Y-78326747D01*
X264906833Y-78313825D01*
X264908791Y-78300474D01*
X264910314Y-78286695D01*
X264911401Y-78272489D01*
X264912054Y-78257853D01*
X264912272Y-78242790D01*
X264912272Y-77533802D01*
X265058817Y-77533802D01*
X265058817Y-78233411D01*
G37*
G36*
X266062362Y-78603000D02*
G01*
X265902334Y-78603000D01*
X265827303Y-78377905D01*
X265378873Y-78377905D01*
X265302962Y-78603000D01*
X265150555Y-78603000D01*
X265269843Y-78246600D01*
X265421078Y-78246600D01*
X265785391Y-78246600D01*
X265603088Y-77669210D01*
X265421078Y-78246600D01*
X265269843Y-78246600D01*
X265508419Y-77533802D01*
X265709480Y-77533802D01*
X266062362Y-78603000D01*
G37*
G36*
X266511146Y-77533980D02*
G01*
X266528036Y-77534513D01*
X266544463Y-77535402D01*
X266560425Y-77536646D01*
X266575924Y-77538246D01*
X266590959Y-77540201D01*
X266605531Y-77542511D01*
X266619639Y-77545178D01*
X266633283Y-77548199D01*
X266646464Y-77551576D01*
X266654993Y-77554025D01*
X266667474Y-77557959D01*
X266679527Y-77562176D01*
X266691152Y-77566676D01*
X266702350Y-77571460D01*
X266713120Y-77576527D01*
X266726816Y-77583723D01*
X266739751Y-77591424D01*
X266751925Y-77599628D01*
X266763340Y-77608336D01*
X266766075Y-77610592D01*
X266776557Y-77619911D01*
X266786316Y-77629698D01*
X266795352Y-77639951D01*
X266803664Y-77650672D01*
X266811252Y-77661860D01*
X266818117Y-77673515D01*
X266824258Y-77685637D01*
X266829676Y-77698226D01*
X266834415Y-77711218D01*
X266838523Y-77724550D01*
X266841999Y-77738220D01*
X266844843Y-77752228D01*
X266847055Y-77766576D01*
X266848635Y-77781263D01*
X266849583Y-77796288D01*
X266849899Y-77811653D01*
X266849665Y-77823885D01*
X266848965Y-77835961D01*
X266847797Y-77847882D01*
X266846162Y-77859646D01*
X266844060Y-77871256D01*
X266841491Y-77882709D01*
X266837623Y-77896807D01*
X266834951Y-77905149D01*
X266829929Y-77918694D01*
X266824206Y-77931853D01*
X266817782Y-77944626D01*
X266810657Y-77957012D01*
X266802830Y-77969012D01*
X266794302Y-77980626D01*
X266790694Y-77985163D01*
X266781276Y-77996108D01*
X266771157Y-78006595D01*
X266762556Y-78014655D01*
X266753507Y-78022422D01*
X266744009Y-78029896D01*
X266734063Y-78037077D01*
X266723667Y-78043964D01*
X266718301Y-78047298D01*
X266707260Y-78053613D01*
X266695824Y-78059516D01*
X266683995Y-78065007D01*
X266671773Y-78070086D01*
X266659156Y-78074753D01*
X266646145Y-78079007D01*
X266632741Y-78082849D01*
X266618943Y-78086279D01*
X266630085Y-78090607D01*
X266640796Y-78095677D01*
X266651078Y-78101488D01*
X266660928Y-78108041D01*
X266670348Y-78115337D01*
X266679338Y-78123374D01*
X266687897Y-78132153D01*
X266696026Y-78141674D01*
X266703962Y-78151904D01*
X266711944Y-78162959D01*
X266719972Y-78174839D01*
X266728046Y-78187542D01*
X266734131Y-78197611D01*
X266740243Y-78208144D01*
X266746379Y-78219140D01*
X266752542Y-78230599D01*
X266758731Y-78242523D01*
X266760799Y-78246600D01*
X266931378Y-78603000D01*
X266765782Y-78603000D01*
X266604874Y-78255979D01*
X266599174Y-78243859D01*
X266593431Y-78232412D01*
X266587645Y-78221637D01*
X266580645Y-78209595D01*
X266573584Y-78198522D01*
X266567652Y-78190034D01*
X266560504Y-78180633D01*
X266551879Y-78170629D01*
X266542945Y-78161663D01*
X266533703Y-78153735D01*
X266526912Y-78148708D01*
X266515793Y-78141509D01*
X266504124Y-78135445D01*
X266491906Y-78130518D01*
X266479138Y-78126726D01*
X266467546Y-78124099D01*
X266455336Y-78122118D01*
X266442509Y-78120781D01*
X266429065Y-78120090D01*
X266421106Y-78119985D01*
X266351937Y-78119985D01*
X266351937Y-78603000D01*
X266205098Y-78603000D01*
X266205098Y-77655728D01*
X266351937Y-77655728D01*
X266351937Y-78002748D01*
X266470639Y-78002748D01*
X266483448Y-78002570D01*
X266495936Y-78002034D01*
X266508104Y-78001141D01*
X266519951Y-77999891D01*
X266534310Y-77997826D01*
X266548167Y-77995202D01*
X266561524Y-77992021D01*
X266564135Y-77991318D01*
X266576840Y-77987382D01*
X266588944Y-77982903D01*
X266600448Y-77977880D01*
X266611350Y-77972313D01*
X266621651Y-77966202D01*
X266631351Y-77959547D01*
X266635063Y-77956733D01*
X266645580Y-77947700D01*
X266655149Y-77937966D01*
X266663770Y-77927531D01*
X266671443Y-77916396D01*
X266678168Y-77904560D01*
X266680199Y-77900459D01*
X266685677Y-77887579D01*
X266689377Y-77876311D01*
X266692289Y-77864556D01*
X266694414Y-77852314D01*
X266695752Y-77839586D01*
X266696303Y-77826371D01*
X266696319Y-77823669D01*
X266695845Y-77808219D01*
X266694423Y-77793520D01*
X266692053Y-77779573D01*
X266688735Y-77766379D01*
X266684469Y-77753937D01*
X266679256Y-77742247D01*
X266673094Y-77731310D01*
X266665984Y-77721124D01*
X266657926Y-77711691D01*
X266648921Y-77703010D01*
X266642390Y-77697640D01*
X266631890Y-77690150D01*
X266620611Y-77683397D01*
X266608554Y-77677380D01*
X266595720Y-77672100D01*
X266582107Y-77667557D01*
X266567717Y-77663750D01*
X266552549Y-77660681D01*
X266536602Y-77658348D01*
X266519878Y-77656751D01*
X266502376Y-77655892D01*
X266490276Y-77655728D01*
X266351937Y-77655728D01*
X266205098Y-77655728D01*
X266205098Y-77533802D01*
X266493793Y-77533802D01*
X266511146Y-77533980D01*
G37*
G36*
X267844944Y-77660418D02*
G01*
X267526061Y-77660418D01*
X267526061Y-78603000D01*
X267377463Y-78603000D01*
X267377463Y-77660418D01*
X267058580Y-77660418D01*
X267058580Y-77533802D01*
X267844944Y-77533802D01*
X267844944Y-77660418D01*
G37*
X219313095Y-95238809D02*
X219646428Y-95238809D01*
X219789285Y-95762619D02*
X219313095Y-95762619D01*
X219313095Y-95762619D02*
X219313095Y-94762619D01*
X219313095Y-94762619D02*
X219789285Y-94762619D01*
X220646428Y-95762619D02*
X220646428Y-94762619D01*
X220646428Y-95715000D02*
X220551190Y-95762619D01*
X220551190Y-95762619D02*
X220360714Y-95762619D01*
X220360714Y-95762619D02*
X220265476Y-95715000D01*
X220265476Y-95715000D02*
X220217857Y-95667380D01*
X220217857Y-95667380D02*
X220170238Y-95572142D01*
X220170238Y-95572142D02*
X220170238Y-95286428D01*
X220170238Y-95286428D02*
X220217857Y-95191190D01*
X220217857Y-95191190D02*
X220265476Y-95143571D01*
X220265476Y-95143571D02*
X220360714Y-95095952D01*
X220360714Y-95095952D02*
X220551190Y-95095952D01*
X220551190Y-95095952D02*
X220646428Y-95143571D01*
X221836905Y-95476904D02*
X222313095Y-95476904D01*
X221741667Y-95762619D02*
X222075000Y-94762619D01*
X222075000Y-94762619D02*
X222408333Y-95762619D01*
X222598810Y-95095952D02*
X222979762Y-95095952D01*
X222741667Y-94762619D02*
X222741667Y-95619761D01*
X222741667Y-95619761D02*
X222789286Y-95715000D01*
X222789286Y-95715000D02*
X222884524Y-95762619D01*
X222884524Y-95762619D02*
X222979762Y-95762619D01*
X223313096Y-95762619D02*
X223313096Y-94762619D01*
X223408334Y-95381666D02*
X223694048Y-95762619D01*
X223694048Y-95095952D02*
X223313096Y-95476904D01*
X224122620Y-95762619D02*
X224122620Y-95095952D01*
X224122620Y-94762619D02*
X224075001Y-94810238D01*
X224075001Y-94810238D02*
X224122620Y-94857857D01*
X224122620Y-94857857D02*
X224170239Y-94810238D01*
X224170239Y-94810238D02*
X224122620Y-94762619D01*
X224122620Y-94762619D02*
X224122620Y-94857857D01*
X224598810Y-95095952D02*
X224598810Y-95762619D01*
X224598810Y-95191190D02*
X224646429Y-95143571D01*
X224646429Y-95143571D02*
X224741667Y-95095952D01*
X224741667Y-95095952D02*
X224884524Y-95095952D01*
X224884524Y-95095952D02*
X224979762Y-95143571D01*
X224979762Y-95143571D02*
X225027381Y-95238809D01*
X225027381Y-95238809D02*
X225027381Y-95762619D01*
X225455953Y-95715000D02*
X225551191Y-95762619D01*
X225551191Y-95762619D02*
X225741667Y-95762619D01*
X225741667Y-95762619D02*
X225836905Y-95715000D01*
X225836905Y-95715000D02*
X225884524Y-95619761D01*
X225884524Y-95619761D02*
X225884524Y-95572142D01*
X225884524Y-95572142D02*
X225836905Y-95476904D01*
X225836905Y-95476904D02*
X225741667Y-95429285D01*
X225741667Y-95429285D02*
X225598810Y-95429285D01*
X225598810Y-95429285D02*
X225503572Y-95381666D01*
X225503572Y-95381666D02*
X225455953Y-95286428D01*
X225455953Y-95286428D02*
X225455953Y-95238809D01*
X225455953Y-95238809D02*
X225503572Y-95143571D01*
X225503572Y-95143571D02*
X225598810Y-95095952D01*
X225598810Y-95095952D02*
X225741667Y-95095952D01*
X225741667Y-95095952D02*
X225836905Y-95143571D01*
X226455953Y-95762619D02*
X226360715Y-95715000D01*
X226360715Y-95715000D02*
X226313096Y-95667380D01*
X226313096Y-95667380D02*
X226265477Y-95572142D01*
X226265477Y-95572142D02*
X226265477Y-95286428D01*
X226265477Y-95286428D02*
X226313096Y-95191190D01*
X226313096Y-95191190D02*
X226360715Y-95143571D01*
X226360715Y-95143571D02*
X226455953Y-95095952D01*
X226455953Y-95095952D02*
X226598810Y-95095952D01*
X226598810Y-95095952D02*
X226694048Y-95143571D01*
X226694048Y-95143571D02*
X226741667Y-95191190D01*
X226741667Y-95191190D02*
X226789286Y-95286428D01*
X226789286Y-95286428D02*
X226789286Y-95572142D01*
X226789286Y-95572142D02*
X226741667Y-95667380D01*
X226741667Y-95667380D02*
X226694048Y-95715000D01*
X226694048Y-95715000D02*
X226598810Y-95762619D01*
X226598810Y-95762619D02*
X226455953Y-95762619D01*
X227217858Y-95095952D02*
X227217858Y-95762619D01*
X227217858Y-95191190D02*
X227265477Y-95143571D01*
X227265477Y-95143571D02*
X227360715Y-95095952D01*
X227360715Y-95095952D02*
X227503572Y-95095952D01*
X227503572Y-95095952D02*
X227598810Y-95143571D01*
X227598810Y-95143571D02*
X227646429Y-95238809D01*
X227646429Y-95238809D02*
X227646429Y-95762619D01*
X228836906Y-94857857D02*
X228884525Y-94810238D01*
X228884525Y-94810238D02*
X228979763Y-94762619D01*
X228979763Y-94762619D02*
X229217858Y-94762619D01*
X229217858Y-94762619D02*
X229313096Y-94810238D01*
X229313096Y-94810238D02*
X229360715Y-94857857D01*
X229360715Y-94857857D02*
X229408334Y-94953095D01*
X229408334Y-94953095D02*
X229408334Y-95048333D01*
X229408334Y-95048333D02*
X229360715Y-95191190D01*
X229360715Y-95191190D02*
X228789287Y-95762619D01*
X228789287Y-95762619D02*
X229408334Y-95762619D01*
X230027382Y-94762619D02*
X230122620Y-94762619D01*
X230122620Y-94762619D02*
X230217858Y-94810238D01*
X230217858Y-94810238D02*
X230265477Y-94857857D01*
X230265477Y-94857857D02*
X230313096Y-94953095D01*
X230313096Y-94953095D02*
X230360715Y-95143571D01*
X230360715Y-95143571D02*
X230360715Y-95381666D01*
X230360715Y-95381666D02*
X230313096Y-95572142D01*
X230313096Y-95572142D02*
X230265477Y-95667380D01*
X230265477Y-95667380D02*
X230217858Y-95715000D01*
X230217858Y-95715000D02*
X230122620Y-95762619D01*
X230122620Y-95762619D02*
X230027382Y-95762619D01*
X230027382Y-95762619D02*
X229932144Y-95715000D01*
X229932144Y-95715000D02*
X229884525Y-95667380D01*
X229884525Y-95667380D02*
X229836906Y-95572142D01*
X229836906Y-95572142D02*
X229789287Y-95381666D01*
X229789287Y-95381666D02*
X229789287Y-95143571D01*
X229789287Y-95143571D02*
X229836906Y-94953095D01*
X229836906Y-94953095D02*
X229884525Y-94857857D01*
X229884525Y-94857857D02*
X229932144Y-94810238D01*
X229932144Y-94810238D02*
X230027382Y-94762619D01*
X230741668Y-94857857D02*
X230789287Y-94810238D01*
X230789287Y-94810238D02*
X230884525Y-94762619D01*
X230884525Y-94762619D02*
X231122620Y-94762619D01*
X231122620Y-94762619D02*
X231217858Y-94810238D01*
X231217858Y-94810238D02*
X231265477Y-94857857D01*
X231265477Y-94857857D02*
X231313096Y-94953095D01*
X231313096Y-94953095D02*
X231313096Y-95048333D01*
X231313096Y-95048333D02*
X231265477Y-95191190D01*
X231265477Y-95191190D02*
X230694049Y-95762619D01*
X230694049Y-95762619D02*
X231313096Y-95762619D01*
X231646430Y-94762619D02*
X232265477Y-94762619D01*
X232265477Y-94762619D02*
X231932144Y-95143571D01*
X231932144Y-95143571D02*
X232075001Y-95143571D01*
X232075001Y-95143571D02*
X232170239Y-95191190D01*
X232170239Y-95191190D02*
X232217858Y-95238809D01*
X232217858Y-95238809D02*
X232265477Y-95334047D01*
X232265477Y-95334047D02*
X232265477Y-95572142D01*
X232265477Y-95572142D02*
X232217858Y-95667380D01*
X232217858Y-95667380D02*
X232170239Y-95715000D01*
X232170239Y-95715000D02*
X232075001Y-95762619D01*
X232075001Y-95762619D02*
X231789287Y-95762619D01*
X231789287Y-95762619D02*
X231694049Y-95715000D01*
X231694049Y-95715000D02*
X231646430Y-95667380D01*
G36*
X182577169Y-96583980D02*
G01*
X182594059Y-96584513D01*
X182610485Y-96585402D01*
X182626448Y-96586646D01*
X182641947Y-96588246D01*
X182656982Y-96590201D01*
X182671553Y-96592511D01*
X182685661Y-96595178D01*
X182699306Y-96598199D01*
X182712486Y-96601576D01*
X182721016Y-96604025D01*
X182733496Y-96607959D01*
X182745549Y-96612176D01*
X182757175Y-96616676D01*
X182768373Y-96621460D01*
X182779143Y-96626527D01*
X182792838Y-96633723D01*
X182805773Y-96641424D01*
X182817948Y-96649628D01*
X182829362Y-96658336D01*
X182832097Y-96660592D01*
X182842580Y-96669911D01*
X182852339Y-96679698D01*
X182861374Y-96689951D01*
X182869686Y-96700672D01*
X182877274Y-96711860D01*
X182884139Y-96723515D01*
X182890280Y-96735637D01*
X182895698Y-96748226D01*
X182900438Y-96761218D01*
X182904546Y-96774550D01*
X182908022Y-96788220D01*
X182910865Y-96802228D01*
X182913077Y-96816576D01*
X182914657Y-96831263D01*
X182915605Y-96846288D01*
X182915921Y-96861653D01*
X182915688Y-96873885D01*
X182914987Y-96885961D01*
X182913819Y-96897882D01*
X182912184Y-96909646D01*
X182910082Y-96921256D01*
X182907513Y-96932709D01*
X182903645Y-96946807D01*
X182900974Y-96955149D01*
X182895952Y-96968694D01*
X182890229Y-96981853D01*
X182883805Y-96994626D01*
X182876679Y-97007012D01*
X182868852Y-97019012D01*
X182860324Y-97030626D01*
X182856717Y-97035163D01*
X182847299Y-97046108D01*
X182837179Y-97056595D01*
X182828579Y-97064655D01*
X182819530Y-97072422D01*
X182810032Y-97079896D01*
X182800085Y-97087077D01*
X182789689Y-97093964D01*
X182784323Y-97097298D01*
X182773282Y-97103613D01*
X182761847Y-97109516D01*
X182750018Y-97115007D01*
X182737795Y-97120086D01*
X182725178Y-97124753D01*
X182712168Y-97129007D01*
X182698763Y-97132849D01*
X182684965Y-97136279D01*
X182696107Y-97140607D01*
X182706819Y-97145677D01*
X182717100Y-97151488D01*
X182726951Y-97158041D01*
X182736371Y-97165337D01*
X182745360Y-97173374D01*
X182753920Y-97182153D01*
X182762048Y-97191674D01*
X182769985Y-97201904D01*
X182777967Y-97212959D01*
X182785995Y-97224839D01*
X182794069Y-97237542D01*
X182800154Y-97247611D01*
X182806265Y-97258144D01*
X182812402Y-97269140D01*
X182818565Y-97280599D01*
X182824753Y-97292523D01*
X182826822Y-97296600D01*
X182997401Y-97653000D01*
X182831804Y-97653000D01*
X182670897Y-97305979D01*
X182665197Y-97293859D01*
X182659454Y-97282412D01*
X182653668Y-97271637D01*
X182646668Y-97259595D01*
X182639606Y-97248522D01*
X182633674Y-97240034D01*
X182626527Y-97230633D01*
X182617901Y-97220629D01*
X182608968Y-97211663D01*
X182599725Y-97203735D01*
X182592935Y-97198708D01*
X182581815Y-97191509D01*
X182570147Y-97185445D01*
X182557928Y-97180518D01*
X182545161Y-97176726D01*
X182533568Y-97174099D01*
X182521358Y-97172118D01*
X182508532Y-97170781D01*
X182495088Y-97170090D01*
X182487129Y-97169985D01*
X182417959Y-97169985D01*
X182417959Y-97653000D01*
X182271120Y-97653000D01*
X182271120Y-96705728D01*
X182417959Y-96705728D01*
X182417959Y-97052748D01*
X182536661Y-97052748D01*
X182549470Y-97052570D01*
X182561958Y-97052034D01*
X182574126Y-97051141D01*
X182585974Y-97049891D01*
X182600332Y-97047826D01*
X182614189Y-97045202D01*
X182627546Y-97042021D01*
X182630157Y-97041318D01*
X182642863Y-97037382D01*
X182654967Y-97032903D01*
X182666470Y-97027880D01*
X182677372Y-97022313D01*
X182687674Y-97016202D01*
X182697374Y-97009547D01*
X182701085Y-97006733D01*
X182711602Y-96997700D01*
X182721171Y-96987966D01*
X182729792Y-96977531D01*
X182737465Y-96966396D01*
X182744190Y-96954560D01*
X182746221Y-96950459D01*
X182751700Y-96937579D01*
X182755399Y-96926311D01*
X182758311Y-96914556D01*
X182760437Y-96902314D01*
X182761775Y-96889586D01*
X182762326Y-96876371D01*
X182762341Y-96873669D01*
X182761867Y-96858219D01*
X182760445Y-96843520D01*
X182758076Y-96829573D01*
X182754758Y-96816379D01*
X182750492Y-96803937D01*
X182745278Y-96792247D01*
X182739116Y-96781310D01*
X182732006Y-96771124D01*
X182723949Y-96761691D01*
X182714943Y-96753010D01*
X182708413Y-96747640D01*
X182697912Y-96740150D01*
X182686633Y-96733397D01*
X182674577Y-96727380D01*
X182661742Y-96722100D01*
X182648130Y-96717557D01*
X182633740Y-96713750D01*
X182618571Y-96710681D01*
X182602625Y-96708348D01*
X182585901Y-96706751D01*
X182568398Y-96705892D01*
X182556298Y-96705728D01*
X182417959Y-96705728D01*
X182271120Y-96705728D01*
X182271120Y-96583802D01*
X182559815Y-96583802D01*
X182577169Y-96583980D01*
G37*
G36*
X183539003Y-96565193D02*
G01*
X183551659Y-96565640D01*
X183564108Y-96566384D01*
X183576348Y-96567426D01*
X183588379Y-96568765D01*
X183600203Y-96570402D01*
X183611818Y-96572337D01*
X183628849Y-96575798D01*
X183645412Y-96579928D01*
X183661506Y-96584728D01*
X183677131Y-96590197D01*
X183692288Y-96596337D01*
X183706975Y-96603146D01*
X183721199Y-96610521D01*
X183734964Y-96618468D01*
X183748271Y-96626987D01*
X183761119Y-96636078D01*
X183773509Y-96645740D01*
X183785440Y-96655975D01*
X183796913Y-96666781D01*
X183807927Y-96678159D01*
X183818482Y-96690109D01*
X183828579Y-96702631D01*
X183835056Y-96711297D01*
X183844441Y-96724759D01*
X183853363Y-96738767D01*
X183861821Y-96753322D01*
X183869815Y-96768422D01*
X183877345Y-96784069D01*
X183882108Y-96794803D01*
X183886665Y-96805780D01*
X183891015Y-96817000D01*
X183895160Y-96828463D01*
X183899098Y-96840168D01*
X183902831Y-96852116D01*
X183906357Y-96864307D01*
X183909677Y-96876741D01*
X183911260Y-96883048D01*
X183914312Y-96895824D01*
X183917167Y-96908799D01*
X183919826Y-96921973D01*
X183922287Y-96935347D01*
X183924552Y-96948919D01*
X183926620Y-96962691D01*
X183928490Y-96976662D01*
X183930164Y-96990833D01*
X183931641Y-97005202D01*
X183932921Y-97019771D01*
X183934004Y-97034539D01*
X183934890Y-97049506D01*
X183935579Y-97064672D01*
X183936072Y-97080038D01*
X183936367Y-97095603D01*
X183936466Y-97111367D01*
X183936332Y-97129347D01*
X183935930Y-97147018D01*
X183935260Y-97164381D01*
X183934322Y-97181434D01*
X183933117Y-97198178D01*
X183931643Y-97214613D01*
X183929902Y-97230738D01*
X183927893Y-97246555D01*
X183925616Y-97262062D01*
X183923070Y-97277261D01*
X183920257Y-97292150D01*
X183917177Y-97306730D01*
X183913828Y-97321001D01*
X183910211Y-97334963D01*
X183906326Y-97348616D01*
X183902174Y-97361960D01*
X183897829Y-97375006D01*
X183893294Y-97387766D01*
X183888569Y-97400239D01*
X183883654Y-97412426D01*
X183878549Y-97424328D01*
X183873254Y-97435942D01*
X183867769Y-97447271D01*
X183862094Y-97458314D01*
X183856228Y-97469070D01*
X183850173Y-97479540D01*
X183843928Y-97489724D01*
X183837492Y-97499621D01*
X183827483Y-97513931D01*
X183817046Y-97527596D01*
X183809850Y-97536349D01*
X183798794Y-97548899D01*
X183787387Y-97560831D01*
X183775631Y-97572145D01*
X183763523Y-97582841D01*
X183751066Y-97592918D01*
X183738258Y-97602377D01*
X183725100Y-97611218D01*
X183711591Y-97619441D01*
X183697732Y-97627045D01*
X183683523Y-97634031D01*
X183673856Y-97638345D01*
X183659213Y-97644316D01*
X183644410Y-97649700D01*
X183629448Y-97654496D01*
X183614326Y-97658706D01*
X183599044Y-97662327D01*
X183583603Y-97665362D01*
X183568002Y-97667809D01*
X183552241Y-97669669D01*
X183536321Y-97670942D01*
X183520240Y-97671627D01*
X183509431Y-97671757D01*
X183496566Y-97671611D01*
X183483910Y-97671171D01*
X183471461Y-97670438D01*
X183459221Y-97669413D01*
X183447190Y-97668094D01*
X183435366Y-97666482D01*
X183423751Y-97664577D01*
X183406720Y-97661169D01*
X183390157Y-97657103D01*
X183374063Y-97652377D01*
X183358438Y-97646991D01*
X183343282Y-97640946D01*
X183328594Y-97634242D01*
X183314373Y-97626916D01*
X183300615Y-97619009D01*
X183287321Y-97610519D01*
X183274491Y-97601447D01*
X183262125Y-97591793D01*
X183250222Y-97581557D01*
X183238783Y-97570739D01*
X183227807Y-97559338D01*
X183217295Y-97547356D01*
X183207247Y-97534791D01*
X183200806Y-97526091D01*
X183191526Y-97512521D01*
X183182699Y-97498411D01*
X183174325Y-97483760D01*
X183166405Y-97468567D01*
X183158938Y-97452834D01*
X183154212Y-97442044D01*
X183149687Y-97431015D01*
X183145364Y-97419744D01*
X183141242Y-97408234D01*
X183137322Y-97396482D01*
X183133604Y-97384491D01*
X183130086Y-97372259D01*
X183126771Y-97359786D01*
X183125189Y-97353460D01*
X183122207Y-97340610D01*
X183119418Y-97327558D01*
X183116822Y-97314305D01*
X183114417Y-97300850D01*
X183112206Y-97287194D01*
X183110186Y-97273336D01*
X183108359Y-97259277D01*
X183106724Y-97245016D01*
X183105281Y-97230554D01*
X183104031Y-97215890D01*
X183102973Y-97201025D01*
X183102108Y-97185958D01*
X183101434Y-97170690D01*
X183100954Y-97155220D01*
X183100665Y-97139549D01*
X183100569Y-97123676D01*
X183100632Y-97115177D01*
X183253270Y-97115177D01*
X183253327Y-97127092D01*
X183253499Y-97138876D01*
X183253971Y-97156308D01*
X183254701Y-97173446D01*
X183255688Y-97190290D01*
X183256933Y-97206841D01*
X183258436Y-97223098D01*
X183260196Y-97239062D01*
X183262214Y-97254731D01*
X183264489Y-97270108D01*
X183267023Y-97285190D01*
X183267924Y-97290152D01*
X183270874Y-97304742D01*
X183274117Y-97318945D01*
X183277654Y-97332762D01*
X183281484Y-97346192D01*
X183285608Y-97359236D01*
X183290026Y-97371894D01*
X183294738Y-97384165D01*
X183299743Y-97396050D01*
X183305042Y-97407548D01*
X183310634Y-97418660D01*
X183314526Y-97425854D01*
X183320626Y-97436238D01*
X183327055Y-97446180D01*
X183336141Y-97458746D01*
X183345813Y-97470525D01*
X183356071Y-97481516D01*
X183366916Y-97491719D01*
X183378346Y-97501135D01*
X183390363Y-97509763D01*
X183396591Y-97513781D01*
X183409510Y-97521131D01*
X183423061Y-97527501D01*
X183437244Y-97532892D01*
X183452059Y-97537302D01*
X183463585Y-97539966D01*
X183475466Y-97542079D01*
X183487703Y-97543641D01*
X183500295Y-97544652D01*
X183513243Y-97545111D01*
X183517638Y-97545142D01*
X183530492Y-97544848D01*
X183543006Y-97543967D01*
X183555181Y-97542499D01*
X183567015Y-97540443D01*
X183578509Y-97537800D01*
X183593305Y-97533363D01*
X183607497Y-97527881D01*
X183621085Y-97521355D01*
X183634068Y-97513785D01*
X183637219Y-97511729D01*
X183649543Y-97502932D01*
X183661308Y-97493393D01*
X183672514Y-97483112D01*
X183683161Y-97472089D01*
X183693250Y-97460324D01*
X183700450Y-97451013D01*
X183707336Y-97441286D01*
X183713907Y-97431140D01*
X183720164Y-97420578D01*
X183726115Y-97409637D01*
X183731766Y-97398356D01*
X183737119Y-97386735D01*
X183742173Y-97374773D01*
X183746929Y-97362472D01*
X183751385Y-97349831D01*
X183755543Y-97336849D01*
X183759402Y-97323528D01*
X183762962Y-97309867D01*
X183766223Y-97295865D01*
X183768231Y-97286342D01*
X183771060Y-97271796D01*
X183773610Y-97257065D01*
X183775882Y-97242148D01*
X183777876Y-97227046D01*
X183779591Y-97211758D01*
X183781029Y-97196285D01*
X183782188Y-97180627D01*
X183783069Y-97164782D01*
X183783672Y-97148753D01*
X183783996Y-97132538D01*
X183784058Y-97121625D01*
X183784001Y-97109818D01*
X183783700Y-97092343D01*
X183783142Y-97075151D01*
X183782326Y-97058243D01*
X183781253Y-97041619D01*
X183779922Y-97025278D01*
X183778334Y-97009220D01*
X183776488Y-96993445D01*
X183774384Y-96977954D01*
X183772022Y-96962746D01*
X183769404Y-96947822D01*
X183766554Y-96933177D01*
X183763389Y-96918919D01*
X183759911Y-96905047D01*
X183756118Y-96891562D01*
X183752011Y-96878463D01*
X183747590Y-96865750D01*
X183742854Y-96853424D01*
X183737805Y-96841484D01*
X183732441Y-96829931D01*
X183726762Y-96818764D01*
X183722802Y-96811534D01*
X183716647Y-96801045D01*
X183710162Y-96791008D01*
X183703348Y-96781426D01*
X183693749Y-96769354D01*
X183683564Y-96758088D01*
X183672793Y-96747629D01*
X183661436Y-96737975D01*
X183649492Y-96729127D01*
X183640150Y-96723020D01*
X183627144Y-96715670D01*
X183613479Y-96709300D01*
X183599154Y-96703910D01*
X183584170Y-96699500D01*
X183572499Y-96696835D01*
X183560457Y-96694722D01*
X183548044Y-96693160D01*
X183535260Y-96692150D01*
X183522105Y-96691690D01*
X183517638Y-96691660D01*
X183504839Y-96691956D01*
X183492379Y-96692845D01*
X183480260Y-96694326D01*
X183468481Y-96696399D01*
X183457042Y-96699066D01*
X183442319Y-96703542D01*
X183428200Y-96709072D01*
X183414686Y-96715655D01*
X183401776Y-96723291D01*
X183398643Y-96725365D01*
X183386461Y-96734094D01*
X183374829Y-96743573D01*
X183363747Y-96753804D01*
X183353214Y-96764786D01*
X183343230Y-96776519D01*
X183333796Y-96789003D01*
X183327082Y-96798858D01*
X183320676Y-96809137D01*
X183316577Y-96816224D01*
X183310729Y-96827170D01*
X183305164Y-96838466D01*
X183299882Y-96850113D01*
X183294884Y-96862111D01*
X183290169Y-96874458D01*
X183285737Y-96887156D01*
X183281589Y-96900205D01*
X183277724Y-96913603D01*
X183274143Y-96927352D01*
X183270845Y-96941451D01*
X183268803Y-96951046D01*
X183266027Y-96965586D01*
X183263524Y-96980302D01*
X183261294Y-96995193D01*
X183259337Y-97010259D01*
X183257654Y-97025501D01*
X183256243Y-97040917D01*
X183255105Y-97056509D01*
X183254240Y-97072275D01*
X183253649Y-97088217D01*
X183253330Y-97104335D01*
X183253270Y-97115177D01*
X183100632Y-97115177D01*
X183100701Y-97105909D01*
X183101096Y-97088437D01*
X183101754Y-97071260D01*
X183102676Y-97054379D01*
X183103860Y-97037793D01*
X183105309Y-97021502D01*
X183107020Y-97005507D01*
X183108995Y-96989807D01*
X183111234Y-96974402D01*
X183113735Y-96959293D01*
X183116500Y-96944480D01*
X183119528Y-96929961D01*
X183122820Y-96915738D01*
X183126375Y-96901811D01*
X183130193Y-96888179D01*
X183134274Y-96874842D01*
X183138618Y-96861797D01*
X183143150Y-96849041D01*
X183147869Y-96836573D01*
X183152776Y-96824393D01*
X183157871Y-96812503D01*
X183163153Y-96800900D01*
X183168623Y-96789587D01*
X183174281Y-96778561D01*
X183180127Y-96767824D01*
X183186161Y-96757376D01*
X183192382Y-96747217D01*
X183198791Y-96737345D01*
X183208757Y-96723079D01*
X183219145Y-96709463D01*
X183226305Y-96700745D01*
X183237409Y-96688143D01*
X183248847Y-96676164D01*
X183260620Y-96664808D01*
X183272728Y-96654075D01*
X183285171Y-96643966D01*
X183297949Y-96634480D01*
X183311061Y-96625618D01*
X183324509Y-96617379D01*
X183338292Y-96609764D01*
X183352409Y-96602772D01*
X183362006Y-96598457D01*
X183376597Y-96592485D01*
X183391352Y-96587102D01*
X183406272Y-96582305D01*
X183421357Y-96578096D01*
X183436607Y-96574474D01*
X183452022Y-96571440D01*
X183467602Y-96568992D01*
X183483346Y-96567132D01*
X183499256Y-96565860D01*
X183515330Y-96565175D01*
X183526138Y-96565044D01*
X183539003Y-96565193D01*
G37*
G36*
X184864100Y-97653000D02*
G01*
X184720778Y-97653000D01*
X184699383Y-96981820D01*
X184690297Y-96728589D01*
X184639885Y-96876014D01*
X184480736Y-97296600D01*
X184379327Y-97296600D01*
X184227798Y-96892134D01*
X184177387Y-96728589D01*
X184174163Y-96993251D01*
X184155112Y-97653000D01*
X184016773Y-97653000D01*
X184069529Y-96583802D01*
X184243332Y-96583802D01*
X184388413Y-96981820D01*
X184435600Y-97116056D01*
X184480736Y-96981820D01*
X184633437Y-96583802D01*
X184812223Y-96583802D01*
X184864100Y-97653000D01*
G37*
G36*
X278519811Y-70035728D02*
G01*
X278271856Y-70035728D01*
X278271856Y-69913802D01*
X278916364Y-69913802D01*
X278916364Y-70035728D01*
X278668408Y-70035728D01*
X278668408Y-70856384D01*
X278916364Y-70856384D01*
X278916364Y-70983000D01*
X278271856Y-70983000D01*
X278271856Y-70856384D01*
X278519811Y-70856384D01*
X278519811Y-70035728D01*
G37*
G36*
X279883565Y-70983000D02*
G01*
X279692470Y-70983000D01*
X279378276Y-70315923D01*
X279287711Y-70101381D01*
X279287711Y-70640962D01*
X279287711Y-70983000D01*
X279150837Y-70983000D01*
X279150837Y-69913802D01*
X279339588Y-69913802D01*
X279638834Y-70549224D01*
X279746692Y-70795421D01*
X279746692Y-70219203D01*
X279746692Y-69913802D01*
X279883565Y-69913802D01*
X279883565Y-70983000D01*
G37*
G36*
X280812958Y-70983000D02*
G01*
X280666120Y-70983000D01*
X280666120Y-70495295D01*
X280213586Y-70495295D01*
X280213586Y-70983000D01*
X280066748Y-70983000D01*
X280066748Y-69913802D01*
X280213586Y-69913802D01*
X280213586Y-70368680D01*
X280666120Y-70368680D01*
X280666120Y-69913802D01*
X280812958Y-69913802D01*
X280812958Y-70983000D01*
G37*
G36*
X281287766Y-70035728D02*
G01*
X281039811Y-70035728D01*
X281039811Y-69913802D01*
X281684319Y-69913802D01*
X281684319Y-70035728D01*
X281436364Y-70035728D01*
X281436364Y-70856384D01*
X281684319Y-70856384D01*
X281684319Y-70983000D01*
X281039811Y-70983000D01*
X281039811Y-70856384D01*
X281287766Y-70856384D01*
X281287766Y-70035728D01*
G37*
G36*
X282281233Y-69914057D02*
G01*
X282302690Y-69914823D01*
X282323445Y-69916100D01*
X282343495Y-69917887D01*
X282362843Y-69920185D01*
X282381486Y-69922993D01*
X282399426Y-69926312D01*
X282416663Y-69930142D01*
X282433196Y-69934482D01*
X282449026Y-69939333D01*
X282464152Y-69944695D01*
X282478574Y-69950567D01*
X282492293Y-69956949D01*
X282505308Y-69963843D01*
X282517620Y-69971247D01*
X282529228Y-69979161D01*
X282540133Y-69987587D01*
X282550334Y-69996522D01*
X282559832Y-70005969D01*
X282568626Y-70015926D01*
X282576717Y-70026394D01*
X282584104Y-70037372D01*
X282590788Y-70048861D01*
X282596768Y-70060861D01*
X282602044Y-70073371D01*
X282606617Y-70086392D01*
X282610487Y-70099923D01*
X282613652Y-70113965D01*
X282616115Y-70128518D01*
X282617874Y-70143581D01*
X282618929Y-70159155D01*
X282619281Y-70175240D01*
X282618915Y-70191397D01*
X282617818Y-70207117D01*
X282615989Y-70222398D01*
X282613428Y-70237242D01*
X282610136Y-70251648D01*
X282606112Y-70265616D01*
X282601357Y-70279146D01*
X282595870Y-70292238D01*
X282589652Y-70304892D01*
X282582702Y-70317108D01*
X282577662Y-70325009D01*
X282569400Y-70336434D01*
X282560221Y-70347297D01*
X282550124Y-70357598D01*
X282539111Y-70367338D01*
X282527181Y-70376516D01*
X282514333Y-70385133D01*
X282500569Y-70393188D01*
X282485887Y-70400682D01*
X282470289Y-70407614D01*
X282459380Y-70411923D01*
X282448064Y-70415983D01*
X282442254Y-70417919D01*
X282455786Y-70420763D01*
X282469090Y-70424165D01*
X282482164Y-70428124D01*
X282495010Y-70432643D01*
X282507627Y-70437719D01*
X282520014Y-70443353D01*
X282524905Y-70445763D01*
X282536942Y-70452094D01*
X282548507Y-70458998D01*
X282559600Y-70466474D01*
X282570220Y-70474523D01*
X282580368Y-70483144D01*
X282590044Y-70492337D01*
X282593782Y-70496175D01*
X282602732Y-70506078D01*
X282611081Y-70516554D01*
X282618829Y-70527602D01*
X282625976Y-70539222D01*
X282632522Y-70551416D01*
X282638467Y-70564181D01*
X282640676Y-70569448D01*
X282645743Y-70582901D01*
X282649950Y-70596885D01*
X282652698Y-70608453D01*
X282654896Y-70620360D01*
X282656545Y-70632605D01*
X282657644Y-70645190D01*
X282658193Y-70658113D01*
X282658262Y-70664702D01*
X282657997Y-70678893D01*
X282657201Y-70692781D01*
X282655874Y-70706364D01*
X282654017Y-70719643D01*
X282651629Y-70732618D01*
X282648710Y-70745290D01*
X282645261Y-70757657D01*
X282641281Y-70769721D01*
X282636770Y-70781480D01*
X282631729Y-70792935D01*
X282628073Y-70800404D01*
X282622189Y-70811290D01*
X282615856Y-70821856D01*
X282609075Y-70832104D01*
X282601846Y-70842032D01*
X282594169Y-70851640D01*
X282586043Y-70860929D01*
X282577470Y-70869899D01*
X282568448Y-70878549D01*
X282558977Y-70886880D01*
X282549059Y-70894891D01*
X282542198Y-70900055D01*
X282531605Y-70907521D01*
X282520601Y-70914642D01*
X282509184Y-70921417D01*
X282497355Y-70927848D01*
X282485114Y-70933933D01*
X282472460Y-70939673D01*
X282459395Y-70945068D01*
X282445917Y-70950118D01*
X282432027Y-70954823D01*
X282417725Y-70959182D01*
X282407962Y-70961897D01*
X282393024Y-70965668D01*
X282377778Y-70969068D01*
X282362222Y-70972098D01*
X282346358Y-70974756D01*
X282330184Y-70977044D01*
X282313701Y-70978960D01*
X282296909Y-70980506D01*
X282279808Y-70981681D01*
X282262397Y-70982484D01*
X282250619Y-70982814D01*
X282238703Y-70982979D01*
X282232693Y-70983000D01*
X281950739Y-70983000D01*
X281950739Y-70495295D01*
X282097578Y-70495295D01*
X282097578Y-70861073D01*
X282252623Y-70861073D01*
X282268126Y-70860893D01*
X282283128Y-70860350D01*
X282297628Y-70859445D01*
X282311626Y-70858179D01*
X282325123Y-70856551D01*
X282338119Y-70854561D01*
X282350613Y-70852210D01*
X282362606Y-70849496D01*
X282374097Y-70846421D01*
X282390394Y-70841130D01*
X282405562Y-70835025D01*
X282419602Y-70828106D01*
X282432514Y-70820373D01*
X282440495Y-70814765D01*
X282451547Y-70805624D01*
X282461512Y-70795565D01*
X282470389Y-70784590D01*
X282478180Y-70772697D01*
X282484884Y-70759888D01*
X282490500Y-70746161D01*
X282495030Y-70731517D01*
X282498472Y-70715957D01*
X282500827Y-70699479D01*
X282502096Y-70682084D01*
X282502337Y-70669978D01*
X282501915Y-70657531D01*
X282500649Y-70645472D01*
X282498538Y-70633798D01*
X282494890Y-70620300D01*
X282490027Y-70607358D01*
X282485045Y-70596998D01*
X282478004Y-70585159D01*
X282469850Y-70574041D01*
X282460583Y-70563644D01*
X282452011Y-70555531D01*
X282442666Y-70547919D01*
X282434633Y-70542190D01*
X282424017Y-70535395D01*
X282412686Y-70529115D01*
X282400639Y-70523351D01*
X282387876Y-70518102D01*
X282374398Y-70513367D01*
X282363100Y-70509951D01*
X282354326Y-70507605D01*
X282342273Y-70504720D01*
X282329853Y-70502220D01*
X282317067Y-70500104D01*
X282303914Y-70498373D01*
X282290396Y-70497026D01*
X282276510Y-70496065D01*
X282262259Y-70495488D01*
X282247641Y-70495295D01*
X282097578Y-70495295D01*
X281950739Y-70495295D01*
X281950739Y-70035728D01*
X282097578Y-70035728D01*
X282097578Y-70373369D01*
X282244417Y-70373369D01*
X282256800Y-70373204D01*
X282268890Y-70372710D01*
X282280687Y-70371886D01*
X282295021Y-70370391D01*
X282308897Y-70368382D01*
X282322315Y-70365858D01*
X282335275Y-70362818D01*
X282347805Y-70359150D01*
X282359747Y-70354924D01*
X282371103Y-70350140D01*
X282381872Y-70344798D01*
X282392054Y-70338897D01*
X282403499Y-70331080D01*
X282405324Y-70329699D01*
X282415851Y-70320954D01*
X282425451Y-70311426D01*
X282434124Y-70301115D01*
X282441869Y-70290021D01*
X282448687Y-70278144D01*
X282450753Y-70274011D01*
X282456231Y-70261028D01*
X282459931Y-70249516D01*
X282462843Y-70237375D01*
X282464968Y-70224604D01*
X282466306Y-70211203D01*
X282466857Y-70197172D01*
X282466873Y-70194290D01*
X282466523Y-70182005D01*
X282465472Y-70169987D01*
X282463720Y-70158237D01*
X282461268Y-70146755D01*
X282457521Y-70133698D01*
X282456908Y-70131862D01*
X282451947Y-70119446D01*
X282445528Y-70107843D01*
X282437650Y-70097054D01*
X282428313Y-70087079D01*
X282422323Y-70081743D01*
X282412473Y-70074139D01*
X282401386Y-70067153D01*
X282389062Y-70060785D01*
X282377848Y-70055951D01*
X282365775Y-70051546D01*
X282355498Y-70048331D01*
X282341857Y-70044700D01*
X282330161Y-70042239D01*
X282317769Y-70040171D01*
X282304680Y-70038497D01*
X282290896Y-70037217D01*
X282276415Y-70036331D01*
X282261239Y-70035839D01*
X282249399Y-70035728D01*
X282097578Y-70035728D01*
X281950739Y-70035728D01*
X281950739Y-69913802D01*
X282259071Y-69913802D01*
X282281233Y-69914057D01*
G37*
G36*
X283133070Y-70035728D02*
G01*
X282885115Y-70035728D01*
X282885115Y-69913802D01*
X283529623Y-69913802D01*
X283529623Y-70035728D01*
X283281667Y-70035728D01*
X283281667Y-70856384D01*
X283529623Y-70856384D01*
X283529623Y-70983000D01*
X282885115Y-70983000D01*
X282885115Y-70856384D01*
X283133070Y-70856384D01*
X283133070Y-70035728D01*
G37*
G36*
X284523203Y-70040418D02*
G01*
X284204319Y-70040418D01*
X284204319Y-70983000D01*
X284055722Y-70983000D01*
X284055722Y-70040418D01*
X283736838Y-70040418D01*
X283736838Y-69913802D01*
X284523203Y-69913802D01*
X284523203Y-70040418D01*
G37*
G36*
X205437169Y-96583980D02*
G01*
X205454059Y-96584513D01*
X205470485Y-96585402D01*
X205486448Y-96586646D01*
X205501947Y-96588246D01*
X205516982Y-96590201D01*
X205531553Y-96592511D01*
X205545661Y-96595178D01*
X205559306Y-96598199D01*
X205572486Y-96601576D01*
X205581016Y-96604025D01*
X205593496Y-96607959D01*
X205605549Y-96612176D01*
X205617175Y-96616676D01*
X205628373Y-96621460D01*
X205639143Y-96626527D01*
X205652838Y-96633723D01*
X205665773Y-96641424D01*
X205677948Y-96649628D01*
X205689362Y-96658336D01*
X205692097Y-96660592D01*
X205702580Y-96669911D01*
X205712339Y-96679698D01*
X205721374Y-96689951D01*
X205729686Y-96700672D01*
X205737274Y-96711860D01*
X205744139Y-96723515D01*
X205750280Y-96735637D01*
X205755698Y-96748226D01*
X205760438Y-96761218D01*
X205764546Y-96774550D01*
X205768022Y-96788220D01*
X205770865Y-96802228D01*
X205773077Y-96816576D01*
X205774657Y-96831263D01*
X205775605Y-96846288D01*
X205775921Y-96861653D01*
X205775688Y-96873885D01*
X205774987Y-96885961D01*
X205773819Y-96897882D01*
X205772184Y-96909646D01*
X205770082Y-96921256D01*
X205767513Y-96932709D01*
X205763645Y-96946807D01*
X205760974Y-96955149D01*
X205755952Y-96968694D01*
X205750229Y-96981853D01*
X205743805Y-96994626D01*
X205736679Y-97007012D01*
X205728852Y-97019012D01*
X205720324Y-97030626D01*
X205716717Y-97035163D01*
X205707299Y-97046108D01*
X205697179Y-97056595D01*
X205688579Y-97064655D01*
X205679530Y-97072422D01*
X205670032Y-97079896D01*
X205660085Y-97087077D01*
X205649689Y-97093964D01*
X205644323Y-97097298D01*
X205633282Y-97103613D01*
X205621847Y-97109516D01*
X205610018Y-97115007D01*
X205597795Y-97120086D01*
X205585178Y-97124753D01*
X205572168Y-97129007D01*
X205558763Y-97132849D01*
X205544965Y-97136279D01*
X205556107Y-97140607D01*
X205566819Y-97145677D01*
X205577100Y-97151488D01*
X205586951Y-97158041D01*
X205596371Y-97165337D01*
X205605360Y-97173374D01*
X205613920Y-97182153D01*
X205622048Y-97191674D01*
X205629985Y-97201904D01*
X205637967Y-97212959D01*
X205645995Y-97224839D01*
X205654069Y-97237542D01*
X205660154Y-97247611D01*
X205666265Y-97258144D01*
X205672402Y-97269140D01*
X205678565Y-97280599D01*
X205684753Y-97292523D01*
X205686822Y-97296600D01*
X205857401Y-97653000D01*
X205691804Y-97653000D01*
X205530897Y-97305979D01*
X205525197Y-97293859D01*
X205519454Y-97282412D01*
X205513668Y-97271637D01*
X205506668Y-97259595D01*
X205499606Y-97248522D01*
X205493674Y-97240034D01*
X205486527Y-97230633D01*
X205477901Y-97220629D01*
X205468968Y-97211663D01*
X205459725Y-97203735D01*
X205452935Y-97198708D01*
X205441815Y-97191509D01*
X205430147Y-97185445D01*
X205417928Y-97180518D01*
X205405161Y-97176726D01*
X205393568Y-97174099D01*
X205381358Y-97172118D01*
X205368532Y-97170781D01*
X205355088Y-97170090D01*
X205347129Y-97169985D01*
X205277959Y-97169985D01*
X205277959Y-97653000D01*
X205131120Y-97653000D01*
X205131120Y-96705728D01*
X205277959Y-96705728D01*
X205277959Y-97052748D01*
X205396661Y-97052748D01*
X205409470Y-97052570D01*
X205421958Y-97052034D01*
X205434126Y-97051141D01*
X205445974Y-97049891D01*
X205460332Y-97047826D01*
X205474189Y-97045202D01*
X205487546Y-97042021D01*
X205490157Y-97041318D01*
X205502863Y-97037382D01*
X205514967Y-97032903D01*
X205526470Y-97027880D01*
X205537372Y-97022313D01*
X205547674Y-97016202D01*
X205557374Y-97009547D01*
X205561085Y-97006733D01*
X205571602Y-96997700D01*
X205581171Y-96987966D01*
X205589792Y-96977531D01*
X205597465Y-96966396D01*
X205604190Y-96954560D01*
X205606221Y-96950459D01*
X205611700Y-96937579D01*
X205615399Y-96926311D01*
X205618311Y-96914556D01*
X205620437Y-96902314D01*
X205621775Y-96889586D01*
X205622326Y-96876371D01*
X205622341Y-96873669D01*
X205621867Y-96858219D01*
X205620445Y-96843520D01*
X205618076Y-96829573D01*
X205614758Y-96816379D01*
X205610492Y-96803937D01*
X205605278Y-96792247D01*
X205599116Y-96781310D01*
X205592006Y-96771124D01*
X205583949Y-96761691D01*
X205574943Y-96753010D01*
X205568413Y-96747640D01*
X205557912Y-96740150D01*
X205546633Y-96733397D01*
X205534577Y-96727380D01*
X205521742Y-96722100D01*
X205508130Y-96717557D01*
X205493740Y-96713750D01*
X205478571Y-96710681D01*
X205462625Y-96708348D01*
X205445901Y-96706751D01*
X205428398Y-96705892D01*
X205416298Y-96705728D01*
X205277959Y-96705728D01*
X205131120Y-96705728D01*
X205131120Y-96583802D01*
X205419815Y-96583802D01*
X205437169Y-96583980D01*
G37*
G36*
X206833688Y-97653000D02*
G01*
X206673660Y-97653000D01*
X206598629Y-97427905D01*
X206150199Y-97427905D01*
X206074288Y-97653000D01*
X205921881Y-97653000D01*
X206041169Y-97296600D01*
X206192404Y-97296600D01*
X206556717Y-97296600D01*
X206374414Y-96719210D01*
X206192404Y-97296600D01*
X206041169Y-97296600D01*
X206279745Y-96583802D01*
X206480806Y-96583802D01*
X206833688Y-97653000D01*
G37*
G36*
X207724100Y-97653000D02*
G01*
X207580778Y-97653000D01*
X207559383Y-96981820D01*
X207550297Y-96728589D01*
X207499885Y-96876014D01*
X207340736Y-97296600D01*
X207239327Y-97296600D01*
X207087798Y-96892134D01*
X207037387Y-96728589D01*
X207034163Y-96993251D01*
X207015112Y-97653000D01*
X206876773Y-97653000D01*
X206929529Y-96583802D01*
X207103332Y-96583802D01*
X207248413Y-96981820D01*
X207295600Y-97116056D01*
X207340736Y-96981820D01*
X207493437Y-96583802D01*
X207672223Y-96583802D01*
X207724100Y-97653000D01*
G37*
%TO.C,U1*%
X205608095Y-58727619D02*
X205608095Y-59537142D01*
X205608095Y-59537142D02*
X205655714Y-59632380D01*
X205655714Y-59632380D02*
X205703333Y-59680000D01*
X205703333Y-59680000D02*
X205798571Y-59727619D01*
X205798571Y-59727619D02*
X205989047Y-59727619D01*
X205989047Y-59727619D02*
X206084285Y-59680000D01*
X206084285Y-59680000D02*
X206131904Y-59632380D01*
X206131904Y-59632380D02*
X206179523Y-59537142D01*
X206179523Y-59537142D02*
X206179523Y-58727619D01*
X207179523Y-59727619D02*
X206608095Y-59727619D01*
X206893809Y-59727619D02*
X206893809Y-58727619D01*
X206893809Y-58727619D02*
X206798571Y-58870476D01*
X206798571Y-58870476D02*
X206703333Y-58965714D01*
X206703333Y-58965714D02*
X206608095Y-59013333D01*
%TO.C,U3*%
X223822619Y-66156904D02*
X224632142Y-66156904D01*
X224632142Y-66156904D02*
X224727380Y-66109285D01*
X224727380Y-66109285D02*
X224775000Y-66061666D01*
X224775000Y-66061666D02*
X224822619Y-65966428D01*
X224822619Y-65966428D02*
X224822619Y-65775952D01*
X224822619Y-65775952D02*
X224775000Y-65680714D01*
X224775000Y-65680714D02*
X224727380Y-65633095D01*
X224727380Y-65633095D02*
X224632142Y-65585476D01*
X224632142Y-65585476D02*
X223822619Y-65585476D01*
X223822619Y-65204523D02*
X223822619Y-64585476D01*
X223822619Y-64585476D02*
X224203571Y-64918809D01*
X224203571Y-64918809D02*
X224203571Y-64775952D01*
X224203571Y-64775952D02*
X224251190Y-64680714D01*
X224251190Y-64680714D02*
X224298809Y-64633095D01*
X224298809Y-64633095D02*
X224394047Y-64585476D01*
X224394047Y-64585476D02*
X224632142Y-64585476D01*
X224632142Y-64585476D02*
X224727380Y-64633095D01*
X224727380Y-64633095D02*
X224775000Y-64680714D01*
X224775000Y-64680714D02*
X224822619Y-64775952D01*
X224822619Y-64775952D02*
X224822619Y-65061666D01*
X224822619Y-65061666D02*
X224775000Y-65156904D01*
X224775000Y-65156904D02*
X224727380Y-65204523D01*
%TO.C,U2*%
X182118095Y-58727619D02*
X182118095Y-59537142D01*
X182118095Y-59537142D02*
X182165714Y-59632380D01*
X182165714Y-59632380D02*
X182213333Y-59680000D01*
X182213333Y-59680000D02*
X182308571Y-59727619D01*
X182308571Y-59727619D02*
X182499047Y-59727619D01*
X182499047Y-59727619D02*
X182594285Y-59680000D01*
X182594285Y-59680000D02*
X182641904Y-59632380D01*
X182641904Y-59632380D02*
X182689523Y-59537142D01*
X182689523Y-59537142D02*
X182689523Y-58727619D01*
X183118095Y-58822857D02*
X183165714Y-58775238D01*
X183165714Y-58775238D02*
X183260952Y-58727619D01*
X183260952Y-58727619D02*
X183499047Y-58727619D01*
X183499047Y-58727619D02*
X183594285Y-58775238D01*
X183594285Y-58775238D02*
X183641904Y-58822857D01*
X183641904Y-58822857D02*
X183689523Y-58918095D01*
X183689523Y-58918095D02*
X183689523Y-59013333D01*
X183689523Y-59013333D02*
X183641904Y-59156190D01*
X183641904Y-59156190D02*
X183070476Y-59727619D01*
X183070476Y-59727619D02*
X183689523Y-59727619D01*
%TO.C,J1*%
X270357619Y-49110833D02*
X271071904Y-49110833D01*
X271071904Y-49110833D02*
X271214761Y-49158452D01*
X271214761Y-49158452D02*
X271310000Y-49253690D01*
X271310000Y-49253690D02*
X271357619Y-49396547D01*
X271357619Y-49396547D02*
X271357619Y-49491785D01*
X271357619Y-48110833D02*
X271357619Y-48682261D01*
X271357619Y-48396547D02*
X270357619Y-48396547D01*
X270357619Y-48396547D02*
X270500476Y-48491785D01*
X270500476Y-48491785D02*
X270595714Y-48587023D01*
X270595714Y-48587023D02*
X270643333Y-48682261D01*
%TO.C,A1*%
X242111904Y-88979285D02*
X242111904Y-88503095D01*
X242397619Y-89074523D02*
X241397619Y-88741190D01*
X241397619Y-88741190D02*
X242397619Y-88407857D01*
X242397619Y-87550714D02*
X242397619Y-88122142D01*
X242397619Y-87836428D02*
X241397619Y-87836428D01*
X241397619Y-87836428D02*
X241540476Y-87931666D01*
X241540476Y-87931666D02*
X241635714Y-88026904D01*
X241635714Y-88026904D02*
X241683333Y-88122142D01*
X282037619Y-89526904D02*
X282847142Y-89526904D01*
X282847142Y-89526904D02*
X282942380Y-89479285D01*
X282942380Y-89479285D02*
X282990000Y-89431666D01*
X282990000Y-89431666D02*
X283037619Y-89336428D01*
X283037619Y-89336428D02*
X283037619Y-89145952D01*
X283037619Y-89145952D02*
X282990000Y-89050714D01*
X282990000Y-89050714D02*
X282942380Y-89003095D01*
X282942380Y-89003095D02*
X282847142Y-88955476D01*
X282847142Y-88955476D02*
X282037619Y-88955476D01*
X282990000Y-88526904D02*
X283037619Y-88384047D01*
X283037619Y-88384047D02*
X283037619Y-88145952D01*
X283037619Y-88145952D02*
X282990000Y-88050714D01*
X282990000Y-88050714D02*
X282942380Y-88003095D01*
X282942380Y-88003095D02*
X282847142Y-87955476D01*
X282847142Y-87955476D02*
X282751904Y-87955476D01*
X282751904Y-87955476D02*
X282656666Y-88003095D01*
X282656666Y-88003095D02*
X282609047Y-88050714D01*
X282609047Y-88050714D02*
X282561428Y-88145952D01*
X282561428Y-88145952D02*
X282513809Y-88336428D01*
X282513809Y-88336428D02*
X282466190Y-88431666D01*
X282466190Y-88431666D02*
X282418571Y-88479285D01*
X282418571Y-88479285D02*
X282323333Y-88526904D01*
X282323333Y-88526904D02*
X282228095Y-88526904D01*
X282228095Y-88526904D02*
X282132857Y-88479285D01*
X282132857Y-88479285D02*
X282085238Y-88431666D01*
X282085238Y-88431666D02*
X282037619Y-88336428D01*
X282037619Y-88336428D02*
X282037619Y-88098333D01*
X282037619Y-88098333D02*
X282085238Y-87955476D01*
X282513809Y-87193571D02*
X282561428Y-87050714D01*
X282561428Y-87050714D02*
X282609047Y-87003095D01*
X282609047Y-87003095D02*
X282704285Y-86955476D01*
X282704285Y-86955476D02*
X282847142Y-86955476D01*
X282847142Y-86955476D02*
X282942380Y-87003095D01*
X282942380Y-87003095D02*
X282990000Y-87050714D01*
X282990000Y-87050714D02*
X283037619Y-87145952D01*
X283037619Y-87145952D02*
X283037619Y-87526904D01*
X283037619Y-87526904D02*
X282037619Y-87526904D01*
X282037619Y-87526904D02*
X282037619Y-87193571D01*
X282037619Y-87193571D02*
X282085238Y-87098333D01*
X282085238Y-87098333D02*
X282132857Y-87050714D01*
X282132857Y-87050714D02*
X282228095Y-87003095D01*
X282228095Y-87003095D02*
X282323333Y-87003095D01*
X282323333Y-87003095D02*
X282418571Y-87050714D01*
X282418571Y-87050714D02*
X282466190Y-87098333D01*
X282466190Y-87098333D02*
X282513809Y-87193571D01*
X282513809Y-87193571D02*
X282513809Y-87526904D01*
%TO.C,J2*%
X270357619Y-107648333D02*
X271071904Y-107648333D01*
X271071904Y-107648333D02*
X271214761Y-107695952D01*
X271214761Y-107695952D02*
X271310000Y-107791190D01*
X271310000Y-107791190D02*
X271357619Y-107934047D01*
X271357619Y-107934047D02*
X271357619Y-108029285D01*
X270452857Y-107219761D02*
X270405238Y-107172142D01*
X270405238Y-107172142D02*
X270357619Y-107076904D01*
X270357619Y-107076904D02*
X270357619Y-106838809D01*
X270357619Y-106838809D02*
X270405238Y-106743571D01*
X270405238Y-106743571D02*
X270452857Y-106695952D01*
X270452857Y-106695952D02*
X270548095Y-106648333D01*
X270548095Y-106648333D02*
X270643333Y-106648333D01*
X270643333Y-106648333D02*
X270786190Y-106695952D01*
X270786190Y-106695952D02*
X271357619Y-107267380D01*
X271357619Y-107267380D02*
X271357619Y-106648333D01*
D12*
%TO.C,R5*%
X228500000Y-79470000D02*
X228500000Y-72930000D01*
X228830000Y-79470000D02*
X228500000Y-79470000D01*
X230910000Y-79470000D02*
X231240000Y-79470000D01*
X231240000Y-79470000D02*
X231240000Y-72930000D01*
X228500000Y-72930000D02*
X228830000Y-72930000D01*
X231240000Y-72930000D02*
X230910000Y-72930000D01*
%TO.C,R4*%
X268700000Y-71855000D02*
X262160000Y-71855000D01*
X268700000Y-71525000D02*
X268700000Y-71855000D01*
X268700000Y-69445000D02*
X268700000Y-69115000D01*
X268700000Y-69115000D02*
X262160000Y-69115000D01*
X262160000Y-71855000D02*
X262160000Y-71525000D01*
X262160000Y-69115000D02*
X262160000Y-69445000D01*
%TO.C,D2*%
X276780000Y-62905000D02*
X276780000Y-60285000D01*
X276780000Y-62905000D02*
X271860000Y-62905000D01*
X276780000Y-60285000D02*
X271860000Y-60285000D01*
X276660000Y-62905000D02*
X276660000Y-62675000D01*
X276660000Y-60515000D02*
X276660000Y-60285000D01*
X276540000Y-62905000D02*
X276540000Y-62675000D01*
X276540000Y-60515000D02*
X276540000Y-60285000D01*
X271860000Y-62905000D02*
X271860000Y-60285000D01*
%TO.C,R3*%
X268700000Y-62965000D02*
X262160000Y-62965000D01*
X268700000Y-62635000D02*
X268700000Y-62965000D01*
X268700000Y-60555000D02*
X268700000Y-60225000D01*
X268700000Y-60225000D02*
X262160000Y-60225000D01*
X262160000Y-62965000D02*
X262160000Y-62635000D01*
X262160000Y-60225000D02*
X262160000Y-60555000D01*
%TO.C,U1*%
X197420000Y-60205000D02*
X197420000Y-96005000D01*
X197420000Y-96005000D02*
X215320000Y-96005000D01*
X199910000Y-60265000D02*
X199910000Y-95945000D01*
X199910000Y-95945000D02*
X212830000Y-95945000D01*
X205370000Y-60265000D02*
X199910000Y-60265000D01*
X212830000Y-60265000D02*
X207370000Y-60265000D01*
X212830000Y-95945000D02*
X212830000Y-60265000D01*
X215320000Y-60205000D02*
X197420000Y-60205000D01*
X215320000Y-96005000D02*
X215320000Y-60205000D01*
X205370000Y-60265000D02*
G75*
G03*
X207370000Y-60265000I1000000J0D01*
G01*
%TO.C,U3*%
X225300000Y-70535000D02*
X243320000Y-70535000D01*
X243320000Y-70535000D02*
X243320000Y-60255000D01*
X225360000Y-68045000D02*
X243260000Y-68045000D01*
X243260000Y-68045000D02*
X243260000Y-62745000D01*
X225360000Y-66395000D02*
X225360000Y-68045000D01*
X225360000Y-62745000D02*
X225360000Y-64395000D01*
X243260000Y-62745000D02*
X225360000Y-62745000D01*
X225300000Y-60255000D02*
X225300000Y-70535000D01*
X243320000Y-60255000D02*
X225300000Y-60255000D01*
X225360000Y-66395000D02*
G75*
G03*
X225360000Y-64395000I0J1000000D01*
G01*
%TO.C,U2*%
X173930000Y-60205000D02*
X173930000Y-96005000D01*
X173930000Y-96005000D02*
X191830000Y-96005000D01*
X176420000Y-60265000D02*
X176420000Y-95945000D01*
X176420000Y-95945000D02*
X189340000Y-95945000D01*
X181880000Y-60265000D02*
X176420000Y-60265000D01*
X189340000Y-60265000D02*
X183880000Y-60265000D01*
X189340000Y-95945000D02*
X189340000Y-60265000D01*
X191830000Y-60205000D02*
X173930000Y-60205000D01*
X191830000Y-96005000D02*
X191830000Y-60205000D01*
X181880000Y-60265000D02*
G75*
G03*
X183880000Y-60265000I1000000J0D01*
G01*
%TO.C,R1*%
X235685000Y-72930000D02*
X235685000Y-79470000D01*
X235355000Y-72930000D02*
X235685000Y-72930000D01*
X233275000Y-72930000D02*
X232945000Y-72930000D01*
X232945000Y-72930000D02*
X232945000Y-79470000D01*
X235685000Y-79470000D02*
X235355000Y-79470000D01*
X232945000Y-79470000D02*
X233275000Y-79470000D01*
%TO.C,J1*%
X265295000Y-42827500D02*
X264295000Y-42827500D01*
X264295000Y-42827500D02*
X264795000Y-43827500D01*
X264795000Y-43827500D02*
X265295000Y-42827500D01*
X270005000Y-44217500D02*
X270005000Y-53337500D01*
X227475000Y-44217500D02*
X227475000Y-45527500D01*
X180845000Y-44217500D02*
X270005000Y-44217500D01*
X268705000Y-45527500D02*
X268705000Y-52027500D01*
X227475000Y-45527500D02*
X268705000Y-45527500D01*
X223375000Y-45527500D02*
X223375000Y-44217500D01*
X223375000Y-45527500D02*
X223375000Y-45527500D01*
X182145000Y-45527500D02*
X223375000Y-45527500D01*
X268705000Y-52027500D02*
X182145000Y-52027500D01*
X182145000Y-52027500D02*
X182145000Y-45527500D01*
X270005000Y-53337500D02*
X180845000Y-53337500D01*
X180845000Y-53337500D02*
X180845000Y-44217500D01*
%TO.C,D3*%
X276785000Y-71795000D02*
X276785000Y-69175000D01*
X276785000Y-71795000D02*
X271865000Y-71795000D01*
X276785000Y-69175000D02*
X271865000Y-69175000D01*
X276665000Y-71795000D02*
X276665000Y-71565000D01*
X276665000Y-69405000D02*
X276665000Y-69175000D01*
X276545000Y-71795000D02*
X276545000Y-71565000D01*
X276545000Y-69405000D02*
X276545000Y-69175000D01*
X271865000Y-71795000D02*
X271865000Y-69175000D01*
%TO.C,A1*%
X243075000Y-97285000D02*
X245745000Y-97285000D01*
X248285000Y-97285000D02*
X286515000Y-97285000D01*
X286515000Y-97285000D02*
X286515000Y-92205000D01*
X245745000Y-94615000D02*
X245745000Y-97285000D01*
X248285000Y-94615000D02*
X248285000Y-97285000D01*
X248285000Y-94615000D02*
X245745000Y-94615000D01*
X248285000Y-94615000D02*
X283845000Y-94615000D01*
X283845000Y-94615000D02*
X283845000Y-97285000D01*
X278635000Y-92205000D02*
X278635000Y-84325000D01*
X289055000Y-92205000D02*
X278635000Y-92205000D01*
X278635000Y-84325000D02*
X289055000Y-84325000D01*
X289055000Y-84325000D02*
X289055000Y-92205000D01*
X245745000Y-81915000D02*
X283845000Y-81915000D01*
X245745000Y-81915000D02*
X245745000Y-79245000D01*
X283845000Y-81915000D02*
X283845000Y-79245000D01*
X243075000Y-79245000D02*
X243075000Y-97285000D01*
X286515000Y-79245000D02*
X286515000Y-84325000D01*
X286515000Y-79245000D02*
X243075000Y-79245000D01*
%TO.C,R2*%
X268700000Y-67410000D02*
X262160000Y-67410000D01*
X268700000Y-67080000D02*
X268700000Y-67410000D01*
X268700000Y-65000000D02*
X268700000Y-64670000D01*
X268700000Y-64670000D02*
X262160000Y-64670000D01*
X262160000Y-67410000D02*
X262160000Y-67080000D01*
X262160000Y-64670000D02*
X262160000Y-65000000D01*
%TO.C,J2*%
X265295000Y-101365000D02*
X264295000Y-101365000D01*
X264295000Y-101365000D02*
X264795000Y-102365000D01*
X264795000Y-102365000D02*
X265295000Y-101365000D01*
X270005000Y-102755000D02*
X270005000Y-111875000D01*
X227475000Y-102755000D02*
X227475000Y-104065000D01*
X180845000Y-102755000D02*
X270005000Y-102755000D01*
X268705000Y-104065000D02*
X268705000Y-110565000D01*
X227475000Y-104065000D02*
X268705000Y-104065000D01*
X223375000Y-104065000D02*
X223375000Y-102755000D01*
X223375000Y-104065000D02*
X223375000Y-104065000D01*
X182145000Y-104065000D02*
X223375000Y-104065000D01*
X268705000Y-110565000D02*
X182145000Y-110565000D01*
X182145000Y-110565000D02*
X182145000Y-104065000D01*
X270005000Y-111875000D02*
X180845000Y-111875000D01*
X180845000Y-111875000D02*
X180845000Y-102755000D01*
%TO.C,D1*%
X276785000Y-67350000D02*
X276785000Y-64730000D01*
X276785000Y-67350000D02*
X271865000Y-67350000D01*
X276785000Y-64730000D02*
X271865000Y-64730000D01*
X276665000Y-67350000D02*
X276665000Y-67120000D01*
X276665000Y-64960000D02*
X276665000Y-64730000D01*
X276545000Y-67350000D02*
X276545000Y-67120000D01*
X276545000Y-64960000D02*
X276545000Y-64730000D01*
X271865000Y-67350000D02*
X271865000Y-64730000D01*
%TO.C,R6*%
X237390000Y-79470000D02*
X237390000Y-72930000D01*
X237720000Y-79470000D02*
X237390000Y-79470000D01*
X239800000Y-79470000D02*
X240130000Y-79470000D01*
X240130000Y-79470000D02*
X240130000Y-72930000D01*
X237390000Y-72930000D02*
X237720000Y-72930000D01*
X240130000Y-72930000D02*
X239800000Y-72930000D01*
%TD*%
%LPC*%
D13*
%TO.C,R5*%
X229870000Y-80010000D03*
D14*
X229870000Y-72390000D03*
%TD*%
D15*
%TO.C,H1*%
X167000000Y-47000000D03*
%TD*%
D13*
%TO.C,R4*%
X269240000Y-70485000D03*
D14*
X261620000Y-70485000D03*
%TD*%
D16*
%TO.C,D2*%
X275590000Y-61595000D03*
D17*
X273050000Y-61595000D03*
%TD*%
D13*
%TO.C,R3*%
X269240000Y-61595000D03*
D14*
X261620000Y-61595000D03*
%TD*%
D15*
%TO.C,H4*%
X283000000Y-109000000D03*
%TD*%
D18*
%TO.C,U1*%
X198750000Y-61595000D03*
D14*
X198750000Y-64135000D03*
X198750000Y-66675000D03*
X198750000Y-69215000D03*
X198750000Y-71755000D03*
X198750000Y-74295000D03*
X198750000Y-76835000D03*
X198750000Y-79375000D03*
X198750000Y-81915000D03*
X198750000Y-84455000D03*
X198750000Y-86995000D03*
X198750000Y-89535000D03*
X198750000Y-92075000D03*
X198750000Y-94615000D03*
X213990000Y-94615000D03*
X213990000Y-92075000D03*
X213990000Y-89535000D03*
X213990000Y-86995000D03*
X213990000Y-84455000D03*
X213990000Y-81915000D03*
X213990000Y-79375000D03*
X213990000Y-76835000D03*
X213990000Y-74295000D03*
X213990000Y-71755000D03*
X213990000Y-69215000D03*
X213990000Y-66675000D03*
X213990000Y-64135000D03*
X213990000Y-61595000D03*
%TD*%
D18*
%TO.C,U3*%
X226690000Y-69205000D03*
D14*
X229230000Y-69205000D03*
X231770000Y-69205000D03*
X234310000Y-69205000D03*
X236850000Y-69205000D03*
X239390000Y-69205000D03*
X241930000Y-69205000D03*
X241930000Y-61585000D03*
X239390000Y-61585000D03*
X236850000Y-61585000D03*
X234310000Y-61585000D03*
X231770000Y-61585000D03*
X229230000Y-61585000D03*
X226690000Y-61585000D03*
%TD*%
D18*
%TO.C,U2*%
X175260000Y-61595000D03*
D14*
X175260000Y-64135000D03*
X175260000Y-66675000D03*
X175260000Y-69215000D03*
X175260000Y-71755000D03*
X175260000Y-74295000D03*
X175260000Y-76835000D03*
X175260000Y-79375000D03*
X175260000Y-81915000D03*
X175260000Y-84455000D03*
X175260000Y-86995000D03*
X175260000Y-89535000D03*
X175260000Y-92075000D03*
X175260000Y-94615000D03*
X190500000Y-94615000D03*
X190500000Y-92075000D03*
X190500000Y-89535000D03*
X190500000Y-86995000D03*
X190500000Y-84455000D03*
X190500000Y-81915000D03*
X190500000Y-79375000D03*
X190500000Y-76835000D03*
X190500000Y-74295000D03*
X190500000Y-71755000D03*
X190500000Y-69215000D03*
X190500000Y-66675000D03*
X190500000Y-64135000D03*
X190500000Y-61595000D03*
%TD*%
D13*
%TO.C,R1*%
X234315000Y-72390000D03*
D14*
X234315000Y-80010000D03*
%TD*%
D19*
%TO.C,J1*%
X264795000Y-47507500D03*
D20*
X264795000Y-50047500D03*
X262255000Y-47507500D03*
X262255000Y-50047500D03*
X259715000Y-47507500D03*
X259715000Y-50047500D03*
X257175000Y-47507500D03*
X257175000Y-50047500D03*
X254635000Y-47507500D03*
X254635000Y-50047500D03*
X252095000Y-47507500D03*
X252095000Y-50047500D03*
X249555000Y-47507500D03*
X249555000Y-50047500D03*
X247015000Y-47507500D03*
X247015000Y-50047500D03*
X244475000Y-47507500D03*
X244475000Y-50047500D03*
X241935000Y-47507500D03*
X241935000Y-50047500D03*
X239395000Y-47507500D03*
X239395000Y-50047500D03*
X236855000Y-47507500D03*
X236855000Y-50047500D03*
X234315000Y-47507500D03*
X234315000Y-50047500D03*
X231775000Y-47507500D03*
X231775000Y-50047500D03*
X229235000Y-47507500D03*
X229235000Y-50047500D03*
X226695000Y-47507500D03*
X226695000Y-50047500D03*
X224155000Y-47507500D03*
X224155000Y-50047500D03*
X221615000Y-47507500D03*
X221615000Y-50047500D03*
X219075000Y-47507500D03*
X219075000Y-50047500D03*
X216535000Y-47507500D03*
X216535000Y-50047500D03*
X213995000Y-47507500D03*
X213995000Y-50047500D03*
X211455000Y-47507500D03*
X211455000Y-50047500D03*
X208915000Y-47507500D03*
X208915000Y-50047500D03*
X206375000Y-47507500D03*
X206375000Y-50047500D03*
X203835000Y-47507500D03*
X203835000Y-50047500D03*
X201295000Y-47507500D03*
X201295000Y-50047500D03*
X198755000Y-47507500D03*
X198755000Y-50047500D03*
X196215000Y-47507500D03*
X196215000Y-50047500D03*
X193675000Y-47507500D03*
X193675000Y-50047500D03*
X191135000Y-47507500D03*
X191135000Y-50047500D03*
X188595000Y-47507500D03*
X188595000Y-50047500D03*
X186055000Y-47507500D03*
X186055000Y-50047500D03*
%TD*%
D16*
%TO.C,D3*%
X275595000Y-70485000D03*
D17*
X273055000Y-70485000D03*
%TD*%
D18*
%TO.C,A1*%
X247015000Y-95885000D03*
D14*
X249555000Y-95885000D03*
X252095000Y-95885000D03*
X254635000Y-95885000D03*
X257175000Y-95885000D03*
X259715000Y-95885000D03*
X262255000Y-95885000D03*
X264795000Y-95885000D03*
X267335000Y-95885000D03*
X269875000Y-95885000D03*
X272415000Y-95885000D03*
X274955000Y-95885000D03*
X277495000Y-95885000D03*
X280035000Y-95885000D03*
X282575000Y-95885000D03*
X282575000Y-80645000D03*
X280035000Y-80645000D03*
X277495000Y-80645000D03*
X274955000Y-80645000D03*
X272415000Y-80645000D03*
X269875000Y-80645000D03*
X267335000Y-80645000D03*
X264795000Y-80645000D03*
X262255000Y-80645000D03*
X259715000Y-80645000D03*
X257175000Y-80645000D03*
X254635000Y-80645000D03*
X252095000Y-80645000D03*
X249555000Y-80645000D03*
X247015000Y-80645000D03*
%TD*%
D15*
%TO.C,H3*%
X167000000Y-109000000D03*
%TD*%
%TO.C,H2*%
X283000000Y-47000000D03*
%TD*%
D13*
%TO.C,R2*%
X269240000Y-66040000D03*
D14*
X261620000Y-66040000D03*
%TD*%
D19*
%TO.C,J2*%
X264795000Y-106045000D03*
D20*
X264795000Y-108585000D03*
X262255000Y-106045000D03*
X262255000Y-108585000D03*
X259715000Y-106045000D03*
X259715000Y-108585000D03*
X257175000Y-106045000D03*
X257175000Y-108585000D03*
X254635000Y-106045000D03*
X254635000Y-108585000D03*
X252095000Y-106045000D03*
X252095000Y-108585000D03*
X249555000Y-106045000D03*
X249555000Y-108585000D03*
X247015000Y-106045000D03*
X247015000Y-108585000D03*
X244475000Y-106045000D03*
X244475000Y-108585000D03*
X241935000Y-106045000D03*
X241935000Y-108585000D03*
X239395000Y-106045000D03*
X239395000Y-108585000D03*
X236855000Y-106045000D03*
X236855000Y-108585000D03*
X234315000Y-106045000D03*
X234315000Y-108585000D03*
X231775000Y-106045000D03*
X231775000Y-108585000D03*
X229235000Y-106045000D03*
X229235000Y-108585000D03*
X226695000Y-106045000D03*
X226695000Y-108585000D03*
X224155000Y-106045000D03*
X224155000Y-108585000D03*
X221615000Y-106045000D03*
X221615000Y-108585000D03*
X219075000Y-106045000D03*
X219075000Y-108585000D03*
X216535000Y-106045000D03*
X216535000Y-108585000D03*
X213995000Y-106045000D03*
X213995000Y-108585000D03*
X211455000Y-106045000D03*
X211455000Y-108585000D03*
X208915000Y-106045000D03*
X208915000Y-108585000D03*
X206375000Y-106045000D03*
X206375000Y-108585000D03*
X203835000Y-106045000D03*
X203835000Y-108585000D03*
X201295000Y-106045000D03*
X201295000Y-108585000D03*
X198755000Y-106045000D03*
X198755000Y-108585000D03*
X196215000Y-106045000D03*
X196215000Y-108585000D03*
X193675000Y-106045000D03*
X193675000Y-108585000D03*
X191135000Y-106045000D03*
X191135000Y-108585000D03*
X188595000Y-106045000D03*
X188595000Y-108585000D03*
X186055000Y-106045000D03*
X186055000Y-108585000D03*
%TD*%
D16*
%TO.C,D1*%
X275595000Y-66040000D03*
D17*
X273055000Y-66040000D03*
%TD*%
D13*
%TO.C,R6*%
X238760000Y-80010000D03*
D14*
X238760000Y-72390000D03*
%TD*%
M02*
