M48
; DRILL file {KiCad 7.0.1} date Sun Sep 10 23:04:22 2023
; FORMAT={-:-/ absolute / inch / decimal}
; #@! TF.CreationDate,2023-09-10T23:04:22+01:00
; #@! TF.GenerationSoftware,Kicad,Pcbnew,7.0.1
; #@! TF.FileFunction,Plated,1,2,PTH
FMAT,2
INCH
; #@! TA.AperFunction,Plated,PTH,ViaDrill
T1C0.0157
; #@! TA.AperFunction,Plated,PTH,ComponentDrill
T2C0.0315
; #@! TA.AperFunction,Plated,PTH,ComponentDrill
T3C0.0354
; #@! TA.AperFunction,Plated,PTH,ComponentDrill
T4C0.0394
%
G90
G05
T1
X6.5Y-2.2
X6.525Y-2.825
X6.525Y-4.0
X6.6Y-3.475
X6.7Y-2.45
X6.8Y-3.25
X6.875Y-1.875
X6.875Y-4.075
X6.9Y-2.325
X6.9Y-4.375
X7.025Y-2.275
X7.025Y-2.625
X7.025Y-2.725
X7.025Y-3.225
X7.025Y-3.625
X7.025Y-3.725
X7.05Y-2.525
X7.05Y-2.825
X7.05Y-2.925
X7.05Y-3.325
X7.05Y-3.425
X7.05Y-3.525
X7.075Y-2.425
X7.1Y-3.125
X7.175Y-4.0
X7.2Y-4.4
X7.225Y-3.425
X7.275Y-2.15
X7.275Y-2.5
X7.275Y-2.625
X7.275Y-2.725
X7.275Y-2.825
X7.275Y-3.225
X7.275Y-3.525
X7.275Y-3.625
X7.275Y-3.725
X7.3Y-3.325
X7.325Y-3.025
X7.325Y-3.125
X7.3737Y-2.8969
X7.375Y-1.75
X7.5Y-3.825
X7.525Y-4.1
X7.5594Y-3.9154
X7.6Y-3.725
X7.6104Y-2.7332
X7.6698Y-2.3832
X7.7092Y-3.0069
X7.725Y-3.725
X7.725Y-3.825
X7.75Y-4.0
X7.75Y-4.4
X7.825Y-3.825
X7.825Y-4.025
X7.9179Y-2.7876
X7.9546Y-2.5374
X7.9845Y-2.5031
X8.0276Y-2.6381
X8.2Y-1.775
X8.3523Y-2.2264
X8.375Y-4.4
X8.4366Y-3.9574
X8.4985Y-2.3616
X8.5046Y-3.3219
X8.675Y-1.75
X8.9Y-4.425
X8.925Y-2.625
X8.925Y-3.225
X8.9892Y-3.0308
X9.025Y-2.575
X9.0345Y-3.3197
X9.0386Y-2.9243
X9.0939Y-3.1016
X9.125Y-1.8
X9.2259Y-3.3046
X9.2981Y-3.5508
X9.525Y-2.825
X9.525Y-2.975
X9.5373Y-3.0982
X9.6Y-4.375
X9.725Y-2.8466
X9.8242Y-3.0982
X10.025Y-2.1
X10.0288Y-2.1746
X10.0288Y-2.8466
X10.0288Y-3.9575
X10.05Y-3.025
X10.075Y-2.375
X10.075Y-2.7
X10.0787Y-3.2283
X10.1Y-2.875
X10.1504Y-2.3799
X10.1572Y-1.7743
X10.175Y-2.275
X10.1969Y-3.0315
X10.2Y-2.475
X10.25Y-2.825
X10.285Y-3.4807
X10.315Y-3.0315
X10.315Y-3.2677
X10.35Y-2.25
X10.375Y-2.175
X10.3807Y-3.3671
X10.4Y-4.05
X10.45Y-4.4
X10.473Y-3.9712
X10.5Y-1.975
X10.5333Y-2.5016
X10.625Y-4.025
X10.7Y-1.75
X10.725Y-4.375
X10.75Y-1.975
X10.75Y-2.2
X10.95Y-4.125
X10.9591Y-2.5343
X11.05Y-2.075
X11.125Y-2.525
X11.15Y-3.95
X11.225Y-2.45
T2
X6.9Y-2.425
X6.9Y-2.525
X6.9Y-2.625
X6.9Y-2.725
X6.9Y-2.825
X6.9Y-2.925
X6.9Y-3.025
X6.9Y-3.125
X6.9Y-3.225
X6.9Y-3.325
X6.9Y-3.425
X6.9Y-3.525
X6.9Y-3.625
X6.9Y-3.725
X7.5Y-2.425
X7.5Y-2.525
X7.5Y-2.625
X7.5Y-2.725
X7.5Y-2.825
X7.5Y-2.925
X7.5Y-3.025
X7.5Y-3.125
X7.5Y-3.225
X7.5Y-3.325
X7.5Y-3.425
X7.5Y-3.525
X7.5Y-3.625
X7.5Y-3.725
X7.8248Y-2.425
X7.8248Y-2.525
X7.8248Y-2.625
X7.8248Y-2.725
X7.8248Y-2.825
X7.8248Y-2.925
X7.8248Y-3.025
X7.8248Y-3.125
X7.8248Y-3.225
X7.8248Y-3.325
X7.8248Y-3.425
X7.8248Y-3.525
X7.8248Y-3.625
X7.8248Y-3.725
X8.4248Y-2.425
X8.4248Y-2.525
X8.4248Y-2.625
X8.4248Y-2.725
X8.4248Y-2.825
X8.4248Y-2.925
X8.4248Y-3.025
X8.4248Y-3.125
X8.4248Y-3.225
X8.4248Y-3.325
X8.4248Y-3.425
X8.4248Y-3.525
X8.4248Y-3.625
X8.4248Y-3.725
X8.9248Y-2.4246
X8.9248Y-2.7246
X9.0248Y-2.4246
X9.0248Y-2.7246
X9.05Y-2.85
X9.05Y-3.15
X9.1248Y-2.4246
X9.1248Y-2.7246
X9.2248Y-2.4246
X9.2248Y-2.7246
X9.225Y-2.85
X9.225Y-3.15
X9.3248Y-2.4246
X9.3248Y-2.7246
X9.4Y-2.85
X9.4Y-3.15
X9.4248Y-2.4246
X9.4248Y-2.7246
X9.5248Y-2.4246
X9.5248Y-2.7246
X10.3Y-2.425
X10.3Y-2.6
X10.3Y-2.775
X10.6Y-2.425
X10.6Y-2.6
X10.6Y-2.775
T3
X10.75Y-2.425
X10.7502Y-2.6
X10.7502Y-2.775
X10.85Y-2.425
X10.8502Y-2.6
X10.8502Y-2.775
T4
X7.325Y-1.8704
X7.325Y-1.9704
X7.325Y-4.175
X7.325Y-4.275
X7.425Y-1.8704
X7.425Y-1.9704
X7.425Y-4.175
X7.425Y-4.275
X7.525Y-1.8704
X7.525Y-1.9704
X7.525Y-4.175
X7.525Y-4.275
X7.625Y-1.8704
X7.625Y-1.9704
X7.625Y-4.175
X7.625Y-4.275
X7.725Y-1.8704
X7.725Y-1.9704
X7.725Y-4.175
X7.725Y-4.275
X7.825Y-1.8704
X7.825Y-1.9704
X7.825Y-4.175
X7.825Y-4.275
X7.925Y-1.8704
X7.925Y-1.9704
X7.925Y-4.175
X7.925Y-4.275
X8.025Y-1.8704
X8.025Y-1.9704
X8.025Y-4.175
X8.025Y-4.275
X8.125Y-1.8704
X8.125Y-1.9704
X8.125Y-4.175
X8.125Y-4.275
X8.225Y-1.8704
X8.225Y-1.9704
X8.225Y-4.175
X8.225Y-4.275
X8.325Y-1.8704
X8.325Y-1.9704
X8.325Y-4.175
X8.325Y-4.275
X8.425Y-1.8704
X8.425Y-1.9704
X8.425Y-4.175
X8.425Y-4.275
X8.525Y-1.8704
X8.525Y-1.9704
X8.525Y-4.175
X8.525Y-4.275
X8.625Y-1.8704
X8.625Y-1.9704
X8.625Y-4.175
X8.625Y-4.275
X8.725Y-1.8704
X8.725Y-1.9704
X8.725Y-4.175
X8.725Y-4.275
X8.825Y-1.8704
X8.825Y-1.9704
X8.825Y-4.175
X8.825Y-4.275
X8.925Y-1.8704
X8.925Y-1.9704
X8.925Y-4.175
X8.925Y-4.275
X9.025Y-1.8704
X9.025Y-1.9704
X9.025Y-4.175
X9.025Y-4.275
X9.125Y-1.8704
X9.125Y-1.9704
X9.125Y-4.175
X9.125Y-4.275
X9.225Y-1.8704
X9.225Y-1.9704
X9.225Y-4.175
X9.225Y-4.275
X9.325Y-1.8704
X9.325Y-1.9704
X9.325Y-4.175
X9.325Y-4.275
X9.425Y-1.8704
X9.425Y-1.9704
X9.425Y-4.175
X9.425Y-4.275
X9.525Y-1.8704
X9.525Y-1.9704
X9.525Y-4.175
X9.525Y-4.275
X9.625Y-1.8704
X9.625Y-1.9704
X9.625Y-4.175
X9.625Y-4.275
X9.725Y-1.8704
X9.725Y-1.9704
X9.725Y-3.175
X9.725Y-3.775
X9.725Y-4.175
X9.725Y-4.275
X9.825Y-1.8704
X9.825Y-1.9704
X9.825Y-3.175
X9.825Y-3.775
X9.825Y-4.175
X9.825Y-4.275
X9.925Y-1.8704
X9.925Y-1.9704
X9.925Y-3.175
X9.925Y-3.775
X9.925Y-4.175
X9.925Y-4.275
X10.025Y-1.8704
X10.025Y-1.9704
X10.025Y-3.175
X10.025Y-3.775
X10.025Y-4.175
X10.025Y-4.275
X10.125Y-1.8704
X10.125Y-1.9704
X10.125Y-3.175
X10.125Y-3.775
X10.125Y-4.175
X10.125Y-4.275
X10.225Y-1.8704
X10.225Y-1.9704
X10.225Y-3.175
X10.225Y-3.775
X10.225Y-4.175
X10.225Y-4.275
X10.325Y-1.8704
X10.325Y-1.9704
X10.325Y-3.175
X10.325Y-3.775
X10.325Y-4.175
X10.325Y-4.275
X10.425Y-1.8704
X10.425Y-1.9704
X10.425Y-3.175
X10.425Y-3.775
X10.425Y-4.175
X10.425Y-4.275
X10.525Y-3.175
X10.525Y-3.775
X10.625Y-3.175
X10.625Y-3.775
X10.725Y-3.175
X10.725Y-3.775
X10.825Y-3.175
X10.825Y-3.775
X10.925Y-3.175
X10.925Y-3.775
X11.025Y-3.175
X11.025Y-3.775
X11.125Y-3.175
X11.125Y-3.775
T0
M30
