%TF.GenerationSoftware,KiCad,Pcbnew,7.0.1*%
%TF.CreationDate,2023-09-10T23:04:21+01:00*%
%TF.ProjectId,Memory_board,4d656d6f-7279-45f6-926f-6172642e6b69,rev?*%
%TF.SameCoordinates,Original*%
%TF.FileFunction,Legend,Bot*%
%TF.FilePolarity,Positive*%
%FSLAX46Y46*%
G04 Gerber Fmt 4.6, Leading zero omitted, Abs format (unit mm)*
G04 Created by KiCad (PCBNEW 7.0.1) date 2023-09-10 23:04:21*
%MOMM*%
%LPD*%
G01*
G04 APERTURE LIST*
G04 Aperture macros list*
%AMRoundRect*
0 Rectangle with rounded corners*
0 $1 Rounding radius*
0 $2 $3 $4 $5 $6 $7 $8 $9 X,Y pos of 4 corners*
0 Add a 4 corners polygon primitive as box body*
4,1,4,$2,$3,$4,$5,$6,$7,$8,$9,$2,$3,0*
0 Add four circle primitives for the rounded corners*
1,1,$1+$1,$2,$3*
1,1,$1+$1,$4,$5*
1,1,$1+$1,$6,$7*
1,1,$1+$1,$8,$9*
0 Add four rect primitives between the rounded corners*
20,1,$1+$1,$2,$3,$4,$5,0*
20,1,$1+$1,$4,$5,$6,$7,0*
20,1,$1+$1,$6,$7,$8,$9,0*
20,1,$1+$1,$8,$9,$2,$3,0*%
G04 Aperture macros list end*
%ADD10C,0.150000*%
%ADD11C,1.600000*%
%ADD12O,1.600000X1.600000*%
%ADD13C,3.500000*%
%ADD14R,1.800000X1.800000*%
%ADD15C,1.800000*%
%ADD16R,1.600000X1.600000*%
%ADD17RoundRect,0.250000X-0.600000X0.600000X-0.600000X-0.600000X0.600000X-0.600000X0.600000X0.600000X0*%
%ADD18C,1.700000*%
G04 APERTURE END LIST*
D10*
X269351190Y-100477619D02*
X269351190Y-101191904D01*
X269351190Y-101191904D02*
X269398809Y-101334761D01*
X269398809Y-101334761D02*
X269494047Y-101430000D01*
X269494047Y-101430000D02*
X269636904Y-101477619D01*
X269636904Y-101477619D02*
X269732142Y-101477619D01*
X268398809Y-101477619D02*
X268874999Y-101477619D01*
X268874999Y-101477619D02*
X268874999Y-100477619D01*
X267494047Y-101382380D02*
X267541666Y-101430000D01*
X267541666Y-101430000D02*
X267684523Y-101477619D01*
X267684523Y-101477619D02*
X267779761Y-101477619D01*
X267779761Y-101477619D02*
X267922618Y-101430000D01*
X267922618Y-101430000D02*
X268017856Y-101334761D01*
X268017856Y-101334761D02*
X268065475Y-101239523D01*
X268065475Y-101239523D02*
X268113094Y-101049047D01*
X268113094Y-101049047D02*
X268113094Y-100906190D01*
X268113094Y-100906190D02*
X268065475Y-100715714D01*
X268065475Y-100715714D02*
X268017856Y-100620476D01*
X268017856Y-100620476D02*
X267922618Y-100525238D01*
X267922618Y-100525238D02*
X267779761Y-100477619D01*
X267779761Y-100477619D02*
X267684523Y-100477619D01*
X267684523Y-100477619D02*
X267541666Y-100525238D01*
X267541666Y-100525238D02*
X267494047Y-100572857D01*
X266779761Y-100477619D02*
X266779761Y-101191904D01*
X266779761Y-101191904D02*
X266827380Y-101334761D01*
X266827380Y-101334761D02*
X266922618Y-101430000D01*
X266922618Y-101430000D02*
X267065475Y-101477619D01*
X267065475Y-101477619D02*
X267160713Y-101477619D01*
X265827380Y-101477619D02*
X266303570Y-101477619D01*
X266303570Y-101477619D02*
X266303570Y-100477619D01*
X264922618Y-101382380D02*
X264970237Y-101430000D01*
X264970237Y-101430000D02*
X265113094Y-101477619D01*
X265113094Y-101477619D02*
X265208332Y-101477619D01*
X265208332Y-101477619D02*
X265351189Y-101430000D01*
X265351189Y-101430000D02*
X265446427Y-101334761D01*
X265446427Y-101334761D02*
X265494046Y-101239523D01*
X265494046Y-101239523D02*
X265541665Y-101049047D01*
X265541665Y-101049047D02*
X265541665Y-100906190D01*
X265541665Y-100906190D02*
X265494046Y-100715714D01*
X265494046Y-100715714D02*
X265446427Y-100620476D01*
X265446427Y-100620476D02*
X265351189Y-100525238D01*
X265351189Y-100525238D02*
X265208332Y-100477619D01*
X265208332Y-100477619D02*
X265113094Y-100477619D01*
X265113094Y-100477619D02*
X264970237Y-100525238D01*
X264970237Y-100525238D02*
X264922618Y-100572857D01*
X264208332Y-100477619D02*
X264208332Y-101191904D01*
X264208332Y-101191904D02*
X264255951Y-101334761D01*
X264255951Y-101334761D02*
X264351189Y-101430000D01*
X264351189Y-101430000D02*
X264494046Y-101477619D01*
X264494046Y-101477619D02*
X264589284Y-101477619D01*
X263255951Y-101477619D02*
X263732141Y-101477619D01*
X263732141Y-101477619D02*
X263732141Y-100477619D01*
X262351189Y-101382380D02*
X262398808Y-101430000D01*
X262398808Y-101430000D02*
X262541665Y-101477619D01*
X262541665Y-101477619D02*
X262636903Y-101477619D01*
X262636903Y-101477619D02*
X262779760Y-101430000D01*
X262779760Y-101430000D02*
X262874998Y-101334761D01*
X262874998Y-101334761D02*
X262922617Y-101239523D01*
X262922617Y-101239523D02*
X262970236Y-101049047D01*
X262970236Y-101049047D02*
X262970236Y-100906190D01*
X262970236Y-100906190D02*
X262922617Y-100715714D01*
X262922617Y-100715714D02*
X262874998Y-100620476D01*
X262874998Y-100620476D02*
X262779760Y-100525238D01*
X262779760Y-100525238D02*
X262636903Y-100477619D01*
X262636903Y-100477619D02*
X262541665Y-100477619D01*
X262541665Y-100477619D02*
X262398808Y-100525238D01*
X262398808Y-100525238D02*
X262351189Y-100572857D01*
X261636903Y-100477619D02*
X261636903Y-101191904D01*
X261636903Y-101191904D02*
X261684522Y-101334761D01*
X261684522Y-101334761D02*
X261779760Y-101430000D01*
X261779760Y-101430000D02*
X261922617Y-101477619D01*
X261922617Y-101477619D02*
X262017855Y-101477619D01*
X260684522Y-101477619D02*
X261160712Y-101477619D01*
X261160712Y-101477619D02*
X261160712Y-100477619D01*
X259779760Y-101382380D02*
X259827379Y-101430000D01*
X259827379Y-101430000D02*
X259970236Y-101477619D01*
X259970236Y-101477619D02*
X260065474Y-101477619D01*
X260065474Y-101477619D02*
X260208331Y-101430000D01*
X260208331Y-101430000D02*
X260303569Y-101334761D01*
X260303569Y-101334761D02*
X260351188Y-101239523D01*
X260351188Y-101239523D02*
X260398807Y-101049047D01*
X260398807Y-101049047D02*
X260398807Y-100906190D01*
X260398807Y-100906190D02*
X260351188Y-100715714D01*
X260351188Y-100715714D02*
X260303569Y-100620476D01*
X260303569Y-100620476D02*
X260208331Y-100525238D01*
X260208331Y-100525238D02*
X260065474Y-100477619D01*
X260065474Y-100477619D02*
X259970236Y-100477619D01*
X259970236Y-100477619D02*
X259827379Y-100525238D01*
X259827379Y-100525238D02*
X259779760Y-100572857D01*
%LPC*%
D11*
%TO.C,R5*%
X229870000Y-80010000D03*
D12*
X229870000Y-72390000D03*
%TD*%
D13*
%TO.C,H1*%
X167000000Y-47000000D03*
%TD*%
D11*
%TO.C,R4*%
X269240000Y-70485000D03*
D12*
X261620000Y-70485000D03*
%TD*%
D14*
%TO.C,D2*%
X275590000Y-61595000D03*
D15*
X273050000Y-61595000D03*
%TD*%
D11*
%TO.C,R3*%
X269240000Y-61595000D03*
D12*
X261620000Y-61595000D03*
%TD*%
D13*
%TO.C,H4*%
X283000000Y-109000000D03*
%TD*%
D16*
%TO.C,U1*%
X198750000Y-61595000D03*
D12*
X198750000Y-64135000D03*
X198750000Y-66675000D03*
X198750000Y-69215000D03*
X198750000Y-71755000D03*
X198750000Y-74295000D03*
X198750000Y-76835000D03*
X198750000Y-79375000D03*
X198750000Y-81915000D03*
X198750000Y-84455000D03*
X198750000Y-86995000D03*
X198750000Y-89535000D03*
X198750000Y-92075000D03*
X198750000Y-94615000D03*
X213990000Y-94615000D03*
X213990000Y-92075000D03*
X213990000Y-89535000D03*
X213990000Y-86995000D03*
X213990000Y-84455000D03*
X213990000Y-81915000D03*
X213990000Y-79375000D03*
X213990000Y-76835000D03*
X213990000Y-74295000D03*
X213990000Y-71755000D03*
X213990000Y-69215000D03*
X213990000Y-66675000D03*
X213990000Y-64135000D03*
X213990000Y-61595000D03*
%TD*%
D16*
%TO.C,U3*%
X226690000Y-69205000D03*
D12*
X229230000Y-69205000D03*
X231770000Y-69205000D03*
X234310000Y-69205000D03*
X236850000Y-69205000D03*
X239390000Y-69205000D03*
X241930000Y-69205000D03*
X241930000Y-61585000D03*
X239390000Y-61585000D03*
X236850000Y-61585000D03*
X234310000Y-61585000D03*
X231770000Y-61585000D03*
X229230000Y-61585000D03*
X226690000Y-61585000D03*
%TD*%
D16*
%TO.C,U2*%
X175260000Y-61595000D03*
D12*
X175260000Y-64135000D03*
X175260000Y-66675000D03*
X175260000Y-69215000D03*
X175260000Y-71755000D03*
X175260000Y-74295000D03*
X175260000Y-76835000D03*
X175260000Y-79375000D03*
X175260000Y-81915000D03*
X175260000Y-84455000D03*
X175260000Y-86995000D03*
X175260000Y-89535000D03*
X175260000Y-92075000D03*
X175260000Y-94615000D03*
X190500000Y-94615000D03*
X190500000Y-92075000D03*
X190500000Y-89535000D03*
X190500000Y-86995000D03*
X190500000Y-84455000D03*
X190500000Y-81915000D03*
X190500000Y-79375000D03*
X190500000Y-76835000D03*
X190500000Y-74295000D03*
X190500000Y-71755000D03*
X190500000Y-69215000D03*
X190500000Y-66675000D03*
X190500000Y-64135000D03*
X190500000Y-61595000D03*
%TD*%
D11*
%TO.C,R1*%
X234315000Y-72390000D03*
D12*
X234315000Y-80010000D03*
%TD*%
D17*
%TO.C,J1*%
X264795000Y-47507500D03*
D18*
X264795000Y-50047500D03*
X262255000Y-47507500D03*
X262255000Y-50047500D03*
X259715000Y-47507500D03*
X259715000Y-50047500D03*
X257175000Y-47507500D03*
X257175000Y-50047500D03*
X254635000Y-47507500D03*
X254635000Y-50047500D03*
X252095000Y-47507500D03*
X252095000Y-50047500D03*
X249555000Y-47507500D03*
X249555000Y-50047500D03*
X247015000Y-47507500D03*
X247015000Y-50047500D03*
X244475000Y-47507500D03*
X244475000Y-50047500D03*
X241935000Y-47507500D03*
X241935000Y-50047500D03*
X239395000Y-47507500D03*
X239395000Y-50047500D03*
X236855000Y-47507500D03*
X236855000Y-50047500D03*
X234315000Y-47507500D03*
X234315000Y-50047500D03*
X231775000Y-47507500D03*
X231775000Y-50047500D03*
X229235000Y-47507500D03*
X229235000Y-50047500D03*
X226695000Y-47507500D03*
X226695000Y-50047500D03*
X224155000Y-47507500D03*
X224155000Y-50047500D03*
X221615000Y-47507500D03*
X221615000Y-50047500D03*
X219075000Y-47507500D03*
X219075000Y-50047500D03*
X216535000Y-47507500D03*
X216535000Y-50047500D03*
X213995000Y-47507500D03*
X213995000Y-50047500D03*
X211455000Y-47507500D03*
X211455000Y-50047500D03*
X208915000Y-47507500D03*
X208915000Y-50047500D03*
X206375000Y-47507500D03*
X206375000Y-50047500D03*
X203835000Y-47507500D03*
X203835000Y-50047500D03*
X201295000Y-47507500D03*
X201295000Y-50047500D03*
X198755000Y-47507500D03*
X198755000Y-50047500D03*
X196215000Y-47507500D03*
X196215000Y-50047500D03*
X193675000Y-47507500D03*
X193675000Y-50047500D03*
X191135000Y-47507500D03*
X191135000Y-50047500D03*
X188595000Y-47507500D03*
X188595000Y-50047500D03*
X186055000Y-47507500D03*
X186055000Y-50047500D03*
%TD*%
D14*
%TO.C,D3*%
X275595000Y-70485000D03*
D15*
X273055000Y-70485000D03*
%TD*%
D16*
%TO.C,A1*%
X247015000Y-95885000D03*
D12*
X249555000Y-95885000D03*
X252095000Y-95885000D03*
X254635000Y-95885000D03*
X257175000Y-95885000D03*
X259715000Y-95885000D03*
X262255000Y-95885000D03*
X264795000Y-95885000D03*
X267335000Y-95885000D03*
X269875000Y-95885000D03*
X272415000Y-95885000D03*
X274955000Y-95885000D03*
X277495000Y-95885000D03*
X280035000Y-95885000D03*
X282575000Y-95885000D03*
X282575000Y-80645000D03*
X280035000Y-80645000D03*
X277495000Y-80645000D03*
X274955000Y-80645000D03*
X272415000Y-80645000D03*
X269875000Y-80645000D03*
X267335000Y-80645000D03*
X264795000Y-80645000D03*
X262255000Y-80645000D03*
X259715000Y-80645000D03*
X257175000Y-80645000D03*
X254635000Y-80645000D03*
X252095000Y-80645000D03*
X249555000Y-80645000D03*
X247015000Y-80645000D03*
%TD*%
D13*
%TO.C,H3*%
X167000000Y-109000000D03*
%TD*%
%TO.C,H2*%
X283000000Y-47000000D03*
%TD*%
D11*
%TO.C,R2*%
X269240000Y-66040000D03*
D12*
X261620000Y-66040000D03*
%TD*%
D17*
%TO.C,J2*%
X264795000Y-106045000D03*
D18*
X264795000Y-108585000D03*
X262255000Y-106045000D03*
X262255000Y-108585000D03*
X259715000Y-106045000D03*
X259715000Y-108585000D03*
X257175000Y-106045000D03*
X257175000Y-108585000D03*
X254635000Y-106045000D03*
X254635000Y-108585000D03*
X252095000Y-106045000D03*
X252095000Y-108585000D03*
X249555000Y-106045000D03*
X249555000Y-108585000D03*
X247015000Y-106045000D03*
X247015000Y-108585000D03*
X244475000Y-106045000D03*
X244475000Y-108585000D03*
X241935000Y-106045000D03*
X241935000Y-108585000D03*
X239395000Y-106045000D03*
X239395000Y-108585000D03*
X236855000Y-106045000D03*
X236855000Y-108585000D03*
X234315000Y-106045000D03*
X234315000Y-108585000D03*
X231775000Y-106045000D03*
X231775000Y-108585000D03*
X229235000Y-106045000D03*
X229235000Y-108585000D03*
X226695000Y-106045000D03*
X226695000Y-108585000D03*
X224155000Y-106045000D03*
X224155000Y-108585000D03*
X221615000Y-106045000D03*
X221615000Y-108585000D03*
X219075000Y-106045000D03*
X219075000Y-108585000D03*
X216535000Y-106045000D03*
X216535000Y-108585000D03*
X213995000Y-106045000D03*
X213995000Y-108585000D03*
X211455000Y-106045000D03*
X211455000Y-108585000D03*
X208915000Y-106045000D03*
X208915000Y-108585000D03*
X206375000Y-106045000D03*
X206375000Y-108585000D03*
X203835000Y-106045000D03*
X203835000Y-108585000D03*
X201295000Y-106045000D03*
X201295000Y-108585000D03*
X198755000Y-106045000D03*
X198755000Y-108585000D03*
X196215000Y-106045000D03*
X196215000Y-108585000D03*
X193675000Y-106045000D03*
X193675000Y-108585000D03*
X191135000Y-106045000D03*
X191135000Y-108585000D03*
X188595000Y-106045000D03*
X188595000Y-108585000D03*
X186055000Y-106045000D03*
X186055000Y-108585000D03*
%TD*%
D14*
%TO.C,D1*%
X275595000Y-66040000D03*
D15*
X273055000Y-66040000D03*
%TD*%
D11*
%TO.C,R6*%
X238760000Y-80010000D03*
D12*
X238760000Y-72390000D03*
%TD*%
M02*
