%TF.GenerationSoftware,KiCad,Pcbnew,7.0.1*%
%TF.CreationDate,2023-08-25T15:18:18+01:00*%
%TF.ProjectId,Register_board,52656769-7374-4657-925f-626f6172642e,rev?*%
%TF.SameCoordinates,Original*%
%TF.FileFunction,Legend,Top*%
%TF.FilePolarity,Positive*%
%FSLAX46Y46*%
G04 Gerber Fmt 4.6, Leading zero omitted, Abs format (unit mm)*
G04 Created by KiCad (PCBNEW 7.0.1) date 2023-08-25 15:18:18*
%MOMM*%
%LPD*%
G01*
G04 APERTURE LIST*
G04 Aperture macros list*
%AMRoundRect*
0 Rectangle with rounded corners*
0 $1 Rounding radius*
0 $2 $3 $4 $5 $6 $7 $8 $9 X,Y pos of 4 corners*
0 Add a 4 corners polygon primitive as box body*
4,1,4,$2,$3,$4,$5,$6,$7,$8,$9,$2,$3,0*
0 Add four circle primitives for the rounded corners*
1,1,$1+$1,$2,$3*
1,1,$1+$1,$4,$5*
1,1,$1+$1,$6,$7*
1,1,$1+$1,$8,$9*
0 Add four rect primitives between the rounded corners*
20,1,$1+$1,$2,$3,$4,$5,0*
20,1,$1+$1,$4,$5,$6,$7,0*
20,1,$1+$1,$6,$7,$8,$9,0*
20,1,$1+$1,$8,$9,$2,$3,0*%
G04 Aperture macros list end*
%ADD10C,0.150000*%
%ADD11C,0.300000*%
%ADD12C,0.120000*%
%ADD13R,1.600000X1.600000*%
%ADD14O,1.600000X1.600000*%
%ADD15C,3.500000*%
%ADD16RoundRect,0.250000X-0.600000X0.600000X-0.600000X-0.600000X0.600000X-0.600000X0.600000X0.600000X0*%
%ADD17C,1.700000*%
G04 APERTURE END LIST*
D10*
X158480333Y-50915809D02*
X158147000Y-50915809D01*
X158147000Y-51439619D02*
X158147000Y-50439619D01*
X158147000Y-50439619D02*
X158623190Y-50439619D01*
X159480333Y-51439619D02*
X159004143Y-51439619D01*
X159004143Y-51439619D02*
X159004143Y-50439619D01*
X159766048Y-51153904D02*
X160242238Y-51153904D01*
X159670810Y-51439619D02*
X160004143Y-50439619D01*
X160004143Y-50439619D02*
X160337476Y-51439619D01*
X161194619Y-50487238D02*
X161099381Y-50439619D01*
X161099381Y-50439619D02*
X160956524Y-50439619D01*
X160956524Y-50439619D02*
X160813667Y-50487238D01*
X160813667Y-50487238D02*
X160718429Y-50582476D01*
X160718429Y-50582476D02*
X160670810Y-50677714D01*
X160670810Y-50677714D02*
X160623191Y-50868190D01*
X160623191Y-50868190D02*
X160623191Y-51011047D01*
X160623191Y-51011047D02*
X160670810Y-51201523D01*
X160670810Y-51201523D02*
X160718429Y-51296761D01*
X160718429Y-51296761D02*
X160813667Y-51392000D01*
X160813667Y-51392000D02*
X160956524Y-51439619D01*
X160956524Y-51439619D02*
X161051762Y-51439619D01*
X161051762Y-51439619D02*
X161194619Y-51392000D01*
X161194619Y-51392000D02*
X161242238Y-51344380D01*
X161242238Y-51344380D02*
X161242238Y-51011047D01*
X161242238Y-51011047D02*
X161051762Y-51011047D01*
X161623191Y-51392000D02*
X161766048Y-51439619D01*
X161766048Y-51439619D02*
X162004143Y-51439619D01*
X162004143Y-51439619D02*
X162099381Y-51392000D01*
X162099381Y-51392000D02*
X162147000Y-51344380D01*
X162147000Y-51344380D02*
X162194619Y-51249142D01*
X162194619Y-51249142D02*
X162194619Y-51153904D01*
X162194619Y-51153904D02*
X162147000Y-51058666D01*
X162147000Y-51058666D02*
X162099381Y-51011047D01*
X162099381Y-51011047D02*
X162004143Y-50963428D01*
X162004143Y-50963428D02*
X161813667Y-50915809D01*
X161813667Y-50915809D02*
X161718429Y-50868190D01*
X161718429Y-50868190D02*
X161670810Y-50820571D01*
X161670810Y-50820571D02*
X161623191Y-50725333D01*
X161623191Y-50725333D02*
X161623191Y-50630095D01*
X161623191Y-50630095D02*
X161670810Y-50534857D01*
X161670810Y-50534857D02*
X161718429Y-50487238D01*
X161718429Y-50487238D02*
X161813667Y-50439619D01*
X161813667Y-50439619D02*
X162051762Y-50439619D01*
X162051762Y-50439619D02*
X162194619Y-50487238D01*
X89916190Y-81062380D02*
X89868571Y-81110000D01*
X89868571Y-81110000D02*
X89725714Y-81157619D01*
X89725714Y-81157619D02*
X89630476Y-81157619D01*
X89630476Y-81157619D02*
X89487619Y-81110000D01*
X89487619Y-81110000D02*
X89392381Y-81014761D01*
X89392381Y-81014761D02*
X89344762Y-80919523D01*
X89344762Y-80919523D02*
X89297143Y-80729047D01*
X89297143Y-80729047D02*
X89297143Y-80586190D01*
X89297143Y-80586190D02*
X89344762Y-80395714D01*
X89344762Y-80395714D02*
X89392381Y-80300476D01*
X89392381Y-80300476D02*
X89487619Y-80205238D01*
X89487619Y-80205238D02*
X89630476Y-80157619D01*
X89630476Y-80157619D02*
X89725714Y-80157619D01*
X89725714Y-80157619D02*
X89868571Y-80205238D01*
X89868571Y-80205238D02*
X89916190Y-80252857D01*
X91678095Y-81157619D02*
X91344762Y-80681428D01*
X91106667Y-81157619D02*
X91106667Y-80157619D01*
X91106667Y-80157619D02*
X91487619Y-80157619D01*
X91487619Y-80157619D02*
X91582857Y-80205238D01*
X91582857Y-80205238D02*
X91630476Y-80252857D01*
X91630476Y-80252857D02*
X91678095Y-80348095D01*
X91678095Y-80348095D02*
X91678095Y-80490952D01*
X91678095Y-80490952D02*
X91630476Y-80586190D01*
X91630476Y-80586190D02*
X91582857Y-80633809D01*
X91582857Y-80633809D02*
X91487619Y-80681428D01*
X91487619Y-80681428D02*
X91106667Y-80681428D01*
X92106667Y-80633809D02*
X92440000Y-80633809D01*
X92582857Y-81157619D02*
X92106667Y-81157619D01*
X92106667Y-81157619D02*
X92106667Y-80157619D01*
X92106667Y-80157619D02*
X92582857Y-80157619D01*
X93535238Y-80205238D02*
X93440000Y-80157619D01*
X93440000Y-80157619D02*
X93297143Y-80157619D01*
X93297143Y-80157619D02*
X93154286Y-80205238D01*
X93154286Y-80205238D02*
X93059048Y-80300476D01*
X93059048Y-80300476D02*
X93011429Y-80395714D01*
X93011429Y-80395714D02*
X92963810Y-80586190D01*
X92963810Y-80586190D02*
X92963810Y-80729047D01*
X92963810Y-80729047D02*
X93011429Y-80919523D01*
X93011429Y-80919523D02*
X93059048Y-81014761D01*
X93059048Y-81014761D02*
X93154286Y-81110000D01*
X93154286Y-81110000D02*
X93297143Y-81157619D01*
X93297143Y-81157619D02*
X93392381Y-81157619D01*
X93392381Y-81157619D02*
X93535238Y-81110000D01*
X93535238Y-81110000D02*
X93582857Y-81062380D01*
X93582857Y-81062380D02*
X93582857Y-80729047D01*
X93582857Y-80729047D02*
X93392381Y-80729047D01*
X109990476Y-80871904D02*
X110466666Y-80871904D01*
X109895238Y-81157619D02*
X110228571Y-80157619D01*
X110228571Y-80157619D02*
X110561904Y-81157619D01*
X111371428Y-81157619D02*
X110895238Y-81157619D01*
X110895238Y-81157619D02*
X110895238Y-80157619D01*
X112466667Y-80776666D02*
X113228572Y-80776666D01*
X113704762Y-80490952D02*
X114466667Y-80776666D01*
X114466667Y-80776666D02*
X113704762Y-81062380D01*
X116180952Y-81157619D02*
X115704762Y-81157619D01*
X115704762Y-81157619D02*
X115704762Y-80157619D01*
X116514286Y-80633809D02*
X116847619Y-80633809D01*
X116990476Y-81157619D02*
X116514286Y-81157619D01*
X116514286Y-81157619D02*
X116514286Y-80157619D01*
X116514286Y-80157619D02*
X116990476Y-80157619D01*
X117752381Y-80633809D02*
X117419048Y-80633809D01*
X117419048Y-81157619D02*
X117419048Y-80157619D01*
X117419048Y-80157619D02*
X117895238Y-80157619D01*
X118133334Y-80157619D02*
X118704762Y-80157619D01*
X118419048Y-81157619D02*
X118419048Y-80157619D01*
X100774762Y-46232619D02*
X100774762Y-45232619D01*
X100774762Y-45232619D02*
X101012857Y-45232619D01*
X101012857Y-45232619D02*
X101155714Y-45280238D01*
X101155714Y-45280238D02*
X101250952Y-45375476D01*
X101250952Y-45375476D02*
X101298571Y-45470714D01*
X101298571Y-45470714D02*
X101346190Y-45661190D01*
X101346190Y-45661190D02*
X101346190Y-45804047D01*
X101346190Y-45804047D02*
X101298571Y-45994523D01*
X101298571Y-45994523D02*
X101250952Y-46089761D01*
X101250952Y-46089761D02*
X101155714Y-46185000D01*
X101155714Y-46185000D02*
X101012857Y-46232619D01*
X101012857Y-46232619D02*
X100774762Y-46232619D01*
X103108095Y-46232619D02*
X102774762Y-45756428D01*
X102536667Y-46232619D02*
X102536667Y-45232619D01*
X102536667Y-45232619D02*
X102917619Y-45232619D01*
X102917619Y-45232619D02*
X103012857Y-45280238D01*
X103012857Y-45280238D02*
X103060476Y-45327857D01*
X103060476Y-45327857D02*
X103108095Y-45423095D01*
X103108095Y-45423095D02*
X103108095Y-45565952D01*
X103108095Y-45565952D02*
X103060476Y-45661190D01*
X103060476Y-45661190D02*
X103012857Y-45708809D01*
X103012857Y-45708809D02*
X102917619Y-45756428D01*
X102917619Y-45756428D02*
X102536667Y-45756428D01*
X103536667Y-45708809D02*
X103870000Y-45708809D01*
X104012857Y-46232619D02*
X103536667Y-46232619D01*
X103536667Y-46232619D02*
X103536667Y-45232619D01*
X103536667Y-45232619D02*
X104012857Y-45232619D01*
X104965238Y-45280238D02*
X104870000Y-45232619D01*
X104870000Y-45232619D02*
X104727143Y-45232619D01*
X104727143Y-45232619D02*
X104584286Y-45280238D01*
X104584286Y-45280238D02*
X104489048Y-45375476D01*
X104489048Y-45375476D02*
X104441429Y-45470714D01*
X104441429Y-45470714D02*
X104393810Y-45661190D01*
X104393810Y-45661190D02*
X104393810Y-45804047D01*
X104393810Y-45804047D02*
X104441429Y-45994523D01*
X104441429Y-45994523D02*
X104489048Y-46089761D01*
X104489048Y-46089761D02*
X104584286Y-46185000D01*
X104584286Y-46185000D02*
X104727143Y-46232619D01*
X104727143Y-46232619D02*
X104822381Y-46232619D01*
X104822381Y-46232619D02*
X104965238Y-46185000D01*
X104965238Y-46185000D02*
X105012857Y-46137380D01*
X105012857Y-46137380D02*
X105012857Y-45804047D01*
X105012857Y-45804047D02*
X104822381Y-45804047D01*
X77057619Y-46185000D02*
X77200476Y-46232619D01*
X77200476Y-46232619D02*
X77438571Y-46232619D01*
X77438571Y-46232619D02*
X77533809Y-46185000D01*
X77533809Y-46185000D02*
X77581428Y-46137380D01*
X77581428Y-46137380D02*
X77629047Y-46042142D01*
X77629047Y-46042142D02*
X77629047Y-45946904D01*
X77629047Y-45946904D02*
X77581428Y-45851666D01*
X77581428Y-45851666D02*
X77533809Y-45804047D01*
X77533809Y-45804047D02*
X77438571Y-45756428D01*
X77438571Y-45756428D02*
X77248095Y-45708809D01*
X77248095Y-45708809D02*
X77152857Y-45661190D01*
X77152857Y-45661190D02*
X77105238Y-45613571D01*
X77105238Y-45613571D02*
X77057619Y-45518333D01*
X77057619Y-45518333D02*
X77057619Y-45423095D01*
X77057619Y-45423095D02*
X77105238Y-45327857D01*
X77105238Y-45327857D02*
X77152857Y-45280238D01*
X77152857Y-45280238D02*
X77248095Y-45232619D01*
X77248095Y-45232619D02*
X77486190Y-45232619D01*
X77486190Y-45232619D02*
X77629047Y-45280238D01*
X78057619Y-46232619D02*
X78057619Y-45232619D01*
X78057619Y-45232619D02*
X78438571Y-45232619D01*
X78438571Y-45232619D02*
X78533809Y-45280238D01*
X78533809Y-45280238D02*
X78581428Y-45327857D01*
X78581428Y-45327857D02*
X78629047Y-45423095D01*
X78629047Y-45423095D02*
X78629047Y-45565952D01*
X78629047Y-45565952D02*
X78581428Y-45661190D01*
X78581428Y-45661190D02*
X78533809Y-45708809D01*
X78533809Y-45708809D02*
X78438571Y-45756428D01*
X78438571Y-45756428D02*
X78057619Y-45756428D01*
X79819524Y-46232619D02*
X79819524Y-45232619D01*
X79819524Y-45708809D02*
X80390952Y-45708809D01*
X80390952Y-46232619D02*
X80390952Y-45232619D01*
X80867143Y-46232619D02*
X80867143Y-45232619D01*
X81867142Y-45280238D02*
X81771904Y-45232619D01*
X81771904Y-45232619D02*
X81629047Y-45232619D01*
X81629047Y-45232619D02*
X81486190Y-45280238D01*
X81486190Y-45280238D02*
X81390952Y-45375476D01*
X81390952Y-45375476D02*
X81343333Y-45470714D01*
X81343333Y-45470714D02*
X81295714Y-45661190D01*
X81295714Y-45661190D02*
X81295714Y-45804047D01*
X81295714Y-45804047D02*
X81343333Y-45994523D01*
X81343333Y-45994523D02*
X81390952Y-46089761D01*
X81390952Y-46089761D02*
X81486190Y-46185000D01*
X81486190Y-46185000D02*
X81629047Y-46232619D01*
X81629047Y-46232619D02*
X81724285Y-46232619D01*
X81724285Y-46232619D02*
X81867142Y-46185000D01*
X81867142Y-46185000D02*
X81914761Y-46137380D01*
X81914761Y-46137380D02*
X81914761Y-45804047D01*
X81914761Y-45804047D02*
X81724285Y-45804047D01*
X82343333Y-46232619D02*
X82343333Y-45232619D01*
X82343333Y-45708809D02*
X82914761Y-45708809D01*
X82914761Y-46232619D02*
X82914761Y-45232619D01*
X100822381Y-80633809D02*
X101155714Y-80633809D01*
X101298571Y-81157619D02*
X100822381Y-81157619D01*
X100822381Y-81157619D02*
X100822381Y-80157619D01*
X100822381Y-80157619D02*
X101298571Y-80157619D01*
X103060476Y-81157619D02*
X102727143Y-80681428D01*
X102489048Y-81157619D02*
X102489048Y-80157619D01*
X102489048Y-80157619D02*
X102870000Y-80157619D01*
X102870000Y-80157619D02*
X102965238Y-80205238D01*
X102965238Y-80205238D02*
X103012857Y-80252857D01*
X103012857Y-80252857D02*
X103060476Y-80348095D01*
X103060476Y-80348095D02*
X103060476Y-80490952D01*
X103060476Y-80490952D02*
X103012857Y-80586190D01*
X103012857Y-80586190D02*
X102965238Y-80633809D01*
X102965238Y-80633809D02*
X102870000Y-80681428D01*
X102870000Y-80681428D02*
X102489048Y-80681428D01*
X103489048Y-80633809D02*
X103822381Y-80633809D01*
X103965238Y-81157619D02*
X103489048Y-81157619D01*
X103489048Y-81157619D02*
X103489048Y-80157619D01*
X103489048Y-80157619D02*
X103965238Y-80157619D01*
X104917619Y-80205238D02*
X104822381Y-80157619D01*
X104822381Y-80157619D02*
X104679524Y-80157619D01*
X104679524Y-80157619D02*
X104536667Y-80205238D01*
X104536667Y-80205238D02*
X104441429Y-80300476D01*
X104441429Y-80300476D02*
X104393810Y-80395714D01*
X104393810Y-80395714D02*
X104346191Y-80586190D01*
X104346191Y-80586190D02*
X104346191Y-80729047D01*
X104346191Y-80729047D02*
X104393810Y-80919523D01*
X104393810Y-80919523D02*
X104441429Y-81014761D01*
X104441429Y-81014761D02*
X104536667Y-81110000D01*
X104536667Y-81110000D02*
X104679524Y-81157619D01*
X104679524Y-81157619D02*
X104774762Y-81157619D01*
X104774762Y-81157619D02*
X104917619Y-81110000D01*
X104917619Y-81110000D02*
X104965238Y-81062380D01*
X104965238Y-81062380D02*
X104965238Y-80729047D01*
X104965238Y-80729047D02*
X104774762Y-80729047D01*
X123658571Y-45946904D02*
X124134761Y-45946904D01*
X123563333Y-46232619D02*
X123896666Y-45232619D01*
X123896666Y-45232619D02*
X124229999Y-46232619D01*
X125896666Y-46232619D02*
X125563333Y-45756428D01*
X125325238Y-46232619D02*
X125325238Y-45232619D01*
X125325238Y-45232619D02*
X125706190Y-45232619D01*
X125706190Y-45232619D02*
X125801428Y-45280238D01*
X125801428Y-45280238D02*
X125849047Y-45327857D01*
X125849047Y-45327857D02*
X125896666Y-45423095D01*
X125896666Y-45423095D02*
X125896666Y-45565952D01*
X125896666Y-45565952D02*
X125849047Y-45661190D01*
X125849047Y-45661190D02*
X125801428Y-45708809D01*
X125801428Y-45708809D02*
X125706190Y-45756428D01*
X125706190Y-45756428D02*
X125325238Y-45756428D01*
X126325238Y-45708809D02*
X126658571Y-45708809D01*
X126801428Y-46232619D02*
X126325238Y-46232619D01*
X126325238Y-46232619D02*
X126325238Y-45232619D01*
X126325238Y-45232619D02*
X126801428Y-45232619D01*
X127753809Y-45280238D02*
X127658571Y-45232619D01*
X127658571Y-45232619D02*
X127515714Y-45232619D01*
X127515714Y-45232619D02*
X127372857Y-45280238D01*
X127372857Y-45280238D02*
X127277619Y-45375476D01*
X127277619Y-45375476D02*
X127230000Y-45470714D01*
X127230000Y-45470714D02*
X127182381Y-45661190D01*
X127182381Y-45661190D02*
X127182381Y-45804047D01*
X127182381Y-45804047D02*
X127230000Y-45994523D01*
X127230000Y-45994523D02*
X127277619Y-46089761D01*
X127277619Y-46089761D02*
X127372857Y-46185000D01*
X127372857Y-46185000D02*
X127515714Y-46232619D01*
X127515714Y-46232619D02*
X127610952Y-46232619D01*
X127610952Y-46232619D02*
X127753809Y-46185000D01*
X127753809Y-46185000D02*
X127801428Y-46137380D01*
X127801428Y-46137380D02*
X127801428Y-45804047D01*
X127801428Y-45804047D02*
X127610952Y-45804047D01*
X109871428Y-45946904D02*
X110347618Y-45946904D01*
X109776190Y-46232619D02*
X110109523Y-45232619D01*
X110109523Y-45232619D02*
X110442856Y-46232619D01*
X110776190Y-46232619D02*
X110776190Y-45232619D01*
X110776190Y-45708809D02*
X111347618Y-45708809D01*
X111347618Y-46232619D02*
X111347618Y-45232619D01*
X112585714Y-45851666D02*
X113347619Y-45851666D01*
X113823809Y-45565952D02*
X114585714Y-45851666D01*
X114585714Y-45851666D02*
X113823809Y-46137380D01*
X116299999Y-46232619D02*
X115823809Y-46232619D01*
X115823809Y-46232619D02*
X115823809Y-45232619D01*
X116633333Y-45708809D02*
X116966666Y-45708809D01*
X117109523Y-46232619D02*
X116633333Y-46232619D01*
X116633333Y-46232619D02*
X116633333Y-45232619D01*
X116633333Y-45232619D02*
X117109523Y-45232619D01*
X117871428Y-45708809D02*
X117538095Y-45708809D01*
X117538095Y-46232619D02*
X117538095Y-45232619D01*
X117538095Y-45232619D02*
X118014285Y-45232619D01*
X118252381Y-45232619D02*
X118823809Y-45232619D01*
X118538095Y-46232619D02*
X118538095Y-45232619D01*
D11*
X69572142Y-113481428D02*
X69572142Y-111981428D01*
X69572142Y-111981428D02*
X69929285Y-111981428D01*
X69929285Y-111981428D02*
X70143571Y-112052857D01*
X70143571Y-112052857D02*
X70286428Y-112195714D01*
X70286428Y-112195714D02*
X70357857Y-112338571D01*
X70357857Y-112338571D02*
X70429285Y-112624285D01*
X70429285Y-112624285D02*
X70429285Y-112838571D01*
X70429285Y-112838571D02*
X70357857Y-113124285D01*
X70357857Y-113124285D02*
X70286428Y-113267142D01*
X70286428Y-113267142D02*
X70143571Y-113410000D01*
X70143571Y-113410000D02*
X69929285Y-113481428D01*
X69929285Y-113481428D02*
X69572142Y-113481428D01*
X71000714Y-113052857D02*
X71715000Y-113052857D01*
X70857857Y-113481428D02*
X71357857Y-111981428D01*
X71357857Y-111981428D02*
X71857857Y-113481428D01*
X72143571Y-111981428D02*
X73000714Y-111981428D01*
X72572142Y-113481428D02*
X72572142Y-111981428D01*
X73429285Y-113052857D02*
X74143571Y-113052857D01*
X73286428Y-113481428D02*
X73786428Y-111981428D01*
X73786428Y-111981428D02*
X74286428Y-113481428D01*
X75929284Y-113481428D02*
X75929284Y-111981428D01*
X75929284Y-111981428D02*
X76429284Y-113052857D01*
X76429284Y-113052857D02*
X76929284Y-111981428D01*
X76929284Y-111981428D02*
X76929284Y-113481428D01*
X77929285Y-111981428D02*
X78214999Y-111981428D01*
X78214999Y-111981428D02*
X78357856Y-112052857D01*
X78357856Y-112052857D02*
X78500713Y-112195714D01*
X78500713Y-112195714D02*
X78572142Y-112481428D01*
X78572142Y-112481428D02*
X78572142Y-112981428D01*
X78572142Y-112981428D02*
X78500713Y-113267142D01*
X78500713Y-113267142D02*
X78357856Y-113410000D01*
X78357856Y-113410000D02*
X78214999Y-113481428D01*
X78214999Y-113481428D02*
X77929285Y-113481428D01*
X77929285Y-113481428D02*
X77786428Y-113410000D01*
X77786428Y-113410000D02*
X77643570Y-113267142D01*
X77643570Y-113267142D02*
X77572142Y-112981428D01*
X77572142Y-112981428D02*
X77572142Y-112481428D01*
X77572142Y-112481428D02*
X77643570Y-112195714D01*
X77643570Y-112195714D02*
X77786428Y-112052857D01*
X77786428Y-112052857D02*
X77929285Y-111981428D01*
X79214999Y-113481428D02*
X79214999Y-111981428D01*
X79214999Y-111981428D02*
X79572142Y-111981428D01*
X79572142Y-111981428D02*
X79786428Y-112052857D01*
X79786428Y-112052857D02*
X79929285Y-112195714D01*
X79929285Y-112195714D02*
X80000714Y-112338571D01*
X80000714Y-112338571D02*
X80072142Y-112624285D01*
X80072142Y-112624285D02*
X80072142Y-112838571D01*
X80072142Y-112838571D02*
X80000714Y-113124285D01*
X80000714Y-113124285D02*
X79929285Y-113267142D01*
X79929285Y-113267142D02*
X79786428Y-113410000D01*
X79786428Y-113410000D02*
X79572142Y-113481428D01*
X79572142Y-113481428D02*
X79214999Y-113481428D01*
X80714999Y-111981428D02*
X80714999Y-113195714D01*
X80714999Y-113195714D02*
X80786428Y-113338571D01*
X80786428Y-113338571D02*
X80857857Y-113410000D01*
X80857857Y-113410000D02*
X81000714Y-113481428D01*
X81000714Y-113481428D02*
X81286428Y-113481428D01*
X81286428Y-113481428D02*
X81429285Y-113410000D01*
X81429285Y-113410000D02*
X81500714Y-113338571D01*
X81500714Y-113338571D02*
X81572142Y-113195714D01*
X81572142Y-113195714D02*
X81572142Y-111981428D01*
X83000714Y-113481428D02*
X82286428Y-113481428D01*
X82286428Y-113481428D02*
X82286428Y-111981428D01*
X83500714Y-112695714D02*
X84000714Y-112695714D01*
X84215000Y-113481428D02*
X83500714Y-113481428D01*
X83500714Y-113481428D02*
X83500714Y-111981428D01*
X83500714Y-111981428D02*
X84215000Y-111981428D01*
D10*
X135040952Y-45232619D02*
X135612380Y-45232619D01*
X135326666Y-46232619D02*
X135326666Y-45232619D01*
X137279047Y-46232619D02*
X136945714Y-45756428D01*
X136707619Y-46232619D02*
X136707619Y-45232619D01*
X136707619Y-45232619D02*
X137088571Y-45232619D01*
X137088571Y-45232619D02*
X137183809Y-45280238D01*
X137183809Y-45280238D02*
X137231428Y-45327857D01*
X137231428Y-45327857D02*
X137279047Y-45423095D01*
X137279047Y-45423095D02*
X137279047Y-45565952D01*
X137279047Y-45565952D02*
X137231428Y-45661190D01*
X137231428Y-45661190D02*
X137183809Y-45708809D01*
X137183809Y-45708809D02*
X137088571Y-45756428D01*
X137088571Y-45756428D02*
X136707619Y-45756428D01*
X137707619Y-45708809D02*
X138040952Y-45708809D01*
X138183809Y-46232619D02*
X137707619Y-46232619D01*
X137707619Y-46232619D02*
X137707619Y-45232619D01*
X137707619Y-45232619D02*
X138183809Y-45232619D01*
X139136190Y-45280238D02*
X139040952Y-45232619D01*
X139040952Y-45232619D02*
X138898095Y-45232619D01*
X138898095Y-45232619D02*
X138755238Y-45280238D01*
X138755238Y-45280238D02*
X138660000Y-45375476D01*
X138660000Y-45375476D02*
X138612381Y-45470714D01*
X138612381Y-45470714D02*
X138564762Y-45661190D01*
X138564762Y-45661190D02*
X138564762Y-45804047D01*
X138564762Y-45804047D02*
X138612381Y-45994523D01*
X138612381Y-45994523D02*
X138660000Y-46089761D01*
X138660000Y-46089761D02*
X138755238Y-46185000D01*
X138755238Y-46185000D02*
X138898095Y-46232619D01*
X138898095Y-46232619D02*
X138993333Y-46232619D01*
X138993333Y-46232619D02*
X139136190Y-46185000D01*
X139136190Y-46185000D02*
X139183809Y-46137380D01*
X139183809Y-46137380D02*
X139183809Y-45804047D01*
X139183809Y-45804047D02*
X138993333Y-45804047D01*
X130302381Y-75791904D02*
X130778571Y-75791904D01*
X130207143Y-76077619D02*
X130540476Y-75077619D01*
X130540476Y-75077619D02*
X130873809Y-76077619D01*
X131683333Y-76077619D02*
X131207143Y-76077619D01*
X131207143Y-76077619D02*
X131207143Y-75077619D01*
X132016667Y-75077619D02*
X132016667Y-75887142D01*
X132016667Y-75887142D02*
X132064286Y-75982380D01*
X132064286Y-75982380D02*
X132111905Y-76030000D01*
X132111905Y-76030000D02*
X132207143Y-76077619D01*
X132207143Y-76077619D02*
X132397619Y-76077619D01*
X132397619Y-76077619D02*
X132492857Y-76030000D01*
X132492857Y-76030000D02*
X132540476Y-75982380D01*
X132540476Y-75982380D02*
X132588095Y-75887142D01*
X132588095Y-75887142D02*
X132588095Y-75077619D01*
X134302381Y-76077619D02*
X133826191Y-76077619D01*
X133826191Y-76077619D02*
X133826191Y-75077619D01*
X134826191Y-75077619D02*
X135016667Y-75077619D01*
X135016667Y-75077619D02*
X135111905Y-75125238D01*
X135111905Y-75125238D02*
X135207143Y-75220476D01*
X135207143Y-75220476D02*
X135254762Y-75410952D01*
X135254762Y-75410952D02*
X135254762Y-75744285D01*
X135254762Y-75744285D02*
X135207143Y-75934761D01*
X135207143Y-75934761D02*
X135111905Y-76030000D01*
X135111905Y-76030000D02*
X135016667Y-76077619D01*
X135016667Y-76077619D02*
X134826191Y-76077619D01*
X134826191Y-76077619D02*
X134730953Y-76030000D01*
X134730953Y-76030000D02*
X134635715Y-75934761D01*
X134635715Y-75934761D02*
X134588096Y-75744285D01*
X134588096Y-75744285D02*
X134588096Y-75410952D01*
X134588096Y-75410952D02*
X134635715Y-75220476D01*
X134635715Y-75220476D02*
X134730953Y-75125238D01*
X134730953Y-75125238D02*
X134826191Y-75077619D01*
X135588096Y-75077619D02*
X135826191Y-76077619D01*
X135826191Y-76077619D02*
X136016667Y-75363333D01*
X136016667Y-75363333D02*
X136207143Y-76077619D01*
X136207143Y-76077619D02*
X136445239Y-75077619D01*
X65937143Y-81157619D02*
X65937143Y-80157619D01*
X65937143Y-80157619D02*
X66318095Y-80157619D01*
X66318095Y-80157619D02*
X66413333Y-80205238D01*
X66413333Y-80205238D02*
X66460952Y-80252857D01*
X66460952Y-80252857D02*
X66508571Y-80348095D01*
X66508571Y-80348095D02*
X66508571Y-80490952D01*
X66508571Y-80490952D02*
X66460952Y-80586190D01*
X66460952Y-80586190D02*
X66413333Y-80633809D01*
X66413333Y-80633809D02*
X66318095Y-80681428D01*
X66318095Y-80681428D02*
X65937143Y-80681428D01*
X67508571Y-81062380D02*
X67460952Y-81110000D01*
X67460952Y-81110000D02*
X67318095Y-81157619D01*
X67318095Y-81157619D02*
X67222857Y-81157619D01*
X67222857Y-81157619D02*
X67080000Y-81110000D01*
X67080000Y-81110000D02*
X66984762Y-81014761D01*
X66984762Y-81014761D02*
X66937143Y-80919523D01*
X66937143Y-80919523D02*
X66889524Y-80729047D01*
X66889524Y-80729047D02*
X66889524Y-80586190D01*
X66889524Y-80586190D02*
X66937143Y-80395714D01*
X66937143Y-80395714D02*
X66984762Y-80300476D01*
X66984762Y-80300476D02*
X67080000Y-80205238D01*
X67080000Y-80205238D02*
X67222857Y-80157619D01*
X67222857Y-80157619D02*
X67318095Y-80157619D01*
X67318095Y-80157619D02*
X67460952Y-80205238D01*
X67460952Y-80205238D02*
X67508571Y-80252857D01*
X69175238Y-81157619D02*
X68699048Y-81157619D01*
X68699048Y-81157619D02*
X68699048Y-80157619D01*
X69699048Y-80157619D02*
X69889524Y-80157619D01*
X69889524Y-80157619D02*
X69984762Y-80205238D01*
X69984762Y-80205238D02*
X70080000Y-80300476D01*
X70080000Y-80300476D02*
X70127619Y-80490952D01*
X70127619Y-80490952D02*
X70127619Y-80824285D01*
X70127619Y-80824285D02*
X70080000Y-81014761D01*
X70080000Y-81014761D02*
X69984762Y-81110000D01*
X69984762Y-81110000D02*
X69889524Y-81157619D01*
X69889524Y-81157619D02*
X69699048Y-81157619D01*
X69699048Y-81157619D02*
X69603810Y-81110000D01*
X69603810Y-81110000D02*
X69508572Y-81014761D01*
X69508572Y-81014761D02*
X69460953Y-80824285D01*
X69460953Y-80824285D02*
X69460953Y-80490952D01*
X69460953Y-80490952D02*
X69508572Y-80300476D01*
X69508572Y-80300476D02*
X69603810Y-80205238D01*
X69603810Y-80205238D02*
X69699048Y-80157619D01*
X70460953Y-80157619D02*
X70699048Y-81157619D01*
X70699048Y-81157619D02*
X70889524Y-80443333D01*
X70889524Y-80443333D02*
X71080000Y-81157619D01*
X71080000Y-81157619D02*
X71318096Y-80157619D01*
X89678095Y-45708809D02*
X89820952Y-45756428D01*
X89820952Y-45756428D02*
X89868571Y-45804047D01*
X89868571Y-45804047D02*
X89916190Y-45899285D01*
X89916190Y-45899285D02*
X89916190Y-46042142D01*
X89916190Y-46042142D02*
X89868571Y-46137380D01*
X89868571Y-46137380D02*
X89820952Y-46185000D01*
X89820952Y-46185000D02*
X89725714Y-46232619D01*
X89725714Y-46232619D02*
X89344762Y-46232619D01*
X89344762Y-46232619D02*
X89344762Y-45232619D01*
X89344762Y-45232619D02*
X89678095Y-45232619D01*
X89678095Y-45232619D02*
X89773333Y-45280238D01*
X89773333Y-45280238D02*
X89820952Y-45327857D01*
X89820952Y-45327857D02*
X89868571Y-45423095D01*
X89868571Y-45423095D02*
X89868571Y-45518333D01*
X89868571Y-45518333D02*
X89820952Y-45613571D01*
X89820952Y-45613571D02*
X89773333Y-45661190D01*
X89773333Y-45661190D02*
X89678095Y-45708809D01*
X89678095Y-45708809D02*
X89344762Y-45708809D01*
X91678095Y-46232619D02*
X91344762Y-45756428D01*
X91106667Y-46232619D02*
X91106667Y-45232619D01*
X91106667Y-45232619D02*
X91487619Y-45232619D01*
X91487619Y-45232619D02*
X91582857Y-45280238D01*
X91582857Y-45280238D02*
X91630476Y-45327857D01*
X91630476Y-45327857D02*
X91678095Y-45423095D01*
X91678095Y-45423095D02*
X91678095Y-45565952D01*
X91678095Y-45565952D02*
X91630476Y-45661190D01*
X91630476Y-45661190D02*
X91582857Y-45708809D01*
X91582857Y-45708809D02*
X91487619Y-45756428D01*
X91487619Y-45756428D02*
X91106667Y-45756428D01*
X92106667Y-45708809D02*
X92440000Y-45708809D01*
X92582857Y-46232619D02*
X92106667Y-46232619D01*
X92106667Y-46232619D02*
X92106667Y-45232619D01*
X92106667Y-45232619D02*
X92582857Y-45232619D01*
X93535238Y-45280238D02*
X93440000Y-45232619D01*
X93440000Y-45232619D02*
X93297143Y-45232619D01*
X93297143Y-45232619D02*
X93154286Y-45280238D01*
X93154286Y-45280238D02*
X93059048Y-45375476D01*
X93059048Y-45375476D02*
X93011429Y-45470714D01*
X93011429Y-45470714D02*
X92963810Y-45661190D01*
X92963810Y-45661190D02*
X92963810Y-45804047D01*
X92963810Y-45804047D02*
X93011429Y-45994523D01*
X93011429Y-45994523D02*
X93059048Y-46089761D01*
X93059048Y-46089761D02*
X93154286Y-46185000D01*
X93154286Y-46185000D02*
X93297143Y-46232619D01*
X93297143Y-46232619D02*
X93392381Y-46232619D01*
X93392381Y-46232619D02*
X93535238Y-46185000D01*
X93535238Y-46185000D02*
X93582857Y-46137380D01*
X93582857Y-46137380D02*
X93582857Y-45804047D01*
X93582857Y-45804047D02*
X93392381Y-45804047D01*
X65651429Y-46232619D02*
X65651429Y-45232619D01*
X65651429Y-45232619D02*
X66032381Y-45232619D01*
X66032381Y-45232619D02*
X66127619Y-45280238D01*
X66127619Y-45280238D02*
X66175238Y-45327857D01*
X66175238Y-45327857D02*
X66222857Y-45423095D01*
X66222857Y-45423095D02*
X66222857Y-45565952D01*
X66222857Y-45565952D02*
X66175238Y-45661190D01*
X66175238Y-45661190D02*
X66127619Y-45708809D01*
X66127619Y-45708809D02*
X66032381Y-45756428D01*
X66032381Y-45756428D02*
X65651429Y-45756428D01*
X67222857Y-46137380D02*
X67175238Y-46185000D01*
X67175238Y-46185000D02*
X67032381Y-46232619D01*
X67032381Y-46232619D02*
X66937143Y-46232619D01*
X66937143Y-46232619D02*
X66794286Y-46185000D01*
X66794286Y-46185000D02*
X66699048Y-46089761D01*
X66699048Y-46089761D02*
X66651429Y-45994523D01*
X66651429Y-45994523D02*
X66603810Y-45804047D01*
X66603810Y-45804047D02*
X66603810Y-45661190D01*
X66603810Y-45661190D02*
X66651429Y-45470714D01*
X66651429Y-45470714D02*
X66699048Y-45375476D01*
X66699048Y-45375476D02*
X66794286Y-45280238D01*
X66794286Y-45280238D02*
X66937143Y-45232619D01*
X66937143Y-45232619D02*
X67032381Y-45232619D01*
X67032381Y-45232619D02*
X67175238Y-45280238D01*
X67175238Y-45280238D02*
X67222857Y-45327857D01*
X68413334Y-46232619D02*
X68413334Y-45232619D01*
X68413334Y-45708809D02*
X68984762Y-45708809D01*
X68984762Y-46232619D02*
X68984762Y-45232619D01*
X69460953Y-46232619D02*
X69460953Y-45232619D01*
X70460952Y-45280238D02*
X70365714Y-45232619D01*
X70365714Y-45232619D02*
X70222857Y-45232619D01*
X70222857Y-45232619D02*
X70080000Y-45280238D01*
X70080000Y-45280238D02*
X69984762Y-45375476D01*
X69984762Y-45375476D02*
X69937143Y-45470714D01*
X69937143Y-45470714D02*
X69889524Y-45661190D01*
X69889524Y-45661190D02*
X69889524Y-45804047D01*
X69889524Y-45804047D02*
X69937143Y-45994523D01*
X69937143Y-45994523D02*
X69984762Y-46089761D01*
X69984762Y-46089761D02*
X70080000Y-46185000D01*
X70080000Y-46185000D02*
X70222857Y-46232619D01*
X70222857Y-46232619D02*
X70318095Y-46232619D01*
X70318095Y-46232619D02*
X70460952Y-46185000D01*
X70460952Y-46185000D02*
X70508571Y-46137380D01*
X70508571Y-46137380D02*
X70508571Y-45804047D01*
X70508571Y-45804047D02*
X70318095Y-45804047D01*
X70937143Y-46232619D02*
X70937143Y-45232619D01*
X70937143Y-45708809D02*
X71508571Y-45708809D01*
X71508571Y-46232619D02*
X71508571Y-45232619D01*
X77343333Y-81110000D02*
X77486190Y-81157619D01*
X77486190Y-81157619D02*
X77724285Y-81157619D01*
X77724285Y-81157619D02*
X77819523Y-81110000D01*
X77819523Y-81110000D02*
X77867142Y-81062380D01*
X77867142Y-81062380D02*
X77914761Y-80967142D01*
X77914761Y-80967142D02*
X77914761Y-80871904D01*
X77914761Y-80871904D02*
X77867142Y-80776666D01*
X77867142Y-80776666D02*
X77819523Y-80729047D01*
X77819523Y-80729047D02*
X77724285Y-80681428D01*
X77724285Y-80681428D02*
X77533809Y-80633809D01*
X77533809Y-80633809D02*
X77438571Y-80586190D01*
X77438571Y-80586190D02*
X77390952Y-80538571D01*
X77390952Y-80538571D02*
X77343333Y-80443333D01*
X77343333Y-80443333D02*
X77343333Y-80348095D01*
X77343333Y-80348095D02*
X77390952Y-80252857D01*
X77390952Y-80252857D02*
X77438571Y-80205238D01*
X77438571Y-80205238D02*
X77533809Y-80157619D01*
X77533809Y-80157619D02*
X77771904Y-80157619D01*
X77771904Y-80157619D02*
X77914761Y-80205238D01*
X78343333Y-81157619D02*
X78343333Y-80157619D01*
X78343333Y-80157619D02*
X78724285Y-80157619D01*
X78724285Y-80157619D02*
X78819523Y-80205238D01*
X78819523Y-80205238D02*
X78867142Y-80252857D01*
X78867142Y-80252857D02*
X78914761Y-80348095D01*
X78914761Y-80348095D02*
X78914761Y-80490952D01*
X78914761Y-80490952D02*
X78867142Y-80586190D01*
X78867142Y-80586190D02*
X78819523Y-80633809D01*
X78819523Y-80633809D02*
X78724285Y-80681428D01*
X78724285Y-80681428D02*
X78343333Y-80681428D01*
X80581428Y-81157619D02*
X80105238Y-81157619D01*
X80105238Y-81157619D02*
X80105238Y-80157619D01*
X81105238Y-80157619D02*
X81295714Y-80157619D01*
X81295714Y-80157619D02*
X81390952Y-80205238D01*
X81390952Y-80205238D02*
X81486190Y-80300476D01*
X81486190Y-80300476D02*
X81533809Y-80490952D01*
X81533809Y-80490952D02*
X81533809Y-80824285D01*
X81533809Y-80824285D02*
X81486190Y-81014761D01*
X81486190Y-81014761D02*
X81390952Y-81110000D01*
X81390952Y-81110000D02*
X81295714Y-81157619D01*
X81295714Y-81157619D02*
X81105238Y-81157619D01*
X81105238Y-81157619D02*
X81010000Y-81110000D01*
X81010000Y-81110000D02*
X80914762Y-81014761D01*
X80914762Y-81014761D02*
X80867143Y-80824285D01*
X80867143Y-80824285D02*
X80867143Y-80490952D01*
X80867143Y-80490952D02*
X80914762Y-80300476D01*
X80914762Y-80300476D02*
X81010000Y-80205238D01*
X81010000Y-80205238D02*
X81105238Y-80157619D01*
X81867143Y-80157619D02*
X82105238Y-81157619D01*
X82105238Y-81157619D02*
X82295714Y-80443333D01*
X82295714Y-80443333D02*
X82486190Y-81157619D01*
X82486190Y-81157619D02*
X82724286Y-80157619D01*
X69453095Y-114923809D02*
X69786428Y-114923809D01*
X69929285Y-115447619D02*
X69453095Y-115447619D01*
X69453095Y-115447619D02*
X69453095Y-114447619D01*
X69453095Y-114447619D02*
X69929285Y-114447619D01*
X70786428Y-115447619D02*
X70786428Y-114447619D01*
X70786428Y-115400000D02*
X70691190Y-115447619D01*
X70691190Y-115447619D02*
X70500714Y-115447619D01*
X70500714Y-115447619D02*
X70405476Y-115400000D01*
X70405476Y-115400000D02*
X70357857Y-115352380D01*
X70357857Y-115352380D02*
X70310238Y-115257142D01*
X70310238Y-115257142D02*
X70310238Y-114971428D01*
X70310238Y-114971428D02*
X70357857Y-114876190D01*
X70357857Y-114876190D02*
X70405476Y-114828571D01*
X70405476Y-114828571D02*
X70500714Y-114780952D01*
X70500714Y-114780952D02*
X70691190Y-114780952D01*
X70691190Y-114780952D02*
X70786428Y-114828571D01*
X71976905Y-115161904D02*
X72453095Y-115161904D01*
X71881667Y-115447619D02*
X72215000Y-114447619D01*
X72215000Y-114447619D02*
X72548333Y-115447619D01*
X72738810Y-114780952D02*
X73119762Y-114780952D01*
X72881667Y-114447619D02*
X72881667Y-115304761D01*
X72881667Y-115304761D02*
X72929286Y-115400000D01*
X72929286Y-115400000D02*
X73024524Y-115447619D01*
X73024524Y-115447619D02*
X73119762Y-115447619D01*
X73453096Y-115447619D02*
X73453096Y-114447619D01*
X73548334Y-115066666D02*
X73834048Y-115447619D01*
X73834048Y-114780952D02*
X73453096Y-115161904D01*
X74262620Y-115447619D02*
X74262620Y-114780952D01*
X74262620Y-114447619D02*
X74215001Y-114495238D01*
X74215001Y-114495238D02*
X74262620Y-114542857D01*
X74262620Y-114542857D02*
X74310239Y-114495238D01*
X74310239Y-114495238D02*
X74262620Y-114447619D01*
X74262620Y-114447619D02*
X74262620Y-114542857D01*
X74738810Y-114780952D02*
X74738810Y-115447619D01*
X74738810Y-114876190D02*
X74786429Y-114828571D01*
X74786429Y-114828571D02*
X74881667Y-114780952D01*
X74881667Y-114780952D02*
X75024524Y-114780952D01*
X75024524Y-114780952D02*
X75119762Y-114828571D01*
X75119762Y-114828571D02*
X75167381Y-114923809D01*
X75167381Y-114923809D02*
X75167381Y-115447619D01*
X75595953Y-115400000D02*
X75691191Y-115447619D01*
X75691191Y-115447619D02*
X75881667Y-115447619D01*
X75881667Y-115447619D02*
X75976905Y-115400000D01*
X75976905Y-115400000D02*
X76024524Y-115304761D01*
X76024524Y-115304761D02*
X76024524Y-115257142D01*
X76024524Y-115257142D02*
X75976905Y-115161904D01*
X75976905Y-115161904D02*
X75881667Y-115114285D01*
X75881667Y-115114285D02*
X75738810Y-115114285D01*
X75738810Y-115114285D02*
X75643572Y-115066666D01*
X75643572Y-115066666D02*
X75595953Y-114971428D01*
X75595953Y-114971428D02*
X75595953Y-114923809D01*
X75595953Y-114923809D02*
X75643572Y-114828571D01*
X75643572Y-114828571D02*
X75738810Y-114780952D01*
X75738810Y-114780952D02*
X75881667Y-114780952D01*
X75881667Y-114780952D02*
X75976905Y-114828571D01*
X76595953Y-115447619D02*
X76500715Y-115400000D01*
X76500715Y-115400000D02*
X76453096Y-115352380D01*
X76453096Y-115352380D02*
X76405477Y-115257142D01*
X76405477Y-115257142D02*
X76405477Y-114971428D01*
X76405477Y-114971428D02*
X76453096Y-114876190D01*
X76453096Y-114876190D02*
X76500715Y-114828571D01*
X76500715Y-114828571D02*
X76595953Y-114780952D01*
X76595953Y-114780952D02*
X76738810Y-114780952D01*
X76738810Y-114780952D02*
X76834048Y-114828571D01*
X76834048Y-114828571D02*
X76881667Y-114876190D01*
X76881667Y-114876190D02*
X76929286Y-114971428D01*
X76929286Y-114971428D02*
X76929286Y-115257142D01*
X76929286Y-115257142D02*
X76881667Y-115352380D01*
X76881667Y-115352380D02*
X76834048Y-115400000D01*
X76834048Y-115400000D02*
X76738810Y-115447619D01*
X76738810Y-115447619D02*
X76595953Y-115447619D01*
X77357858Y-114780952D02*
X77357858Y-115447619D01*
X77357858Y-114876190D02*
X77405477Y-114828571D01*
X77405477Y-114828571D02*
X77500715Y-114780952D01*
X77500715Y-114780952D02*
X77643572Y-114780952D01*
X77643572Y-114780952D02*
X77738810Y-114828571D01*
X77738810Y-114828571D02*
X77786429Y-114923809D01*
X77786429Y-114923809D02*
X77786429Y-115447619D01*
X78976906Y-114542857D02*
X79024525Y-114495238D01*
X79024525Y-114495238D02*
X79119763Y-114447619D01*
X79119763Y-114447619D02*
X79357858Y-114447619D01*
X79357858Y-114447619D02*
X79453096Y-114495238D01*
X79453096Y-114495238D02*
X79500715Y-114542857D01*
X79500715Y-114542857D02*
X79548334Y-114638095D01*
X79548334Y-114638095D02*
X79548334Y-114733333D01*
X79548334Y-114733333D02*
X79500715Y-114876190D01*
X79500715Y-114876190D02*
X78929287Y-115447619D01*
X78929287Y-115447619D02*
X79548334Y-115447619D01*
X80167382Y-114447619D02*
X80262620Y-114447619D01*
X80262620Y-114447619D02*
X80357858Y-114495238D01*
X80357858Y-114495238D02*
X80405477Y-114542857D01*
X80405477Y-114542857D02*
X80453096Y-114638095D01*
X80453096Y-114638095D02*
X80500715Y-114828571D01*
X80500715Y-114828571D02*
X80500715Y-115066666D01*
X80500715Y-115066666D02*
X80453096Y-115257142D01*
X80453096Y-115257142D02*
X80405477Y-115352380D01*
X80405477Y-115352380D02*
X80357858Y-115400000D01*
X80357858Y-115400000D02*
X80262620Y-115447619D01*
X80262620Y-115447619D02*
X80167382Y-115447619D01*
X80167382Y-115447619D02*
X80072144Y-115400000D01*
X80072144Y-115400000D02*
X80024525Y-115352380D01*
X80024525Y-115352380D02*
X79976906Y-115257142D01*
X79976906Y-115257142D02*
X79929287Y-115066666D01*
X79929287Y-115066666D02*
X79929287Y-114828571D01*
X79929287Y-114828571D02*
X79976906Y-114638095D01*
X79976906Y-114638095D02*
X80024525Y-114542857D01*
X80024525Y-114542857D02*
X80072144Y-114495238D01*
X80072144Y-114495238D02*
X80167382Y-114447619D01*
X80881668Y-114542857D02*
X80929287Y-114495238D01*
X80929287Y-114495238D02*
X81024525Y-114447619D01*
X81024525Y-114447619D02*
X81262620Y-114447619D01*
X81262620Y-114447619D02*
X81357858Y-114495238D01*
X81357858Y-114495238D02*
X81405477Y-114542857D01*
X81405477Y-114542857D02*
X81453096Y-114638095D01*
X81453096Y-114638095D02*
X81453096Y-114733333D01*
X81453096Y-114733333D02*
X81405477Y-114876190D01*
X81405477Y-114876190D02*
X80834049Y-115447619D01*
X80834049Y-115447619D02*
X81453096Y-115447619D01*
X81786430Y-114447619D02*
X82405477Y-114447619D01*
X82405477Y-114447619D02*
X82072144Y-114828571D01*
X82072144Y-114828571D02*
X82215001Y-114828571D01*
X82215001Y-114828571D02*
X82310239Y-114876190D01*
X82310239Y-114876190D02*
X82357858Y-114923809D01*
X82357858Y-114923809D02*
X82405477Y-115019047D01*
X82405477Y-115019047D02*
X82405477Y-115257142D01*
X82405477Y-115257142D02*
X82357858Y-115352380D01*
X82357858Y-115352380D02*
X82310239Y-115400000D01*
X82310239Y-115400000D02*
X82215001Y-115447619D01*
X82215001Y-115447619D02*
X81929287Y-115447619D01*
X81929287Y-115447619D02*
X81834049Y-115400000D01*
X81834049Y-115400000D02*
X81786430Y-115352380D01*
X152876667Y-75791904D02*
X153352857Y-75791904D01*
X152781429Y-76077619D02*
X153114762Y-75077619D01*
X153114762Y-75077619D02*
X153448095Y-76077619D01*
X154257619Y-76077619D02*
X153781429Y-76077619D01*
X153781429Y-76077619D02*
X153781429Y-75077619D01*
X154590953Y-75077619D02*
X154590953Y-75887142D01*
X154590953Y-75887142D02*
X154638572Y-75982380D01*
X154638572Y-75982380D02*
X154686191Y-76030000D01*
X154686191Y-76030000D02*
X154781429Y-76077619D01*
X154781429Y-76077619D02*
X154971905Y-76077619D01*
X154971905Y-76077619D02*
X155067143Y-76030000D01*
X155067143Y-76030000D02*
X155114762Y-75982380D01*
X155114762Y-75982380D02*
X155162381Y-75887142D01*
X155162381Y-75887142D02*
X155162381Y-75077619D01*
X156400477Y-76077619D02*
X156400477Y-75077619D01*
X156400477Y-75553809D02*
X156971905Y-75553809D01*
X156971905Y-76077619D02*
X156971905Y-75077619D01*
X157448096Y-76077619D02*
X157448096Y-75077619D01*
X158448095Y-75125238D02*
X158352857Y-75077619D01*
X158352857Y-75077619D02*
X158210000Y-75077619D01*
X158210000Y-75077619D02*
X158067143Y-75125238D01*
X158067143Y-75125238D02*
X157971905Y-75220476D01*
X157971905Y-75220476D02*
X157924286Y-75315714D01*
X157924286Y-75315714D02*
X157876667Y-75506190D01*
X157876667Y-75506190D02*
X157876667Y-75649047D01*
X157876667Y-75649047D02*
X157924286Y-75839523D01*
X157924286Y-75839523D02*
X157971905Y-75934761D01*
X157971905Y-75934761D02*
X158067143Y-76030000D01*
X158067143Y-76030000D02*
X158210000Y-76077619D01*
X158210000Y-76077619D02*
X158305238Y-76077619D01*
X158305238Y-76077619D02*
X158448095Y-76030000D01*
X158448095Y-76030000D02*
X158495714Y-75982380D01*
X158495714Y-75982380D02*
X158495714Y-75649047D01*
X158495714Y-75649047D02*
X158305238Y-75649047D01*
X158924286Y-76077619D02*
X158924286Y-75077619D01*
X158924286Y-75553809D02*
X159495714Y-75553809D01*
X159495714Y-76077619D02*
X159495714Y-75077619D01*
X160885476Y-125607619D02*
X160885476Y-124607619D01*
X160885476Y-124607619D02*
X161266428Y-124607619D01*
X161266428Y-124607619D02*
X161361666Y-124655238D01*
X161361666Y-124655238D02*
X161409285Y-124702857D01*
X161409285Y-124702857D02*
X161456904Y-124798095D01*
X161456904Y-124798095D02*
X161456904Y-124940952D01*
X161456904Y-124940952D02*
X161409285Y-125036190D01*
X161409285Y-125036190D02*
X161361666Y-125083809D01*
X161361666Y-125083809D02*
X161266428Y-125131428D01*
X161266428Y-125131428D02*
X160885476Y-125131428D01*
X162075952Y-124607619D02*
X162266428Y-124607619D01*
X162266428Y-124607619D02*
X162361666Y-124655238D01*
X162361666Y-124655238D02*
X162456904Y-124750476D01*
X162456904Y-124750476D02*
X162504523Y-124940952D01*
X162504523Y-124940952D02*
X162504523Y-125274285D01*
X162504523Y-125274285D02*
X162456904Y-125464761D01*
X162456904Y-125464761D02*
X162361666Y-125560000D01*
X162361666Y-125560000D02*
X162266428Y-125607619D01*
X162266428Y-125607619D02*
X162075952Y-125607619D01*
X162075952Y-125607619D02*
X161980714Y-125560000D01*
X161980714Y-125560000D02*
X161885476Y-125464761D01*
X161885476Y-125464761D02*
X161837857Y-125274285D01*
X161837857Y-125274285D02*
X161837857Y-124940952D01*
X161837857Y-124940952D02*
X161885476Y-124750476D01*
X161885476Y-124750476D02*
X161980714Y-124655238D01*
X161980714Y-124655238D02*
X162075952Y-124607619D01*
X162837857Y-124607619D02*
X163075952Y-125607619D01*
X163075952Y-125607619D02*
X163266428Y-124893333D01*
X163266428Y-124893333D02*
X163456904Y-125607619D01*
X163456904Y-125607619D02*
X163695000Y-124607619D01*
X164075952Y-125083809D02*
X164409285Y-125083809D01*
X164552142Y-125607619D02*
X164075952Y-125607619D01*
X164075952Y-125607619D02*
X164075952Y-124607619D01*
X164075952Y-124607619D02*
X164552142Y-124607619D01*
X165552142Y-125607619D02*
X165218809Y-125131428D01*
X164980714Y-125607619D02*
X164980714Y-124607619D01*
X164980714Y-124607619D02*
X165361666Y-124607619D01*
X165361666Y-124607619D02*
X165456904Y-124655238D01*
X165456904Y-124655238D02*
X165504523Y-124702857D01*
X165504523Y-124702857D02*
X165552142Y-124798095D01*
X165552142Y-124798095D02*
X165552142Y-124940952D01*
X165552142Y-124940952D02*
X165504523Y-125036190D01*
X165504523Y-125036190D02*
X165456904Y-125083809D01*
X165456904Y-125083809D02*
X165361666Y-125131428D01*
X165361666Y-125131428D02*
X164980714Y-125131428D01*
X143685238Y-45946904D02*
X144161428Y-45946904D01*
X143590000Y-46232619D02*
X143923333Y-45232619D01*
X143923333Y-45232619D02*
X144256666Y-46232619D01*
X145066190Y-46232619D02*
X144590000Y-46232619D01*
X144590000Y-46232619D02*
X144590000Y-45232619D01*
X145399524Y-45232619D02*
X145399524Y-46042142D01*
X145399524Y-46042142D02*
X145447143Y-46137380D01*
X145447143Y-46137380D02*
X145494762Y-46185000D01*
X145494762Y-46185000D02*
X145590000Y-46232619D01*
X145590000Y-46232619D02*
X145780476Y-46232619D01*
X145780476Y-46232619D02*
X145875714Y-46185000D01*
X145875714Y-46185000D02*
X145923333Y-46137380D01*
X145923333Y-46137380D02*
X145970952Y-46042142D01*
X145970952Y-46042142D02*
X145970952Y-45232619D01*
X147209048Y-45851666D02*
X147970953Y-45851666D01*
X148447143Y-45565952D02*
X149209048Y-45851666D01*
X149209048Y-45851666D02*
X148447143Y-46137380D01*
X150447143Y-46232619D02*
X150447143Y-45232619D01*
X150447143Y-45232619D02*
X150685238Y-45232619D01*
X150685238Y-45232619D02*
X150828095Y-45280238D01*
X150828095Y-45280238D02*
X150923333Y-45375476D01*
X150923333Y-45375476D02*
X150970952Y-45470714D01*
X150970952Y-45470714D02*
X151018571Y-45661190D01*
X151018571Y-45661190D02*
X151018571Y-45804047D01*
X151018571Y-45804047D02*
X150970952Y-45994523D01*
X150970952Y-45994523D02*
X150923333Y-46089761D01*
X150923333Y-46089761D02*
X150828095Y-46185000D01*
X150828095Y-46185000D02*
X150685238Y-46232619D01*
X150685238Y-46232619D02*
X150447143Y-46232619D01*
X151399524Y-45946904D02*
X151875714Y-45946904D01*
X151304286Y-46232619D02*
X151637619Y-45232619D01*
X151637619Y-45232619D02*
X151970952Y-46232619D01*
X152161429Y-45232619D02*
X152732857Y-45232619D01*
X152447143Y-46232619D02*
X152447143Y-45232619D01*
X153018572Y-45946904D02*
X153494762Y-45946904D01*
X152923334Y-46232619D02*
X153256667Y-45232619D01*
X153256667Y-45232619D02*
X153590000Y-46232619D01*
%TO.C,U11*%
X166401905Y-106777619D02*
X166401905Y-107587142D01*
X166401905Y-107587142D02*
X166449524Y-107682380D01*
X166449524Y-107682380D02*
X166497143Y-107730000D01*
X166497143Y-107730000D02*
X166592381Y-107777619D01*
X166592381Y-107777619D02*
X166782857Y-107777619D01*
X166782857Y-107777619D02*
X166878095Y-107730000D01*
X166878095Y-107730000D02*
X166925714Y-107682380D01*
X166925714Y-107682380D02*
X166973333Y-107587142D01*
X166973333Y-107587142D02*
X166973333Y-106777619D01*
X167973333Y-107777619D02*
X167401905Y-107777619D01*
X167687619Y-107777619D02*
X167687619Y-106777619D01*
X167687619Y-106777619D02*
X167592381Y-106920476D01*
X167592381Y-106920476D02*
X167497143Y-107015714D01*
X167497143Y-107015714D02*
X167401905Y-107063333D01*
X168925714Y-107777619D02*
X168354286Y-107777619D01*
X168640000Y-107777619D02*
X168640000Y-106777619D01*
X168640000Y-106777619D02*
X168544762Y-106920476D01*
X168544762Y-106920476D02*
X168449524Y-107015714D01*
X168449524Y-107015714D02*
X168354286Y-107063333D01*
%TO.C,U1*%
X67945095Y-73884619D02*
X67945095Y-74694142D01*
X67945095Y-74694142D02*
X67992714Y-74789380D01*
X67992714Y-74789380D02*
X68040333Y-74837000D01*
X68040333Y-74837000D02*
X68135571Y-74884619D01*
X68135571Y-74884619D02*
X68326047Y-74884619D01*
X68326047Y-74884619D02*
X68421285Y-74837000D01*
X68421285Y-74837000D02*
X68468904Y-74789380D01*
X68468904Y-74789380D02*
X68516523Y-74694142D01*
X68516523Y-74694142D02*
X68516523Y-73884619D01*
X69516523Y-74884619D02*
X68945095Y-74884619D01*
X69230809Y-74884619D02*
X69230809Y-73884619D01*
X69230809Y-73884619D02*
X69135571Y-74027476D01*
X69135571Y-74027476D02*
X69040333Y-74122714D01*
X69040333Y-74122714D02*
X68945095Y-74170333D01*
%TO.C,U15*%
X101631905Y-108936619D02*
X101631905Y-109746142D01*
X101631905Y-109746142D02*
X101679524Y-109841380D01*
X101679524Y-109841380D02*
X101727143Y-109889000D01*
X101727143Y-109889000D02*
X101822381Y-109936619D01*
X101822381Y-109936619D02*
X102012857Y-109936619D01*
X102012857Y-109936619D02*
X102108095Y-109889000D01*
X102108095Y-109889000D02*
X102155714Y-109841380D01*
X102155714Y-109841380D02*
X102203333Y-109746142D01*
X102203333Y-109746142D02*
X102203333Y-108936619D01*
X103203333Y-109936619D02*
X102631905Y-109936619D01*
X102917619Y-109936619D02*
X102917619Y-108936619D01*
X102917619Y-108936619D02*
X102822381Y-109079476D01*
X102822381Y-109079476D02*
X102727143Y-109174714D01*
X102727143Y-109174714D02*
X102631905Y-109222333D01*
X104108095Y-108936619D02*
X103631905Y-108936619D01*
X103631905Y-108936619D02*
X103584286Y-109412809D01*
X103584286Y-109412809D02*
X103631905Y-109365190D01*
X103631905Y-109365190D02*
X103727143Y-109317571D01*
X103727143Y-109317571D02*
X103965238Y-109317571D01*
X103965238Y-109317571D02*
X104060476Y-109365190D01*
X104060476Y-109365190D02*
X104108095Y-109412809D01*
X104108095Y-109412809D02*
X104155714Y-109508047D01*
X104155714Y-109508047D02*
X104155714Y-109746142D01*
X104155714Y-109746142D02*
X104108095Y-109841380D01*
X104108095Y-109841380D02*
X104060476Y-109889000D01*
X104060476Y-109889000D02*
X103965238Y-109936619D01*
X103965238Y-109936619D02*
X103727143Y-109936619D01*
X103727143Y-109936619D02*
X103631905Y-109889000D01*
X103631905Y-109889000D02*
X103584286Y-109841380D01*
%TO.C,RN4*%
X166314523Y-114762619D02*
X165981190Y-114286428D01*
X165743095Y-114762619D02*
X165743095Y-113762619D01*
X165743095Y-113762619D02*
X166124047Y-113762619D01*
X166124047Y-113762619D02*
X166219285Y-113810238D01*
X166219285Y-113810238D02*
X166266904Y-113857857D01*
X166266904Y-113857857D02*
X166314523Y-113953095D01*
X166314523Y-113953095D02*
X166314523Y-114095952D01*
X166314523Y-114095952D02*
X166266904Y-114191190D01*
X166266904Y-114191190D02*
X166219285Y-114238809D01*
X166219285Y-114238809D02*
X166124047Y-114286428D01*
X166124047Y-114286428D02*
X165743095Y-114286428D01*
X166743095Y-114762619D02*
X166743095Y-113762619D01*
X166743095Y-113762619D02*
X167314523Y-114762619D01*
X167314523Y-114762619D02*
X167314523Y-113762619D01*
X168219285Y-114095952D02*
X168219285Y-114762619D01*
X167981190Y-113715000D02*
X167743095Y-114429285D01*
X167743095Y-114429285D02*
X168362142Y-114429285D01*
%TO.C,U12*%
X67341905Y-108936619D02*
X67341905Y-109746142D01*
X67341905Y-109746142D02*
X67389524Y-109841380D01*
X67389524Y-109841380D02*
X67437143Y-109889000D01*
X67437143Y-109889000D02*
X67532381Y-109936619D01*
X67532381Y-109936619D02*
X67722857Y-109936619D01*
X67722857Y-109936619D02*
X67818095Y-109889000D01*
X67818095Y-109889000D02*
X67865714Y-109841380D01*
X67865714Y-109841380D02*
X67913333Y-109746142D01*
X67913333Y-109746142D02*
X67913333Y-108936619D01*
X68913333Y-109936619D02*
X68341905Y-109936619D01*
X68627619Y-109936619D02*
X68627619Y-108936619D01*
X68627619Y-108936619D02*
X68532381Y-109079476D01*
X68532381Y-109079476D02*
X68437143Y-109174714D01*
X68437143Y-109174714D02*
X68341905Y-109222333D01*
X69294286Y-109031857D02*
X69341905Y-108984238D01*
X69341905Y-108984238D02*
X69437143Y-108936619D01*
X69437143Y-108936619D02*
X69675238Y-108936619D01*
X69675238Y-108936619D02*
X69770476Y-108984238D01*
X69770476Y-108984238D02*
X69818095Y-109031857D01*
X69818095Y-109031857D02*
X69865714Y-109127095D01*
X69865714Y-109127095D02*
X69865714Y-109222333D01*
X69865714Y-109222333D02*
X69818095Y-109365190D01*
X69818095Y-109365190D02*
X69246667Y-109936619D01*
X69246667Y-109936619D02*
X69865714Y-109936619D01*
%TO.C,U6*%
X121285095Y-73884619D02*
X121285095Y-74694142D01*
X121285095Y-74694142D02*
X121332714Y-74789380D01*
X121332714Y-74789380D02*
X121380333Y-74837000D01*
X121380333Y-74837000D02*
X121475571Y-74884619D01*
X121475571Y-74884619D02*
X121666047Y-74884619D01*
X121666047Y-74884619D02*
X121761285Y-74837000D01*
X121761285Y-74837000D02*
X121808904Y-74789380D01*
X121808904Y-74789380D02*
X121856523Y-74694142D01*
X121856523Y-74694142D02*
X121856523Y-73884619D01*
X122761285Y-73884619D02*
X122570809Y-73884619D01*
X122570809Y-73884619D02*
X122475571Y-73932238D01*
X122475571Y-73932238D02*
X122427952Y-73979857D01*
X122427952Y-73979857D02*
X122332714Y-74122714D01*
X122332714Y-74122714D02*
X122285095Y-74313190D01*
X122285095Y-74313190D02*
X122285095Y-74694142D01*
X122285095Y-74694142D02*
X122332714Y-74789380D01*
X122332714Y-74789380D02*
X122380333Y-74837000D01*
X122380333Y-74837000D02*
X122475571Y-74884619D01*
X122475571Y-74884619D02*
X122666047Y-74884619D01*
X122666047Y-74884619D02*
X122761285Y-74837000D01*
X122761285Y-74837000D02*
X122808904Y-74789380D01*
X122808904Y-74789380D02*
X122856523Y-74694142D01*
X122856523Y-74694142D02*
X122856523Y-74456047D01*
X122856523Y-74456047D02*
X122808904Y-74360809D01*
X122808904Y-74360809D02*
X122761285Y-74313190D01*
X122761285Y-74313190D02*
X122666047Y-74265571D01*
X122666047Y-74265571D02*
X122475571Y-74265571D01*
X122475571Y-74265571D02*
X122380333Y-74313190D01*
X122380333Y-74313190D02*
X122332714Y-74360809D01*
X122332714Y-74360809D02*
X122285095Y-74456047D01*
%TO.C,U7*%
X140081095Y-73884619D02*
X140081095Y-74694142D01*
X140081095Y-74694142D02*
X140128714Y-74789380D01*
X140128714Y-74789380D02*
X140176333Y-74837000D01*
X140176333Y-74837000D02*
X140271571Y-74884619D01*
X140271571Y-74884619D02*
X140462047Y-74884619D01*
X140462047Y-74884619D02*
X140557285Y-74837000D01*
X140557285Y-74837000D02*
X140604904Y-74789380D01*
X140604904Y-74789380D02*
X140652523Y-74694142D01*
X140652523Y-74694142D02*
X140652523Y-73884619D01*
X141033476Y-73884619D02*
X141700142Y-73884619D01*
X141700142Y-73884619D02*
X141271571Y-74884619D01*
%TO.C,J1*%
X158597619Y-121618333D02*
X159311904Y-121618333D01*
X159311904Y-121618333D02*
X159454761Y-121665952D01*
X159454761Y-121665952D02*
X159550000Y-121761190D01*
X159550000Y-121761190D02*
X159597619Y-121904047D01*
X159597619Y-121904047D02*
X159597619Y-121999285D01*
X159597619Y-120618333D02*
X159597619Y-121189761D01*
X159597619Y-120904047D02*
X158597619Y-120904047D01*
X158597619Y-120904047D02*
X158740476Y-120999285D01*
X158740476Y-120999285D02*
X158835714Y-121094523D01*
X158835714Y-121094523D02*
X158883333Y-121189761D01*
%TO.C,U13*%
X78771905Y-108936619D02*
X78771905Y-109746142D01*
X78771905Y-109746142D02*
X78819524Y-109841380D01*
X78819524Y-109841380D02*
X78867143Y-109889000D01*
X78867143Y-109889000D02*
X78962381Y-109936619D01*
X78962381Y-109936619D02*
X79152857Y-109936619D01*
X79152857Y-109936619D02*
X79248095Y-109889000D01*
X79248095Y-109889000D02*
X79295714Y-109841380D01*
X79295714Y-109841380D02*
X79343333Y-109746142D01*
X79343333Y-109746142D02*
X79343333Y-108936619D01*
X80343333Y-109936619D02*
X79771905Y-109936619D01*
X80057619Y-109936619D02*
X80057619Y-108936619D01*
X80057619Y-108936619D02*
X79962381Y-109079476D01*
X79962381Y-109079476D02*
X79867143Y-109174714D01*
X79867143Y-109174714D02*
X79771905Y-109222333D01*
X80676667Y-108936619D02*
X81295714Y-108936619D01*
X81295714Y-108936619D02*
X80962381Y-109317571D01*
X80962381Y-109317571D02*
X81105238Y-109317571D01*
X81105238Y-109317571D02*
X81200476Y-109365190D01*
X81200476Y-109365190D02*
X81248095Y-109412809D01*
X81248095Y-109412809D02*
X81295714Y-109508047D01*
X81295714Y-109508047D02*
X81295714Y-109746142D01*
X81295714Y-109746142D02*
X81248095Y-109841380D01*
X81248095Y-109841380D02*
X81200476Y-109889000D01*
X81200476Y-109889000D02*
X81105238Y-109936619D01*
X81105238Y-109936619D02*
X80819524Y-109936619D01*
X80819524Y-109936619D02*
X80724286Y-109889000D01*
X80724286Y-109889000D02*
X80676667Y-109841380D01*
%TO.C,RN2*%
X60396523Y-108412619D02*
X60063190Y-107936428D01*
X59825095Y-108412619D02*
X59825095Y-107412619D01*
X59825095Y-107412619D02*
X60206047Y-107412619D01*
X60206047Y-107412619D02*
X60301285Y-107460238D01*
X60301285Y-107460238D02*
X60348904Y-107507857D01*
X60348904Y-107507857D02*
X60396523Y-107603095D01*
X60396523Y-107603095D02*
X60396523Y-107745952D01*
X60396523Y-107745952D02*
X60348904Y-107841190D01*
X60348904Y-107841190D02*
X60301285Y-107888809D01*
X60301285Y-107888809D02*
X60206047Y-107936428D01*
X60206047Y-107936428D02*
X59825095Y-107936428D01*
X60825095Y-108412619D02*
X60825095Y-107412619D01*
X60825095Y-107412619D02*
X61396523Y-108412619D01*
X61396523Y-108412619D02*
X61396523Y-107412619D01*
X61825095Y-107507857D02*
X61872714Y-107460238D01*
X61872714Y-107460238D02*
X61967952Y-107412619D01*
X61967952Y-107412619D02*
X62206047Y-107412619D01*
X62206047Y-107412619D02*
X62301285Y-107460238D01*
X62301285Y-107460238D02*
X62348904Y-107507857D01*
X62348904Y-107507857D02*
X62396523Y-107603095D01*
X62396523Y-107603095D02*
X62396523Y-107698333D01*
X62396523Y-107698333D02*
X62348904Y-107841190D01*
X62348904Y-107841190D02*
X61777476Y-108412619D01*
X61777476Y-108412619D02*
X62396523Y-108412619D01*
%TO.C,U4*%
X102108095Y-73884619D02*
X102108095Y-74694142D01*
X102108095Y-74694142D02*
X102155714Y-74789380D01*
X102155714Y-74789380D02*
X102203333Y-74837000D01*
X102203333Y-74837000D02*
X102298571Y-74884619D01*
X102298571Y-74884619D02*
X102489047Y-74884619D01*
X102489047Y-74884619D02*
X102584285Y-74837000D01*
X102584285Y-74837000D02*
X102631904Y-74789380D01*
X102631904Y-74789380D02*
X102679523Y-74694142D01*
X102679523Y-74694142D02*
X102679523Y-73884619D01*
X103584285Y-74217952D02*
X103584285Y-74884619D01*
X103346190Y-73837000D02*
X103108095Y-74551285D01*
X103108095Y-74551285D02*
X103727142Y-74551285D01*
%TO.C,U3*%
X90678095Y-73884619D02*
X90678095Y-74694142D01*
X90678095Y-74694142D02*
X90725714Y-74789380D01*
X90725714Y-74789380D02*
X90773333Y-74837000D01*
X90773333Y-74837000D02*
X90868571Y-74884619D01*
X90868571Y-74884619D02*
X91059047Y-74884619D01*
X91059047Y-74884619D02*
X91154285Y-74837000D01*
X91154285Y-74837000D02*
X91201904Y-74789380D01*
X91201904Y-74789380D02*
X91249523Y-74694142D01*
X91249523Y-74694142D02*
X91249523Y-73884619D01*
X91630476Y-73884619D02*
X92249523Y-73884619D01*
X92249523Y-73884619D02*
X91916190Y-74265571D01*
X91916190Y-74265571D02*
X92059047Y-74265571D01*
X92059047Y-74265571D02*
X92154285Y-74313190D01*
X92154285Y-74313190D02*
X92201904Y-74360809D01*
X92201904Y-74360809D02*
X92249523Y-74456047D01*
X92249523Y-74456047D02*
X92249523Y-74694142D01*
X92249523Y-74694142D02*
X92201904Y-74789380D01*
X92201904Y-74789380D02*
X92154285Y-74837000D01*
X92154285Y-74837000D02*
X92059047Y-74884619D01*
X92059047Y-74884619D02*
X91773333Y-74884619D01*
X91773333Y-74884619D02*
X91678095Y-74837000D01*
X91678095Y-74837000D02*
X91630476Y-74789380D01*
%TO.C,U5*%
X112903095Y-73884619D02*
X112903095Y-74694142D01*
X112903095Y-74694142D02*
X112950714Y-74789380D01*
X112950714Y-74789380D02*
X112998333Y-74837000D01*
X112998333Y-74837000D02*
X113093571Y-74884619D01*
X113093571Y-74884619D02*
X113284047Y-74884619D01*
X113284047Y-74884619D02*
X113379285Y-74837000D01*
X113379285Y-74837000D02*
X113426904Y-74789380D01*
X113426904Y-74789380D02*
X113474523Y-74694142D01*
X113474523Y-74694142D02*
X113474523Y-73884619D01*
X114426904Y-73884619D02*
X113950714Y-73884619D01*
X113950714Y-73884619D02*
X113903095Y-74360809D01*
X113903095Y-74360809D02*
X113950714Y-74313190D01*
X113950714Y-74313190D02*
X114045952Y-74265571D01*
X114045952Y-74265571D02*
X114284047Y-74265571D01*
X114284047Y-74265571D02*
X114379285Y-74313190D01*
X114379285Y-74313190D02*
X114426904Y-74360809D01*
X114426904Y-74360809D02*
X114474523Y-74456047D01*
X114474523Y-74456047D02*
X114474523Y-74694142D01*
X114474523Y-74694142D02*
X114426904Y-74789380D01*
X114426904Y-74789380D02*
X114379285Y-74837000D01*
X114379285Y-74837000D02*
X114284047Y-74884619D01*
X114284047Y-74884619D02*
X114045952Y-74884619D01*
X114045952Y-74884619D02*
X113950714Y-74837000D01*
X113950714Y-74837000D02*
X113903095Y-74789380D01*
%TO.C,U16*%
X113061905Y-108936619D02*
X113061905Y-109746142D01*
X113061905Y-109746142D02*
X113109524Y-109841380D01*
X113109524Y-109841380D02*
X113157143Y-109889000D01*
X113157143Y-109889000D02*
X113252381Y-109936619D01*
X113252381Y-109936619D02*
X113442857Y-109936619D01*
X113442857Y-109936619D02*
X113538095Y-109889000D01*
X113538095Y-109889000D02*
X113585714Y-109841380D01*
X113585714Y-109841380D02*
X113633333Y-109746142D01*
X113633333Y-109746142D02*
X113633333Y-108936619D01*
X114633333Y-109936619D02*
X114061905Y-109936619D01*
X114347619Y-109936619D02*
X114347619Y-108936619D01*
X114347619Y-108936619D02*
X114252381Y-109079476D01*
X114252381Y-109079476D02*
X114157143Y-109174714D01*
X114157143Y-109174714D02*
X114061905Y-109222333D01*
X115490476Y-108936619D02*
X115300000Y-108936619D01*
X115300000Y-108936619D02*
X115204762Y-108984238D01*
X115204762Y-108984238D02*
X115157143Y-109031857D01*
X115157143Y-109031857D02*
X115061905Y-109174714D01*
X115061905Y-109174714D02*
X115014286Y-109365190D01*
X115014286Y-109365190D02*
X115014286Y-109746142D01*
X115014286Y-109746142D02*
X115061905Y-109841380D01*
X115061905Y-109841380D02*
X115109524Y-109889000D01*
X115109524Y-109889000D02*
X115204762Y-109936619D01*
X115204762Y-109936619D02*
X115395238Y-109936619D01*
X115395238Y-109936619D02*
X115490476Y-109889000D01*
X115490476Y-109889000D02*
X115538095Y-109841380D01*
X115538095Y-109841380D02*
X115585714Y-109746142D01*
X115585714Y-109746142D02*
X115585714Y-109508047D01*
X115585714Y-109508047D02*
X115538095Y-109412809D01*
X115538095Y-109412809D02*
X115490476Y-109365190D01*
X115490476Y-109365190D02*
X115395238Y-109317571D01*
X115395238Y-109317571D02*
X115204762Y-109317571D01*
X115204762Y-109317571D02*
X115109524Y-109365190D01*
X115109524Y-109365190D02*
X115061905Y-109412809D01*
X115061905Y-109412809D02*
X115014286Y-109508047D01*
%TO.C,U14*%
X90328905Y-108936619D02*
X90328905Y-109746142D01*
X90328905Y-109746142D02*
X90376524Y-109841380D01*
X90376524Y-109841380D02*
X90424143Y-109889000D01*
X90424143Y-109889000D02*
X90519381Y-109936619D01*
X90519381Y-109936619D02*
X90709857Y-109936619D01*
X90709857Y-109936619D02*
X90805095Y-109889000D01*
X90805095Y-109889000D02*
X90852714Y-109841380D01*
X90852714Y-109841380D02*
X90900333Y-109746142D01*
X90900333Y-109746142D02*
X90900333Y-108936619D01*
X91900333Y-109936619D02*
X91328905Y-109936619D01*
X91614619Y-109936619D02*
X91614619Y-108936619D01*
X91614619Y-108936619D02*
X91519381Y-109079476D01*
X91519381Y-109079476D02*
X91424143Y-109174714D01*
X91424143Y-109174714D02*
X91328905Y-109222333D01*
X92757476Y-109269952D02*
X92757476Y-109936619D01*
X92519381Y-108889000D02*
X92281286Y-109603285D01*
X92281286Y-109603285D02*
X92900333Y-109603285D01*
%TO.C,U8*%
X144145095Y-73884619D02*
X144145095Y-74694142D01*
X144145095Y-74694142D02*
X144192714Y-74789380D01*
X144192714Y-74789380D02*
X144240333Y-74837000D01*
X144240333Y-74837000D02*
X144335571Y-74884619D01*
X144335571Y-74884619D02*
X144526047Y-74884619D01*
X144526047Y-74884619D02*
X144621285Y-74837000D01*
X144621285Y-74837000D02*
X144668904Y-74789380D01*
X144668904Y-74789380D02*
X144716523Y-74694142D01*
X144716523Y-74694142D02*
X144716523Y-73884619D01*
X145335571Y-74313190D02*
X145240333Y-74265571D01*
X145240333Y-74265571D02*
X145192714Y-74217952D01*
X145192714Y-74217952D02*
X145145095Y-74122714D01*
X145145095Y-74122714D02*
X145145095Y-74075095D01*
X145145095Y-74075095D02*
X145192714Y-73979857D01*
X145192714Y-73979857D02*
X145240333Y-73932238D01*
X145240333Y-73932238D02*
X145335571Y-73884619D01*
X145335571Y-73884619D02*
X145526047Y-73884619D01*
X145526047Y-73884619D02*
X145621285Y-73932238D01*
X145621285Y-73932238D02*
X145668904Y-73979857D01*
X145668904Y-73979857D02*
X145716523Y-74075095D01*
X145716523Y-74075095D02*
X145716523Y-74122714D01*
X145716523Y-74122714D02*
X145668904Y-74217952D01*
X145668904Y-74217952D02*
X145621285Y-74265571D01*
X145621285Y-74265571D02*
X145526047Y-74313190D01*
X145526047Y-74313190D02*
X145335571Y-74313190D01*
X145335571Y-74313190D02*
X145240333Y-74360809D01*
X145240333Y-74360809D02*
X145192714Y-74408428D01*
X145192714Y-74408428D02*
X145145095Y-74503666D01*
X145145095Y-74503666D02*
X145145095Y-74694142D01*
X145145095Y-74694142D02*
X145192714Y-74789380D01*
X145192714Y-74789380D02*
X145240333Y-74837000D01*
X145240333Y-74837000D02*
X145335571Y-74884619D01*
X145335571Y-74884619D02*
X145526047Y-74884619D01*
X145526047Y-74884619D02*
X145621285Y-74837000D01*
X145621285Y-74837000D02*
X145668904Y-74789380D01*
X145668904Y-74789380D02*
X145716523Y-74694142D01*
X145716523Y-74694142D02*
X145716523Y-74503666D01*
X145716523Y-74503666D02*
X145668904Y-74408428D01*
X145668904Y-74408428D02*
X145621285Y-74360809D01*
X145621285Y-74360809D02*
X145526047Y-74313190D01*
%TO.C,H4*%
X170273095Y-119172619D02*
X170273095Y-118172619D01*
X170273095Y-118648809D02*
X170844523Y-118648809D01*
X170844523Y-119172619D02*
X170844523Y-118172619D01*
X171749285Y-118505952D02*
X171749285Y-119172619D01*
X171511190Y-118125000D02*
X171273095Y-118839285D01*
X171273095Y-118839285D02*
X171892142Y-118839285D01*
%TO.C,RN3*%
X166314523Y-110952619D02*
X165981190Y-110476428D01*
X165743095Y-110952619D02*
X165743095Y-109952619D01*
X165743095Y-109952619D02*
X166124047Y-109952619D01*
X166124047Y-109952619D02*
X166219285Y-110000238D01*
X166219285Y-110000238D02*
X166266904Y-110047857D01*
X166266904Y-110047857D02*
X166314523Y-110143095D01*
X166314523Y-110143095D02*
X166314523Y-110285952D01*
X166314523Y-110285952D02*
X166266904Y-110381190D01*
X166266904Y-110381190D02*
X166219285Y-110428809D01*
X166219285Y-110428809D02*
X166124047Y-110476428D01*
X166124047Y-110476428D02*
X165743095Y-110476428D01*
X166743095Y-110952619D02*
X166743095Y-109952619D01*
X166743095Y-109952619D02*
X167314523Y-110952619D01*
X167314523Y-110952619D02*
X167314523Y-109952619D01*
X167695476Y-109952619D02*
X168314523Y-109952619D01*
X168314523Y-109952619D02*
X167981190Y-110333571D01*
X167981190Y-110333571D02*
X168124047Y-110333571D01*
X168124047Y-110333571D02*
X168219285Y-110381190D01*
X168219285Y-110381190D02*
X168266904Y-110428809D01*
X168266904Y-110428809D02*
X168314523Y-110524047D01*
X168314523Y-110524047D02*
X168314523Y-110762142D01*
X168314523Y-110762142D02*
X168266904Y-110857380D01*
X168266904Y-110857380D02*
X168219285Y-110905000D01*
X168219285Y-110905000D02*
X168124047Y-110952619D01*
X168124047Y-110952619D02*
X167838333Y-110952619D01*
X167838333Y-110952619D02*
X167743095Y-110905000D01*
X167743095Y-110905000D02*
X167695476Y-110857380D01*
%TO.C,RN1*%
X60396523Y-73360619D02*
X60063190Y-72884428D01*
X59825095Y-73360619D02*
X59825095Y-72360619D01*
X59825095Y-72360619D02*
X60206047Y-72360619D01*
X60206047Y-72360619D02*
X60301285Y-72408238D01*
X60301285Y-72408238D02*
X60348904Y-72455857D01*
X60348904Y-72455857D02*
X60396523Y-72551095D01*
X60396523Y-72551095D02*
X60396523Y-72693952D01*
X60396523Y-72693952D02*
X60348904Y-72789190D01*
X60348904Y-72789190D02*
X60301285Y-72836809D01*
X60301285Y-72836809D02*
X60206047Y-72884428D01*
X60206047Y-72884428D02*
X59825095Y-72884428D01*
X60825095Y-73360619D02*
X60825095Y-72360619D01*
X60825095Y-72360619D02*
X61396523Y-73360619D01*
X61396523Y-73360619D02*
X61396523Y-72360619D01*
X62396523Y-73360619D02*
X61825095Y-73360619D01*
X62110809Y-73360619D02*
X62110809Y-72360619D01*
X62110809Y-72360619D02*
X62015571Y-72503476D01*
X62015571Y-72503476D02*
X61920333Y-72598714D01*
X61920333Y-72598714D02*
X61825095Y-72646333D01*
%TO.C,U2*%
X78613095Y-73884619D02*
X78613095Y-74694142D01*
X78613095Y-74694142D02*
X78660714Y-74789380D01*
X78660714Y-74789380D02*
X78708333Y-74837000D01*
X78708333Y-74837000D02*
X78803571Y-74884619D01*
X78803571Y-74884619D02*
X78994047Y-74884619D01*
X78994047Y-74884619D02*
X79089285Y-74837000D01*
X79089285Y-74837000D02*
X79136904Y-74789380D01*
X79136904Y-74789380D02*
X79184523Y-74694142D01*
X79184523Y-74694142D02*
X79184523Y-73884619D01*
X79613095Y-73979857D02*
X79660714Y-73932238D01*
X79660714Y-73932238D02*
X79755952Y-73884619D01*
X79755952Y-73884619D02*
X79994047Y-73884619D01*
X79994047Y-73884619D02*
X80089285Y-73932238D01*
X80089285Y-73932238D02*
X80136904Y-73979857D01*
X80136904Y-73979857D02*
X80184523Y-74075095D01*
X80184523Y-74075095D02*
X80184523Y-74170333D01*
X80184523Y-74170333D02*
X80136904Y-74313190D01*
X80136904Y-74313190D02*
X79565476Y-74884619D01*
X79565476Y-74884619D02*
X80184523Y-74884619D01*
%TO.C,U9*%
X163068095Y-73757619D02*
X163068095Y-74567142D01*
X163068095Y-74567142D02*
X163115714Y-74662380D01*
X163115714Y-74662380D02*
X163163333Y-74710000D01*
X163163333Y-74710000D02*
X163258571Y-74757619D01*
X163258571Y-74757619D02*
X163449047Y-74757619D01*
X163449047Y-74757619D02*
X163544285Y-74710000D01*
X163544285Y-74710000D02*
X163591904Y-74662380D01*
X163591904Y-74662380D02*
X163639523Y-74567142D01*
X163639523Y-74567142D02*
X163639523Y-73757619D01*
X164163333Y-74757619D02*
X164353809Y-74757619D01*
X164353809Y-74757619D02*
X164449047Y-74710000D01*
X164449047Y-74710000D02*
X164496666Y-74662380D01*
X164496666Y-74662380D02*
X164591904Y-74519523D01*
X164591904Y-74519523D02*
X164639523Y-74329047D01*
X164639523Y-74329047D02*
X164639523Y-73948095D01*
X164639523Y-73948095D02*
X164591904Y-73852857D01*
X164591904Y-73852857D02*
X164544285Y-73805238D01*
X164544285Y-73805238D02*
X164449047Y-73757619D01*
X164449047Y-73757619D02*
X164258571Y-73757619D01*
X164258571Y-73757619D02*
X164163333Y-73805238D01*
X164163333Y-73805238D02*
X164115714Y-73852857D01*
X164115714Y-73852857D02*
X164068095Y-73948095D01*
X164068095Y-73948095D02*
X164068095Y-74186190D01*
X164068095Y-74186190D02*
X164115714Y-74281428D01*
X164115714Y-74281428D02*
X164163333Y-74329047D01*
X164163333Y-74329047D02*
X164258571Y-74376666D01*
X164258571Y-74376666D02*
X164449047Y-74376666D01*
X164449047Y-74376666D02*
X164544285Y-74329047D01*
X164544285Y-74329047D02*
X164591904Y-74281428D01*
X164591904Y-74281428D02*
X164639523Y-74186190D01*
%TO.C,U10*%
X143541905Y-106777619D02*
X143541905Y-107587142D01*
X143541905Y-107587142D02*
X143589524Y-107682380D01*
X143589524Y-107682380D02*
X143637143Y-107730000D01*
X143637143Y-107730000D02*
X143732381Y-107777619D01*
X143732381Y-107777619D02*
X143922857Y-107777619D01*
X143922857Y-107777619D02*
X144018095Y-107730000D01*
X144018095Y-107730000D02*
X144065714Y-107682380D01*
X144065714Y-107682380D02*
X144113333Y-107587142D01*
X144113333Y-107587142D02*
X144113333Y-106777619D01*
X145113333Y-107777619D02*
X144541905Y-107777619D01*
X144827619Y-107777619D02*
X144827619Y-106777619D01*
X144827619Y-106777619D02*
X144732381Y-106920476D01*
X144732381Y-106920476D02*
X144637143Y-107015714D01*
X144637143Y-107015714D02*
X144541905Y-107063333D01*
X145732381Y-106777619D02*
X145827619Y-106777619D01*
X145827619Y-106777619D02*
X145922857Y-106825238D01*
X145922857Y-106825238D02*
X145970476Y-106872857D01*
X145970476Y-106872857D02*
X146018095Y-106968095D01*
X146018095Y-106968095D02*
X146065714Y-107158571D01*
X146065714Y-107158571D02*
X146065714Y-107396666D01*
X146065714Y-107396666D02*
X146018095Y-107587142D01*
X146018095Y-107587142D02*
X145970476Y-107682380D01*
X145970476Y-107682380D02*
X145922857Y-107730000D01*
X145922857Y-107730000D02*
X145827619Y-107777619D01*
X145827619Y-107777619D02*
X145732381Y-107777619D01*
X145732381Y-107777619D02*
X145637143Y-107730000D01*
X145637143Y-107730000D02*
X145589524Y-107682380D01*
X145589524Y-107682380D02*
X145541905Y-107587142D01*
X145541905Y-107587142D02*
X145494286Y-107396666D01*
X145494286Y-107396666D02*
X145494286Y-107158571D01*
X145494286Y-107158571D02*
X145541905Y-106968095D01*
X145541905Y-106968095D02*
X145589524Y-106872857D01*
X145589524Y-106872857D02*
X145637143Y-106825238D01*
X145637143Y-106825238D02*
X145732381Y-106777619D01*
D12*
%TO.C,U11*%
X147260000Y-77345000D02*
X147260000Y-108065000D01*
X147260000Y-108065000D02*
X165160000Y-108065000D01*
X149750000Y-77405000D02*
X149750000Y-108005000D01*
X149750000Y-108005000D02*
X162670000Y-108005000D01*
X155210000Y-77405000D02*
X149750000Y-77405000D01*
X162670000Y-77405000D02*
X157210000Y-77405000D01*
X162670000Y-108005000D02*
X162670000Y-77405000D01*
X165160000Y-77345000D02*
X147260000Y-77345000D01*
X165160000Y-108065000D02*
X165160000Y-77345000D01*
X155210000Y-77405000D02*
G75*
G03*
X157210000Y-77405000I1000000J0D01*
G01*
%TO.C,U1*%
X63440000Y-47505000D02*
X63440000Y-73145000D01*
X63440000Y-73145000D02*
X73720000Y-73145000D01*
X65930000Y-47565000D02*
X65930000Y-73085000D01*
X65930000Y-73085000D02*
X71230000Y-73085000D01*
X67580000Y-47565000D02*
X65930000Y-47565000D01*
X71230000Y-47565000D02*
X69580000Y-47565000D01*
X71230000Y-73085000D02*
X71230000Y-47565000D01*
X73720000Y-47505000D02*
X63440000Y-47505000D01*
X73720000Y-73145000D02*
X73720000Y-47505000D01*
X67580000Y-47565000D02*
G75*
G03*
X69580000Y-47565000I1000000J0D01*
G01*
%TO.C,U15*%
X97730000Y-82430000D02*
X97730000Y-108070000D01*
X97730000Y-108070000D02*
X108010000Y-108070000D01*
X100220000Y-82490000D02*
X100220000Y-108010000D01*
X100220000Y-108010000D02*
X105520000Y-108010000D01*
X101870000Y-82490000D02*
X100220000Y-82490000D01*
X105520000Y-82490000D02*
X103870000Y-82490000D01*
X105520000Y-108010000D02*
X105520000Y-82490000D01*
X108010000Y-82430000D02*
X97730000Y-82430000D01*
X108010000Y-108070000D02*
X108010000Y-82430000D01*
X101870000Y-82490000D02*
G75*
G03*
X103870000Y-82490000I1000000J0D01*
G01*
%TO.C,RN4*%
X165270000Y-115700000D02*
X165270000Y-112900000D01*
X165270000Y-112900000D02*
X142070000Y-112900000D01*
X162560000Y-115700000D02*
X162560000Y-112900000D01*
X142070000Y-115700000D02*
X165270000Y-115700000D01*
X142070000Y-112900000D02*
X142070000Y-115700000D01*
%TO.C,U12*%
X63440000Y-82430000D02*
X63440000Y-108070000D01*
X63440000Y-108070000D02*
X73720000Y-108070000D01*
X65930000Y-82490000D02*
X65930000Y-108010000D01*
X65930000Y-108010000D02*
X71230000Y-108010000D01*
X67580000Y-82490000D02*
X65930000Y-82490000D01*
X71230000Y-82490000D02*
X69580000Y-82490000D01*
X71230000Y-108010000D02*
X71230000Y-82490000D01*
X73720000Y-82430000D02*
X63440000Y-82430000D01*
X73720000Y-108070000D02*
X73720000Y-82430000D01*
X67580000Y-82490000D02*
G75*
G03*
X69580000Y-82490000I1000000J0D01*
G01*
%TO.C,U6*%
X120590000Y-47505000D02*
X120590000Y-73145000D01*
X120590000Y-73145000D02*
X130870000Y-73145000D01*
X123080000Y-47565000D02*
X123080000Y-73085000D01*
X123080000Y-73085000D02*
X128380000Y-73085000D01*
X124730000Y-47565000D02*
X123080000Y-47565000D01*
X128380000Y-47565000D02*
X126730000Y-47565000D01*
X128380000Y-73085000D02*
X128380000Y-47565000D01*
X130870000Y-47505000D02*
X120590000Y-47505000D01*
X130870000Y-73145000D02*
X130870000Y-47505000D01*
X124730000Y-47565000D02*
G75*
G03*
X126730000Y-47565000I1000000J0D01*
G01*
%TO.C,U7*%
X132020000Y-47505000D02*
X132020000Y-73145000D01*
X132020000Y-73145000D02*
X142300000Y-73145000D01*
X134510000Y-47565000D02*
X134510000Y-73085000D01*
X134510000Y-73085000D02*
X139810000Y-73085000D01*
X136160000Y-47565000D02*
X134510000Y-47565000D01*
X139810000Y-47565000D02*
X138160000Y-47565000D01*
X139810000Y-73085000D02*
X139810000Y-47565000D01*
X142300000Y-47505000D02*
X132020000Y-47505000D01*
X142300000Y-73145000D02*
X142300000Y-47505000D01*
X136160000Y-47565000D02*
G75*
G03*
X138160000Y-47565000I1000000J0D01*
G01*
%TO.C,J1*%
X153535000Y-115335000D02*
X152535000Y-115335000D01*
X152535000Y-115335000D02*
X153035000Y-116335000D01*
X153035000Y-116335000D02*
X153535000Y-115335000D01*
X158245000Y-116725000D02*
X158245000Y-125845000D01*
X115715000Y-116725000D02*
X115715000Y-118035000D01*
X69085000Y-116725000D02*
X158245000Y-116725000D01*
X156945000Y-118035000D02*
X156945000Y-124535000D01*
X115715000Y-118035000D02*
X156945000Y-118035000D01*
X111615000Y-118035000D02*
X111615000Y-116725000D01*
X111615000Y-118035000D02*
X111615000Y-118035000D01*
X70385000Y-118035000D02*
X111615000Y-118035000D01*
X156945000Y-124535000D02*
X70385000Y-124535000D01*
X70385000Y-124535000D02*
X70385000Y-118035000D01*
X158245000Y-125845000D02*
X69085000Y-125845000D01*
X69085000Y-125845000D02*
X69085000Y-116725000D01*
%TO.C,U13*%
X74870000Y-82430000D02*
X74870000Y-108070000D01*
X74870000Y-108070000D02*
X85150000Y-108070000D01*
X77360000Y-82490000D02*
X77360000Y-108010000D01*
X77360000Y-108010000D02*
X82660000Y-108010000D01*
X79010000Y-82490000D02*
X77360000Y-82490000D01*
X82660000Y-82490000D02*
X81010000Y-82490000D01*
X82660000Y-108010000D02*
X82660000Y-82490000D01*
X85150000Y-82430000D02*
X74870000Y-82430000D01*
X85150000Y-108070000D02*
X85150000Y-82430000D01*
X79010000Y-82490000D02*
G75*
G03*
X81010000Y-82490000I1000000J0D01*
G01*
%TO.C,RN2*%
X59560000Y-106850000D02*
X62360000Y-106850000D01*
X62360000Y-106850000D02*
X62360000Y-83650000D01*
X59560000Y-104140000D02*
X62360000Y-104140000D01*
X59560000Y-83650000D02*
X59560000Y-106850000D01*
X62360000Y-83650000D02*
X59560000Y-83650000D01*
%TO.C,U4*%
X97730000Y-47505000D02*
X97730000Y-73145000D01*
X97730000Y-73145000D02*
X108010000Y-73145000D01*
X100220000Y-47565000D02*
X100220000Y-73085000D01*
X100220000Y-73085000D02*
X105520000Y-73085000D01*
X101870000Y-47565000D02*
X100220000Y-47565000D01*
X105520000Y-47565000D02*
X103870000Y-47565000D01*
X105520000Y-73085000D02*
X105520000Y-47565000D01*
X108010000Y-47505000D02*
X97730000Y-47505000D01*
X108010000Y-73145000D02*
X108010000Y-47505000D01*
X101870000Y-47565000D02*
G75*
G03*
X103870000Y-47565000I1000000J0D01*
G01*
%TO.C,U3*%
X86310000Y-47505000D02*
X86310000Y-73145000D01*
X86310000Y-73145000D02*
X96590000Y-73145000D01*
X88800000Y-47565000D02*
X88800000Y-73085000D01*
X88800000Y-73085000D02*
X94100000Y-73085000D01*
X90450000Y-47565000D02*
X88800000Y-47565000D01*
X94100000Y-47565000D02*
X92450000Y-47565000D01*
X94100000Y-73085000D02*
X94100000Y-47565000D01*
X96590000Y-47505000D02*
X86310000Y-47505000D01*
X96590000Y-73145000D02*
X96590000Y-47505000D01*
X90450000Y-47565000D02*
G75*
G03*
X92450000Y-47565000I1000000J0D01*
G01*
%TO.C,U5*%
X109160000Y-47505000D02*
X109160000Y-73145000D01*
X109160000Y-73145000D02*
X119440000Y-73145000D01*
X111650000Y-47565000D02*
X111650000Y-73085000D01*
X111650000Y-73085000D02*
X116950000Y-73085000D01*
X113300000Y-47565000D02*
X111650000Y-47565000D01*
X116950000Y-47565000D02*
X115300000Y-47565000D01*
X116950000Y-73085000D02*
X116950000Y-47565000D01*
X119440000Y-47505000D02*
X109160000Y-47505000D01*
X119440000Y-73145000D02*
X119440000Y-47505000D01*
X113300000Y-47565000D02*
G75*
G03*
X115300000Y-47565000I1000000J0D01*
G01*
%TO.C,U16*%
X109160000Y-82430000D02*
X109160000Y-108070000D01*
X109160000Y-108070000D02*
X119440000Y-108070000D01*
X111650000Y-82490000D02*
X111650000Y-108010000D01*
X111650000Y-108010000D02*
X116950000Y-108010000D01*
X113300000Y-82490000D02*
X111650000Y-82490000D01*
X116950000Y-82490000D02*
X115300000Y-82490000D01*
X116950000Y-108010000D02*
X116950000Y-82490000D01*
X119440000Y-82430000D02*
X109160000Y-82430000D01*
X119440000Y-108070000D02*
X119440000Y-82430000D01*
X113300000Y-82490000D02*
G75*
G03*
X115300000Y-82490000I1000000J0D01*
G01*
%TO.C,U14*%
X86300000Y-82430000D02*
X86300000Y-108070000D01*
X86300000Y-108070000D02*
X96580000Y-108070000D01*
X88790000Y-82490000D02*
X88790000Y-108010000D01*
X88790000Y-108010000D02*
X94090000Y-108010000D01*
X90440000Y-82490000D02*
X88790000Y-82490000D01*
X94090000Y-82490000D02*
X92440000Y-82490000D01*
X94090000Y-108010000D02*
X94090000Y-82490000D01*
X96580000Y-82430000D02*
X86300000Y-82430000D01*
X96580000Y-108070000D02*
X96580000Y-82430000D01*
X90440000Y-82490000D02*
G75*
G03*
X92440000Y-82490000I1000000J0D01*
G01*
%TO.C,U8*%
X143450000Y-47505000D02*
X143450000Y-73145000D01*
X143450000Y-73145000D02*
X153730000Y-73145000D01*
X145940000Y-47565000D02*
X145940000Y-73085000D01*
X145940000Y-73085000D02*
X151240000Y-73085000D01*
X147590000Y-47565000D02*
X145940000Y-47565000D01*
X151240000Y-47565000D02*
X149590000Y-47565000D01*
X151240000Y-73085000D02*
X151240000Y-47565000D01*
X153730000Y-47505000D02*
X143450000Y-47505000D01*
X153730000Y-73145000D02*
X153730000Y-47505000D01*
X147590000Y-47565000D02*
G75*
G03*
X149590000Y-47565000I1000000J0D01*
G01*
%TO.C,RN3*%
X165270000Y-111890000D02*
X165270000Y-109090000D01*
X165270000Y-109090000D02*
X142070000Y-109090000D01*
X162560000Y-111890000D02*
X162560000Y-109090000D01*
X142070000Y-111890000D02*
X165270000Y-111890000D01*
X142070000Y-109090000D02*
X142070000Y-111890000D01*
%TO.C,RN1*%
X59560000Y-71925000D02*
X62360000Y-71925000D01*
X62360000Y-71925000D02*
X62360000Y-48725000D01*
X59560000Y-69215000D02*
X62360000Y-69215000D01*
X59560000Y-48725000D02*
X59560000Y-71925000D01*
X62360000Y-48725000D02*
X59560000Y-48725000D01*
%TO.C,U2*%
X74880000Y-47505000D02*
X74880000Y-73145000D01*
X74880000Y-73145000D02*
X85160000Y-73145000D01*
X77370000Y-47565000D02*
X77370000Y-73085000D01*
X77370000Y-73085000D02*
X82670000Y-73085000D01*
X79020000Y-47565000D02*
X77370000Y-47565000D01*
X82670000Y-47565000D02*
X81020000Y-47565000D01*
X82670000Y-73085000D02*
X82670000Y-47565000D01*
X85160000Y-47505000D02*
X74880000Y-47505000D01*
X85160000Y-73145000D02*
X85160000Y-47505000D01*
X79020000Y-47565000D02*
G75*
G03*
X81020000Y-47565000I1000000J0D01*
G01*
%TO.C,U9*%
X154880000Y-52585000D02*
X154880000Y-73145000D01*
X154880000Y-73145000D02*
X165160000Y-73145000D01*
X157370000Y-52645000D02*
X157370000Y-73085000D01*
X157370000Y-73085000D02*
X162670000Y-73085000D01*
X159020000Y-52645000D02*
X157370000Y-52645000D01*
X162670000Y-52645000D02*
X161020000Y-52645000D01*
X162670000Y-73085000D02*
X162670000Y-52645000D01*
X165160000Y-52585000D02*
X154880000Y-52585000D01*
X165160000Y-73145000D02*
X165160000Y-52585000D01*
X159020000Y-52645000D02*
G75*
G03*
X161020000Y-52645000I1000000J0D01*
G01*
%TO.C,U10*%
X124400000Y-77350000D02*
X124400000Y-108070000D01*
X124400000Y-108070000D02*
X142300000Y-108070000D01*
X126890000Y-77410000D02*
X126890000Y-108010000D01*
X126890000Y-108010000D02*
X139810000Y-108010000D01*
X132350000Y-77410000D02*
X126890000Y-77410000D01*
X139810000Y-77410000D02*
X134350000Y-77410000D01*
X139810000Y-108010000D02*
X139810000Y-77410000D01*
X142300000Y-77350000D02*
X124400000Y-77350000D01*
X142300000Y-108070000D02*
X142300000Y-77350000D01*
X132350000Y-77410000D02*
G75*
G03*
X134350000Y-77410000I1000000J0D01*
G01*
%TD*%
%LPC*%
D13*
%TO.C,U11*%
X148590000Y-78735000D03*
D14*
X148590000Y-81275000D03*
X148590000Y-83815000D03*
X148590000Y-86355000D03*
X148590000Y-88895000D03*
X148590000Y-91435000D03*
X148590000Y-93975000D03*
X148590000Y-96515000D03*
X148590000Y-99055000D03*
X148590000Y-101595000D03*
X148590000Y-104135000D03*
X148590000Y-106675000D03*
X163830000Y-106675000D03*
X163830000Y-104135000D03*
X163830000Y-101595000D03*
X163830000Y-99055000D03*
X163830000Y-96515000D03*
X163830000Y-93975000D03*
X163830000Y-91435000D03*
X163830000Y-88895000D03*
X163830000Y-86355000D03*
X163830000Y-83815000D03*
X163830000Y-81275000D03*
X163830000Y-78735000D03*
%TD*%
D13*
%TO.C,U1*%
X64770000Y-48895000D03*
D14*
X64770000Y-51435000D03*
X64770000Y-53975000D03*
X64770000Y-56515000D03*
X64770000Y-59055000D03*
X64770000Y-61595000D03*
X64770000Y-64135000D03*
X64770000Y-66675000D03*
X64770000Y-69215000D03*
X64770000Y-71755000D03*
X72390000Y-71755000D03*
X72390000Y-69215000D03*
X72390000Y-66675000D03*
X72390000Y-64135000D03*
X72390000Y-61595000D03*
X72390000Y-59055000D03*
X72390000Y-56515000D03*
X72390000Y-53975000D03*
X72390000Y-51435000D03*
X72390000Y-48895000D03*
%TD*%
D13*
%TO.C,U15*%
X99060000Y-83820000D03*
D14*
X99060000Y-86360000D03*
X99060000Y-88900000D03*
X99060000Y-91440000D03*
X99060000Y-93980000D03*
X99060000Y-96520000D03*
X99060000Y-99060000D03*
X99060000Y-101600000D03*
X99060000Y-104140000D03*
X99060000Y-106680000D03*
X106680000Y-106680000D03*
X106680000Y-104140000D03*
X106680000Y-101600000D03*
X106680000Y-99060000D03*
X106680000Y-96520000D03*
X106680000Y-93980000D03*
X106680000Y-91440000D03*
X106680000Y-88900000D03*
X106680000Y-86360000D03*
X106680000Y-83820000D03*
%TD*%
D13*
%TO.C,RN4*%
X163830000Y-114300000D03*
D14*
X161290000Y-114300000D03*
X158750000Y-114300000D03*
X156210000Y-114300000D03*
X153670000Y-114300000D03*
X151130000Y-114300000D03*
X148590000Y-114300000D03*
X146050000Y-114300000D03*
X143510000Y-114300000D03*
%TD*%
D15*
%TO.C,H1*%
X55035000Y-48210000D03*
%TD*%
D13*
%TO.C,U12*%
X64770000Y-83820000D03*
D14*
X64770000Y-86360000D03*
X64770000Y-88900000D03*
X64770000Y-91440000D03*
X64770000Y-93980000D03*
X64770000Y-96520000D03*
X64770000Y-99060000D03*
X64770000Y-101600000D03*
X64770000Y-104140000D03*
X64770000Y-106680000D03*
X72390000Y-106680000D03*
X72390000Y-104140000D03*
X72390000Y-101600000D03*
X72390000Y-99060000D03*
X72390000Y-96520000D03*
X72390000Y-93980000D03*
X72390000Y-91440000D03*
X72390000Y-88900000D03*
X72390000Y-86360000D03*
X72390000Y-83820000D03*
%TD*%
D13*
%TO.C,U6*%
X121920000Y-48895000D03*
D14*
X121920000Y-51435000D03*
X121920000Y-53975000D03*
X121920000Y-56515000D03*
X121920000Y-59055000D03*
X121920000Y-61595000D03*
X121920000Y-64135000D03*
X121920000Y-66675000D03*
X121920000Y-69215000D03*
X121920000Y-71755000D03*
X129540000Y-71755000D03*
X129540000Y-69215000D03*
X129540000Y-66675000D03*
X129540000Y-64135000D03*
X129540000Y-61595000D03*
X129540000Y-59055000D03*
X129540000Y-56515000D03*
X129540000Y-53975000D03*
X129540000Y-51435000D03*
X129540000Y-48895000D03*
%TD*%
D13*
%TO.C,U7*%
X133350000Y-48895000D03*
D14*
X133350000Y-51435000D03*
X133350000Y-53975000D03*
X133350000Y-56515000D03*
X133350000Y-59055000D03*
X133350000Y-61595000D03*
X133350000Y-64135000D03*
X133350000Y-66675000D03*
X133350000Y-69215000D03*
X133350000Y-71755000D03*
X140970000Y-71755000D03*
X140970000Y-69215000D03*
X140970000Y-66675000D03*
X140970000Y-64135000D03*
X140970000Y-61595000D03*
X140970000Y-59055000D03*
X140970000Y-56515000D03*
X140970000Y-53975000D03*
X140970000Y-51435000D03*
X140970000Y-48895000D03*
%TD*%
D16*
%TO.C,J1*%
X153035000Y-120015000D03*
D17*
X153035000Y-122555000D03*
X150495000Y-120015000D03*
X150495000Y-122555000D03*
X147955000Y-120015000D03*
X147955000Y-122555000D03*
X145415000Y-120015000D03*
X145415000Y-122555000D03*
X142875000Y-120015000D03*
X142875000Y-122555000D03*
X140335000Y-120015000D03*
X140335000Y-122555000D03*
X137795000Y-120015000D03*
X137795000Y-122555000D03*
X135255000Y-120015000D03*
X135255000Y-122555000D03*
X132715000Y-120015000D03*
X132715000Y-122555000D03*
X130175000Y-120015000D03*
X130175000Y-122555000D03*
X127635000Y-120015000D03*
X127635000Y-122555000D03*
X125095000Y-120015000D03*
X125095000Y-122555000D03*
X122555000Y-120015000D03*
X122555000Y-122555000D03*
X120015000Y-120015000D03*
X120015000Y-122555000D03*
X117475000Y-120015000D03*
X117475000Y-122555000D03*
X114935000Y-120015000D03*
X114935000Y-122555000D03*
X112395000Y-120015000D03*
X112395000Y-122555000D03*
X109855000Y-120015000D03*
X109855000Y-122555000D03*
X107315000Y-120015000D03*
X107315000Y-122555000D03*
X104775000Y-120015000D03*
X104775000Y-122555000D03*
X102235000Y-120015000D03*
X102235000Y-122555000D03*
X99695000Y-120015000D03*
X99695000Y-122555000D03*
X97155000Y-120015000D03*
X97155000Y-122555000D03*
X94615000Y-120015000D03*
X94615000Y-122555000D03*
X92075000Y-120015000D03*
X92075000Y-122555000D03*
X89535000Y-120015000D03*
X89535000Y-122555000D03*
X86995000Y-120015000D03*
X86995000Y-122555000D03*
X84455000Y-120015000D03*
X84455000Y-122555000D03*
X81915000Y-120015000D03*
X81915000Y-122555000D03*
X79375000Y-120015000D03*
X79375000Y-122555000D03*
X76835000Y-120015000D03*
X76835000Y-122555000D03*
X74295000Y-120015000D03*
X74295000Y-122555000D03*
%TD*%
D13*
%TO.C,U13*%
X76200000Y-83820000D03*
D14*
X76200000Y-86360000D03*
X76200000Y-88900000D03*
X76200000Y-91440000D03*
X76200000Y-93980000D03*
X76200000Y-96520000D03*
X76200000Y-99060000D03*
X76200000Y-101600000D03*
X76200000Y-104140000D03*
X76200000Y-106680000D03*
X83820000Y-106680000D03*
X83820000Y-104140000D03*
X83820000Y-101600000D03*
X83820000Y-99060000D03*
X83820000Y-96520000D03*
X83820000Y-93980000D03*
X83820000Y-91440000D03*
X83820000Y-88900000D03*
X83820000Y-86360000D03*
X83820000Y-83820000D03*
%TD*%
D13*
%TO.C,RN2*%
X60960000Y-105410000D03*
D14*
X60960000Y-102870000D03*
X60960000Y-100330000D03*
X60960000Y-97790000D03*
X60960000Y-95250000D03*
X60960000Y-92710000D03*
X60960000Y-90170000D03*
X60960000Y-87630000D03*
X60960000Y-85090000D03*
%TD*%
D13*
%TO.C,U4*%
X99060000Y-48895000D03*
D14*
X99060000Y-51435000D03*
X99060000Y-53975000D03*
X99060000Y-56515000D03*
X99060000Y-59055000D03*
X99060000Y-61595000D03*
X99060000Y-64135000D03*
X99060000Y-66675000D03*
X99060000Y-69215000D03*
X99060000Y-71755000D03*
X106680000Y-71755000D03*
X106680000Y-69215000D03*
X106680000Y-66675000D03*
X106680000Y-64135000D03*
X106680000Y-61595000D03*
X106680000Y-59055000D03*
X106680000Y-56515000D03*
X106680000Y-53975000D03*
X106680000Y-51435000D03*
X106680000Y-48895000D03*
%TD*%
D13*
%TO.C,U3*%
X87640000Y-48895000D03*
D14*
X87640000Y-51435000D03*
X87640000Y-53975000D03*
X87640000Y-56515000D03*
X87640000Y-59055000D03*
X87640000Y-61595000D03*
X87640000Y-64135000D03*
X87640000Y-66675000D03*
X87640000Y-69215000D03*
X87640000Y-71755000D03*
X95260000Y-71755000D03*
X95260000Y-69215000D03*
X95260000Y-66675000D03*
X95260000Y-64135000D03*
X95260000Y-61595000D03*
X95260000Y-59055000D03*
X95260000Y-56515000D03*
X95260000Y-53975000D03*
X95260000Y-51435000D03*
X95260000Y-48895000D03*
%TD*%
D13*
%TO.C,U5*%
X110490000Y-48895000D03*
D14*
X110490000Y-51435000D03*
X110490000Y-53975000D03*
X110490000Y-56515000D03*
X110490000Y-59055000D03*
X110490000Y-61595000D03*
X110490000Y-64135000D03*
X110490000Y-66675000D03*
X110490000Y-69215000D03*
X110490000Y-71755000D03*
X118110000Y-71755000D03*
X118110000Y-69215000D03*
X118110000Y-66675000D03*
X118110000Y-64135000D03*
X118110000Y-61595000D03*
X118110000Y-59055000D03*
X118110000Y-56515000D03*
X118110000Y-53975000D03*
X118110000Y-51435000D03*
X118110000Y-48895000D03*
%TD*%
D13*
%TO.C,U16*%
X110490000Y-83820000D03*
D14*
X110490000Y-86360000D03*
X110490000Y-88900000D03*
X110490000Y-91440000D03*
X110490000Y-93980000D03*
X110490000Y-96520000D03*
X110490000Y-99060000D03*
X110490000Y-101600000D03*
X110490000Y-104140000D03*
X110490000Y-106680000D03*
X118110000Y-106680000D03*
X118110000Y-104140000D03*
X118110000Y-101600000D03*
X118110000Y-99060000D03*
X118110000Y-96520000D03*
X118110000Y-93980000D03*
X118110000Y-91440000D03*
X118110000Y-88900000D03*
X118110000Y-86360000D03*
X118110000Y-83820000D03*
%TD*%
D13*
%TO.C,U14*%
X87630000Y-83820000D03*
D14*
X87630000Y-86360000D03*
X87630000Y-88900000D03*
X87630000Y-91440000D03*
X87630000Y-93980000D03*
X87630000Y-96520000D03*
X87630000Y-99060000D03*
X87630000Y-101600000D03*
X87630000Y-104140000D03*
X87630000Y-106680000D03*
X95250000Y-106680000D03*
X95250000Y-104140000D03*
X95250000Y-101600000D03*
X95250000Y-99060000D03*
X95250000Y-96520000D03*
X95250000Y-93980000D03*
X95250000Y-91440000D03*
X95250000Y-88900000D03*
X95250000Y-86360000D03*
X95250000Y-83820000D03*
%TD*%
D13*
%TO.C,U8*%
X144780000Y-48895000D03*
D14*
X144780000Y-51435000D03*
X144780000Y-53975000D03*
X144780000Y-56515000D03*
X144780000Y-59055000D03*
X144780000Y-61595000D03*
X144780000Y-64135000D03*
X144780000Y-66675000D03*
X144780000Y-69215000D03*
X144780000Y-71755000D03*
X152400000Y-71755000D03*
X152400000Y-69215000D03*
X152400000Y-66675000D03*
X152400000Y-64135000D03*
X152400000Y-61595000D03*
X152400000Y-59055000D03*
X152400000Y-56515000D03*
X152400000Y-53975000D03*
X152400000Y-51435000D03*
X152400000Y-48895000D03*
%TD*%
D15*
%TO.C,H4*%
X171035000Y-123210000D03*
%TD*%
D13*
%TO.C,RN3*%
X163830000Y-110490000D03*
D14*
X161290000Y-110490000D03*
X158750000Y-110490000D03*
X156210000Y-110490000D03*
X153670000Y-110490000D03*
X151130000Y-110490000D03*
X148590000Y-110490000D03*
X146050000Y-110490000D03*
X143510000Y-110490000D03*
%TD*%
D15*
%TO.C,H3*%
X55035000Y-123210000D03*
%TD*%
D13*
%TO.C,RN1*%
X60960000Y-70485000D03*
D14*
X60960000Y-67945000D03*
X60960000Y-65405000D03*
X60960000Y-62865000D03*
X60960000Y-60325000D03*
X60960000Y-57785000D03*
X60960000Y-55245000D03*
X60960000Y-52705000D03*
X60960000Y-50165000D03*
%TD*%
D13*
%TO.C,U2*%
X76210000Y-48895000D03*
D14*
X76210000Y-51435000D03*
X76210000Y-53975000D03*
X76210000Y-56515000D03*
X76210000Y-59055000D03*
X76210000Y-61595000D03*
X76210000Y-64135000D03*
X76210000Y-66675000D03*
X76210000Y-69215000D03*
X76210000Y-71755000D03*
X83830000Y-71755000D03*
X83830000Y-69215000D03*
X83830000Y-66675000D03*
X83830000Y-64135000D03*
X83830000Y-61595000D03*
X83830000Y-59055000D03*
X83830000Y-56515000D03*
X83830000Y-53975000D03*
X83830000Y-51435000D03*
X83830000Y-48895000D03*
%TD*%
D13*
%TO.C,U9*%
X156210000Y-53975000D03*
D14*
X156210000Y-56515000D03*
X156210000Y-59055000D03*
X156210000Y-61595000D03*
X156210000Y-64135000D03*
X156210000Y-66675000D03*
X156210000Y-69215000D03*
X156210000Y-71755000D03*
X163830000Y-71755000D03*
X163830000Y-69215000D03*
X163830000Y-66675000D03*
X163830000Y-64135000D03*
X163830000Y-61595000D03*
X163830000Y-59055000D03*
X163830000Y-56515000D03*
X163830000Y-53975000D03*
%TD*%
D13*
%TO.C,U10*%
X125730000Y-78740000D03*
D14*
X125730000Y-81280000D03*
X125730000Y-83820000D03*
X125730000Y-86360000D03*
X125730000Y-88900000D03*
X125730000Y-91440000D03*
X125730000Y-93980000D03*
X125730000Y-96520000D03*
X125730000Y-99060000D03*
X125730000Y-101600000D03*
X125730000Y-104140000D03*
X125730000Y-106680000D03*
X140970000Y-106680000D03*
X140970000Y-104140000D03*
X140970000Y-101600000D03*
X140970000Y-99060000D03*
X140970000Y-96520000D03*
X140970000Y-93980000D03*
X140970000Y-91440000D03*
X140970000Y-88900000D03*
X140970000Y-86360000D03*
X140970000Y-83820000D03*
X140970000Y-81280000D03*
X140970000Y-78740000D03*
%TD*%
D15*
%TO.C,H2*%
X171035000Y-48210000D03*
%TD*%
M02*
