M48
; DRILL file {KiCad 7.0.1} date Fri Aug 25 15:18:18 2023
; FORMAT={-:-/ absolute / inch / decimal}
; #@! TF.CreationDate,2023-08-25T15:18:18+01:00
; #@! TF.GenerationSoftware,Kicad,Pcbnew,7.0.1
; #@! TF.FileFunction,Plated,1,2,PTH
FMAT,2
INCH
; #@! TA.AperFunction,Plated,PTH,ViaDrill
T1C0.0157
; #@! TA.AperFunction,Plated,PTH,ComponentDrill
T2C0.0315
; #@! TA.AperFunction,Plated,PTH,ComponentDrill
T3C0.0394
%
G90
G05
T1
X2.088Y-2.53
X2.088Y-3.3941
X2.088Y-4.4571
X2.2848Y-4.024
X2.325Y-2.13
X2.345Y-2.97
X2.385Y-4.39
X2.445Y-3.27
X2.4817Y-4.6539
X2.545Y-4.39
X2.55Y-3.2
X2.585Y-1.79
X2.625Y-2.175
X2.625Y-2.275
X2.645Y-1.97
X2.75Y-2.275
X2.765Y-1.87
X2.785Y-4.95
X2.825Y-2.93
X2.985Y-3.17
X3.0Y-4.3
X3.065Y-1.79
X3.285Y-3.13
X3.325Y-2.93
X3.375Y-4.2
X3.385Y-4.91
X3.425Y-3.15
X3.45Y-2.9
X3.45Y-2.95
X3.45Y-3.0
X3.45Y-3.05
X3.545Y-1.91
X3.575Y-4.225
X3.6465Y-3.175
X3.65Y-3.025
X3.65Y-3.075
X3.65Y-3.125
X3.665Y-1.93
X3.665Y-2.83
X3.775Y-3.05
X3.775Y-4.3
X3.785Y-4.97
X3.9Y-4.275
X3.925Y-2.9
X3.925Y-2.95
X3.925Y-3.0
X3.925Y-3.05
X4.045Y-4.23
X4.05Y-3.025
X4.05Y-3.075
X4.05Y-3.125
X4.05Y-3.175
X4.05Y-3.5
X4.05Y-3.6
X4.145Y-4.45
X4.275Y-3.3
X4.275Y-3.55
X4.325Y-4.35
X4.345Y-4.91
X4.35Y-3.025
X4.425Y-3.325
X4.45Y-3.7
X4.475Y-3.325
X4.5Y-3.575
X4.525Y-4.59
X4.55Y-2.675
X4.55Y-3.35
X4.55Y-3.45
X4.5736Y-2.9201
X4.625Y-2.95
X4.675Y-2.9535
X4.675Y-3.0
X4.7285Y-3.275
X4.7812Y-3.4688
X4.7844Y-3.6059
X4.785Y-4.23
X4.7875Y-3.2125
X4.8Y-3.15
X4.825Y-4.47
X4.85Y-3.75
X4.85Y-3.9
X4.85Y-4.0
X4.8715Y-3.325
X4.9Y-3.45
X4.9Y-3.65
X4.9Y-4.15
X4.95Y-2.375
X5.025Y-2.9465
X5.045Y-4.97
X5.075Y-2.95
X5.075Y-3.15
X5.118Y-2.925
X5.1215Y-3.175
X5.125Y-3.05
X5.1465Y-2.975
X5.1875Y-3.1625
X5.275Y-3.075
X5.275Y-3.2
X5.305Y-4.21
X5.305Y-4.57
X5.325Y-4.05
X5.4Y-3.2
X5.425Y-3.85
X5.4465Y-3.3
X5.4465Y-3.5
X5.585Y-4.91
X5.6Y-2.9
X5.605Y-4.27
X5.605Y-4.43
X5.685Y-1.79
X5.7Y-3.85
X5.725Y-4.15
X5.75Y-3.95
X5.775Y-2.125
X5.775Y-2.45
X5.8Y-2.025
X5.85Y-2.225
X5.85Y-2.9084
X5.875Y-2.525
X5.9Y-2.825
X5.905Y-3.85
X5.975Y-4.875
X6.075Y-1.85
X6.1Y-3.25
X6.125Y-2.03
X6.125Y-3.2998
X6.125Y-4.775
X6.15Y-3.45
X6.175Y-3.4998
X6.2Y-3.75
X6.225Y-2.125
X6.25Y-4.725
X6.275Y-2.125
X6.275Y-2.425
X6.275Y-3.05
X6.275Y-4.15
X6.275Y-4.97
X6.3Y-2.525
X6.3Y-2.925
X6.375Y-2.425
X6.385Y-3.75
X6.4Y-2.925
X6.475Y-3.0
X6.4974Y-1.8193
X6.525Y-4.725
X6.605Y-2.09
X6.7337Y-2.7248
X6.7337Y-3.9453
X6.8518Y-2.2524
X6.8518Y-3.4335
X6.8518Y-4.4571
T2
X2.4Y-1.975
X2.4Y-2.075
X2.4Y-2.175
X2.4Y-2.275
X2.4Y-2.375
X2.4Y-2.475
X2.4Y-2.575
X2.4Y-2.675
X2.4Y-2.775
X2.4Y-3.35
X2.4Y-3.45
X2.4Y-3.55
X2.4Y-3.65
X2.4Y-3.75
X2.4Y-3.85
X2.4Y-3.95
X2.4Y-4.05
X2.4Y-4.15
X2.55Y-1.925
X2.55Y-2.025
X2.55Y-2.125
X2.55Y-2.225
X2.55Y-2.325
X2.55Y-2.425
X2.55Y-2.525
X2.55Y-2.625
X2.55Y-2.725
X2.55Y-2.825
X2.55Y-3.3
X2.55Y-3.4
X2.55Y-3.5
X2.55Y-3.6
X2.55Y-3.7
X2.55Y-3.8
X2.55Y-3.9
X2.55Y-4.0
X2.55Y-4.1
X2.55Y-4.2
X2.85Y-1.925
X2.85Y-2.025
X2.85Y-2.125
X2.85Y-2.225
X2.85Y-2.325
X2.85Y-2.425
X2.85Y-2.525
X2.85Y-2.625
X2.85Y-2.725
X2.85Y-2.825
X2.85Y-3.3
X2.85Y-3.4
X2.85Y-3.5
X2.85Y-3.6
X2.85Y-3.7
X2.85Y-3.8
X2.85Y-3.9
X2.85Y-4.0
X2.85Y-4.1
X2.85Y-4.2
X3.0Y-3.3
X3.0Y-3.4
X3.0Y-3.5
X3.0Y-3.6
X3.0Y-3.7
X3.0Y-3.8
X3.0Y-3.9
X3.0Y-4.0
X3.0Y-4.1
X3.0Y-4.2
X3.0004Y-1.925
X3.0004Y-2.025
X3.0004Y-2.125
X3.0004Y-2.225
X3.0004Y-2.325
X3.0004Y-2.425
X3.0004Y-2.525
X3.0004Y-2.625
X3.0004Y-2.725
X3.0004Y-2.825
X3.3Y-3.3
X3.3Y-3.4
X3.3Y-3.5
X3.3Y-3.6
X3.3Y-3.7
X3.3Y-3.8
X3.3Y-3.9
X3.3Y-4.0
X3.3Y-4.1
X3.3Y-4.2
X3.3004Y-1.925
X3.3004Y-2.025
X3.3004Y-2.125
X3.3004Y-2.225
X3.3004Y-2.325
X3.3004Y-2.425
X3.3004Y-2.525
X3.3004Y-2.625
X3.3004Y-2.725
X3.3004Y-2.825
X3.45Y-3.3
X3.45Y-3.4
X3.45Y-3.5
X3.45Y-3.6
X3.45Y-3.7
X3.45Y-3.8
X3.45Y-3.9
X3.45Y-4.0
X3.45Y-4.1
X3.45Y-4.2
X3.4504Y-1.925
X3.4504Y-2.025
X3.4504Y-2.125
X3.4504Y-2.225
X3.4504Y-2.325
X3.4504Y-2.425
X3.4504Y-2.525
X3.4504Y-2.625
X3.4504Y-2.725
X3.4504Y-2.825
X3.75Y-3.3
X3.75Y-3.4
X3.75Y-3.5
X3.75Y-3.6
X3.75Y-3.7
X3.75Y-3.8
X3.75Y-3.9
X3.75Y-4.0
X3.75Y-4.1
X3.75Y-4.2
X3.7504Y-1.925
X3.7504Y-2.025
X3.7504Y-2.125
X3.7504Y-2.225
X3.7504Y-2.325
X3.7504Y-2.425
X3.7504Y-2.525
X3.7504Y-2.625
X3.7504Y-2.725
X3.7504Y-2.825
X3.9Y-1.925
X3.9Y-2.025
X3.9Y-2.125
X3.9Y-2.225
X3.9Y-2.325
X3.9Y-2.425
X3.9Y-2.525
X3.9Y-2.625
X3.9Y-2.725
X3.9Y-2.825
X3.9Y-3.3
X3.9Y-3.4
X3.9Y-3.5
X3.9Y-3.6
X3.9Y-3.7
X3.9Y-3.8
X3.9Y-3.9
X3.9Y-4.0
X3.9Y-4.1
X3.9Y-4.2
X4.2Y-1.925
X4.2Y-2.025
X4.2Y-2.125
X4.2Y-2.225
X4.2Y-2.325
X4.2Y-2.425
X4.2Y-2.525
X4.2Y-2.625
X4.2Y-2.725
X4.2Y-2.825
X4.2Y-3.3
X4.2Y-3.4
X4.2Y-3.5
X4.2Y-3.6
X4.2Y-3.7
X4.2Y-3.8
X4.2Y-3.9
X4.2Y-4.0
X4.2Y-4.1
X4.2Y-4.2
X4.35Y-1.925
X4.35Y-2.025
X4.35Y-2.125
X4.35Y-2.225
X4.35Y-2.325
X4.35Y-2.425
X4.35Y-2.525
X4.35Y-2.625
X4.35Y-2.725
X4.35Y-2.825
X4.35Y-3.3
X4.35Y-3.4
X4.35Y-3.5
X4.35Y-3.6
X4.35Y-3.7
X4.35Y-3.8
X4.35Y-3.9
X4.35Y-4.0
X4.35Y-4.1
X4.35Y-4.2
X4.65Y-1.925
X4.65Y-2.025
X4.65Y-2.125
X4.65Y-2.225
X4.65Y-2.325
X4.65Y-2.425
X4.65Y-2.525
X4.65Y-2.625
X4.65Y-2.725
X4.65Y-2.825
X4.65Y-3.3
X4.65Y-3.4
X4.65Y-3.5
X4.65Y-3.6
X4.65Y-3.7
X4.65Y-3.8
X4.65Y-3.9
X4.65Y-4.0
X4.65Y-4.1
X4.65Y-4.2
X4.8Y-1.925
X4.8Y-2.025
X4.8Y-2.125
X4.8Y-2.225
X4.8Y-2.325
X4.8Y-2.425
X4.8Y-2.525
X4.8Y-2.625
X4.8Y-2.725
X4.8Y-2.825
X4.95Y-3.1
X4.95Y-3.2
X4.95Y-3.3
X4.95Y-3.4
X4.95Y-3.5
X4.95Y-3.6
X4.95Y-3.7
X4.95Y-3.8
X4.95Y-3.9
X4.95Y-4.0
X4.95Y-4.1
X4.95Y-4.2
X5.1Y-1.925
X5.1Y-2.025
X5.1Y-2.125
X5.1Y-2.225
X5.1Y-2.325
X5.1Y-2.425
X5.1Y-2.525
X5.1Y-2.625
X5.1Y-2.725
X5.1Y-2.825
X5.25Y-1.925
X5.25Y-2.025
X5.25Y-2.125
X5.25Y-2.225
X5.25Y-2.325
X5.25Y-2.425
X5.25Y-2.525
X5.25Y-2.625
X5.25Y-2.725
X5.25Y-2.825
X5.55Y-1.925
X5.55Y-2.025
X5.55Y-2.125
X5.55Y-2.225
X5.55Y-2.325
X5.55Y-2.425
X5.55Y-2.525
X5.55Y-2.625
X5.55Y-2.725
X5.55Y-2.825
X5.55Y-3.1
X5.55Y-3.2
X5.55Y-3.3
X5.55Y-3.4
X5.55Y-3.5
X5.55Y-3.6
X5.55Y-3.7
X5.55Y-3.8
X5.55Y-3.9
X5.55Y-4.0
X5.55Y-4.1
X5.55Y-4.2
X5.65Y-4.35
X5.65Y-4.5
X5.7Y-1.925
X5.7Y-2.025
X5.7Y-2.125
X5.7Y-2.225
X5.7Y-2.325
X5.7Y-2.425
X5.7Y-2.525
X5.7Y-2.625
X5.7Y-2.725
X5.7Y-2.825
X5.75Y-4.35
X5.75Y-4.5
X5.85Y-3.0998
X5.85Y-3.1998
X5.85Y-3.2998
X5.85Y-3.3998
X5.85Y-3.4998
X5.85Y-3.5998
X5.85Y-3.6998
X5.85Y-3.7998
X5.85Y-3.8998
X5.85Y-3.9998
X5.85Y-4.0998
X5.85Y-4.1998
X5.85Y-4.35
X5.85Y-4.5
X5.95Y-4.35
X5.95Y-4.5
X6.0Y-1.925
X6.0Y-2.025
X6.0Y-2.125
X6.0Y-2.225
X6.0Y-2.325
X6.0Y-2.425
X6.0Y-2.525
X6.0Y-2.625
X6.0Y-2.725
X6.0Y-2.825
X6.05Y-4.35
X6.05Y-4.5
X6.15Y-2.125
X6.15Y-2.225
X6.15Y-2.325
X6.15Y-2.425
X6.15Y-2.525
X6.15Y-2.625
X6.15Y-2.725
X6.15Y-2.825
X6.15Y-4.35
X6.15Y-4.5
X6.25Y-4.35
X6.25Y-4.5
X6.35Y-4.35
X6.35Y-4.5
X6.45Y-2.125
X6.45Y-2.225
X6.45Y-2.325
X6.45Y-2.425
X6.45Y-2.525
X6.45Y-2.625
X6.45Y-2.725
X6.45Y-2.825
X6.45Y-3.0998
X6.45Y-3.1998
X6.45Y-3.2998
X6.45Y-3.3998
X6.45Y-3.4998
X6.45Y-3.5998
X6.45Y-3.6998
X6.45Y-3.7998
X6.45Y-3.8998
X6.45Y-3.9998
X6.45Y-4.0998
X6.45Y-4.1998
X6.45Y-4.35
X6.45Y-4.5
T3
X2.925Y-4.725
X2.925Y-4.825
X3.025Y-4.725
X3.025Y-4.825
X3.125Y-4.725
X3.125Y-4.825
X3.225Y-4.725
X3.225Y-4.825
X3.325Y-4.725
X3.325Y-4.825
X3.425Y-4.725
X3.425Y-4.825
X3.525Y-4.725
X3.525Y-4.825
X3.625Y-4.725
X3.625Y-4.825
X3.725Y-4.725
X3.725Y-4.825
X3.825Y-4.725
X3.825Y-4.825
X3.925Y-4.725
X3.925Y-4.825
X4.025Y-4.725
X4.025Y-4.825
X4.125Y-4.725
X4.125Y-4.825
X4.225Y-4.725
X4.225Y-4.825
X4.325Y-4.725
X4.325Y-4.825
X4.425Y-4.725
X4.425Y-4.825
X4.525Y-4.725
X4.525Y-4.825
X4.625Y-4.725
X4.625Y-4.825
X4.725Y-4.725
X4.725Y-4.825
X4.825Y-4.725
X4.825Y-4.825
X4.925Y-4.725
X4.925Y-4.825
X5.025Y-4.725
X5.025Y-4.825
X5.125Y-4.725
X5.125Y-4.825
X5.225Y-4.725
X5.225Y-4.825
X5.325Y-4.725
X5.325Y-4.825
X5.425Y-4.725
X5.425Y-4.825
X5.525Y-4.725
X5.525Y-4.825
X5.625Y-4.725
X5.625Y-4.825
X5.725Y-4.725
X5.725Y-4.825
X5.825Y-4.725
X5.825Y-4.825
X5.925Y-4.725
X5.925Y-4.825
X6.025Y-4.725
X6.025Y-4.825
T0
M30
