%TF.GenerationSoftware,KiCad,Pcbnew,7.0.1*%
%TF.CreationDate,2023-08-25T15:18:18+01:00*%
%TF.ProjectId,Register_board,52656769-7374-4657-925f-626f6172642e,rev?*%
%TF.SameCoordinates,Original*%
%TF.FileFunction,Legend,Bot*%
%TF.FilePolarity,Positive*%
%FSLAX46Y46*%
G04 Gerber Fmt 4.6, Leading zero omitted, Abs format (unit mm)*
G04 Created by KiCad (PCBNEW 7.0.1) date 2023-08-25 15:18:18*
%MOMM*%
%LPD*%
G01*
G04 APERTURE LIST*
G04 Aperture macros list*
%AMRoundRect*
0 Rectangle with rounded corners*
0 $1 Rounding radius*
0 $2 $3 $4 $5 $6 $7 $8 $9 X,Y pos of 4 corners*
0 Add a 4 corners polygon primitive as box body*
4,1,4,$2,$3,$4,$5,$6,$7,$8,$9,$2,$3,0*
0 Add four circle primitives for the rounded corners*
1,1,$1+$1,$2,$3*
1,1,$1+$1,$4,$5*
1,1,$1+$1,$6,$7*
1,1,$1+$1,$8,$9*
0 Add four rect primitives between the rounded corners*
20,1,$1+$1,$2,$3,$4,$5,0*
20,1,$1+$1,$4,$5,$6,$7,0*
20,1,$1+$1,$6,$7,$8,$9,0*
20,1,$1+$1,$8,$9,$2,$3,0*%
G04 Aperture macros list end*
%ADD10R,1.600000X1.600000*%
%ADD11O,1.600000X1.600000*%
%ADD12C,3.500000*%
%ADD13RoundRect,0.250000X-0.600000X0.600000X-0.600000X-0.600000X0.600000X-0.600000X0.600000X0.600000X0*%
%ADD14C,1.700000*%
G04 APERTURE END LIST*
%LPC*%
D10*
%TO.C,U11*%
X148590000Y-78735000D03*
D11*
X148590000Y-81275000D03*
X148590000Y-83815000D03*
X148590000Y-86355000D03*
X148590000Y-88895000D03*
X148590000Y-91435000D03*
X148590000Y-93975000D03*
X148590000Y-96515000D03*
X148590000Y-99055000D03*
X148590000Y-101595000D03*
X148590000Y-104135000D03*
X148590000Y-106675000D03*
X163830000Y-106675000D03*
X163830000Y-104135000D03*
X163830000Y-101595000D03*
X163830000Y-99055000D03*
X163830000Y-96515000D03*
X163830000Y-93975000D03*
X163830000Y-91435000D03*
X163830000Y-88895000D03*
X163830000Y-86355000D03*
X163830000Y-83815000D03*
X163830000Y-81275000D03*
X163830000Y-78735000D03*
%TD*%
D10*
%TO.C,U1*%
X64770000Y-48895000D03*
D11*
X64770000Y-51435000D03*
X64770000Y-53975000D03*
X64770000Y-56515000D03*
X64770000Y-59055000D03*
X64770000Y-61595000D03*
X64770000Y-64135000D03*
X64770000Y-66675000D03*
X64770000Y-69215000D03*
X64770000Y-71755000D03*
X72390000Y-71755000D03*
X72390000Y-69215000D03*
X72390000Y-66675000D03*
X72390000Y-64135000D03*
X72390000Y-61595000D03*
X72390000Y-59055000D03*
X72390000Y-56515000D03*
X72390000Y-53975000D03*
X72390000Y-51435000D03*
X72390000Y-48895000D03*
%TD*%
D10*
%TO.C,U15*%
X99060000Y-83820000D03*
D11*
X99060000Y-86360000D03*
X99060000Y-88900000D03*
X99060000Y-91440000D03*
X99060000Y-93980000D03*
X99060000Y-96520000D03*
X99060000Y-99060000D03*
X99060000Y-101600000D03*
X99060000Y-104140000D03*
X99060000Y-106680000D03*
X106680000Y-106680000D03*
X106680000Y-104140000D03*
X106680000Y-101600000D03*
X106680000Y-99060000D03*
X106680000Y-96520000D03*
X106680000Y-93980000D03*
X106680000Y-91440000D03*
X106680000Y-88900000D03*
X106680000Y-86360000D03*
X106680000Y-83820000D03*
%TD*%
D10*
%TO.C,RN4*%
X163830000Y-114300000D03*
D11*
X161290000Y-114300000D03*
X158750000Y-114300000D03*
X156210000Y-114300000D03*
X153670000Y-114300000D03*
X151130000Y-114300000D03*
X148590000Y-114300000D03*
X146050000Y-114300000D03*
X143510000Y-114300000D03*
%TD*%
D12*
%TO.C,H1*%
X55035000Y-48210000D03*
%TD*%
D10*
%TO.C,U12*%
X64770000Y-83820000D03*
D11*
X64770000Y-86360000D03*
X64770000Y-88900000D03*
X64770000Y-91440000D03*
X64770000Y-93980000D03*
X64770000Y-96520000D03*
X64770000Y-99060000D03*
X64770000Y-101600000D03*
X64770000Y-104140000D03*
X64770000Y-106680000D03*
X72390000Y-106680000D03*
X72390000Y-104140000D03*
X72390000Y-101600000D03*
X72390000Y-99060000D03*
X72390000Y-96520000D03*
X72390000Y-93980000D03*
X72390000Y-91440000D03*
X72390000Y-88900000D03*
X72390000Y-86360000D03*
X72390000Y-83820000D03*
%TD*%
D10*
%TO.C,U6*%
X121920000Y-48895000D03*
D11*
X121920000Y-51435000D03*
X121920000Y-53975000D03*
X121920000Y-56515000D03*
X121920000Y-59055000D03*
X121920000Y-61595000D03*
X121920000Y-64135000D03*
X121920000Y-66675000D03*
X121920000Y-69215000D03*
X121920000Y-71755000D03*
X129540000Y-71755000D03*
X129540000Y-69215000D03*
X129540000Y-66675000D03*
X129540000Y-64135000D03*
X129540000Y-61595000D03*
X129540000Y-59055000D03*
X129540000Y-56515000D03*
X129540000Y-53975000D03*
X129540000Y-51435000D03*
X129540000Y-48895000D03*
%TD*%
D10*
%TO.C,U7*%
X133350000Y-48895000D03*
D11*
X133350000Y-51435000D03*
X133350000Y-53975000D03*
X133350000Y-56515000D03*
X133350000Y-59055000D03*
X133350000Y-61595000D03*
X133350000Y-64135000D03*
X133350000Y-66675000D03*
X133350000Y-69215000D03*
X133350000Y-71755000D03*
X140970000Y-71755000D03*
X140970000Y-69215000D03*
X140970000Y-66675000D03*
X140970000Y-64135000D03*
X140970000Y-61595000D03*
X140970000Y-59055000D03*
X140970000Y-56515000D03*
X140970000Y-53975000D03*
X140970000Y-51435000D03*
X140970000Y-48895000D03*
%TD*%
D13*
%TO.C,J1*%
X153035000Y-120015000D03*
D14*
X153035000Y-122555000D03*
X150495000Y-120015000D03*
X150495000Y-122555000D03*
X147955000Y-120015000D03*
X147955000Y-122555000D03*
X145415000Y-120015000D03*
X145415000Y-122555000D03*
X142875000Y-120015000D03*
X142875000Y-122555000D03*
X140335000Y-120015000D03*
X140335000Y-122555000D03*
X137795000Y-120015000D03*
X137795000Y-122555000D03*
X135255000Y-120015000D03*
X135255000Y-122555000D03*
X132715000Y-120015000D03*
X132715000Y-122555000D03*
X130175000Y-120015000D03*
X130175000Y-122555000D03*
X127635000Y-120015000D03*
X127635000Y-122555000D03*
X125095000Y-120015000D03*
X125095000Y-122555000D03*
X122555000Y-120015000D03*
X122555000Y-122555000D03*
X120015000Y-120015000D03*
X120015000Y-122555000D03*
X117475000Y-120015000D03*
X117475000Y-122555000D03*
X114935000Y-120015000D03*
X114935000Y-122555000D03*
X112395000Y-120015000D03*
X112395000Y-122555000D03*
X109855000Y-120015000D03*
X109855000Y-122555000D03*
X107315000Y-120015000D03*
X107315000Y-122555000D03*
X104775000Y-120015000D03*
X104775000Y-122555000D03*
X102235000Y-120015000D03*
X102235000Y-122555000D03*
X99695000Y-120015000D03*
X99695000Y-122555000D03*
X97155000Y-120015000D03*
X97155000Y-122555000D03*
X94615000Y-120015000D03*
X94615000Y-122555000D03*
X92075000Y-120015000D03*
X92075000Y-122555000D03*
X89535000Y-120015000D03*
X89535000Y-122555000D03*
X86995000Y-120015000D03*
X86995000Y-122555000D03*
X84455000Y-120015000D03*
X84455000Y-122555000D03*
X81915000Y-120015000D03*
X81915000Y-122555000D03*
X79375000Y-120015000D03*
X79375000Y-122555000D03*
X76835000Y-120015000D03*
X76835000Y-122555000D03*
X74295000Y-120015000D03*
X74295000Y-122555000D03*
%TD*%
D10*
%TO.C,U13*%
X76200000Y-83820000D03*
D11*
X76200000Y-86360000D03*
X76200000Y-88900000D03*
X76200000Y-91440000D03*
X76200000Y-93980000D03*
X76200000Y-96520000D03*
X76200000Y-99060000D03*
X76200000Y-101600000D03*
X76200000Y-104140000D03*
X76200000Y-106680000D03*
X83820000Y-106680000D03*
X83820000Y-104140000D03*
X83820000Y-101600000D03*
X83820000Y-99060000D03*
X83820000Y-96520000D03*
X83820000Y-93980000D03*
X83820000Y-91440000D03*
X83820000Y-88900000D03*
X83820000Y-86360000D03*
X83820000Y-83820000D03*
%TD*%
D10*
%TO.C,RN2*%
X60960000Y-105410000D03*
D11*
X60960000Y-102870000D03*
X60960000Y-100330000D03*
X60960000Y-97790000D03*
X60960000Y-95250000D03*
X60960000Y-92710000D03*
X60960000Y-90170000D03*
X60960000Y-87630000D03*
X60960000Y-85090000D03*
%TD*%
D10*
%TO.C,U4*%
X99060000Y-48895000D03*
D11*
X99060000Y-51435000D03*
X99060000Y-53975000D03*
X99060000Y-56515000D03*
X99060000Y-59055000D03*
X99060000Y-61595000D03*
X99060000Y-64135000D03*
X99060000Y-66675000D03*
X99060000Y-69215000D03*
X99060000Y-71755000D03*
X106680000Y-71755000D03*
X106680000Y-69215000D03*
X106680000Y-66675000D03*
X106680000Y-64135000D03*
X106680000Y-61595000D03*
X106680000Y-59055000D03*
X106680000Y-56515000D03*
X106680000Y-53975000D03*
X106680000Y-51435000D03*
X106680000Y-48895000D03*
%TD*%
D10*
%TO.C,U3*%
X87640000Y-48895000D03*
D11*
X87640000Y-51435000D03*
X87640000Y-53975000D03*
X87640000Y-56515000D03*
X87640000Y-59055000D03*
X87640000Y-61595000D03*
X87640000Y-64135000D03*
X87640000Y-66675000D03*
X87640000Y-69215000D03*
X87640000Y-71755000D03*
X95260000Y-71755000D03*
X95260000Y-69215000D03*
X95260000Y-66675000D03*
X95260000Y-64135000D03*
X95260000Y-61595000D03*
X95260000Y-59055000D03*
X95260000Y-56515000D03*
X95260000Y-53975000D03*
X95260000Y-51435000D03*
X95260000Y-48895000D03*
%TD*%
D10*
%TO.C,U5*%
X110490000Y-48895000D03*
D11*
X110490000Y-51435000D03*
X110490000Y-53975000D03*
X110490000Y-56515000D03*
X110490000Y-59055000D03*
X110490000Y-61595000D03*
X110490000Y-64135000D03*
X110490000Y-66675000D03*
X110490000Y-69215000D03*
X110490000Y-71755000D03*
X118110000Y-71755000D03*
X118110000Y-69215000D03*
X118110000Y-66675000D03*
X118110000Y-64135000D03*
X118110000Y-61595000D03*
X118110000Y-59055000D03*
X118110000Y-56515000D03*
X118110000Y-53975000D03*
X118110000Y-51435000D03*
X118110000Y-48895000D03*
%TD*%
D10*
%TO.C,U16*%
X110490000Y-83820000D03*
D11*
X110490000Y-86360000D03*
X110490000Y-88900000D03*
X110490000Y-91440000D03*
X110490000Y-93980000D03*
X110490000Y-96520000D03*
X110490000Y-99060000D03*
X110490000Y-101600000D03*
X110490000Y-104140000D03*
X110490000Y-106680000D03*
X118110000Y-106680000D03*
X118110000Y-104140000D03*
X118110000Y-101600000D03*
X118110000Y-99060000D03*
X118110000Y-96520000D03*
X118110000Y-93980000D03*
X118110000Y-91440000D03*
X118110000Y-88900000D03*
X118110000Y-86360000D03*
X118110000Y-83820000D03*
%TD*%
D10*
%TO.C,U14*%
X87630000Y-83820000D03*
D11*
X87630000Y-86360000D03*
X87630000Y-88900000D03*
X87630000Y-91440000D03*
X87630000Y-93980000D03*
X87630000Y-96520000D03*
X87630000Y-99060000D03*
X87630000Y-101600000D03*
X87630000Y-104140000D03*
X87630000Y-106680000D03*
X95250000Y-106680000D03*
X95250000Y-104140000D03*
X95250000Y-101600000D03*
X95250000Y-99060000D03*
X95250000Y-96520000D03*
X95250000Y-93980000D03*
X95250000Y-91440000D03*
X95250000Y-88900000D03*
X95250000Y-86360000D03*
X95250000Y-83820000D03*
%TD*%
D10*
%TO.C,U8*%
X144780000Y-48895000D03*
D11*
X144780000Y-51435000D03*
X144780000Y-53975000D03*
X144780000Y-56515000D03*
X144780000Y-59055000D03*
X144780000Y-61595000D03*
X144780000Y-64135000D03*
X144780000Y-66675000D03*
X144780000Y-69215000D03*
X144780000Y-71755000D03*
X152400000Y-71755000D03*
X152400000Y-69215000D03*
X152400000Y-66675000D03*
X152400000Y-64135000D03*
X152400000Y-61595000D03*
X152400000Y-59055000D03*
X152400000Y-56515000D03*
X152400000Y-53975000D03*
X152400000Y-51435000D03*
X152400000Y-48895000D03*
%TD*%
D12*
%TO.C,H4*%
X171035000Y-123210000D03*
%TD*%
D10*
%TO.C,RN3*%
X163830000Y-110490000D03*
D11*
X161290000Y-110490000D03*
X158750000Y-110490000D03*
X156210000Y-110490000D03*
X153670000Y-110490000D03*
X151130000Y-110490000D03*
X148590000Y-110490000D03*
X146050000Y-110490000D03*
X143510000Y-110490000D03*
%TD*%
D12*
%TO.C,H3*%
X55035000Y-123210000D03*
%TD*%
D10*
%TO.C,RN1*%
X60960000Y-70485000D03*
D11*
X60960000Y-67945000D03*
X60960000Y-65405000D03*
X60960000Y-62865000D03*
X60960000Y-60325000D03*
X60960000Y-57785000D03*
X60960000Y-55245000D03*
X60960000Y-52705000D03*
X60960000Y-50165000D03*
%TD*%
D10*
%TO.C,U2*%
X76210000Y-48895000D03*
D11*
X76210000Y-51435000D03*
X76210000Y-53975000D03*
X76210000Y-56515000D03*
X76210000Y-59055000D03*
X76210000Y-61595000D03*
X76210000Y-64135000D03*
X76210000Y-66675000D03*
X76210000Y-69215000D03*
X76210000Y-71755000D03*
X83830000Y-71755000D03*
X83830000Y-69215000D03*
X83830000Y-66675000D03*
X83830000Y-64135000D03*
X83830000Y-61595000D03*
X83830000Y-59055000D03*
X83830000Y-56515000D03*
X83830000Y-53975000D03*
X83830000Y-51435000D03*
X83830000Y-48895000D03*
%TD*%
D10*
%TO.C,U9*%
X156210000Y-53975000D03*
D11*
X156210000Y-56515000D03*
X156210000Y-59055000D03*
X156210000Y-61595000D03*
X156210000Y-64135000D03*
X156210000Y-66675000D03*
X156210000Y-69215000D03*
X156210000Y-71755000D03*
X163830000Y-71755000D03*
X163830000Y-69215000D03*
X163830000Y-66675000D03*
X163830000Y-64135000D03*
X163830000Y-61595000D03*
X163830000Y-59055000D03*
X163830000Y-56515000D03*
X163830000Y-53975000D03*
%TD*%
D10*
%TO.C,U10*%
X125730000Y-78740000D03*
D11*
X125730000Y-81280000D03*
X125730000Y-83820000D03*
X125730000Y-86360000D03*
X125730000Y-88900000D03*
X125730000Y-91440000D03*
X125730000Y-93980000D03*
X125730000Y-96520000D03*
X125730000Y-99060000D03*
X125730000Y-101600000D03*
X125730000Y-104140000D03*
X125730000Y-106680000D03*
X140970000Y-106680000D03*
X140970000Y-104140000D03*
X140970000Y-101600000D03*
X140970000Y-99060000D03*
X140970000Y-96520000D03*
X140970000Y-93980000D03*
X140970000Y-91440000D03*
X140970000Y-88900000D03*
X140970000Y-86360000D03*
X140970000Y-83820000D03*
X140970000Y-81280000D03*
X140970000Y-78740000D03*
%TD*%
D12*
%TO.C,H2*%
X171035000Y-48210000D03*
%TD*%
M02*
